<mxfile host="app.diagrams.net" agent="Mozilla/5.0 (Macintosh; Intel Mac OS X 10_15_7) AppleWebKit/605.1.15 (KHTML, like Gecko) Version/18.3.1 Safari/605.1.15" version="26.1.1">
  <diagram name="Page-1" id="XeE7bYIE3jHJqnr0lXMV">
    <mxGraphModel dx="1811" dy="667" grid="1" gridSize="10" guides="1" tooltips="1" connect="1" arrows="1" fold="1" page="1" pageScale="1" pageWidth="827" pageHeight="1169" math="0" shadow="0">
      <root>
        <mxCell id="0" />
        <mxCell id="1" parent="0" />
        <mxCell id="Jq-mPfwN_62_-WVwa9c7-40" style="edgeStyle=orthogonalEdgeStyle;rounded=0;orthogonalLoop=1;jettySize=auto;html=1;" edge="1" parent="1" source="Jq-mPfwN_62_-WVwa9c7-36">
          <mxGeometry relative="1" as="geometry">
            <mxPoint x="690.2350000000001" y="450" as="targetPoint" />
          </mxGeometry>
        </mxCell>
        <mxCell id="Jq-mPfwN_62_-WVwa9c7-42" value="Ingest Application Log" style="edgeLabel;html=1;align=center;verticalAlign=middle;resizable=0;points=[];" vertex="1" connectable="0" parent="Jq-mPfwN_62_-WVwa9c7-40">
          <mxGeometry x="-0.2036" y="1" relative="1" as="geometry">
            <mxPoint as="offset" />
          </mxGeometry>
        </mxCell>
        <mxCell id="Jq-mPfwN_62_-WVwa9c7-36" value="Application Server" style="rounded=1;whiteSpace=wrap;html=1;verticalAlign=top;shadow=0;" vertex="1" parent="1">
          <mxGeometry x="594" y="120" width="192.47" height="240" as="geometry" />
        </mxCell>
        <mxCell id="Jq-mPfwN_62_-WVwa9c7-1" value="Developer" style="sketch=0;aspect=fixed;pointerEvents=1;shadow=0;dashed=0;html=1;strokeColor=none;labelPosition=center;verticalLabelPosition=bottom;verticalAlign=top;align=center;fillColor=#6E6E6E;shape=mxgraph.azure.computer" vertex="1" parent="1">
          <mxGeometry x="-160" y="310" width="50" height="45" as="geometry" />
        </mxCell>
        <mxCell id="Jq-mPfwN_62_-WVwa9c7-17" value="3. Scan&lt;div&gt;(when push / merge request / Manual)&lt;/div&gt;" style="edgeStyle=orthogonalEdgeStyle;rounded=0;orthogonalLoop=1;jettySize=auto;html=1;entryX=0.5;entryY=0;entryDx=0;entryDy=0;" edge="1" parent="1" source="Jq-mPfwN_62_-WVwa9c7-2" target="Jq-mPfwN_62_-WVwa9c7-8">
          <mxGeometry x="0.0043" relative="1" as="geometry">
            <mxPoint as="offset" />
          </mxGeometry>
        </mxCell>
        <mxCell id="Jq-mPfwN_62_-WVwa9c7-2" value="Gitlab (Alpha)" style="shape=image;html=1;verticalAlign=top;verticalLabelPosition=bottom;labelBackgroundColor=#ffffff;imageAspect=0;aspect=fixed;image=https://cdn4.iconfinder.com/data/icons/socialcones/508/Gitlab-128.png" vertex="1" parent="1">
          <mxGeometry x="296" y="207.19" width="65.62" height="65.62" as="geometry" />
        </mxCell>
        <mxCell id="Jq-mPfwN_62_-WVwa9c7-18" style="edgeStyle=orthogonalEdgeStyle;rounded=0;orthogonalLoop=1;jettySize=auto;html=1;entryX=1;entryY=0.5;entryDx=0;entryDy=0;exitX=0.5;exitY=1;exitDx=0;exitDy=0;" edge="1" parent="1" source="Jq-mPfwN_62_-WVwa9c7-4" target="Jq-mPfwN_62_-WVwa9c7-8">
          <mxGeometry relative="1" as="geometry" />
        </mxCell>
        <mxCell id="Jq-mPfwN_62_-WVwa9c7-19" value="5.Scan&lt;div&gt;(when deploy to alpha / beta)&lt;/div&gt;" style="edgeLabel;html=1;align=center;verticalAlign=middle;resizable=0;points=[];" vertex="1" connectable="0" parent="Jq-mPfwN_62_-WVwa9c7-18">
          <mxGeometry x="-0.2494" y="4" relative="1" as="geometry">
            <mxPoint as="offset" />
          </mxGeometry>
        </mxCell>
        <mxCell id="Jq-mPfwN_62_-WVwa9c7-20" style="edgeStyle=orthogonalEdgeStyle;rounded=0;orthogonalLoop=1;jettySize=auto;html=1;entryX=1;entryY=0.5;entryDx=0;entryDy=0;" edge="1" parent="1" source="Jq-mPfwN_62_-WVwa9c7-4" target="Jq-mPfwN_62_-WVwa9c7-2">
          <mxGeometry relative="1" as="geometry" />
        </mxCell>
        <mxCell id="Jq-mPfwN_62_-WVwa9c7-21" value="4.Pull code" style="edgeLabel;html=1;align=center;verticalAlign=middle;resizable=0;points=[];" vertex="1" connectable="0" parent="Jq-mPfwN_62_-WVwa9c7-20">
          <mxGeometry x="-0.0756" y="-2" relative="1" as="geometry">
            <mxPoint x="2" y="-10" as="offset" />
          </mxGeometry>
        </mxCell>
        <mxCell id="Jq-mPfwN_62_-WVwa9c7-30" value="6. Deploy" style="edgeStyle=orthogonalEdgeStyle;rounded=0;orthogonalLoop=1;jettySize=auto;html=1;entryX=0;entryY=0.5;entryDx=0;entryDy=0;" edge="1" parent="1" source="Jq-mPfwN_62_-WVwa9c7-4" target="Jq-mPfwN_62_-WVwa9c7-36">
          <mxGeometry x="-0.3885" y="10" relative="1" as="geometry">
            <mxPoint as="offset" />
          </mxGeometry>
        </mxCell>
        <mxCell id="Jq-mPfwN_62_-WVwa9c7-4" value="Release Automation" style="shape=image;verticalLabelPosition=bottom;labelBackgroundColor=default;verticalAlign=top;aspect=fixed;imageAspect=0;image=https://cdn-icons-png.flaticon.com/512/3480/3480948.png;" vertex="1" parent="1">
          <mxGeometry x="450" y="199.69" width="80.62" height="80.62" as="geometry" />
        </mxCell>
        <mxCell id="Jq-mPfwN_62_-WVwa9c7-5" value="" style="shape=mxgraph.cisco.people.androgenous_person;html=1;pointerEvents=1;dashed=0;fillColor=#808080;strokeColor=#ffffff;strokeWidth=2;verticalLabelPosition=bottom;verticalAlign=top;align=center;outlineConnect=0;" vertex="1" parent="1">
          <mxGeometry x="-160" y="125.19" width="69" height="82" as="geometry" />
        </mxCell>
        <mxCell id="Jq-mPfwN_62_-WVwa9c7-8" value="" style="shape=image;verticalLabelPosition=bottom;labelBackgroundColor=default;verticalAlign=top;aspect=fixed;imageAspect=0;editableCssRules=.*;image=data:image/svg+xml,PHN2ZyB4bWxucz0iaHR0cDovL3d3dy53My5vcmcvMjAwMC9zdmciIGZpbGw9Im5vbmUiIHZpZXdCb3g9IjAuNDQzODQ3OTg0MDc1NTQ2MjYgMC41NTUxNzYwMTk2Njg1NzkxIDE1MS44OTUxNTY4NjAzNTE1NiAzNC45OTk2MjYxNTk2Njc5NyIgaGVpZ2h0PSIzNC45OTk2MjYxNTk2Njc5NyIgd2lkdGg9IjE1MS44OTUxNTY4NjAzNTE1NiI+JiN4YTs8ZyBjbGlwLXBhdGg9InVybCgjY2xpcDBfMTU2NF8xODApIj4mI3hhOzxwYXRoIGZpbGw9IiMyOTAwNDIiIGQ9Ik00NC4yMDE0IDE4LjI0MzhDNDMuNDYyMiAxNy45MTk1IDQyLjg4MTMgMTcuNDU5MyA0Mi40NTg5IDE2Ljg3MUM0Mi4wODkzIDE2LjM0MyA0MS44NzgxIDE1Ljc0NzEgNDEuODMyOSAxNS4wNjA2QzQxLjgyNTMgMTQuOTE3MyA0MS45NDYgMTQuNzg5MSA0Mi4wOTY5IDE0Ljc4OTFINDMuMDY5OUM0My42NDMyIDE0Ljc4OTEgNDQuMjA4OSAxNS4wODMzIDQ0LjQ1NzkgMTUuNjAzN0M0NC41Nzg1IDE1Ljg0NTEgNDQuNzM3IDE2LjA2MzkgNDQuOTQ4MiAxNi4yNkM0NS4zNjMgMTYuNjQ0NyA0NS45NDM4IDE2LjgzMzMgNDYuNjk4MiAxNi44MzMzQzQ3LjQ1MjUgMTYuODMzMyA0OC4wODYxIDE2LjY0NDcgNDguNTE2IDE2LjI2NzVDNDguOTUzNSAxNS44OTA0IDQ5LjE3MjMgMTUuNDA3NiA0OS4xNzIzIDE0LjgxMTdDNDkuMTcyMyAxNC4zNTE2IDQ5LjAzNjUgMTMuOTc0NCA0OC43NjUgMTMuNjgwMkM0OC40OTM0IDEzLjM5MzYgNDguMTYxNSAxMy4xNjczIDQ3Ljc1NDIgMTMuMDA4OUM0Ny4zNTQ0IDEyLjg1MDUgNDYuNzk2MiAxMi42NzcgNDYuMDc5NiAxMi40OTZDNDUuMTgyIDEyLjI1NDYgNDQuNDUwMyAxMi4wMjA4IDQzLjg5MjEgMTEuNzcxOEM0My4zMzM5IDExLjUzMDUgNDIuODUxMiAxMS4xNDU4IDQyLjQ1ODkgMTAuNjMyOEM0Mi4wNTkxIDEwLjExOTkgNDEuODYzIDkuNDMzNDggNDEuODYzIDguNTczNTZDNDEuODYzIDcuNzgxNTQgNDIuMDU5MSA3LjA4NzU3IDQyLjQ1ODkgNi40OTkyMUM0Mi44NTg3IDUuOTAzMyA0My40MDk0IDUuNDUwNzIgNDQuMTE4NCA1LjEzMzkxQzQ0LjgyNzUgNC44MTcxIDQ1LjY1NzIgNC42NTg2OSA0Ni41OTI2IDQuNjU4NjlDNDcuOTI3NyA0LjY1ODY5IDQ5LjAxMzkgNC45OTA1OSA0OS44NjYzIDUuNjYxOTJDNTAuNjQzMiA2LjI3MjkyIDUxLjEwMzMgNy4wODc1NyA1MS4yNDY2IDguMTEzNDNDNTEuMjY5MyA4LjI2NDMgNTEuMTQxIDguNDAwMDcgNTAuOTkwMiA4LjQwMDA3SDQ5LjAwNjNDNDguODc4MSA4LjQwMDA3IDQ4Ljc4MDEgOC4zMDIwMSA0OC43NDk5IDguMTgxMzJDNDguNjY2OSA3Ljc3Mzk5IDQ4LjQ0MDYgNy40MTk0NyA0OC4wNzEgNy4xMTc3NEM0Ny42MzM1IDYuNzYzMjIgNDcuMDYwMiA2LjU4MjE4IDQ2LjM1MTIgNi41ODIxOEM0NS43MDI1IDYuNTgyMTggNDUuMTc0NCA2Ljc0ODEzIDQ0Ljc2NzEgNy4wODAwM0M0NC4zNTk4IDcuNDExOTIgNDQuMTU2MSA3Ljg4NzE0IDQ0LjE1NjEgOC41MDU2N0M0NC4xNTYxIDguOTI4MDkgNDQuMjg0NCA5LjI3NTA3IDQ0LjU0MDggOS41NDY2MkM0NC43OTczIDkuODE4MTcgNDUuMTIxNiAxMC4wMjk0IDQ1LjUyMTQgMTAuMTg3OEM0NS45MTM3IDEwLjM0NjIgNDYuNDU2OCAxMC41MTk3IDQ3LjE0MzIgMTAuNzAwN0M0OC4wNTU5IDEwLjk0OTYgNDguNzk1MSAxMS4xOTg2IDQ5LjM2ODQgMTEuNDU1QzQ5Ljk0MTcgMTEuNzExNSA1MC40MzIgMTIuMDg4NiA1MC44MzE4IDEyLjYwOTFDNTEuMjMxNiAxMy4xMjk2IDUxLjQzNTIgMTMuODIzNiA1MS40MzUyIDE0LjY5ODZDNTEuNDM1MiAxNS40MDAxIDUxLjI0NjYgMTYuMDU2MyA1MC44Njk1IDE2LjY3NDlDNTAuNDkyMyAxNy4yOTM0IDQ5Ljk0OTIgMTcuNzkxMiA0OS4yMjUxIDE4LjE2ODRDNDguNTA4NSAxOC41NDU1IDQ3LjY1NjEgMTguNzM0MSA0Ni42ODMxIDE4LjczNDFDNDUuNzYyOCAxOC43MzQxIDQ0LjkyNTUgMTguNTc1NyA0NC4xOTM4IDE4LjI1MTRMNDQuMjAxNCAxOC4yNDM4WiIvPiYjeGE7PHBhdGggZmlsbD0iIzI5MDA0MiIgZD0iTTU1Ljc5NSAxOC4wNzA0QzU0Ljk2NTMgMTcuNjAyNyA1NC4zMDkgMTYuOTM4OSA1My44MzM4IDE2LjA5NDFDNTMuMzU4NiAxNS4yNDE3IDUzLjEyNDggMTQuMjUzNiA1My4xMjQ4IDEzLjEzNzJDNTMuMTI0OCAxMi4wMjA4IDUzLjM2NjEgMTEuMDQ3OCA1My44NTY0IDEwLjE4NzhDNTQuMzQ2NyA5LjMyNzkyIDU1LjAxMDUgOC42NzE2NyA1NS44NTU0IDguMjExNTRDNTYuNzAwMiA3Ljc1MTQxIDU3LjY0MzEgNy41MTc1OCA1OC42ODQgNy41MTc1OEM1OS43MjUgNy41MTc1OCA2MC42Njc5IDcuNzUxNDEgNjEuNTEyNyA4LjIxMTU0QzYyLjM1NzUgOC42NzE2NyA2My4wMjEzIDkuMzM1NDcgNjMuNTExNiAxMC4xODc4QzY0LjAwMTkgMTEuMDQ3OCA2NC4yNDMzIDEyLjAyODQgNjQuMjQzMyAxMy4xMzcyQzY0LjI0MzMgMTQuMjQ2IDYzLjk5NDQgMTUuMjI2NiA2My40ODkgMTYuMDg2NUM2Mi45OTExIDE2Ljk0NjUgNjIuMzA0NyAxNy42MTAyIDYxLjQzNzMgMTguMDc3OUM2MC41Njk4IDE4LjU0NTYgNTkuNjE5NCAxOC43Nzk0IDU4LjU3ODQgMTguNzc5NEM1Ny41Mzc1IDE4Ljc3OTQgNTYuNjE3MiAxOC41NDU2IDU1Ljc4NzUgMTguMDc3OUw1NS43OTUgMTguMDcwNFpNNjAuMjE1MyAxNi4zOTU4QzYwLjcyMDcgMTYuMTE2NyA2MS4xMzU1IDE1LjcwMTggNjEuNDUyMyAxNS4xNTEyQzYxLjc2OTIgMTQuNjAwNiA2MS45Mjc2IDEzLjkyMTcgNjEuOTI3NiAxMy4xMjk2QzYxLjkyNzYgMTIuMzM3NiA2MS43NzY3IDExLjY2NjMgNjEuNDc1IDExLjEyMzJDNjEuMTczMyAxMC41NzI1IDYwLjc2NTkgMTAuMTY1MiA2MC4yNjgxIDkuODg2MTFDNTkuNzcwMiA5LjYwNzAyIDU5LjIyNzEgOS40NzEyNCA1OC42NDYzIDkuNDcxMjRDNTguMDY1NSA5LjQ3MTI0IDU3LjUyOTkgOS42MDcwMiA1Ny4wMzIxIDkuODg2MTFDNTYuNTM0MiAxMC4xNjUyIDU2LjE0MiAxMC41NzI1IDU1Ljg1NTQgMTEuMTIzMkM1NS41NjEyIDExLjY3MzggNTUuNDE3OSAxMi4zMzc2IDU1LjQxNzkgMTMuMTI5NkM1NS40MTc5IDE0LjMwNjQgNTUuNzE5NiAxNS4yMTE1IDU2LjMxNTUgMTUuODUyN0M1Ni45MTg5IDE2LjQ5MzkgNTcuNjczMiAxNi44MTA3IDU4LjU3ODQgMTYuODEwN0M1OS4xNTkyIDE2LjgxMDcgNTkuNzAyMyAxNi42NzQ5IDYwLjIwNzcgMTYuMzk1OEg2MC4yMTUzWiIvPiYjeGE7PHBhdGggZmlsbD0iIzI5MDA0MiIgZD0iTTc4LjgyNDIgMTAuMThDNzkuMjc2OCA5LjMzNTIgNzkuOTAyOSA4LjY3ODk1IDgwLjY4NzMgOC4yMTEyN0M4MS40NzE4IDcuNzQzNiA4Mi4zMzkzIDcuNTA5NzcgODMuMjg5NyA3LjUwOTc3Qzg0LjE0OTYgNy41MDk3NyA4NC44OTY0IDcuNjc1NzEgODUuNTM3NiA4LjAxNTE1Qzg2LjE3ODcgOC4zNTQ1OSA4Ni42OTE2IDguNzY5NDYgODcuMDY4OCA5LjI3NDg1VjkuMjM3MTRDODcuMDY4OCA4LjM4NDc3IDg3Ljc2MjggNy42OTA4IDg4LjYxNTEgNy42OTA4SDg5LjA5MDRDODkuMjMzNyA3LjY5MDggODkuMzQ2OCA3LjgwMzk1IDg5LjM0NjggNy45NDcyN1YxOC4zMzQxQzg5LjM0NjggMTguNDc3NCA4OS4yMzM3IDE4LjU5MDYgODkuMDkwNCAxOC41OTA2SDg3LjMzMjhDODcuMTg5NSAxOC41OTA2IDg3LjA3NjMgMTguNDc3NCA4Ny4wNzYzIDE4LjMzNDFWMTYuOTY4OEM4Ni42OTE3IDE3LjQ4MTcgODYuMTcxMiAxNy45MTE3IDg1LjUxNDkgMTguMjU4N0M4NC44NTExIDE4LjU5ODEgODQuMTA0NCAxOC43NzE2IDgzLjI1OTUgMTguNzcxNkM4Mi4zMjQyIDE4Ljc3MTYgODEuNDY0MyAxOC41MzAyIDgwLjY4NzMgMTguMDQ3NUM3OS45MTA0IDE3LjU2NDcgNzkuMjkxOSAxNi44OTM0IDc4LjgzOTMgMTYuMDI1OUM3OC4zODY3IDE1LjE1ODUgNzguMTYwNCAxNC4xODU0IDc4LjE2MDQgMTMuMDg0MUM3OC4xNjA0IDExLjk4MjggNzguMzg2NyAxMS4wMTczIDc4LjgzOTMgMTAuMTcyNUw3OC44MjQyIDEwLjE4Wk04Ni42MDExIDExLjE2ODJDODYuMjkxOSAxMC42MTc1IDg1Ljg4NDUgMTAuMTk1MSA4NS4zODY3IDkuOTAwOTNDODQuODg4OSA5LjYxNDI5IDg0LjM0NTcgOS40NjM0MyA4My43NjQ5IDkuNDYzNDNDODMuMTg0MSA5LjQ2MzQzIDgyLjY0MSA5LjYwNjc1IDgyLjE0MzIgOS44ODU4NEM4MS42NDUzIDEwLjE3MjUgODEuMjM4IDEwLjU4NzQgODAuOTI4NyAxMS4xMzA1QzgwLjYxOTUgMTEuNjgxMSA4MC40NjEgMTIuMzI5OCA4MC40NjEgMTMuMDc2NkM4MC40NjEgMTMuODIzMyA4MC42MTk1IDE0LjQ4NzEgODAuOTI4NyAxNS4wNTI5QzgxLjIzOCAxNS42MTg2IDgxLjY0NTMgMTYuMDU2MSA4Mi4xNTgyIDE2LjM1MDNDODIuNjYzNiAxNi42NDQ1IDgzLjIwNjcgMTYuNzk1MyA4My43NzI1IDE2Ljc5NTNDODQuMzM4MiAxNi43OTUzIDg0Ljg5NjQgMTYuNjUyIDg1LjM5NDIgMTYuMzU3OEM4NS44OTIxIDE2LjA3MTIgODYuMjk5NCAxNS42NDEyIDg2LjYwODcgMTUuMDgzQzg2LjkxNzkgMTQuNTI0OSA4Ny4wNzYzIDEzLjg2ODYgODcuMDc2MyAxMy4xMTQzQzg3LjA3NjMgMTIuMzYgODYuOTE3OSAxMS43MTEzIDg2LjYwODcgMTEuMTUzMUw4Ni42MDExIDExLjE2ODJaIi8+JiN4YTs8cGF0aCBmaWxsPSIjMjkwMDQyIiBkPSJNOTYuMDMwMSA3Ljk3NzcxQzk2LjUxMjggNy43MDYxNiA5Ny4wNzEgNy41NTUyOSA5Ny43MTIyIDcuNTE3NThDOTcuODU1NSA3LjUxNzU4IDk3Ljk4MzcgNy42MzA3MiA5Ny45ODM3IDcuNzc0MDRWOS44NDA4NUg5Ny40MTA1Qzk2LjUyNzkgOS44NDA4NSA5NS44NTY2IDEwLjA2NzEgOTUuNDA0IDEwLjUxMjJDOTQuOTUxNCAxMC45NTcyIDk0LjcyNTEgMTEuNzQxNyA5NC43MjUxIDEyLjg1MDZWMTguMzM0NEM5NC43MjUxIDE4LjQ3NzcgOTQuNjEyIDE4LjU5MDkgOTQuNDY4NyAxOC41OTA5SDkyLjcyNjJDOTIuNTgyOSAxOC41OTA5IDkyLjQ2OTcgMTguNDc3NyA5Mi40Njk3IDE4LjMzNDRWNy45NDc1NEM5Mi40Njk3IDcuODA0MjIgOTIuNTgyOSA3LjY5MTA3IDkyLjcyNjIgNy42OTEwN0g5My4xNzg4Qzk0LjAzMTIgNy42OTEwNyA5NC43MjUxIDguMzg1MDQgOTQuNzI1MSA5LjIzNzQxVjkuMjc1MTJDOTUuMDU3IDguNzI0NDggOTUuNDk0NSA4LjI4Njk4IDk2LjAzNzYgNy45Nzc3MUg5Ni4wMzAxWiIvPiYjeGE7PHBhdGggZmlsbD0iIzI5MDA0MiIgZD0iTTc1LjU2NTcgOS42MjkzOEM3NS4xODEgOC45Mjc4NyA3NC42NTMgOC4zOTk4NSA3My45NzQxIDguMDQ1MzNDNzMuMjk1MiA3LjY5MDggNzIuNTI1OCA3LjUwOTc3IDcxLjY2NTkgNy41MDk3N0M3MS41OTA1IDcuNTA5NzcgNzEuNTE1MSA3LjUwOTc3IDcxLjQzOTYgNy41MTczMUM3MS40MzIxIDcuNTE3MzEgNzEuNDI0NSA3LjUxNzMxIDcxLjQxNyA3LjUxNzMxQzcxLjM3OTMgNy41MTczMSA3MS4zNDkxIDcuNTI0ODUgNzEuMzExNCA3LjUyNDg1QzcxLjIyMDkgNy41MjQ4NSA3MS4xMzc5IDcuNTM5OTQgNzEuMDU0OSA3LjU0NzQ4QzcwLjk5NDYgNy41NTUwMiA3MC45MjY3IDcuNTYyNTcgNzAuODY2MyA3LjU3NzY1QzcwLjc2MDcgNy42MDAyOCA3MC42NTUxIDcuNjE1MzcgNzAuNTQ5NSA3LjY0NTU0QzcwLjUzNDUgNy42NDU1NCA3MC41MTE4IDcuNjUzMDggNzAuNDk2NyA3LjY2MDYzQzcwLjIyNTIgNy43MzYwNiA2OS45Njg3IDcuODQxNjYgNjkuNzM0OSA3Ljk2OTg5QzY5LjE4NDIgOC4yNzkxNiA2OC43NDY3IDguNzA5MTIgNjguNDIyNCA5LjI2NzMxVjkuMjI5NTlDNjguNDIyNCA4LjM3NzIyIDY3LjcyODQgNy42ODMyNiA2Ni44NzYgNy42ODMyNkg2Ni40MjM1QzY2LjI4MDEgNy42ODMyNiA2Ni4xNjcgNy43OTY0IDY2LjE2NyA3LjkzOTcyVjE4LjMyNjZDNjYuMTY3IDE4LjQ2OTkgNjYuMjgwMSAxOC41ODMgNjYuNDIzNSAxOC41ODNINjguMTY1OUM2OC4zMDkyIDE4LjU4MyA2OC40MjI0IDE4LjQ2OTkgNjguNDIyNCAxOC4zMjY2VjEyLjg0MjdDNjguNDIyNCAxMi44NDI3IDY4LjQyMjQgMTIuODIwMSA2OC40MjI0IDEyLjgxMjZWMTIuNDg4MkM2OC40MjI0IDExLjUxNTIgNjguNjcxMyAxMC43NjA4IDY5LjE2MTYgMTAuMjQwNEM2OS42NTk1IDkuNzE5ODkgNzAuMzIzMiA5LjQ1NTg5IDcxLjE2ODEgOS40NTU4OUM3Mi4wMTI5IDkuNDU1ODkgNzIuNjc2NyA5LjcxOTg5IDczLjE2NyAxMC4yNDA0QzczLjY1NzMgMTAuNzYwOCA3My44OTg3IDExLjUwNzYgNzMuODk4NyAxMi40ODgyVjE4LjMyNjZDNzMuODk4NyAxOC40Njk5IDc0LjAxMTggMTguNTgzIDc0LjE1NTEgMTguNTgzSDc1Ljg3NUM3Ni4wMTgzIDE4LjU4MyA3Ni4xMzE0IDE4LjQ2OTkgNzYuMTMxNCAxOC4zMjY2VjEyLjE0ODhDNzYuMTMxNCAxMS4xNjA2IDc1Ljk0MjkgMTAuMzE1OCA3NS41NTgyIDkuNjE0MjlMNzUuNTY1NyA5LjYyOTM4WiIvPiYjeGE7PHBhdGggZmlsbD0iIzEyNkVEMyIgZD0iTTExMS4xOTIgMjAuOTA2OEwxMDguOTQ0IDE4LjQ3MDRDMTA4LjM0OCAxOC42NDM5IDEwNy42OTkgMTguNzI2OCAxMDYuOTgzIDE4LjcyNjhDMTA1LjcgMTguNzI2OCAxMDQuNTI0IDE4LjQyNTEgMTAzLjQ1MiAxNy44MjkyQzEwMi4zNzQgMTcuMjI1OCAxMDEuNTI5IDE2LjM4ODUgMTAwLjkwMyAxNS4zMTc0QzEwMC4yNzcgMTQuMjM4NyA5OS45NiAxMy4wMzE4IDk5Ljk2IDExLjY4OTFDOTkuOTYgMTAuMzQ2NSAxMDAuMjc3IDkuMTM5NTYgMTAwLjkwMyA4LjA2ODQ0QzEwMS41MjkgNi45OTczMiAxMDIuMzgxIDYuMTY3NTggMTAzLjQ1MiA1LjU2NDEzQzEwNC41MzEgNC45NjA2OCAxMDUuNzA4IDQuNjY2NSAxMDYuOTgzIDQuNjY2NUMxMDguMjU3IDQuNjY2NSAxMDkuNDU3IDQuOTY4MjMgMTEwLjUzNSA1LjU2NDEzQzExMS42MTQgNi4xNjc1OCAxMTIuNDU5IDYuOTk3MzIgMTEzLjA3NyA4LjA2ODQ0QzExMy42OTYgOS4xMzk1NiAxMTQuMDA1IDEwLjM0NjUgMTE0LjAwNSAxMS42ODkxQzExNC4wMDUgMTIuOTU2NCAxMTMuNzM0IDE0LjEwMjkgMTEzLjE4MyAxNS4xMjEyQzExMi42MzIgMTYuMTQ3MSAxMTEuODc4IDE2Ljk2MTggMTEwLjkyIDE3LjU4NzhMMTExLjg0IDE4LjU5ODZDMTEyLjQ0NCAxOS4yNTQ5IDExMi4zNjEgMjAuMjg4MyAxMTEuNjY3IDIwLjg0NjVMMTExLjU0NiAyMC45NDQ1QzExMS40NDEgMjEuMDI3NSAxMTEuMjkgMjEuMDIgMTExLjE5OSAyMC45MjE5TDExMS4xOTIgMjAuOTA2OFpNMTAyLjg3MiAxNC4zNjY5QzEwMy4yNzEgMTUuMTM2MyAxMDMuODMgMTUuNzMyMiAxMDQuNTQ2IDE2LjE0NzFDMTA1LjI1NSAxNi41NjIgMTA2LjA3IDE2Ljc3MzIgMTA2Ljk4MyAxNi43NzMyQzEwNy44OTUgMTYuNzczMiAxMDguNzAyIDE2LjU2MiAxMDkuNDE5IDE2LjE0NzFDMTEwLjEzNiAxNS43MzIyIDExMC42ODYgMTUuMTM2MyAxMTEuMDk0IDE0LjM2NjlDMTExLjQ5MyAxMy41OTc1IDExMS42OTcgMTIuNjk5OSAxMTEuNjk3IDExLjY4OTFDMTExLjY5NyAxMC42Nzg0IDExMS40OTMgOS43ODA3MyAxMTEuMDk0IDkuMDE4ODhDMTEwLjY5NCA4LjI1NzAyIDExMC4xMzYgNy42Njg2NiAxMDkuNDE5IDcuMjUzNzlDMTA4LjcxIDYuODQ2NDYgMTA3Ljg5NSA2LjY0MjggMTA2Ljk4MyA2LjY0MjhDMTA2LjA3IDYuNjQyOCAxMDUuMjYzIDYuODQ2NDYgMTA0LjU0NiA3LjI1Mzc5QzEwMy44MzcgNy42NjExMiAxMDMuMjc5IDguMjQ5NDggMTAyLjg3MiA5LjAxODg4QzEwMi40NjQgOS43ODgyNyAxMDIuMjY4IDEwLjY3MDggMTAyLjI2OCAxMS42ODkxQzEwMi4yNjggMTIuNzA3NSAxMDIuNDcyIDEzLjU5NzUgMTAyLjg3MiAxNC4zNjY5WiIvPiYjeGE7PHBhdGggZmlsbD0iIzEyNkVEMyIgZD0iTTEyNi4yNDggOS4yMjk0NFYxOC4zMzRDMTI2LjI0OCAxOC40NzczIDEyNi4xMzQgMTguNTkwNCAxMjUuOTkxIDE4LjU5MDRIMTI0LjI0OUMxMjQuMTA1IDE4LjU5MDQgMTIzLjk5MiAxOC40NzczIDEyMy45OTIgMTguMzM0VjE3LjMwODFDMTIzLjYzOCAxNy43NTMxIDEyMy4xNyAxOC4xMDc3IDEyMi41OTcgMTguMzY0MUMxMjIuMDIzIDE4LjYyMDYgMTIxLjQxMiAxOC43NDg4IDEyMC43NjQgMTguNzQ4OEMxMTkuOTA0IDE4Ljc0ODggMTE5LjE0MiAxOC41Njc4IDExOC40NTYgMTguMjEzM0MxMTcuNzc3IDE3Ljg1ODggMTE3LjI0MSAxNy4zMzA3IDExNi44NDkgMTYuNjI5MkMxMTYuNDU3IDE1LjkyNzcgMTE2LjI2OCAxNS4wODI5IDExNi4yNjggMTQuMDk0N1Y3LjkzOTU3QzExNi4yNjggNy43OTYyNSAxMTYuMzgxIDcuNjgzMTEgMTE2LjUyNSA3LjY4MzExSDExNi45NjJDMTE3LjgxNCA3LjY4MzExIDExOC41MDggOC4zNzcwNyAxMTguNTA4IDkuMjI5NDRWMTMuNzYyOEMxMTguNTA4IDE0LjczNTkgMTE4Ljc1IDE1LjQ5MDIgMTE5LjI0IDE2LjAxMDdDMTE5LjczIDE2LjUzMTIgMTIwLjM5NCAxNi43OTUyIDEyMS4yMzkgMTYuNzk1MkMxMjIuMDg0IDE2Ljc5NTIgMTIyLjc1NSAxNi41MzEyIDEyMy4yNDUgMTYuMDEwN0MxMjMuNzQzIDE1LjQ5MDIgMTIzLjk4NSAxNC43NDM0IDEyMy45ODUgMTMuNzYyOFY3Ljk0NzExQzEyMy45ODUgNy44MDM4IDEyNC4wOTggNy42OTA2NSAxMjQuMjQxIDcuNjkwNjVIMTI0LjY5NEMxMjUuNTQ2IDcuNjkwNjUgMTI2LjI0IDguMzg0NjEgMTI2LjI0IDkuMjM2OThMMTI2LjI0OCA5LjIyOTQ0WiIvPiYjeGE7PHBhdGggZmlsbD0iIzEyNkVEMyIgZD0iTTEzMi42MTQgOC4wMTU0NEMxMzMuMjc4IDcuNjc2IDEzNC4wMjUgNy41MTAwNSAxMzQuODM5IDcuNTEwMDVDMTM1LjgwNSA3LjUxMDA1IDEzNi42NzIgNy43NDM4OSAxMzcuNDQ5IDguMjA0MDJDMTM4LjIyNiA4LjY2NDE1IDEzOC44NDUgOS4zMjA0IDEzOS4yOSAxMC4xNzI4QzEzOS43MzUgMTEuMDI1MSAxMzkuOTYxIDExLjk5ODIgMTM5Ljk2MSAxMy4wOTE5QzEzOS45NjEgMTQuMTg1NyAxMzkuNzM1IDE1LjE2NjMgMTM5LjI5IDE2LjAzMzhDMTM4Ljg0NSAxNi45MDEyIDEzOC4yMjYgMTcuNTcyNiAxMzcuNDQyIDE4LjA1NTNDMTM2LjY1NyAxOC41MzgxIDEzNS43OSAxOC43Nzk0IDEzNC44MzkgMTguNzc5NEMxMzMuOTk1IDE4Ljc3OTQgMTMzLjI0OCAxOC42MTM1IDEzMi41OTEgMTguMjgxNkMxMzEuOTM1IDE3Ljk0OTcgMTMxLjQyMiAxNy41MjczIDEzMS4wMzggMTcuMDE0NFYxOC4zNDE5QzEzMS4wMzggMTguNDg1MyAxMzAuOTI0IDE4LjU5ODQgMTMwLjc4MSAxOC41OTg0SDEyOS4wMzlDMTI4Ljg5NSAxOC41OTg0IDEyOC43ODIgMTguNDg1MyAxMjguNzgyIDE4LjM0MTlWNC4yMDYxN0MxMjguNzgyIDQuMDYyODUgMTI4Ljg5NSAzLjk0OTcxIDEyOS4wMzkgMy45NDk3MUgxMjkuNDkxQzEzMC4zNDQgMy45NDk3MSAxMzEuMDM4IDQuNjQzNjcgMTMxLjAzOCA1LjQ5NjA0VjkuMzEyODVDMTMxLjQyMiA4Ljc4NDg0IDEzMS45NDMgOC4zNTQ4OCAxMzIuNjE0IDguMDE1NDRaTTEzNy4yIDExLjEzODNDMTM2Ljg5MSAxMC41ODc2IDEzNi40ODQgMTAuMTcyOCAxMzUuOTcxIDkuODkzNjdDMTM1LjQ2NSA5LjYwNzAzIDEzNC45MTUgOS40NzEyNiAxMzQuMzM0IDkuNDcxMjZDMTMzLjc1MyA5LjQ3MTI2IDEzMy4yMzMgOS42MTQ1OCAxMzIuNzIgOS45MDg3NkMxMzIuMjE0IDEwLjIwMjkgMTMxLjc5OSAxMC42MTc4IDEzMS40OSAxMS4xNzZDMTMxLjE4MSAxMS43MjY2IDEzMS4wMjMgMTIuMzgyOSAxMzEuMDIzIDEzLjEzNzJDMTMxLjAyMyAxMy44OTE1IDEzMS4xODEgMTQuNTQ3OCAxMzEuNDkgMTUuMTA2QzEzMS43OTkgMTUuNjY0MSAxMzIuMjA3IDE2LjA5NDEgMTMyLjcyIDE2LjM4MDdDMTMzLjIyNSAxNi42NzQ5IDEzMy43NjggMTYuODE4MiAxMzQuMzM0IDE2LjgxODJDMTM0LjkgMTYuODE4MiAxMzUuNDU4IDE2LjY2NzQgMTM1Ljk3MSAxNi4zNzMyQzEzNi40NzYgMTYuMDc5IDEzNi44OTEgMTUuNjQxNSAxMzcuMiAxNS4wNzU4QzEzNy41MSAxNC41MTAxIDEzNy42NjggMTMuODQ2MyAxMzcuNjY4IDEzLjA5OTVDMTM3LjY2OCAxMi4zNTI3IDEzNy41MSAxMS42OTY1IDEzNy4yIDExLjE1MzRWMTEuMTM4M1oiLz4mI3hhOzxwYXRoIGZpbGw9IiMxMjZFRDMiIGQ9Ik0xNTIuMDIyIDEzLjk4MkgxNDMuOTIxQzE0My45ODkgMTQuODQ5NSAxNDQuMzEzIDE1LjU1MSAxNDQuODk0IDE2LjA3OUMxNDUuNDc1IDE2LjYwNyAxNDYuMTg0IDE2Ljg3MSAxNDcuMDI5IDE2Ljg3MUMxNDguMTkxIDE2Ljg3MSAxNDkuMDIgMTYuNDEwOSAxNDkuNTMzIDE1LjQ4MzFDMTQ5LjU3OCAxNS40MDAxIDE0OS42NjEgMTUuMzQ3MyAxNDkuNzUyIDE1LjM0NzNIMTUyLjAzOEMxNTEuNzA2IDE2LjM1MDYgMTUxLjExIDE3LjE3MjggMTUwLjI1IDE3LjgxMzlDMTQ5LjM5IDE4LjQ1NTEgMTQ4LjMxMSAxOC43NzE5IDE0Ny4wMzYgMTguNzcxOUMxNDUuOTk2IDE4Ljc3MTkgMTQ1LjA2IDE4LjUzODEgMTQ0LjIzOCAxOC4wNzA0QzE0My40MTYgMTcuNjAyNyAxNDIuNzY3IDE2LjkzODkgMTQyLjI5OSAxNi4wOTQxQzE0MS44MzIgMTUuMjQ5MyAxNDEuNTk4IDE0LjI1MzYgMTQxLjU5OCAxMy4xMzcyQzE0MS41OTggMTIuMDIwOCAxNDEuODI0IDExLjAzMjcgMTQyLjI3NyAxMC4xODAzQzE0Mi43MjkgOS4zMjc5MiAxNDMuMzcxIDguNjcxNjcgMTQ0LjIgOC4yMTE1NEMxNDUuMDIyIDcuNzUxNDEgMTQ1Ljk3MyA3LjUxNzU4IDE0Ny4wMzYgNy41MTc1OEMxNDguMSA3LjUxNzU4IDE0OC45ODMgNy43NDM4NyAxNDkuNzkgOC4xODg5MUMxNTAuNTk3IDguNjMzOTYgMTUxLjIyMyA5LjI2NzU4IDE1MS42NjggMTAuMDgyMkMxNTIuMTEzIDEwLjg5NjkgMTUyLjMzOSAxMS44MjQ3IDE1Mi4zMzkgMTIuODgwN0MxNTIuMzM5IDEzLjE5NzUgMTUyLjMyNCAxMy40OTkzIDE1Mi4yOTQgMTMuNzYzM0MxNTIuMjc5IDEzLjg5MTUgMTUyLjE2NiAxMy45ODIgMTUyLjAzOCAxMy45ODJIMTUyLjAyMlpNMTQ5Ljk3MSAxMi4xNTY2QzE0OS45NTYgMTEuMzI2OCAxNDkuNjYxIDEwLjY2MzEgMTQ5LjA4MSAxMC4xNTc3QzE0OC41IDkuNjU5ODIgMTQ3Ljc4MyA5LjQwMzM1IDE0Ni45MjMgOS40MDMzNUMxNDYuMTQ2IDkuNDAzMzUgMTQ1LjQ4MyA5LjY1MjI4IDE0NC45MjQgMTAuMTQyNkMxNDQuMzc0IDEwLjY0MDQgMTQ0LjA0MiAxMS4zMDQyIDE0My45MzYgMTIuMTQ5SDE0OS45NzFWMTIuMTU2NloiLz4mI3hhOzxwYXRoIGZpbGw9IiMxMjZFRDMiIGQ9Ik00My44MDkgMzEuODc0MkM0My4zNjQgMzEuNjg1NiA0My4wMTcgMzEuNDE0MSA0Mi43NjA1IDMxLjA3NDZDNDIuNTA0MSAzMC43MzUyIDQyLjM2MDggMzAuMzQyOSA0Mi4zMzgxIDI5Ljg5NzlINDMuNTkwM0M0My42MjggMzAuMjYgNDMuNzk0IDMwLjU2MTcgNDQuMTAzMiAzMC43ODhDNDQuNDEyNSAzMS4wMjE4IDQ0LjgxMjMgMzEuMTM1IDQ1LjMxMDEgMzEuMTM1QzQ1Ljc3MDIgMzEuMTM1IDQ2LjEzMjMgMzEuMDM2OSA0Ni40MDM5IDMwLjgyNTdDNDYuNjc1NCAzMC42MTQ1IDQ2LjgwMzcgMzAuMzY1NiA0Ni44MDM3IDMwLjA1NjNDNDYuODAzNyAyOS43NDcgNDYuNjYwMyAyOS40OTgxIDQ2LjM4MTIgMjkuMzQ3M0M0Ni4xMDIxIDI5LjE5NjQgNDUuNjU3MSAyOS4wMzggNDUuMDYxMiAyOC44ODcxQzQ0LjUxODEgMjguNzQzOCA0NC4wODA2IDI4LjYwMDUgNDMuNzQxMiAyOC40NTcyQzQzLjQwMTcgMjguMzEzOCA0My4xMDc1IDI4LjA5NTEgNDIuODY2MiAyNy44MDg1QzQyLjYyNDggMjcuNTIxOCA0Mi40OTY1IDI3LjE0NDcgNDIuNDk2NSAyNi42Njk0QzQyLjQ5NjUgMjYuMjk5OCA0Mi42MDk3IDI1Ljk1MjkgNDIuODI4NCAyNS42NDM2QzQzLjA0NzIgMjUuMzM0MyA0My4zNjQgMjUuMDg1NCA0My43NzEzIDI0LjkwNDRDNDQuMTc4NyAyNC43MjMzIDQ0LjY0NjMgMjQuNjMyOCA0NS4xNjY4IDI0LjYzMjhDNDUuOTczOSAyNC42MzI4IDQ2LjYyMjYgMjQuODM2NSA0Ny4xMjA1IDI1LjI0MzhDNDcuNjE4MyAyNS42NTExIDQ3Ljg4MjMgMjYuMjA5MyA0Ny45MiAyNi45MTg0SDQ2LjcxMzFDNDYuNjgzIDI2LjUzMzcgNDYuNTMyMSAyNi4yMzIgNDYuMjUzIDI1Ljk5ODFDNDUuOTczOSAyNS43NjQzIDQ1LjU5NjggMjUuNjUxMSA0NS4xMjkxIDI1LjY1MTFDNDQuNjkxNiAyNS42NTExIDQ0LjM1MjEgMjUuNzQxNiA0NC4wODgxIDI1LjkzMDJDNDMuODMxNyAyNi4xMTg4IDQzLjcwMzQgMjYuMzYwMiA0My43MDM0IDI2LjY2MTlDNDMuNzAzNCAyNi45MDMzIDQzLjc3ODkgMjcuMDk5NCA0My45MzczIDI3LjI1MDNDNDQuMDk1NyAyNy40MDg3IDQ0LjI4NDMgMjcuNTI5NCA0NC41MjU2IDI3LjYxOTlDNDQuNzU5NSAyNy43MTA0IDQ1LjA4MzggMjcuODE2IDQ1LjUwNjIgMjcuOTM2N0M0Ni4wMjY3IDI4LjA4IDQ2LjQ1NjcgMjguMjE1OCA0Ni43ODEgMjguMzUxNkM0Ny4xMDU0IDI4LjQ4NzMgNDcuMzkyIDI4LjY5ODUgNDcuNjI1OCAyOC45NzAxQzQ3Ljg1OTcgMjkuMjQ5MiA0Ny45ODA0IDI5LjYwMzcgNDcuOTg3OSAzMC4wNDg4QzQ3Ljk4NzkgMzAuNDQ4NSA0Ny44NzQ4IDMwLjgwMzEgNDcuNjU2IDMxLjEyNzRDNDcuNDM3MyAzMS40NDQyIDQ3LjEyMDUgMzEuNzAwNyA0Ni43MjA3IDMxLjg4MTdDNDYuMzEzMyAzMi4wNjI4IDQ1Ljg1MzIgMzIuMTUzMyA0NS4zMzI3IDMyLjE1MzNDNDQuNzc0NiAzMi4xNTMzIDQ0LjI2OTIgMzIuMDU1MiA0My44MzE3IDMxLjg2NjZMNDMuODA5IDMxLjg3NDJaIi8+JiN4YTs8cGF0aCBmaWxsPSIjMTI2RUQzIiBkPSJNNTYuNDIxMiAyOC44NDk0SDUwLjU5NzlDNTAuNjQzMiAyOS41NjYgNTAuODg0NiAzMC4xMzE3IDUxLjMzNzIgMzAuNTMxNUM1MS43ODk3IDMwLjkzMTMgNTIuMzI1MyAzMS4xMzQ5IDUyLjk2NjUgMzEuMTM0OUM1My40ODY5IDMxLjEzNDkgNTMuOTI0NCAzMS4wMTQyIDU0LjI3OSAzMC43NjUzQzU0LjYyNiAzMC41MjM5IDU0Ljg3NDkgMzAuMTk5NiA1NS4wMTgyIDI5Ljc4NDdINTYuMzIzMkM1Ni4xMjcgMzAuNDg2MiA1NS43MzQ4IDMxLjA1MTkgNTUuMTU0IDMxLjQ5N0M1NC41NjU2IDMxLjkzNDUgNTMuODQxNSAzMi4xNTMyIDUyLjk3NCAzMi4xNTMyQzUyLjI4IDMyLjE1MzIgNTEuNjYxNSAzMS45OTQ4IDUxLjExODQgMzEuNjg1NkM1MC41NzUzIDMxLjM3NjMgNTAuMTQ1MyAzMC45MzEzIDQ5LjgzNjEgMzAuMzY1NUM0OS41MjY4IDI5Ljc5MjIgNDkuMzY4NCAyOS4xMjg1IDQ5LjM2ODQgMjguMzc0MUM0OS4zNjg0IDI3LjYxOTggNDkuNTE5MyAyNi45NTYgNDkuODIxIDI2LjM5MDNDNTAuMTIyNyAyNS44MjQ2IDUwLjU0NTEgMjUuMzg3MSA1MS4wODgyIDI1LjA3NzhDNTEuNjMxMyAyNC43Njg1IDUyLjI1NzQgMjQuNjE3NyA1Mi45NzQgMjQuNjE3N0M1My42OTA2IDI0LjYxNzcgNTQuMjc5IDI0Ljc2ODUgNTQuODA3IDI1LjA3MDNDNTUuMzQyNSAyNS4zNzIgNTUuNzQ5OSAyNS43ODY5IDU2LjAzNjUgMjYuMzE0OUM1Ni4zMjMxIDI2Ljg0MjkgNTYuNDY2NSAyNy40Mzg4IDU2LjQ2NjUgMjguMTAyNkM1Ni40NjY1IDI4LjMzNjQgNTYuNDUxNCAyOC41Nzc4IDU2LjQyODggMjguODM0M0w1Ni40MjEyIDI4Ljg0OTRaTTU0LjkwNSAyNi42Njk0QzU0LjcwMTQgMjYuMzM3NSA1NC40MjIzIDI2LjA4MSA1NC4wNzUzIDI1LjkwNzVDNTMuNzI4MyAyNS43MzQxIDUzLjMzNjEgMjUuNjUxMSA1Mi45MTM3IDI1LjY1MTFDNTIuMzAyNyAyNS42NTExIDUxLjc4MjIgMjUuODQ3MiA1MS4zNTIyIDI2LjIzOTRDNTAuOTIyMyAyNi42MzE3IDUwLjY3MzQgMjcuMTY3MiA1MC42MTMgMjcuODYxMkg1NS4yMTQzQzU1LjIxNDMgMjcuNDAxMSA1NS4xMDg3IDI3LjAwMTMgNTQuOTA1IDI2LjY2OTRaIi8+JiN4YTs8cGF0aCBmaWxsPSIjMTI2RUQzIiBkPSJNNjAuMzEzNSAyNC45NjQ3QzYwLjcwNTcgMjQuNzMwOCA2MS4xODg1IDI0LjYxNzcgNjEuNzU0MiAyNC42MTc3VjI1Ljg2OThINjEuNDM3NEM2MC4wNzk2IDI1Ljg2OTggNTkuNDAwNyAyNi42MDkxIDU5LjQwMDcgMjguMDhWMzIuMDQ3Nkg1OC4xOTM4VjI0Ljc1MzVINTkuNDAwN1YyNS45Mzc3QzU5LjYxMiAyNS41MjI4IDU5LjkxMzcgMjUuMTk4NSA2MC4zMTM1IDI0Ljk2NDdaIi8+JiN4YTs8cGF0aCBmaWxsPSIjMTI2RUQzIiBkPSJNNjYuMzYyOCAzMC45MjM3TDY4LjYyNTcgMjQuNzUzNEg2OS45MTU2TDY3LjA1NjcgMzIuMDQ3Nkg2NS42NDYyTDYyLjc4NzQgMjQuNzUzNEg2NC4wOTIzTDY2LjM3MDMgMzAuOTIzN0g2Ni4zNjI4WiIvPiYjeGE7PHBhdGggZmlsbD0iIzEyNkVEMyIgZD0iTTc3Ljg1MDkgMjguODQ5NEg3Mi4wMjc2QzcyLjA3MjkgMjkuNTY2IDcyLjMxNDMgMzAuMTMxNyA3Mi43NjY4IDMwLjUzMTVDNzMuMjE5NCAzMC45MzEzIDczLjc1NSAzMS4xMzQ5IDc0LjM5NjIgMzEuMTM0OUM3NC45MTY2IDMxLjEzNDkgNzUuMzU0MSAzMS4wMTQyIDc1LjcwODcgMzAuNzY1M0M3Ni4wNTU2IDMwLjUyMzkgNzYuMzA0NiAzMC4xOTk2IDc2LjQ0NzkgMjkuNzg0N0g3Ny43NTI4Qzc3LjU1NjcgMzAuNDg2MiA3Ny4xNjQ1IDMxLjA1MTkgNzYuNTgzNyAzMS40OTdDNzUuOTk1MyAzMS45MzQ1IDc1LjI3MTIgMzIuMTUzMiA3NC40MDM3IDMyLjE1MzJDNzMuNzA5NyAzMi4xNTMyIDczLjA5MTIgMzEuOTk0OCA3Mi41NDgxIDMxLjY4NTZDNzIuMDA1IDMxLjM3NjMgNzEuNTc1IDMwLjkzMTMgNzEuMjY1OCAzMC4zNjU1QzcwLjk1NjUgMjkuNzkyMiA3MC43OTgxIDI5LjEyODUgNzAuNzk4MSAyOC4zNzQxQzcwLjc5ODEgMjcuNjE5OCA3MC45NDkgMjYuOTU2IDcxLjI1MDcgMjYuMzkwM0M3MS41NTI0IDI1LjgyNDYgNzEuOTc0OCAyNS4zODcxIDcyLjUxNzkgMjUuMDc3OEM3My4wNjEgMjQuNzY4NSA3My42ODcxIDI0LjYxNzcgNzQuNDAzNyAyNC42MTc3Qzc1LjEyMDMgMjQuNjE3NyA3NS43MDg3IDI0Ljc2ODUgNzYuMjM2NyAyNS4wNzAzQzc2Ljc3MjIgMjUuMzcyIDc3LjE3OTYgMjUuNzg2OSA3Ny40NjYyIDI2LjMxNDlDNzcuNzUyOCAyNi44NDI5IDc3Ljg5NjIgMjcuNDM4OCA3Ny44OTYyIDI4LjEwMjZDNzcuODk2MiAyOC4zMzY0IDc3Ljg4MTEgMjguNTc3OCA3Ny44NTg0IDI4LjgzNDNMNzcuODUwOSAyOC44NDk0Wk03Ni4zMzQ3IDI2LjY2OTRDNzYuMTMxMSAyNi4zMzc1IDc1Ljg1MiAyNi4wODEgNzUuNTA1IDI1LjkwNzVDNzUuMTU4IDI1LjczNDEgNzQuNzY1OCAyNS42NTExIDc0LjM0MzQgMjUuNjUxMUM3My43MzI0IDI1LjY1MTEgNzMuMjExOSAyNS44NDcyIDcyLjc4MTkgMjYuMjM5NEM3Mi4zNTIgMjYuNjMxNyA3Mi4xMDMxIDI3LjE2NzIgNzIuMDQyNyAyNy44NjEySDc2LjY0NEM3Ni42NDQgMjcuNDAxMSA3Ni41Mzg0IDI3LjAwMTMgNzYuMzM0NyAyNi42Njk0WiIvPiYjeGE7PHBhdGggZmlsbD0iIzEyNkVEMyIgZD0iTTgxLjc0MzEgMjQuOTY0N0M4Mi4xMzU0IDI0LjczMDggODIuNjE4MSAyNC42MTc3IDgzLjE4MzkgMjQuNjE3N1YyNS44Njk4SDgyLjg2NzFDODEuNTA5MyAyNS44Njk4IDgwLjgzMDQgMjYuNjA5MSA4MC44MzA0IDI4LjA4VjMyLjA0NzZINzkuNjIzNVYyNC43NTM1SDgwLjgzMDRWMjUuOTM3N0M4MS4wNDE2IDI1LjUyMjggODEuMzQzNCAyNS4xOTg1IDgxLjc0MzEgMjQuOTY0N1oiLz4mI3hhOzxwYXRoIGZpbGw9IiMxMjZFRDMiIGQ9Ik0zNC4zMTIzIDE5LjE4NjZDMzMuNjg2MiAxOS4xODY2IDMzLjE4MDggMTguNjgxMyAzMy4xODA4IDE4LjA1NTJDMzMuMTgwOCA5LjY1MjE2IDI2LjM0NjcgMi44MTgxMSAxNy45NDM3IDIuODE4MTFDMTcuMzE3NiAyLjgxODExIDE2LjgxMjMgMi4zMTI3MiAxNi44MTIzIDEuNjg2NjRDMTYuODEyMyAxLjA2MDU2IDE3LjMxNzYgMC41NTUxNzYgMTcuOTQzNyAwLjU1NTE3NkMyNy41OTE0IDAuNTU1MTc2IDM1LjQ0MzcgOC40MDc1NSAzNS40NDM3IDE4LjA1NTJDMzUuNDQzNyAxOC42ODEzIDM0LjkzODMgMTkuMTg2NiAzNC4zMTIzIDE5LjE4NjZaIi8+JiN4YTs8cGF0aCBmaWxsPSIjMTI2RUQzIiBkPSJNMTcuOTQzOCAzNS41NTQ4QzguMjk2MjIgMzUuNTU0OCAwLjQ0Mzg0OCAyNy43MDI0IDAuNDQzODQ4IDE4LjA1NDhDMC40NDM4NDggMTcuNDI4NyAwLjk0OTIzNiAxNi45MjMzIDEuNTc1MzEgMTYuOTIzM0MyLjIwMTM5IDE2LjkyMzMgMi43MDY3OCAxNy40Mjg3IDIuNzA2NzggMTguMDU0OEMyLjcwNjc4IDI2LjQ1NzggOS41NDA4MyAzMy4yOTE5IDE3Ljk0MzggMzMuMjkxOUMxOC41Njk5IDMzLjI5MTkgMTkuMDc1MyAzMy43OTczIDE5LjA3NTMgMzQuNDIzM0MxOS4wNzUzIDM1LjA0OTQgMTguNTY5OSAzNS41NTQ4IDE3Ljk0MzggMzUuNTU0OFoiLz4mI3hhOzxwYXRoIGZpbGw9IiMxMjZFRDMiIGQ9Ik0yMi44NTQzIDE5LjE4NjdDMjIuMjI4MiAxOS4xODY3IDIxLjcyMjggMTguNjgxMyAyMS43MjI4IDE4LjA1NTJDMjEuNzIyOCAxNS45NzMzIDIwLjAyNTYgMTQuMjc2MSAxNy45NDM3IDE0LjI3NjFDMTcuMzE3NiAxNC4yNzYxIDE2LjgxMjMgMTMuNzcwNyAxNi44MTIzIDEzLjE0NDZDMTYuODEyMyAxMi41MTg2IDE3LjMxNzYgMTIuMDEzMiAxNy45NDM3IDEyLjAxMzJDMjEuMjc3OCAxMi4wMTMyIDIzLjk4NTcgMTQuNzIxMiAyMy45ODU3IDE4LjA1NTJDMjMuOTg1NyAxOC42ODEzIDIzLjQ4MDQgMTkuMTg2NyAyMi44NTQzIDE5LjE4NjdaIi8+JiN4YTs8cGF0aCBmaWxsPSIjMTI2RUQzIiBkPSJNMTcuOTQzNiAyNC4wOTY4QzE0LjYwOTYgMjQuMDk2OCAxMS45MDE2IDIxLjM4ODkgMTEuOTAxNiAxOC4wNTQ4QzExLjkwMTYgMTcuNDI4NyAxMi40MDcgMTYuOTIzMyAxMy4wMzMxIDE2LjkyMzNDMTMuNjU5MiAxNi45MjMzIDE0LjE2NDUgMTcuNDI4NyAxNC4xNjQ1IDE4LjA1NDhDMTQuMTY0NSAyMC4xMzY3IDE1Ljg2MTcgMjEuODMzOSAxNy45NDM2IDIxLjgzMzlDMTguNTY5NyAyMS44MzM5IDE5LjA3NTEgMjIuMzM5MyAxOS4wNzUxIDIyLjk2NTRDMTkuMDc1MSAyMy41OTE0IDE4LjU2OTcgMjQuMDk2OCAxNy45NDM2IDI0LjA5NjhaIi8+JiN4YTs8cGF0aCBmaWxsPSIjMTI2RUQzIiBkPSJNMjguNTc5NSAxOS4xODYzQzI3Ljk1MzQgMTkuMTg2MyAyNy40NDggMTguNjgwOSAyNy40NDggMTguMDU0OEMyNy40NDggMTIuODEyNCAyMy4xODYyIDguNTUwNTMgMTcuOTQzNyA4LjU1MDUzQzE3LjMxNzYgOC41NTA1MyAxNi44MTIzIDguMDQ1MTQgMTYuODEyMyA3LjQxOTA2QzE2LjgxMjMgNi43OTI5OSAxNy4zMTc2IDYuMjg3NiAxNy45NDM3IDYuMjg3NkMyNC40MzA4IDYuMjg3NiAyOS43MTEgMTEuNTY3OCAyOS43MTEgMTguMDU0OEMyOS43MTEgMTguNjgwOSAyOS4yMDU2IDE5LjE4NjMgMjguNTc5NSAxOS4xODYzWiIvPiYjeGE7PHBhdGggZmlsbD0iIzEyNkVEMyIgZD0iTTE3Ljk0MzggMjkuODIyQzExLjQ1NjcgMjkuODIyIDYuMTc2NTEgMjQuNTQxOSA2LjE3NjUxIDE4LjA1NDhDNi4xNzY1MSAxNy40Mjg3IDYuNjgxOSAxNi45MjMzIDcuMzA3OTggMTYuOTIzM0M3LjkzNDA2IDE2LjkyMzMgOC40Mzk0NCAxNy40Mjg3IDguNDM5NDQgMTguMDU0OEM4LjQzOTQ0IDIzLjI5NzMgMTIuNzAxMyAyNy41NTkxIDE3Ljk0MzggMjcuNTU5MUMxOC41Njk4IDI3LjU1OTEgMTkuMDc1MiAyOC4wNjQ1IDE5LjA3NTIgMjguNjkwNkMxOS4wNzUyIDI5LjMxNjcgMTguNTY5OCAyOS44MjIgMTcuOTQzOCAyOS44MjJaIi8+JiN4YTs8L2c+JiN4YTs8ZGVmcz4mI3hhOzxjbGlwUGF0aCBpZD0iY2xpcDBfMTU2NF8xODAiPiYjeGE7PHJlY3QgdHJhbnNmb3JtPSJ0cmFuc2xhdGUoMC40NDM4NDggMC41NTUxNzYpIiBmaWxsPSJ3aGl0ZSIgaGVpZ2h0PSIzNSIgd2lkdGg9IjE1MS44OCIvPiYjeGE7PC9jbGlwUGF0aD4mI3hhOzwvZGVmcz4mI3hhOzwvc3ZnPg==;" vertex="1" parent="1">
          <mxGeometry x="241.4" y="460" width="174.81" height="40.25" as="geometry" />
        </mxCell>
        <mxCell id="Jq-mPfwN_62_-WVwa9c7-9" value="(On-Premise)" style="shape=image;verticalLabelPosition=bottom;labelBackgroundColor=default;verticalAlign=top;aspect=fixed;imageAspect=0;editableCssRules=.*;image=data:image/svg+xml,PHN2ZyB4bWxucz0iaHR0cDovL3d3dy53My5vcmcvMjAwMC9zdmciIGZpbGw9Im5vbmUiIHZpZXdCb3g9IjIuMzA4NTM1MDUyMDA5MTE5N2UtOCAwLjUgMzcxLjUgNzEiIHdpZHRoPSIzNzEuNSIgaGVpZ2h0PSI3MSI+JiN4YTs8cGF0aCBmaWxsPSIjMDA1RUI4IiBkPSJNNjEuNzM3NCAyNi41QzYwLjQ4NzggMjYuNSA1OS40NzQ4IDI3LjUxMyA1OS40NzQ4IDI4Ljc2MjZDNTkuNDc0OCA0Ny4zODE0IDQ0LjM4MTQgNjIuNDc0OCAyNS43NjI2IDYyLjQ3NDhDMjQuNTEzIDYyLjQ3NDggMjMuNSA2My40ODc4IDIzLjUgNjQuNzM3NEMyMy41IDY1Ljk4NyAyNC41MTMgNjcgMjUuNzYyNiA2N0M0Ni44ODA1IDY3IDY0IDQ5Ljg4MDUgNjQgMjguNzYyNkM2NCAyNy41MTMgNjIuOTg3IDI2LjUgNjEuNzM3NCAyNi41WiIvPiYjeGE7PHBhdGggZmlsbD0iIzAwM0I1QyIgZD0iTTQ4LjA4MTQgNDFDNTAuMjU3MiAzNy40NTA1IDUyLjM2MTUgMzIuNzE3OCA1MS45NDc1IDI2LjA5MjFDNTEuMDg5OSAxMi4zNjczIDM4LjY1ODkgMS45NTUzNyAyNi45MjA2IDMuMDgzNzNDMjIuMzI1MyAzLjUyNTQ3IDE3LjYwNjggNy4yNzEyIDE4LjAyNiAxMy45ODA1QzE4LjIwODIgMTYuODk2MSAxOS42MzUyIDE4LjYxNjkgMjEuOTU0NCAxOS45Mzk5QzI0LjE2MTggMjEuMTk5MiAyNi45OTc4IDIxLjk5NjkgMzAuMjEyOCAyMi45MDExQzM0LjA5NjIgMjMuOTkzNCAzOC42MDA5IDI1LjIyMDMgNDIuMDYzMSAyNy43NzE3QzQ2LjIxMjUgMzAuODI5NiA0OS4wNDkxIDM0LjM3NDMgNDguMDgxNCA0MVoiLz4mI3hhOzxwYXRoIGZpbGw9IiMwMDVFQjgiIGQ9Ik0zLjkxODYxIDE3QzEuNzQyNzYgMjAuNTQ5NSAtMC4zNjE1MDYgMjUuMjgyMiAwLjA1MjQ5MzEgMzEuOTA3OUMwLjkxMDA3MiA0NS42MzI3IDEzLjM0MTEgNTYuMDQ0NiAyNS4wNzk0IDU0LjkxNjNDMjkuNjc0NyA1NC40NzQ1IDM0LjM5MzIgNTAuNzI4OCAzMy45NzQgNDQuMDE5NUMzMy43OTE4IDQxLjEwMzkgMzIuMzY0NyAzOS4zODMxIDMwLjA0NTYgMzguMDYwMUMyNy44MzgyIDM2LjgwMDggMjUuMDAyMiAzNi4wMDMxIDIxLjc4NzIgMzUuMDk4OUMxNy45MDM4IDM0LjAwNjYgMTMuMzk5MSAzMi43Nzk3IDkuOTM2OTUgMzAuMjI4M0M1Ljc4NzQ3IDI3LjE3MDQgMi45NTA5MiAyMy42MjU3IDMuOTE4NjEgMTdaIi8+JiN4YTs8cGF0aCBmaWxsPSIjMDAzQjVDIiBkPSJNMzYyLjUgMzFWNTRIMzcxLjVWMjlDMzcxLjUgMjQuMzkyNyAzNzAuNiAyMC45MTIxIDM2OC43OTkgMTguNTUxMUMzNjYuOTk4IDE2LjE2NzIgMzY0LjI4MiAxNSAzNjAuNzUgMTVDMzU2LjkxOCAxNSAzNTMuODQ3IDE3LjI0MDggMzUyIDIxSDM1MS41QzM1MS42MzYgMTkuMDU5MSAzNTEuNzYgMTcuOTQ3MiAzNTEuODUgMTcuMTM1M0MzNTEuOTQzIDE2LjI5OCAzNTIgMTUuNzc5NyAzNTIgMTVWMC41SDM0M1Y1NEgzNTIuNVYzNS41QzM1Mi41IDMxLjM1MTEgMzUyLjYzOSAyOC4yODE1IDM1My40OTMgMjYuMDgxQzM1NC4zNDcgMjMuODU3NSAzNTUuODM2IDIyLjc0NTggMzU3Ljk2IDIyLjc0NThDMzYwLjggMjIuNzQ1OCAzNjIuNSAyNS4zODQxIDM2Mi41IDMxWk0yMzEuODUyIDUxLjIyODlDMjM0LjI4NCA0OC43MTQ4IDIzNS41IDQ1LjA5MzYgMjM1LjUgNDAuMzY1M0MyMzUuNSAzNy40MTI5IDIzNC44MzQgMzQuNzgzNSAyMzMuNTAxIDMyLjQ3N0MyMzIuMTkxIDMwLjE3MDUgMjI5Ljg2NSAyNy45MTAyIDIyNi41MjEgMjUuNjk1OUMyMjQuMDQyIDI0LjA4MTQgMjIyLjMgMjIuNjM5OCAyMjEuMjk0IDIxLjM3MTNDMjIwLjMxMiAyMC4xMDI3IDIxOS44MjEgMTguNjE1IDIxOS44MjEgMTYuOTA4MkMyMTkuODIxIDE1LjE3ODMgMjIwLjIzIDEzLjgxNzUgMjIxLjA0OSAxMi44MjU3QzIyMS44OTEgMTEuODEwOCAyMjMuMDgzIDExLjMwMzQgMjI0LjYyNyAxMS4zMDM0QzIyNi4wMyAxMS4zMDM0IDIyNy4zMzkgMTEuNTU3MSAyMjguNTU1IDEyLjA2NDVDMjI5Ljc5NCAxMi41NzIgMjMwLjk3NSAxMy4xNDg2IDIzMi4wOTggMTMuNzk0NEwyMzUuMjU0IDYuMjUyMTZDMjMxLjYzIDQuMDg0MDUgMjI3Ljg1NCAzIDIyMy45MjUgM0MyMTkuODA5IDMgMjE2LjUyNCA0LjI2ODU3IDIxNC4wNjkgNi44MDU3MkMyMTEuNjM3IDkuMzQyODcgMjEwLjQyMSAxMi43Nzk2IDIxMC40MjEgMTcuMTE1OEMyMTAuNDIxIDE5LjM3NjEgMjEwLjcyNSAyMS4zNTk3IDIxMS4zMzMgMjMuMDY2NUMyMTEuOTY0IDI0Ljc3MzMgMjEyLjg0MSAyNi4zMTg3IDIxMy45NjQgMjcuNzAyNkMyMTUuMTA5IDI5LjA2MzQgMjE2Ljc4MSAzMC40OTM1IDIxOC45NzkgMzEuOTkyN0MyMjEuNTA1IDMzLjY5OTUgMjIzLjMxNyAzNS4yNTY0IDIyNC40MTYgMzYuNjYzM0MyMjUuNTE1IDM4LjA0NzIgMjI2LjA2NSAzOS41ODExIDIyNi4wNjUgNDEuMjY0OEMyMjYuMDY1IDQyLjk3MTYgMjI1LjU5NyA0NC4zMjA5IDIyNC42NjIgNDUuMzEyN0MyMjMuNzUgNDYuMzA0NSAyMjIuMzgyIDQ2LjgwMDQgMjIwLjU1OCA0Ni44MDA0QzIxNy4zNTQgNDYuODAwNCAyMTMuODM1IDQ1LjU2NjQgMjEwIDQzLjA5ODVWNTIuNDA1MkMyMTMuMTMzIDU0LjEzNTEgMjE2LjkzMyA1NSAyMjEuNCA1NUMyMjUuOTU5IDU1IDIyOS40NDQgNTMuNzQzIDIzMS44NTIgNTEuMjI4OVpNMjQxLjY3NCA0OS44NzQ1QzI0NC40OCA1My4yOTE1IDI0OC4zMDYgNTUgMjUzLjE1MiA1NUMyNTcuMzAzIDU1IDI2MC44NjIgNTQuMTExMSAyNjMuODMgNTIuMzMzM1Y0NC43NDg5QzI2MC42NzcgNDYuNjE5IDI1Ny41OTMgNDcuNTU0MSAyNTQuNTc4IDQ3LjU1NDFDMjUyLjIxMyA0Ny41NTQxIDI1MC4zNTggNDYuNzIyOSAyNDkuMDEzIDQ1LjA2MDZDMjQ3LjY2OCA0My4zNzUyIDI0Ny4wNyA0MC45NDAxIDI0NyAzNy41SDI2NS41VjMyLjQ1NDVDMjY1LjUgMjYuOTM2NSAyNjQuMjgzIDIyLjY1MzcgMjYxLjg0OCAxOS42MDYxQzI1OS40MTMgMTYuNTM1NCAyNTYuMDg2IDE1IDI1MS44NjUgMTVDMjQ3LjM0MyAxNSAyNDMuODE5IDE2Ljc4OTMgMjQxLjI5MSAyMC4zNjhDMjM4Ljc2NCAyMy45NDY2IDIzNy41IDI4LjkyMjEgMjM3LjUgMzUuMjk0NEMyMzcuNSA0MS41NzQzIDIzOC44OTEgNDYuNDM0MyAyNDEuNjc0IDQ5Ljg3NDVaTTI0OC41MjYgMjQuMjEyMUMyNDkuMzg0IDIyLjgwMzggMjUwLjQ3NCAyMi4wOTk2IDI1MS43OTYgMjIuMDk5NkMyNTMuMjEgMjIuMDk5NiAyNTQuMzIzIDIyLjgyNjggMjU1LjEzNSAyNC4yODE0QzI1NS45NDYgMjUuNzM1OSAyNTYuNDU0IDI4LjE4MzMgMjU2LjUgMzFIMjQ3QzI0Ny4xMzkgMjguMDY3OCAyNDcuNjY4IDI1LjU5NzQgMjQ4LjUyNiAyNC4yMTIxWk0yODggNTRMMjg2LjUgNDlIMjg2QzI4NC42MjIgNTEuMjU4NyAyODMuMjk1IDUyLjg2OCAyODEuODI0IDUzLjcyMDhDMjgwLjM1MiA1NC41NzM2IDI3OC40OTQgNTUgMjc2LjI1MiA1NUMyNzMuMzc4IDU1IDI3MS4xMTIgNTMuOTM5OCAyNjkuNDUzIDUxLjgxOTRDMjY3LjgxOCA0OS42OTg5IDI2NyA0Ni43NDg4IDI2NyA0Mi45Njg5QzI2NyAzOC45MTI0IDI2OC4xMjEgMzUuOTA0NiAyNzAuMzY0IDMzLjk0NTVDMjcyLjYzIDMxLjk2MzQgMjc2LjAwNiAzMC44Njg2IDI4MC40OTIgMzAuNjYxMkwyODUuNjc4IDMwLjQ1MzhWMjcuNjg4QzI4NS42NzggMjQuMDkyNSAyODQuMTAxIDIyLjI5NDcgMjgwLjk0NyAyMi4yOTQ3QzI3OC42MTEgMjIuMjk0NyAyNzUuOTI0IDIzLjE5MzYgMjcyLjg4NyAyNC45OTE0TDI2OS42NjMgMTguNjMwMUMyNzMuNTQyIDE2LjIxIDI3Ny42OTQgMTUgMjgyLjI1IDE1QzI4Ni4zODUgMTUgMjg5LjU5MiAxNi4xNzU1IDI5MS43NDEgMTguNTI2NEMyOTMuOTE0IDIwLjg1NDIgMjk1IDI0LjE2MTYgMjk1IDI4LjQ0ODZWNTRIMjg4Wk0yODAuMDcxIDQ3LjgwOUMyODEuNzc3IDQ3LjgwOSAyODMuMTMyIDQ3LjA1OTkgMjg0LjEzNiA0NS41NjE4QzI4NS4xNjQgNDQuMDQwNiAyODUuNjc4IDQyLjAyMzkgMjg1LjY3OCAzOS41MTE3VjM2LjI2MTlMMjgyLjgwNSAzNi40MDAyQzI4MC42NzkgMzYuNTE1NCAyNzkuMTEzIDM3LjExNDcgMjc4LjEwOSAzOC4xOTc5QzI3Ny4xMjggMzkuMjgxMiAyNzYuNjM3IDQwLjg5NDYgMjc2LjYzNyA0My4wMzhDMjc2LjYzNyA0Ni4yMTg3IDI3Ny43ODIgNDcuODA5IDI4MC4wNzEgNDcuODA5Wk0zMTggMTUuNzVDMzE2LjkzIDE1LjQwNSAzMTUuMzM3IDE1IDMxNC4yMjIgMTVDMzEyLjY1MSAxNSAzMTEuMjczIDE1LjUxNzQgMzEwLjA4OSAxNi41NTIzQzMwOC45MDUgMTcuNTg3MiAzMDguMDAyIDE4LjU4NTMgMzA3IDIxSDMwNi41TDMwNSAxNkgyOThWNTRIMzA3LjQ2M1YzNEMzMDcuNDYzIDMwLjY0MjQgMzA3LjY3NiAyOC40NzYzIDMwOC44NiAyNi43Mjg1QzMxMC4wNDQgMjQuOTU3NyAzMTEuNzQgMjQuMDcyMyAzMTMuOTQ4IDI0LjA3MjNDMzE0Ljk3MyAyNC4wNzIzIDMxNS44NjMgMjQuMjcgMzE2LjUgMjQuNUwzMTggMTUuNzVaTTMzMiA1NUMzMjcuNDQzIDU1IDMyMy45NTQgNTMuNDc4IDMyMS41NzMgNTAuMTMwMkMzMTkuMTkxIDQ2Ljc4MjQgMzE4IDQxLjg2NDcgMzE4IDM1LjM3N0MzMTggMjguNTg5MSAzMTkuMTIyIDIzLjUyMTMgMzIxLjM2NiAyMC4xNzM1QzMyMy42MzQgMTYuODI1NyAzMjcuMDE3IDE1IDMzMS43MzUgMTVDMzMzLjE1NCAxNSAzMzQuNzUyIDE1LjM1OTYgMzM2LjMwOSAxNS43NzUyQzMzNy44NjYgMTYuMTkwOCAzMzkuNzYzIDE2LjcxNSAzNDEgMTcuNUwzMzcuODg5IDI0Ljc0NDlDMzM1Ljk4OSAyMy42MTM2IDMzNC4zMDUgMjMuMDQ4IDMzMi44NCAyMy4wNDhDMzMwLjg5MyAyMy4wNDggMzI5LjQ4NSAyNC4wNzU0IDMyOC42MTQgMjYuMTMwMkMzMjcuNzY3IDI4LjE2MiAzMjcuMzQ0IDMxLjIyMTEgMzI3LjM0NCAzNS4zMDc3QzMyNy4zNDQgMzkuMzAxOSAzMjcuNzY3IDQyLjI5MTggMzI4LjYxNCA0NC4yNzc0QzMyOS40NjIgNDYuMjM5OSAzMzAuODQ3IDQ3LjIyMTEgMzMyLjc3MSA0Ny4yMjExQzMzNS4wNjEgNDcuMjIxMSAzMzcuNDU0IDQ2LjQxMyAzMzkuOTUgNDQuNzk2OVY1Mi45MDA4QzMzNy41NDYgNTQuNDAxNSAzMzQuOTA4IDU1IDMzMiA1NVoiIGNsaXAtcnVsZT0iZXZlbm9kZCIgZmlsbC1ydWxlPSJldmVub2RkIi8+JiN4YTs8cGF0aCBmaWxsPSIjMDA1RUI4IiBkPSJNMTA3Ljc3NyA0OC4yNjI1QzExMC45MjYgNDMuNzcwOCAxMTIuNSAzNy4zNDQyIDExMi41IDI4Ljk4MjdDMTEyLjUgMjAuNjIxMyAxMTAuOTM3IDE0LjIwNjIgMTA3LjgxMiA5LjczNzU0QzEwNC42ODYgNS4yNDU4NSAxMDAuMTk0IDMgOTQuMzM2OCAzQzg4LjQwOTggMyA4My44NzE5IDUuMjM0MzMgODAuNzIzMSA5LjcwMjk5Qzc3LjU3NDQgMTQuMTQ4NiA3NiAyMC41NTIyIDc2IDI4LjkxMzZDNzYgMzcuMzQ0MiA3Ny41NzQ0IDQzLjgwNTMgODAuNzIzMSA0OC4yOTdDODMuODcxOSA1Mi43NjU3IDg4LjM4NjYgNTUgOTQuMjY3NCA1NUMxMDAuMTI1IDU1IDEwNC42MjggNTIuNzU0MiAxMDcuNzc3IDQ4LjI2MjVaTTg3Ljg0MjUgNDIuMTQ2OEM4Ni4zODM5IDM5LjEyOTMgODUuNjU0NiAzNC43NDEzIDg1LjY1NDYgMjguOTgyN0M4NS42NTQ2IDIzLjIwMTEgODYuMzgzOSAxOC44MTMxIDg3Ljg0MjUgMTUuODE4NkM4OS4zMDExIDEyLjgwMTEgOTEuNDY1OSAxMS4yOTI0IDk0LjMzNjggMTEuMjkyNEM5OS45ODYgMTEuMjkyNCAxMDIuODExIDE3LjE4OTEgMTAyLjgxMSAyOC45ODI3QzEwMi44MTEgNDAuNzc2MyA5OS45NjI5IDQ2LjY3MzEgOTQuMjY3NCA0Ni42NzMxQzkxLjQ0MjggNDYuNjczMSA4OS4zMDExIDQ1LjE2NDMgODcuODQyNSA0Mi4xNDY4Wk0xMjguMTg2IDUzLjk5NzlDMTI5LjQ2OSA1NC43Mzg3IDEzMC44NSA1NSAxMzIuNSA1NUMxMzYuMDMgNTUgMTM4LjkgNTMuMzI2NSAxNDAuOTQgNDkuNzYxMkMxNDIuOTggNDYuMTk2IDE0NCA0MS4yNzY0IDE0NCAzNS4wMDI1QzE0NCAyOC42MzU5IDE0My4wMTQgMjMuNzE2NCAxNDEuMDQzIDIwLjI0MzdDMTM5LjA3MiAxNi43NDc5IDEzNi4zNDUgMTUgMTMyLjg2MSAxNUMxMjkuMjQgMTUgMTI2LjQwMiAxNy4xNTY5IDEyNC41IDIxSDEyNEwxMjIuNSAxNkgxMTUuNVY3MS41SDEyNC41VjU1QzEyNC41IDU0LjM1MTggMTI0LjM2NyA1Mi4xNDg1IDEyNCA0OUgxMjQuNUMxMjUuMjUgNTEuMjUgMTI2LjkyNSA1My4yMzM5IDEyOC4xODYgNTMuOTk3OVpNMTI1Ljg4MiAyNS4zODMyQzEyNi42ODUgMjMuNjkzMiAxMjcuOTc5IDIyLjg0ODIgMTI5Ljc2NyAyMi44NDgyQzEzMS40NCAyMi44NDgyIDEzMi42NjYgMjMuODQzNyAxMzMuNDQ2IDI1LjgzNDdDMTM0LjI0OCAyNy44MjU3IDEzNC42NDkgMzAuODM1MyAxMzQuNjQ5IDM0Ljg2MzZDMTM0LjY0OSA0My4wNTkgMTMzLjA0NSA0Ny4xNTY3IDEyOS44MzYgNDcuMTU2N0MxMjcuOTc5IDQ3LjE1NjcgMTI2LjY1IDQ2LjE4NDQgMTI1Ljg0OCA0NC4yMzk3QzEyNS4wNDYgNDIuMjk1IDEyNC42NDUgMzkuMTkyOCAxMjQuNjQ1IDM0LjkzM1YzMy43MTc2QzEyNC42OTEgMjkuODI4MiAxMjUuMTAzIDI3LjA1MDEgMTI1Ljg4MiAyNS4zODMyWk0xNjEuNjUyIDU1QzE1Ni44MDYgNTUgMTUyLjk4IDUzLjI5MTUgMTUwLjE3NCA0OS44NzQ1QzE0Ny4zOTEgNDYuNDM0MyAxNDYgNDEuNTc0MyAxNDYgMzUuMjk0NEMxNDYgMjguOTIyMSAxNDcuMjY0IDIzLjk0NjYgMTQ5Ljc5MSAyMC4zNjhDMTUyLjMxOSAxNi43ODkzIDE1NS44NDMgMTUgMTYwLjM2NSAxNUMxNjQuNTg2IDE1IDE2Ny45MTMgMTYuNTM1NCAxNzAuMzQ4IDE5LjYwNjFDMTcyLjc4MyAyMi42NTM3IDE3NCAyNi45MzY1IDE3NCAzMi40NTQ1VjM3LjVIMTU1LjVDMTU1LjU3IDQwLjk0MDEgMTU2LjE2OCA0My4zNzUyIDE1Ny41MTMgNDUuMDYwNkMxNTguODU4IDQ2LjcyMjkgMTYwLjcxMyA0Ny41NTQxIDE2My4wNzggNDcuNTU0MUMxNjYuMDkzIDQ3LjU1NDEgMTY5LjE3NyA0Ni42MTkgMTcyLjMzIDQ0Ljc0ODlWNTIuMzMzM0MxNjkuMzYyIDU0LjExMTEgMTY1LjgwMyA1NSAxNjEuNjUyIDU1Wk0xNjAuMjk2IDIyLjA5OTZDMTU4Ljk3NCAyMi4wOTk2IDE1Ny44ODQgMjIuODAzOCAxNTcuMDI2IDI0LjIxMjFDMTU2LjE2OCAyNS41OTc0IDE1NS42MzkgMjguMDY3OCAxNTUuNSAzMUgxNjVDMTY0Ljk1NCAyOC4xODMzIDE2NC40NDYgMjUuNzM1OSAxNjMuNjM1IDI0LjI4MTRDMTYyLjgyMyAyMi44MjY4IDE2MS43MSAyMi4wOTk2IDE2MC4yOTYgMjIuMDk5NlpNMTk2LjUgMzFWNTRIMjA1LjVWMjkuMTk5MUMyMDUuNSAyNC41NTg5IDIwNC42MjMgMjEuMDMyMyAyMDIuODY4IDE4LjYxOTRDMjAxLjEzNyAxNi4yMDY1IDE5OC41MTYgMTUgMTk1LjAwNyAxNUMxOTIuOTMgMTUgMTkxLjExNyAxNS41MTA0IDE4OS41NyAxNi41MzEzQzE4OC4wMjQgMTcuNTI4OSAxODYuODMxIDE5LjIxMzUgMTg2IDIxSDE4NS41TDE4NC4yNSAxNkgxNzdWNTRIMTg2LjVWMzUuNzVDMTg2LjUgMzEuMDQwMiAxODYuNjczIDI3LjgzMDIgMTg3LjU5NyAyNS44NTgyQzE4OC41MiAyMy44NjI4IDE4OS45NzQgMjIuODY1MiAxOTEuOTYgMjIuODY1MkMxOTMuNDYxIDIyLjg2NTIgMTk0LjU0NiAyMy41ODQ0IDE5NS4yMTUgMjUuMDIyOUMxOTUuODg1IDI2LjQ2MTQgMTk2LjUgMjguMTkyNyAxOTYuNSAzMVoiIGNsaXAtcnVsZT0iZXZlbm9kZCIgZmlsbC1ydWxlPSJldmVub2RkIi8+JiN4YTs8L3N2Zz4=;" vertex="1" parent="1">
          <mxGeometry x="611.64" y="460" width="157.18" height="30" as="geometry" />
        </mxCell>
        <mxCell id="Jq-mPfwN_62_-WVwa9c7-10" value="PII Detect Dashboard&lt;div&gt;(Beta &amp;amp; Production)&lt;/div&gt;" style="image;aspect=fixed;html=1;points=[];align=center;fontSize=12;image=img/lib/azure2/general/Dashboard2.svg;" vertex="1" parent="1">
          <mxGeometry x="740" y="500.25" width="68" height="48" as="geometry" />
        </mxCell>
        <mxCell id="Jq-mPfwN_62_-WVwa9c7-15" value="On-Premise&lt;div&gt;(Beta &amp;amp; Production)&lt;/div&gt;" style="image;aspect=fixed;perimeter=ellipsePerimeter;html=1;align=center;shadow=0;dashed=0;spacingTop=3;image=img/lib/active_directory/server_farm.svg;" vertex="1" parent="1">
          <mxGeometry x="665.24" y="260" width="50" height="50" as="geometry" />
        </mxCell>
        <mxCell id="Jq-mPfwN_62_-WVwa9c7-16" value="On-Cloud&lt;div&gt;(Beta &amp;amp; Production)&lt;/div&gt;" style="image;aspect=fixed;perimeter=ellipsePerimeter;html=1;align=center;shadow=0;dashed=0;spacingTop=3;image=img/lib/active_directory/server_farm.svg;" vertex="1" parent="1">
          <mxGeometry x="665.24" y="157.19" width="50" height="50" as="geometry" />
        </mxCell>
        <mxCell id="Jq-mPfwN_62_-WVwa9c7-37" value="" style="group" vertex="1" connectable="0" parent="1">
          <mxGeometry y="120" width="192.47" height="240" as="geometry" />
        </mxCell>
        <mxCell id="Jq-mPfwN_62_-WVwa9c7-35" value="Developer IDE" style="rounded=1;whiteSpace=wrap;html=1;verticalAlign=top;shadow=0;" vertex="1" parent="Jq-mPfwN_62_-WVwa9c7-37">
          <mxGeometry width="192.47" height="240.00000000000003" as="geometry" />
        </mxCell>
        <mxCell id="Jq-mPfwN_62_-WVwa9c7-12" value="VS Code IDE" style="shape=image;verticalLabelPosition=bottom;labelBackgroundColor=default;verticalAlign=top;aspect=fixed;imageAspect=0;editableCssRules=.*;image=data:image/svg+xml,PHN2ZyB4bWxucz0iaHR0cDovL3d3dy53My5vcmcvMjAwMC9zdmciIGZpbGw9Im5vbmUiIHZpZXdCb3g9IjAgMC4wMDA0NDM1Nzk1NDE3NTIxMTQ5IDYzLjk5OTkzODk2NDg0Mzc1IDYzLjU5NDE1NDM1NzkxMDE1NiIgaGVpZ2h0PSI2My41OTQxNTQzNTc5MTAxNTYiIHdpZHRoPSI2My45OTk5Mzg5NjQ4NDM3NSI+JiN4YTs8cGF0aCBmaWxsPSIjMDA2NUE5IiBkPSJNNjEuNjQ0MyA2LjcyNDI5TDQ4LjU1OTYgMC40MDAwMDZDNDcuODQxMSAwLjA3Njc0NDMgNDcuMDQyNiAtMC4wMjUzNjUgNDYuMjY1OSAwLjEwNjY3OEM0NS40ODkyIDAuMjM4NzIyIDQ0Ljc2OTMgMC41OTg5NDQgNDQuMTk4IDEuMTQxNDdMMC44NDM5NzUgNDAuNDgyOUMwLjU3NzM3MSA0MC43MzU1IDAuMzY1MDQgNDEuMDM5OSAwLjIxOTkzNyA0MS4zNzczQzAuMDc0ODMzMSA0MS43MTQ4IDAgNDIuMDc4MyAwIDQyLjQ0NTZDMCA0Mi44MTI5IDAuMDc0ODMzMSA0My4xNzY0IDAuMjE5OTM3IDQzLjUxMzhDMC4zNjUwNCA0My44NTEzIDAuNTc3MzcxIDQ0LjE1NTYgMC44NDM5NzUgNDQuNDA4M0w0LjM3Njg1IDQ3LjU5MjJDNC44NTQ2NiA0Ny45ODk1IDUuNDU2NDYgNDguMjA3IDYuMDc3ODYgNDguMjA3QzYuNjk5MjcgNDguMjA3IDcuMzAxMDcgNDcuOTg5NSA3Ljc3ODg4IDQ3LjU5MjJMNTkuNjM4IDguMzM4MDdDNjAuMDI5NyA4LjAxMjE5IDYwLjUwNjkgNy44MDU2NyA2MS4wMTI2IDcuNzQzMDZDNjEuNTE4MyA3LjY4MDQ2IDYyLjAzMTQgNy43NjQ0IDYyLjQ5MDcgNy45ODQ5MUM2Mi45NTAxIDguMjA1NDIgNjMuMzM2NiA4LjU1MzIyIDYzLjYwNCA4Ljk4Njk2QzYzLjg3MTUgOS40MjA3IDY0LjAwODggOS45MjIxMyA2My45OTk2IDEwLjQzMTZWMTAuNDMxNkM2NC4wMDk4IDkuNjUxNjIgNjMuNzkyNSA4Ljg4NTUzIDYzLjM3NDIgOC4yMjcxQzYyLjk1NTkgNy41Njg2NiA2Mi4zNTQ4IDcuMDQ2NDMgNjEuNjQ0MyA2LjcyNDI5VjYuNzI0MjlaIi8+JiN4YTs8cGF0aCBmaWxsPSIjMDA3QUNDIiBkPSJNNjEuNjQ0MyA1Ni43OTUxTDQ4LjU1OTYgNjMuMTE5NEM0Ny44NDExIDYzLjQ0MjcgNDcuMDQyNiA2My41NDQ4IDQ2LjI2NTkgNjMuNDEyN0M0NS40ODkyIDYzLjI4MDcgNDQuNzY5MyA2Mi45MjA1IDQ0LjE5OCA2Mi4zNzc5TDAuODQzOTc1IDIzLjAzNjVDMC41NzczNzEgMjIuNzgzOSAwLjM2NTA0IDIyLjQ3OTUgMC4yMTk5MzcgMjIuMTQyMUMwLjA3NDgzMzEgMjEuODA0NiAwIDIxLjQ0MTIgMCAyMS4wNzM4QzAgMjAuNzA2NSAwLjA3NDgzMzEgMjAuMzQzIDAuMjE5OTM3IDIwLjAwNTZDMC4zNjUwNCAxOS42NjgyIDAuNTc3MzcxIDE5LjM2MzggMC44NDM5NzUgMTkuMTExMUw0LjM3Njg1IDE1LjkyNzJDNC44NTQ2NiAxNS41Mjk5IDUuNDU2NDYgMTUuMzEyNCA2LjA3Nzg2IDE1LjMxMjRDNi42OTkyNyAxNS4zMTI0IDcuMzAxMDcgMTUuNTI5OSA3Ljc3ODg4IDE1LjkyNzJMNTkuNjM4IDU1LjE4MTNDNjAuMDI5NyA1NS41MDcyIDYwLjUwNjkgNTUuNzEzNyA2MS4wMTI2IDU1Ljc3NjRDNjEuNTE4MyA1NS44MzkgNjIuMDMxNCA1NS43NTUgNjIuNDkwNyA1NS41MzQ1QzYyLjk1MDEgNTUuMzE0IDYzLjMzNjYgNTQuOTY2MiA2My42MDQgNTQuNTMyNUM2My44NzE1IDU0LjA5ODcgNjQuMDA4OCA1My41OTczIDYzLjk5OTYgNTMuMDg3OFY1My4wODc4QzY0LjAwOTggNTMuODY3OCA2My43OTI1IDU0LjYzMzkgNjMuMzc0MiA1NS4yOTIzQzYyLjk1NTkgNTUuOTUwOCA2Mi4zNTQ4IDU2LjQ3MyA2MS42NDQzIDU2Ljc5NTFWNTYuNzk1MVoiLz4mI3hhOzxwYXRoIGZpbGw9IiMxRjlDRjAiIGQ9Ik00OC40NzIzIDYzLjExOUM0Ny43NTM4IDYzLjQ0MjMgNDYuOTU1NCA2My41NDQ0IDQ2LjE3ODYgNjMuNDEyM0M0NS40MDE5IDYzLjI4MDMgNDQuNjgyMSA2Mi45MjAxIDQ0LjExMDcgNjIuMzc3NUM0NC40NDAxIDYyLjcwMzcgNDQuODU4MyA2Mi45MjU1IDQ1LjMxMzEgNjMuMDE1MUM0NS43Njc4IDYzLjEwNDYgNDYuMjM4OSA2My4wNTggNDYuNjY3MyA2Mi44ODExQzQ3LjA5NTcgNjIuNzA0MSA0Ny40NjI0IDYyLjQwNDcgNDcuNzIxNCA2Mi4wMjAzQzQ3Ljk4MDQgNjEuNjM1OSA0OC4xMjAzIDYxLjE4MzYgNDguMTIzNCA2MC43MjAxVjIuNzk4NDNDNDguMTQyNyAyLjMwMzY2IDQ4LjAwNTcgMS44MTUzNiA0Ny43MzE2IDEuNDAyOTVDNDcuNDU3NiAwLjk5MDUzNCA0Ny4wNjA1IDAuNjc0OTc2IDQ2LjU5NjkgMC41MDExMTVDNDYuMTMzMyAwLjMyNzI1NCA0NS42MjY3IDAuMzAzOTM3IDQ1LjE0OSAwLjQzNDQ3NUM0NC42NzE0IDAuNTY1MDEzIDQ0LjI0NyAwLjg0Mjc2NiA0My45MzYzIDEuMjI4MjdDNDQuNTA3NiAwLjY4NTczNiA0NS4yMjc1IDAuMzI1NTE0IDQ2LjAwNDIgMC4xOTM0N0M0Ni43ODA5IDAuMDYxNDI3IDQ3LjU3OTQgMC4xNjM1MzYgNDguMjk3OSAwLjQ4Njc5OEw2MS4zODI2IDYuODExMDhDNjIuMDU2NSA3LjEzNjQyIDYyLjYyNjEgNy42NDM3NSA2My4wMjY4IDguMjc1NzVDNjMuNDI3NiA4LjkwNzc1IDYzLjY0MzcgOS42MzkyNCA2My42NTA2IDEwLjM4NzZWNTMuMzA1NUM2My42NDM3IDU0LjA1MzggNjMuNDI3NiA1NC43ODUzIDYzLjAyNjggNTUuNDE3M0M2Mi42MjYxIDU2LjA0OTMgNjIuMDU2NSA1Ni41NTY2IDYxLjM4MjYgNTYuODgxOUw0OC40NzIzIDYzLjExOVoiLz4mI3hhOzxnIG9wYWNpdHk9IjAuMjUiPiYjeGE7PHBhdGggZmlsbD0idXJsKCNwYWludDBfbGluZWFyXzcyNDNfMTIxMTMpIiBkPSJNNDUuMjg4NCA2My4yNTAxQzQ1Ljc4MDggNjMuNDc3MSA0Ni4zMTY0IDYzLjU5NDYgNDYuODU4NiA2My41OTQ2QzQ3LjQwMDcgNjMuNTk0NiA0Ny45MzY0IDYzLjQ3NzEgNDguNDI4NyA2My4yNTAxTDYxLjUxMzUgNTYuOTI1OEM2Mi4xOTM5IDU2LjYwODkgNjIuNzY5MiA1Ni4xMDM2IDYzLjE3MTIgNTUuNDY5N0M2My41NzMxIDU0LjgzNTggNjMuNzg0OSA1NC4wOTk5IDYzLjc4MTUgNTMuMzQ5M1YxMC4zMDA2QzYzLjc4NDkgOS41NTAwMiA2My41NzMxIDguODE0MTcgNjMuMTcxMiA4LjE4MDI4QzYyLjc2OTIgNy41NDYzOSA2Mi4xOTM5IDcuMDQxMDQgNjEuNTEzNSA2LjcyNDEyTDQ4LjQyODcgMC4zOTk4NDJDNDcuNzg0MSAwLjA4NjI5NDMgNDcuMDY2NyAtMC4wNDY4Mjk2IDQ2LjM1MjUgMC4wMTQ2MDU0QzQ1LjYzODMgMC4wNzYwNDA0IDQ0Ljk1NDEgMC4zMjk3NDEgNDQuMzcyNSAwLjc0ODc2N0w0My44OTI3IDEuMjI4NTRMMTguODU3MyAyNC4xMjY4TDcuNzc4ODggMTUuNzk2MkM3LjMwMTA3IDE1LjM5ODkgNi42OTkyNyAxNS4xODE0IDYuMDc3ODYgMTUuMTgxNEM1LjQ1NjQ2IDE1LjE4MTQgNC44NTQ2NiAxNS4zOTg5IDQuMzc2ODUgMTUuNzk2MkwwLjg0Mzk3NSAxOC45ODAxQzAuNTc3MzcxIDE5LjIzMjggMC4zNjUwNCAxOS41MzcyIDAuMjE5OTM3IDE5Ljg3NDZDMC4wNzQ4MzMxIDIwLjIxMjEgMCAyMC41NzU1IDAgMjAuOTQyOUMwIDIxLjMxMDIgMC4wNzQ4MzMxIDIxLjY3MzYgMC4yMTk5MzcgMjIuMDExMUMwLjM2NTA0IDIyLjM0ODUgMC41NzczNzEgMjIuNjUyOSAwLjg0Mzk3NSAyMi45MDU2TDEwLjM1MjIgMzEuNjI4N0wwLjg0Mzk3NSA0MC40ODI3QzAuNTc3MzcxIDQwLjczNTQgMC4zNjUwNCA0MS4wMzk3IDAuMjE5OTM3IDQxLjM3NzJDMC4wNzQ4MzMxIDQxLjcxNDYgMCA0Mi4wNzgxIDAgNDIuNDQ1NEMwIDQyLjgxMjcgMC4wNzQ4MzMxIDQzLjE3NjIgMC4yMTk5MzcgNDMuNTEzNkMwLjM2NTA0IDQzLjg1MTEgMC41NzczNzEgNDQuMTU1NCAwLjg0Mzk3NSA0NC40MDgxTDQuMzc2ODUgNDcuNTkyMUM0Ljg1NDY2IDQ3Ljk4OTQgNS40NTY0NiA0OC4yMDY5IDYuMDc3ODYgNDguMjA2OUM2LjY5OTI3IDQ4LjIwNjkgNy4zMDEwNyA0Ny45ODk0IDcuNzc4ODggNDcuNTkyMUwxOC44NTczIDM5LjM5MjNMNDMuODkyNyA2Mi4yOTA2QzQ0LjI4MzUgNjIuNzA3MSA0NC43NTk2IDYzLjAzNDQgNDUuMjg4NCA2My4yNTAxVjYzLjI1MDFaTTQ3LjkwNTQgMTcuMjc5MUwyOC44MDE3IDMxLjc1OTZMNDcuOTA1NCA0Ni4yNFYxNy4yNzkxWiIgY2xpcC1ydWxlPSJldmVub2RkIiBmaWxsLXJ1bGU9ImV2ZW5vZGQiLz4mI3hhOzwvZz4mI3hhOzxkZWZzPiYjeGE7PGxpbmVhckdyYWRpZW50IGdyYWRpZW50VW5pdHM9InVzZXJTcGFjZU9uVXNlIiB5Mj0iNjMuNTU1NCIgeDI9IjMxLjk0MiIgeTE9IjAuMDA3MzAwMTYiIHgxPSIzMS45NDIiIGlkPSJwYWludDBfbGluZWFyXzcyNDNfMTIxMTMiPiYjeGE7PHN0b3Agc3RvcC1jb2xvcj0id2hpdGUiLz4mI3hhOzxzdG9wIHN0b3Atb3BhY2l0eT0iMCIgc3RvcC1jb2xvcj0id2hpdGUiIG9mZnNldD0iMSIvPiYjeGE7PC9saW5lYXJHcmFkaWVudD4mI3hhOzwvZGVmcz4mI3hhOzwvc3ZnPg==;" vertex="1" parent="Jq-mPfwN_62_-WVwa9c7-37">
          <mxGeometry x="120" y="56.19634030006071" width="36.62" height="36.62" as="geometry" />
        </mxCell>
        <mxCell id="Jq-mPfwN_62_-WVwa9c7-13" value="IntelliJ IDE" style="shape=image;verticalLabelPosition=bottom;labelBackgroundColor=default;verticalAlign=top;aspect=fixed;imageAspect=0;editableCssRules=.*;image=data:image/svg+xml,PHN2ZyB4bWxucz0iaHR0cDovL3d3dy53My5vcmcvMjAwMC9zdmciIGZpbGw9Im5vbmUiIHZpZXdCb3g9IjAuMDQ3MzYzMzAzNjAxNzQxNzkgMCA2My44NTc5MzY4NTkxMzA4NiA2My44NTc3MDAzNDc5MDAzOSIgaGVpZ2h0PSI2My44NTc3MDAzNDc5MDAzOSIgd2lkdGg9IjYzLjg1NzkzNjg1OTEzMDg2Ij4mI3hhOzxwYXRoIGZpbGw9InVybCgjcGFpbnQwX2xpbmVhcl83MzQ2XzEwNjAxKSIgZD0iTTE2LjIxMzYgNDkuODI0OUwwLjgwNjE1MiAzNy41OTM4TDguNDg2MTUgMjMuMzcxNkwzMC40MzU4IDMxLjk1MjNMMTYuMjEzNiA0OS44MjQ5WiIvPiYjeGE7PHBhdGggZmlsbD0idXJsKCNwYWludDFfbGluZWFyXzczNDZfMTA2MDEpIiBkPSJNNjMuOTA0OSAxNy4wNjY2TDYyLjcxOTcgNTQuMDQ0M0wzOC4yMTAxIDYzLjg1NzdMMjMuNDE4OSA1NC4zNzYyTDQ1LjAzNjcgMzEuOTUyNUwzNS41NTUyIDExLjIzNTRMNDQuMDQxMiAxLjA0Mjg1TDYzLjkwNDkgMTcuMDY2NloiLz4mI3hhOzxwYXRoIGZpbGw9InVybCgjcGFpbnQyX2xpbmVhcl83MzQ2XzEwNjAxKSIgZD0iTTYzLjkwNTMgMTcuMDY2Nkw0NC41MTU3IDQwLjA1OTJMMzUuNTU1NyAxMS4yMzU0TDQ0LjA0MTYgMS4wNDI4NUw2My45MDUzIDE3LjA2NjZaIi8+JiN4YTs8cGF0aCBmaWxsPSJ1cmwoI3BhaW50M19saW5lYXJfNzM0Nl8xMDYwMSkiIGQ9Ik0zMC44MTQ3IDUzLjA0ODlMNS4xNjczNiA2Mi4zNDA3TDkuMjkxODEgNDcuOTI4OUwxNC42NDg4IDMwLjE5ODVMMC4wNDczNjMzIDI1LjMxNTZMOS4yOTE4MSAwTDI5LjM0NTEgMi40NjUxOUw0OS4wNjY2IDI1LjAzMTFMMzAuODE0NyA1My4wNDg5WiIvPiYjeGE7PHBhdGggZmlsbD0iYmxhY2siIGQ9Ik01MS45NTg1IDEyLjMyNjNIMTIuNTYzVjUxLjcyMTlINTEuOTU4NVYxMi4zMjYzWiIvPiYjeGE7PHBhdGggZmlsbD0id2hpdGUiIGQ9Ik0zMS4wMDQ3IDQ0LjM3MzhIMTYuMjEzNlY0Ni44MzlIMzEuMDA0N1Y0NC4zNzM4WiIvPiYjeGE7PHBhdGggZmlsbD0id2hpdGUiIGQ9Ik0yNi44Nzk3IDIwLjQzMjVWMTcuNDQ1OEgxOC42NzgyVjIwLjQzMjVIMjEuMDQ4NlYzMC43NjczSDE4LjY3ODJWMzMuNzUzOUgyNi44Nzk3VjMwLjc2NzNIMjQuNjA0MVYyMC40MzI1SDI2Ljg3OTdaIi8+JiN4YTs8cGF0aCBmaWxsPSJ3aGl0ZSIgZD0iTTM0Ljc0OTMgMzQuMDM4NEMzMy42MzQzIDM0LjA1NCAzMi41MzA4IDMzLjgxMDYgMzEuNTI1NiAzMy4zMjczQzMwLjczOTQgMzIuODYwMiAzMC4wMzQ4IDMyLjI2NzYgMjkuNDM5NyAzMS41NzMyTDMxLjcxNTMgMjkuMDEzMkMzMi4wODU0IDI5LjUwMDMgMzIuNTUzOCAyOS45MDQxIDMzLjA5MDEgMzAuMTk4NEMzMy41NTg1IDMwLjQ5NjYgMzQuMDk5NSAzMC42NjA1IDM0LjY1NDUgMzAuNjcyNUMzNC45NTA3IDMwLjY4MjEgMzUuMjQ1OCAzMC42MzI1IDM1LjUyMjUgMzAuNTI2N0MzNS43OTk0IDMwLjQyMDkgMzYuMDUyMiAzMC4yNjA5IDM2LjI2NjQgMzAuMDU2MkMzNi42OTc1IDI5LjQzMjUgMzYuODk4NyAyOC42Nzg0IDM2LjgzNTMgMjcuOTIyOFYxNy40NDU4SDQwLjQ4NTZWMjguMTEyNUM0MC41MjEzIDI4Ljk4MiA0MC4zOTI3IDI5Ljg1MDUgNDAuMTA2NCAzMC42NzI1QzM5Ljg0OTggMzEuMzY3MiAzOS40NDU0IDMxLjk5OCAzOC45MjEyIDMyLjUyMTRDMzguNDIxMyAzMy4wMjk2IDM3LjgwMTkgMzMuNDA0NCAzNy4xMTk3IDMzLjYxMTdDMzYuMzU3NiAzMy44ODAxIDM1LjU1NzMgMzQuMDI0MiAzNC43NDkzIDM0LjAzODRaIi8+JiN4YTs8ZGVmcz4mI3hhOzxsaW5lYXJHcmFkaWVudCBncmFkaWVudFVuaXRzPSJ1c2VyU3BhY2VPblVzZSIgeTI9IjM2LjU5ODIiIHgyPSIzMC40MzU4IiB5MT0iMzYuNTk4MiIgeDE9IjAuODA2MTUyIiBpZD0icGFpbnQwX2xpbmVhcl83MzQ2XzEwNjAxIj4mI3hhOzxzdG9wIHN0b3AtY29sb3I9IiNGOTdBMTIiIG9mZnNldD0iMC4yNiIvPiYjeGE7PHN0b3Agc3RvcC1jb2xvcj0iI0IwN0I1OCIgb2Zmc2V0PSIwLjQ2Ii8+JiN4YTs8c3RvcCBzdG9wLWNvbG9yPSIjNTc3QkFFIiBvZmZzZXQ9IjAuNzIiLz4mI3hhOzxzdG9wIHN0b3AtY29sb3I9IiMxRTdDRTUiIG9mZnNldD0iMC45MSIvPiYjeGE7PHN0b3Agc3RvcC1jb2xvcj0iIzA4N0NGQSIgb2Zmc2V0PSIxIi8+JiN4YTs8L2xpbmVhckdyYWRpZW50PiYjeGE7PGxpbmVhckdyYWRpZW50IGdyYWRpZW50VW5pdHM9InVzZXJTcGFjZU9uVXNlIiB5Mj0iNDkuODI1MSIgeDI9IjcyLjUzMyIgeTE9IjIyLjc1NTUiIHgxPSIyMy41NjEyIiBpZD0icGFpbnQxX2xpbmVhcl83MzQ2XzEwNjAxIj4mI3hhOzxzdG9wIHN0b3AtY29sb3I9IiNGOTdBMTIiLz4mI3hhOzxzdG9wIHN0b3AtY29sb3I9IiNDQjdBM0UiIG9mZnNldD0iMC4wNyIvPiYjeGE7PHN0b3Agc3RvcC1jb2xvcj0iIzlFN0I2QSIgb2Zmc2V0PSIwLjE1Ii8+JiN4YTs8c3RvcCBzdG9wLWNvbG9yPSIjNzU3QjkxIiBvZmZzZXQ9IjAuMjQiLz4mI3hhOzxzdG9wIHN0b3AtY29sb3I9IiM1MzdCQjEiIG9mZnNldD0iMC4zMyIvPiYjeGE7PHN0b3Agc3RvcC1jb2xvcj0iIzM4N0NDQyIgb2Zmc2V0PSIwLjQzIi8+JiN4YTs8c3RvcCBzdG9wLWNvbG9yPSIjMjM3Q0UwIiBvZmZzZXQ9IjAuNTQiLz4mI3hhOzxzdG9wIHN0b3AtY29sb3I9IiMxNDdDRUYiIG9mZnNldD0iMC42NiIvPiYjeGE7PHN0b3Agc3RvcC1jb2xvcj0iIzBCN0NGNyIgb2Zmc2V0PSIwLjc5Ii8+JiN4YTs8c3RvcCBzdG9wLWNvbG9yPSIjMDg3Q0ZBIiBvZmZzZXQ9IjEiLz4mI3hhOzwvbGluZWFyR3JhZGllbnQ+JiN4YTs8bGluZWFyR3JhZGllbnQgZ3JhZGllbnRVbml0cz0idXNlclNwYWNlT25Vc2UiIHkyPSItMS41MTcxNSIgeDI9IjQ0LjEzNjQiIHkxPSIzOS4yMDU4IiB4MT0iNTcuNzQyMyIgaWQ9InBhaW50Ml9saW5lYXJfNzM0Nl8xMDYwMSI+JiN4YTs8c3RvcCBzdG9wLWNvbG9yPSIjRkUzMTVEIi8+JiN4YTs8c3RvcCBzdG9wLWNvbG9yPSIjQ0I0MTdFIiBvZmZzZXQ9IjAuMDgiLz4mI3hhOzxzdG9wIHN0b3AtY29sb3I9IiM5RTRFOUIiIG9mZnNldD0iMC4xNiIvPiYjeGE7PHN0b3Agc3RvcC1jb2xvcj0iIzc1NUJCNCIgb2Zmc2V0PSIwLjI1Ii8+JiN4YTs8c3RvcCBzdG9wLWNvbG9yPSIjNTM2NUNBIiBvZmZzZXQ9IjAuMzQiLz4mI3hhOzxzdG9wIHN0b3AtY29sb3I9IiMzODZEREIiIG9mZnNldD0iMC40NCIvPiYjeGE7PHN0b3Agc3RvcC1jb2xvcj0iIzIzNzRFOSIgb2Zmc2V0PSIwLjU0Ii8+JiN4YTs8c3RvcCBzdG9wLWNvbG9yPSIjMTQ3OEYzIiBvZmZzZXQ9IjAuNjYiLz4mI3hhOzxzdG9wIHN0b3AtY29sb3I9IiMwQjdCRjgiIG9mZnNldD0iMC43OSIvPiYjeGE7PHN0b3Agc3RvcC1jb2xvcj0iIzA4N0NGQSIgb2Zmc2V0PSIxIi8+JiN4YTs8L2xpbmVhckdyYWRpZW50PiYjeGE7PGxpbmVhckdyYWRpZW50IGdyYWRpZW50VW5pdHM9InVzZXJTcGFjZU9uVXNlIiB5Mj0iODIuNjc4NSIgeDI9IjUwLjY3ODQiIHkxPSIxNS4wNzU2IiB4MT0iOS44MTMyOSIgaWQ9InBhaW50M19saW5lYXJfNzM0Nl8xMDYwMSI+JiN4YTs8c3RvcCBzdG9wLWNvbG9yPSIjRkUzMTVEIi8+JiN4YTs8c3RvcCBzdG9wLWNvbG9yPSIjRjYzNDYyIiBvZmZzZXQ9IjAuMDQiLz4mI3hhOzxzdG9wIHN0b3AtY29sb3I9IiNERjNBNzEiIG9mZnNldD0iMC4xIi8+JiN4YTs8c3RvcCBzdG9wLWNvbG9yPSIjQzI0MzgzIiBvZmZzZXQ9IjAuMTciLz4mI3hhOzxzdG9wIHN0b3AtY29sb3I9IiNBRDRBOTEiIG9mZnNldD0iMC4yOSIvPiYjeGE7PHN0b3Agc3RvcC1jb2xvcj0iIzc1NUJCNCIgb2Zmc2V0PSIwLjU1Ii8+JiN4YTs8c3RvcCBzdG9wLWNvbG9yPSIjMUQ3NkVEIiBvZmZzZXQ9IjAuOTIiLz4mI3hhOzxzdG9wIHN0b3AtY29sb3I9IiMwODdDRkEiIG9mZnNldD0iMSIvPiYjeGE7PC9saW5lYXJHcmFkaWVudD4mI3hhOzwvZGVmcz4mI3hhOzwvc3ZnPg==;" vertex="1" parent="Jq-mPfwN_62_-WVwa9c7-37">
          <mxGeometry x="19.379999999999995" y="54.114994363021424" width="40.62" height="40.62" as="geometry" />
        </mxCell>
        <mxCell id="Jq-mPfwN_62_-WVwa9c7-24" value="IDE Extension" style="shape=image;verticalLabelPosition=bottom;labelBackgroundColor=default;verticalAlign=top;aspect=fixed;imageAspect=0;image=data:image/png,iVBORw0KGgoAAAANSUhEUgAABQAAAAGUCAYAAABqXI+xAAAKq2lDQ1BpY2MAAEiJlZYHVFPZFobPvemNFghFSuhNkE4A6TX03myEJEAoMSYEFbEzOAIjiogIKAIOShFsFBkLYgHLoFjAgk6QQUUdBws2VN4FHnHmvfXeW29nnZxv/Xefffa+5561NgBkCUsgSIflAMjgZwrDfT3osXHxdNxjAAEsoAAaUGKxRQL30NBAgNjc/Hd7P4B4I3bLbDrWvz//rybP4YrYAEChCCdyROwMhE8go5ctEGYCgMpBdN2VmYJp3o+wohBJEOET05w8y73TnDjLQzM+keGeCI8DgCezWMJkAEhfEJ2exU5G4pDVEbbgc3h8hKfrcWGnsDgIFyI8PyNj+TR3IGyU+Jc4yX+LmSiNyWIlS3m2lhnDe/FEgnTW6v/zdfxvy0gXz+2hiwxyitAvfLrm6feWtjxAyvzE4JA55nFm/Gc4RewXNcdskWf8HHNYXgHStenBgXOcxPNhSuNkMiPnWLg8XBqfK/KOmGOW8Pte4rQod+m+XKY0ZnZKZMwcZ/Gig+dYlBYR8N3HU6oLxeHSnJOEPtIaM0R/qYvHlPpnpkT6SWtkfc+NK4qV5sDhenlLdX6U1EeQ6SGNL0gPlfpz032luigrQro2E/nYvq8Nlb6fVJZ/6BwDL+ANApEfHUQBK2ADLIFFJndV5nTynssFq4W85JRMujtye7h0Jp9tPp9uZWHJAGD6Ls4e9du7M3cMouG/a2W1AHgj5wclftcYLgA0IaethPuu6b8DQAY5h1Pn2WJh1qyGnv7DACKQRTJUBZrIt2QEzJDc7IATcEOy9QchIBLEgaWADVJABhCClSAHbAR5oABsB7tAOagCteAQOAyOgXZwCpwDl8BVcAPcAQ+ABIyCF2AcvAeTEAThIApEhVQhLUgfMoWsIAbkAnlDgVA4FAclQMkQHxJDOdBmqAAqhsqhaqgeOgqdhM5Bl6F+6B40DI1Bb6DPMAomw4qwBmwAL4AZsDscAEfCS+BkeAWcDefC2+AyuAZugtvgc/BV+A4sgV/AEyiAIqFoKG2UGYqB8kSFoOJRSSghah0qH1WKqkE1ozpRPahbKAnqJeoTGoumouloM7QT2g8dhWajV6DXoQvR5ehD6Db0BfQt9DB6HP0NQ8GoY0wxjhgmJhaTjFmJycOUYuowrZiLmDuYUcx7LBZLwxpi7bF+2DhsKnYNthC7F9uC7cL2Y0ewEzgcThVninPGheBYuExcHm4Prgl3FncTN4r7iCfhtfBWeB98PJ6P34QvxTfgz+Bv4p/iJwlyBH2CIyGEwCGsJhQRDhA6CdcJo4RJojzRkOhMjCSmEjcSy4jNxIvEIeJbEomkQ3IghZF4pA2kMtIRUi9pmPSJrEA2IXuSF5PF5G3kg+Qu8j3yWwqFYkBxo8RTMinbKPWU85RHlI8yVBlzGaYMR2a9TIVMm8xNmVeyBFl9WXfZpbLZsqWyx2Wvy76UI8gZyHnKseTWyVXInZQblJuQp8pbyofIZ8gXyjfIX5Z/poBTMFDwVuAo5CrUKpxXGKGiqLpUTyqbupl6gHqROqqIVTRUZCqmKhYoHlbsUxxXUlCyUYpWWqVUoXRaSUJD0QxoTFo6rYh2jDZA+6ysoeyuzFXeqtysfFP5g8o8FTcVrkq+SovKHZXPqnRVb9U01R2q7aoP1dBqJmphaivV9qldVHs5T3Ge0zz2vPx5x+bdV4fVTdTD1deo16pfU5/Q0NTw1RBo7NE4r/FSk6bpppmqWaJ5RnNMi6rlosXTKtE6q/WcrkR3p6fTy+gX6OPa6tp+2mLtau0+7UkdQ50onU06LToPdYm6DN0k3RLdbt1xPS29IL0cvUa9+/oEfYZ+iv5u/R79DwaGBjEGWwzaDZ4ZqhgyDbMNGw2HjChGrkYrjGqMbhtjjRnGacZ7jW+YwCa2JikmFSbXTWFTO1Oe6V7T/vmY+Q7z+fNr5g+akc3czbLMGs2GzWnmgeabzNvNXy3QWxC/YMeCngXfLGwt0i0OWDywVLD0t9xk2Wn5xsrEim1VYXXbmmLtY73eusP6tY2pDddmn81dW6ptkO0W227br3b2dkK7Zrsxez37BPtK+0GGIiOUUcjodcA4eDisdzjl8MnRzjHT8Zjjn05mTmlODU7PFhou5C48sHDEWceZ5VztLHGhuyS47HeRuGq7slxrXB+76bpx3Orcnrobu6e6N7m/8rDwEHq0enzwdPRc69nlhfLy9cr36vNW8I7yLvd+5KPjk+zT6DPua+u7xrfLD+MX4LfDb5CpwWQz65nj/vb+a/0vBJADIgLKAx4HmgQKAzuD4CD/oJ1BQ8H6wfzg9hAQwgzZGfIw1DB0RegvYdiw0LCKsCfhluE54T0R1IhlEQ0R7yM9IosiH0QZRYmjuqNloxdH10d/iPGKKY6RxC6IXRt7NU4tjhfXEY+Lj46vi59Y5L1o16LRxbaL8xYPLDFcsmrJ5aVqS9OXnl4mu4y17HgCJiEmoSHhCyuEVcOaSGQmViaOsz3Zu9kvOG6cEs4Y15lbzH2a5JxUnPQs2Tl5Z/JYimtKacpLnievnPc61S+1KvVDWkjawbSp9Jj0lgx8RkLGSb4CP41/Ybnm8lXL+wWmgjyBZIXjil0rxoUBwjoRJFoi6shURJqea2Ij8Q/i4SyXrIqsjyujVx5fJb+Kv+raapPVW1c/zfbJ/nkNeg17TXeOds7GnOG17mur10HrEtd1r9ddn7t+dIPvhkMbiRvTNv66yWJT8aZ3m2M2d+Zq5G7IHfnB94fGPJk8Yd7gFqctVT+if+T92LfVeuuerd/yOflXCiwKSgu+FLILr/xk+VPZT1Pbkrb1FdkV7duO3c7fPrDDdcehYvni7OKRnUE720roJfkl73Yt23W51Ka0ajdxt3i3pCywrGOP3p7te76Up5TfqfCoaKlUr9xa+WEvZ+/NfW77mqs0qgqqPu/n7b9b7VvdVmNQU1qLrc2qfXIg+kDPz4yf6+vU6grqvh7kH5QcCj90od6+vr5BvaGoEW4UN441LW66cdjrcEezWXN1C62l4Ag4Ij7y/GjC0YFjAce6jzOON5/QP1HZSm3Nb4PaVreNt6e0SzriOvpP+p/s7nTqbP3F/JeDp7RPVZxWOl10hngm98zU2eyzE12Crpfnks+NdC/rfnA+9vztC2EX+i4GXOy95HPpfI97z9le595Tlx0vn7zCuNJ+1e5q2zXba62/2v7a2mfX13bd/nrHDYcbnf0L+8/cdL157pbXrUu3mbev3gm+0z8QNXB3cPGg5C7n7rN76fde38+6P/lgwxBmKP+h3MPSR+qPan4z/q1FYic5Pew1fO1xxOMHI+yRF7+Lfv8ymvuE8qT0qdbT+mdWz06N+YzdeL7o+egLwYvJl3l/yP9R+cro1Yk/3f68Nh47Pvpa+HrqTeFb1bcH39m8654InXj0PuP95If8j6ofD31ifOr5HPP56eTKL7gvZV+Nv3Z+C/g2NJUxNSVgCVkzrQAKGXBSEgBvDgJAiQOAegMA4qLZXnnGoNn+fobAf+LZfnrG7ABoRqYQNwBsugA4ugEAA2SWQbRQRIt0A7C1tXT800RJ1lazsUjtSGtSOjX1FukRccYAfB2cmppsn5r6Wockex+ArvezPfq0yTUBMK5k5x0U2NP6Gfyr/QMK5AoQWVF3lwAAACBjSFJNAAB6JgAAgIQAAPoAAACA6AAAdTAAAOpgAAA6mAAAF3CculE8AAAABmJLR0QA/wD/AP+gvaeTAAAACXBIWXMAABYlAAAWJQFJUiTwAAAAB3RJTUUH4gURAjYjn+KbygAADFJ6VFh0UmF3IHByb2ZpbGUgdHlwZSBpY2MAAFiFrZhrkiSrjoT/s4q7BB4CoeXwktnsfwP3IzKru7qzzowds8luKp6AkFwuJ8L/rBX+w69kayHe3zqxJY0a24o5PbfabkdFc82iknOsvVodOUY9/In3pUbbnHJMNbTUihaNkmqsUVZ8//6+/t9+zqzhPfrz2yXvX5b9y1/4d6+n1KRVLa28Luv7fsuhyb3d9uvBlNdxdRYcNevruujbwlxU8Vz8uj++JpCAOx83vh68B+JB0+/3V/91/4/39/o+kBCZl6nFX/d7XAQhaW76XE//sihqw359W7TS+36JoR1Wbe28HnxFqRxe7wz27tC/BloEaDf/uj/fluYe2j9ZpP9safvB0vA80M8Hf0Tn968L9l/cNYZU+/3gX4b/n3///wPhwqX176Xkr+vVumbpNb8u0xtvU9psLrPm8PHgtCxH/OO+vSP19/1OVHqtnwORwlLegPt+X1oSkfnDxIuJ1+dArRm97NMiFbEqf98HtA5M/HMggi61lo/74PynpeHXWaukz4F6q2KyPjqM1oGoftxnBbXJ+RgIEM5aPn1xB5Ii53NpWmv+ydmNMLcfwrz1GzT+WIGxgh8skrsE6R8dClH7yXf4tPafosYjwlw/O7RTfxjokpzkHwB50/E36f8x0CJEH0smgRs+/fTRU4Lkhw7MTF35wFEbLHnU+DEQheg2lnatuu2OWbkunBSelXQZUa93uv5KmyClObMZCDV4iUeZmvYqSTd4Anu2kk9emaEKw5QnEL8K5tdA94+XfR9+1TdqTux/v3h/1sfjbKL3ysX0VQryn3xUenkAN9Yr0ylb+tOAufprSUeeyedaJZDtFXS2P978TRgXBnd2f/kxkczpvHgqs4q83767JbvMV8/HwXS6XHSjU+lU6XTJrvVLfSiIqyLIt1swO9Z0DOj0t7s0YwBjAGOA64NBp0GnSaep1/BbwC5J3vrzCJC46bM5v544nJ8ZHqvRE7SJu+8/pW1cXmhG85hypfGcZdyoJXxJwtAWjuRetfCSN5SjRJFMykPMTp1BMDkZL2FtGkwwGHRynByxMC2Om+PmeOCjdDhxOvgAe4V2xZbQdsy50Rzf9piJUIZewD2NZ0yelXtKvy6BPydm40VinAeDTDozY8YfGV/kG6TDudd4UVTiBJWNYCXajoVJYPnAH4+X7EvjIVEpegAU18Y1g5fB9eR6KeoDaJ8rDRZl3Ah2Iw1KlAtIYVQBApeDgGyEeaJgsjCgIB4EHwmRFCyVJVEYTE56UCJ+QNqONcFHlWhUFBNMTW72WFl7BSsVjFSsqoM2SXzYpbLUSrgrUX7+scSWScuiAbXQYwN8rY3YdIK9FZvt2IY/UrIRmXZKpOrEm8sKJJTJtWwowBFMAEZxtjKzGg9xtE4ebNQUs6p3ZMwEwB47+OlyU3kA5hN75xpr++B6cr1hyH40dsBogNcAnrFMY6Zbog3hYp3zwTkOt8U5kxjvj5TiYFkDy0bFosGSBnkzgMAgQgNfDLTh8Bto/qHWZ7E4a4qzcSSDJu/OebOHI46fDrJXAoJ5IPtKXHVFNAlS78Q1NK6bZiB3Mei+/wDolptqI27YcfPeBvEbGol7c4E/Dng4oO8QPXRlPOrx2CQfWzz47ZxDWlp0lu+g3GEGB9WOr3wykLNuPze98VImBAIpNxyg2Gwk1+T+1tszkcjP/yQOje6U+kpp4K1lIaXTWZwm8iplqSk3SeROyqOkvGgHmr5UnWlMgq6EAGgDTK8KEVQys4UkZB6CBSk+kvRJbdmww2FS2CHlRNFKtbZEzYAtZqpzJ1Z1s+3KWxS0pdZWSK17ajNjKTd9JIUbVFKi7iXtlnScBLaSuqYOj3SBYXjW+0h9eOqbcx/hRTksydpMZlDZBLt7JzIsjTzSwDVDFTo6CWikgT+xO80y02SZkwHnzCHNPdJlICCQVuWoMy38sxYbBBy8Ya1NFm+9HGaJUKfNYAeBfrDu4JJjEtIBUedYcsLh5SRvnJskn578jPxwKb4n8TIwB3SQBlxHqOC/zpqZfaSACSfTK+esGcGUc+d0eM57U3RGhrgyXJWLSS4rZ7YTkKVnkc0udWUZM8se4WZXrrxcG43KXRfNqeAMTHnPV2C3STud+NLEsipZxgC6F9Vt51485A6E+sCQLRkyycagOD6b7QybkDwYWGpG+uVhEzZ2SCTnWRqsbHnyHogIeUFtqxgbKIQCA66tcObKG79sbXkz8z7gEtSgpzOGQeGaSZnMAqHykd0YyFmKO8xVkGNt4Rayd08SASgL4cNFaXL0XK5tuRX2+RPel8KLpcDNRT2UMnsphEwwVq74slNk9wL4S4Wga0ckrlyq73K3BYjV0sYp7Ri1QhBs1AtboShytScpnWrT+yp9ddinPkEy9WKThTt0xzBDpbBSCosXFlxmA5ZjlHl6IKJakFRlsaR1StlEmGwp4LTAMOXkuzGlUZFgkuI5Fee5gww/mWqJjGsSBIq85INrQWEjpccSEIo9VCpsz7PiUUwh3TGf2a44LChf5GwfQoJfzgiUMrQnpFz3YS+er2KHCFCZTmnDS6ooUTpTqKTLFPJYOvRIsiALcelAsDsachSVwUwYQmVf8mwgGHhiNvknBFXWHAKkhLdkG7HYbK0QAacdAQq3VgZxNgD4UnzfQg9hK4pvXqqHK6iF0EElMysgqFlJa0gdWquEkbo6Kg5D4eeAvU6U2Spl9oFsUAh1hYVro7S2wc7H0YZsBZRMoorXDgS77trXrAbJGLsjmz1QD7QOuo1B81onXptGY8ewCg0WW7vVjbVbe93LKsxU2TnWM3eF8angKVQqAFILIyrQYjSqAVqeRwMexbCMS7OthkzCtYDJtBVKi9yg383mMcCzA2WfJD/3k8dmD5cbWd6o600NEPMSmd0oz62fxYaqNLPRzC9QOit3JIK2yVa0zcGJO4ZqW8PRrh36RjtMND815bAhPws04HFHKDiUjhqjziNbDqEB78lqUDQCASadB4agIAueIP9AqLy+FC3CBNmg3BXn3HVpg9ibd2VDC8wK9SUF5jjaednyUOvIhgNtSVMii8gRheB1kkcQq65Ou0WF3QoppFe+HhjwrBwUdkDBiPpBZYmiJPqVFJ0a1dPakEiE6SBgFyhBO1lK+dwdqHc55Dp96pgBdXS9m3EMu6a7JvPOiJ29KmRwukHaZtjqp5OWfazRJ4Pjwj599dUgjDVC31DXps927+cJzuleKJuGbka7IdeQG5QW1Gca3SgfkPYwSvlNFoNL7IpRYw67eVKrW1325CHxNSSU4U3DEcbm1/rEMECFuDPzBQi6jQ2oofo5PBhl0BbvLFfbQIwqZBQ+O+MAl81Cp7mj8RrydlNWRSmtDXanWWP3QtMWBqwFh7Sb5mRgH3UwGVoFDwxAA8rOwKrRKSR9yYBgecMQM2sMij4VZUytYcxjlPQ1FlJwC1qEYn6oHYeyfwGMRfezBDK2orrGRIbMtKlXQsVfEH3B9+MElkieGqmcyqx9oM8wXG1CbKCuT6yZ/eb3ZjtDWTU6w9JzzMpIh5MLsxTmsnkVz9xIW1YAj8NpTuWnlLojKpGS8aAomqIcoPjqFD0qAkRSNnsBZD90G1aVycqAg7CtXuw45AoSAFL26uxWqR/MZQiUvnDGgizWnI1tbF2sY1GwFnQWKBxtwQoIV13OAtjN7DiRbWWxGGRo8c1uaUP3m3KDGw07ICI5u268Vetuu4etDIgfdm+UxQM2G4KYuBOuPXzie9Qvu5DVB/ILEWyNCr42imc76sAHOxs2x7iS+8J+Z6FvKmVsT4wsB/I6lJEjvshCeD7uc7/FQhcHABy2FYelo7GA/o7hDEh1HFgTdpn4G2o9CN+zbSET+jlTDtv84wsdXdlPnOoJuZDcPXc8ksyhpOBCAaHuwNaQ7z7e2vZ2g4bS7LzUQR1Sx22pwyw+UPJT1QknidJxoPmeI/iR6WcvOJK0ddf4fH5O3z4nfH3Jgobb86HBoa7nzq7P10Fq+/uTBsv74zv171/69s3k+7349/3wTw++rv/43v3byMey8b6Lb14WlfcHLNT4ew3vD1rvF+v7Y0mV54g+LeXv48fXY5QUCqx8/zzDvma+fEJZvX708v4eqfnxEdWeqN0fLz7HPV5fbRBH97DijeG3T/O/Rh6PyXe3UppQ8WUF8qr6iP/nL/wX/Po5hKD+9w0AAIAASURBVHhe7N13fBVlvgbwZ+ack94rCQkk9NA7iCAgroi6WLC7d9Vt6l51V3d1d1113V372tbeO2ABQQVBeu+BQCCFQEjvOTnJ6W3m/hFOLiIwpJ0y5/l+Pnzc1d+E5GTmnXeeeYsgy7IMIiIiIiIiIiIiUiVRqYCIiIiIiIiIiIgCFwNAIiIiIiIiIiIiFWMASEREREREREREpGIMAImIiIiIiIiIiFSMASAREREREREREZGKMQAkIiIiIiIiIiJSMQaAREREREREREREKsYAkIiIiIiIiIiISMUYABIREREREREREakYA0AiIiIiIiIiIiIVYwBIRERERERERESkYgwAiYiIiIiIiIiIVIwBIBERERERERERkYoxACQiIiIiIiIiIlIxBoBEREREREREREQqxgCQiIiIiIiIiIhIxRgAEhERERERERERqRgDQCIiIiIiIiIiIhVjAEhERERERERERKRiDACJiIiIiIiIiIhUjAEgERERERERERGRijEAJCIiIiIiIiIiUjEGgERERERERERERCrGAJCIiIiIiIiIiEjFGAASERERERERERGpGANAIiIiIiIiIiIiFdMqFRAREREREQWbzZs3Y+uWLRAEQam0R8myjH79+uG6669HRESEUjkREdF5YQBIRERERER0mv25uXjn7be9HgBKkoQpU6fiyp//nAEgERH1GAaAREREREREp9GIIrRarU8CQI1G4/W/l4iI1I1rABIREREREREREakYA0AiIiIiIiIiIiIVYwBIRERERERERESkYgwAiYiIiIiIiIiIVIwBIBERERERERERkYoxACQiIiIiIiIiIlIxBoBEREREREREREQqxgCQiIiIiIiIiIhIxRgAEhERERERERERqZhWqYCIiIiIiIios9xuNxwOB9wuFyxWK0xGIwAgKjoaEeHh0Gi1CAkJgUajUfhKRETUXQwAiYiIiIiIqEc47HZUVVXhUH4+Duzfj+rqajQ1NaGtrQ1OhwMAEBISgpiYGCQlJSGzXz+MGz8eo0ePRnp6OnQ6ncLfQEREXcEAkIiIiIiIiLrFZDJhy+bNWPHddzhSUID6ujrYbLaO/y4Iwo/qZVnu+N/hixYhLS0No0ePxvyrrsK0Cy9EWFgYiIio5zAAJCIiIiIioi6x2WzYvn07Fi9ahF07d8JkMkEQBIiCcN5Te+12O06cOIHS0lJs3LgRsy++GDfffDMmTJgALUcEEhH1CAaARERERERE1Gm1tbX478sv4/uVK9HW1gZRFM879DuVIAgdIwSNRiOWL1uGbVu34uZbbsFvf/tbxMTGKnwFIiJSwgCQiIiIiIiIOqWoqAjPPPUUtmzZAgBdCv7ORDg5crC5uRlvv/UW6uvr8cCf/oQ+ffooHUpEROcgKhUQEREREREReRw4cAAP/fnP2Lx5849G7/UkURThcrmwdMkSPPbII6itrVU6hIiIzoEBIBEREREREZ2X8vJyPPPUUzh06BBEsXcfJz3B4vr16/HSiy/CaDQqHEFERGfTuy02ERERERERqYJer8fzzz2HvXv39tiU3/MhyzK+/eYbfPjBB3A6nUrlRER0BgwAiYiIiIiI6JxcLhfef+89rF69Wqm0xwmCAIfDgQ/efx9r1qxRKiciojNgAEhERERERETndOjQISxdsgQul6tX1vxTIggCDAYDPvvkE+j1eqVyIiI6DQNAIiIiIiIiOiu73Y4vFi9GfX19r6/7dy4ajQYHDhzAunXrlEqJiOg0vmu9iYiIiIiIyO8d2L8f69at88nIv9PZbDYsXbKEowCJiDqJASARERERERGd1aZNm6DX6/0iABRFEYUFBSgqKlIqJSKiUzAAJCIiIiIiojMyGAw4mJcHWZaVSr1CEASYTCbkHTigVEpERKdgAEhERERERERnVFZWhqNHj/p07b/TSZKEffv2wWG3K5USEdFJ/tOKExERERERkV8pLCiA0Wj0i+m/p6qvq0Ob0ahURkREJzEAJCIiIiIiojNqamqCJElKZV4lCAKsVitMDACJiM4bA0AiIiIiIiI6o7a2Nr8LAAHAarPBaDIplRER0UlapQIiIiIiIiIKTq2trXC73dBq/efRURAEOB0O2Gw2pVIiCnBOpxMtLS0oLipCXX09rrjiCkRERCgdRmfgP604ERERERER+RV/3mjD39YlJKLukyQJRqMRpaWlKDhyBHkHDiD/8GHUVFcjKTkZs2fPZgDYRQwAiYiIiIiI6IxCQkPhjzGbKIrQ+NHOxETUdRaLBRUVFSguLkbegQM4mJeHqqoq6PV6uFwuCIIAWZaRnJys9KXoHBgAEhERERER0RnFx8dD1GiUyrxKlmXodDqEhIYqlRKRH3I6naipqcGxkhLk5eXhwIEDKCsrQ0N9PRwOB4D2Eb6iKEJzsv3xx7VIAw0DQCIiIiIiIjqjhIQEiKIIWZaVSr0qPCICMTExSmVE5AckSUJDQwPKyspw6OBB5Obm4vixY6iurobNZoMsyz8J/KjnMQAkIiIiIiKiM0pKSoJGo4HL5VIq9RpZlhEfF4fExESlUiLyEb1ej6rKSuTn52N/bi6Ki4tRUVEBk8kESZI6Aj+RU/m9hgEgERERERERndHgwYMRFRWFlpYWv9l0QxAEDB4yBGFhYUqlROQlRqMRdXV1KCwoQG5uLgoKClB6/Dja2trgdDohABBEEYIgcJSfjzAAJCIiIiIiojPqn5WFYcOGYfv27X7z0K7RaDB27FiOHCLyIZvNhsbGRhwtLsaBAwdw+PBhHC0uhl6vh91uhyzLEBn4+RUGgERERERERHRGsbGxGD9hAnbu3KlU6hWSJCEjIwNjx41TKiWiXrJq1Sp89+23KCosRENDAywWCyRJ6gj8GM77J/5WiIiIiIiI6Kwu+dnP0KdPH7/YCESWZUyeMgUDBgxQKiWiXrJ2zRp8+803KDtxAhaLpWOUn78sE0BnxgCQiIiIiIiIzmrEiBGYd/nlSmW9TpZlJCQkYMF110Gr5WQ2Il/pCPxOjvijwMAAkIiIiIiIiM5Kq9Xi+uuvR2ZmJiRJUirvNbIsY+7cuZg4caJSKRERnYYBIBEREREREZ3T0GHDcNvttyMsLMwnU4ElScKAAQNw+x13ICQkRKmciIhOwwCQiIiIiIiIzkkQBNx400245pprvD7lT5ZlxMTE4H/vuQdDhw1TKiciojNgAEhERERERESKIiMjcc9992Hq1Klwu91K5T1CkiRER0fjnnvvxc/nz1cqJyKis2AASEREREREROclPT0dj/7jH5g2bRpkWe7V6cCSJCEuLg5/vP9+3PGrX0Gn0ykdQkREZ8EAkIiIiIiIiM7bsGHD8Nzzz+Pn8+dDo9H0+MYgsixDkiT069cPf3/kEfzPL3/JXX+JiLqJrSgRERERERF1SkZGBh7/5z8xcOBAfPnFF6iuroYgCN1aH9AT/EVFReGimTNx5513YvSYMd36mkRE1I4BIBEREREREXVafHw87rn3XsycNQsLP/0Ua9auhaGlpSMIVAruPNOHJUmCIAiIjY3FuPHjseC66zBr1ixERUWd83giIjp/DACJiIiIiIioS0RRxJgxYzB06FBcNm8evv/+exzMy0NtbS2sVivcbvdP1gkUBAFarRahoaGIjY3F4CFDMGr0aEyZMgXjxo1DdHT0Wf42IiLqKgaARERERERE1C1hYWG4eM4cTJ8xA01NTSgsKEBxcTEMBgNMJhMsFgtkSUJ4eDiiY2KQlJSEjIwMDBk6FKmpqYiJiVH6K4iIqBsYABIREREREVGPCAkJQXp6OtLT0zHnkks6/r3T6YQsy9DpdIpTg4mIqOcxACQiIiIiIqJepdPplEqIiKgXiUoFREREREREREREFLgYABIREREREREREakYA0AiIiIiIiIiIiIVYwBIRERERERERESkYgwAiYiIiIiIiIiIVIwBIBERERERERERkYoxACQiIiIiIiIiIlIxBoBEREREREREREQqxgCQiIiIiIiIiIhIxRgAEhERERERERERqRgDQCIiIiIiIiIiIhVjAEhERERERERERKRiDACJiIiIiIiIiIhUjAEgERERERERERGRijEAJCIiIiIiIiIiUjEGgERERERERERERCrGAJCIiIiIiIiIiEjFGAASERERERERERGpGANAIiIiIiIiIiIiFWMASEREREREREREpGJapQI6N5fLBbfbDZfLBUmSAACCIEAURWhEEaJG0/6/NRqFr0R0fiRJgtvt7vgDABqNBhqNBlqtFoIgKHwFIgIAWZbhdDrhdDohSRI0ogitTgetVgtR5Psx6lkulwtOp7Oj3yBJEiS3G25JgiRJkGW5o99wapuu0+mg0+nYtlNQcrvdHdeNLMsA2vvZmlOuE/axiYiIzg8DwFM4nU6YTCZYLBZYLRaYzGY0NzWhqakJjY2NaG1thc1mg8Nuh91uh9Plgsvp7Pin+5QAsKNTcjL802g0CAsPR1xcHOLj43/0JzY2FlHR0YiKikJUVBRCQkIUvlNSC7vdDrPJBJPZDLPZjFaDAc3NzdC3tECv18PY1gaH3Q6H0wmHw9HRCXZ5/nkyANRqte0Pip5/hoQg5OSfsLAwxMXFISExEYkJCUhMTERsXBxiY2MRExMDnU6n8F0SBR6bzYaWlhY0NzejoqICNdXVMJvNsFgssFgsMJvNsNlssNvtcDgc7QGgRoMQna7j+gkLC0NYWBgiIyMRGxeH+Lg4JCUnIy0tDfFxcYiLj0dYWJjSt0Iq5Ha7YTKZYD7Zdnva79a2NrS1tqKtrQ1GoxFmsxlWqxVWqxUOh6OjHXefDAFP/SPLcnt/QauF9mT4p9XpEBoSgtCwMISHhyMyIgJR0dEdfQnPP2NiYxETHY3omBhEREQofftEfsVut0Ov16OpqQmVFRWora1FXV0dGhoaYLPZ4Dx53UgnA0BREKDVatuvFa0WISEhSExMREpKClJSU9E3PR2jx4zhtUBERHSaoA0ArVYrWvR61NbWorS0FMePH0dlZSWam5rQ2toKg8EAo9HYMbJPOuUNvefPqc70Zv70GgDtb/ZFEeLJP4IgICwsDImJiUhMSkJiYiKSTz5gZmZmon9WFhISEhATHY2o6OiffD0KDDabDS16PfQtLaiqrER5eTkqKyvR2NgIfXMz9Ho99Ho9bDZbxwi/08+3M51PnvPubOejIAgdI1I9f7RaLeITEtCnTx+kpqaib9++yMrKQv+sLKT16YPomBjExcVBqw3a5oECjNvtRmNDAyorK3Hs2DGUlpaivLwc1dXVqK2pgdligXTaNeUZsQ38uP0+9VryXD+nX0NRUVHok5aG9LQ09M3IwIABAzBo8GBkZWUhKSmJobpKSJIEk8kEk8mEVoMBVVVVqKysRHV1NZoaG9F8st3WNzfDZDL9/6g+WYZ8lj6DAACn9RdO7z+c3p6fOurpTOejRqNBTEwMkpOTkZySgtSUFGT264cBAwYgOzsbcXFxiImNZVhNfsPpdKKxsRHHjh3D/txcFBUVobKyEjU1NbCYzT+a6eChdJ14rgVBEJCcnIy33nkHo0ePBhH5L7fbDZvN1vFC1uVydYyMl2UZOp0OWo0GOHnv84yK97yg5ch4os4Liid8WZbR1taGpsZGHD16FAUFBThWUoJjx4+job4eNrsdTocDbrf7Rx3s0xuVM/27rpBl+UcdG7vdDoPBgGPHjkGW5Z80cMkpKcjo2xcZmZkYPHgwhg8fjozMTMSyQ++32tra0NzUhJJjx1BYUIDi4mIcP3m+2e32jmmHnt+3N885p9MJS1UVKisqIMsyRFFESEgIdDodoqOjkZ6ejgEDByInJwcjR45Ev/79ER8fj9DQUKW/hshrbDYb6urqkHfgAPbs2YO8AwdQVVX1oxF9npcsp15DpwYonXHqNaTX69Hc3Iz8Q4cgimJHW923b18MHzECY8aMwbjx45GZmYm4uDilL01+wGg0wtjWhvqGBlRWVKCiogJVVVWoralBbW0tmpqa2kcinRx9LUnSOdtuoOfa7zM5vU23Wq2oq6vrCEU8o6IiIiKQlpaGfv37Y9CgQcjJycHgwYORlJSEmNjYXvv+iE7ndrtRV1eH3NxcbNu6FQfz8lBdXQ2r1Qq3ywXhtPba0xfuDM/LHYfDAfmUlzxE5Fs2mw0GgwGNDQ2oqa1FbU0N6urq0NzcDIPBAIPBgNbWVthP3mcdDgckWUZEeHj7s+7Jflt4WBgiIiMRFxuLhJOzmpKSk5Gamop+/fohITER0dHRHP1LdA6du7MGEKfTifr6euQdOID9+/ejuKgIJ06cQGtrK6xW6xk7753taPSUMz0kyLIMh8PREQ4eLS4GAISEhCAyMhKpffpgyJAhGDp0KIYOHYrBQ4YgOTmZDZ6PmM1mVFVV4fDhwygqLERRURFKjx9Ha2srLBbLT843AD5ds0YQhB/9/S6XCy6XCxaLpaODrtPpOs61YcOGIScnBznDh2Pw4MFITk7mKKdOcrlcMJvNZxzJ6e8854KvWa1WHD9+HLn79mHfvn04mJeHxsZGWK3WH11fnpFRveX0ENEzHbSoqAiFhYX47ttvERsbi4EDB2LS5MmYOWsWhg0bhqioKIWvTN7gcrlgNBpRU1OD4qIiFBcX42hxMU6UlaHVYID95DIfLpfrjCFfb59fXXF6P0KWZdjtdthstvawOj+//eEpPBwxMTHIzs7GyFGjMHrMGIwcORIpKSnsP5xDILff4eHhPn2BZzaZcPDgQaxZswY7d+xAZWUlLBbLj9pQjY/630TUOxwOB5qbm3G0uBhHjhxBUWEhiouL0djY2LEchsPh+NFACOCnI30NLS1nHRXvGcSg0+kQEhKC0NBQJCYmYsDAgRg8eDByhg/HiOHDkcz7G9GPqOqO63A4UFtbi9x9+7Br1y7k5uaitrYWFrMZADo6GqeHH/7s9E692+3umKJcVFgIURQRGRmJ+Ph4DB8+HBMmTsTYceMwePBgxMTE+N1Dilp4RpUePXoU+/btw55du1BUVASDwQCr1Qog8M83SZLQ1taG1tZWFBcVYcV33yEqKgopqamYMH48pkydinHjxyM9PZ3rVp6HosJCPPPMM7BaLD+ZAujPJLcb4ydMwF//9jefhb56vR57du/GyhUrsGfvXuibm+F0Ov//4dEPrq9Trx23243m5mY0NjZiz549WLxoEcaMGYOL58zBhdOnIzMz0y++52DhdDrR1tqKEydOoKioCAUFBSgsKEB1dTWMRuP/t9mC0HFt+vKlYE86vQ/hWY+wtrYWO3bsQGRkJBITE5EzfDguvPBCTL3gAvTv39+ngZE/OlZSgif+/e/2cyWA2m9ZlvGrX/0KV/7850qlPa65uRlbt2zBihUrsD83Fy0tLQC81Cc65VomIu8wmUw4ceIEDublIe/AARw8dAgN9fUwGo0/GggBdK4dOD0UPJ3b7e5Y31mv1+Po0aP4YfVqREREICEhATnDh2PMmDEYNXo0cnJykJSUpPg16fz47HPsxPlDPxX4vVsADQ0N2LVzJzZv3oz9+/ejtqYGNputo6FR2wlyeofebDbDZDKhoqICa9euRXx8PPr174+JEydi8uTJGDN2LBu7HiDLMvR6PY4cOYK9e/Zg965dOF5aiha9vmO6IeAfYURPOf1cMxqNaGtrQ8nRo/jmm2+QmpqKCRMnYtbs2Zg0aRJSUlIYOp+Fw+nEoYMH0dbWFlDXotvthnRyRLI3A0BZllFVWYmNGzdixXff4UhBAcwmU8e0Xn+/zk79HvV6PdavX4+tW7ciMzMTM2bMwPyrrsKo0aO9+pkGE7PZjLKyMhw5cgS5+/YhPz8fDfX1aG1thdPp/FHb5u/nUk86/We2Wq2orKxERUUFNqxfjz59+mD8hAmYNWsWJk+ZgrS0NLbpAJwuFw4ePAij0RhQ7bckSZg9e7ZSWY9qaWnB+nXr8NWXXyI/Px8Wi8X7o2Zluf0P9QpJklBaWgqDwQBvXw0ygJSUFPTr10+p1GssFgtKSkra7y1Kxd0kA0hOTka/fv38oi1yOBwoLS3Frp07sWnjRhQVFaH55Etaz33WG322U4NFD6vV2rF277q1axEdE4Os/v1x0cyZuGjmTAwfPtwvZrf0tObmZpSXl/f6MgiCKKKpqckn56HFbMa6tWsRExsbEG29LMtITEzE+AkTev1aOB8BGwC63W6UHj+OdevW4YfVq1FcXPyjaWD+8OF6y+khjWd9qv25uVi8aBGysrNx4YUXYvr06Rg5ahTXpOokm82GgoICbNywAVu2bEF5WRlaW1sBWe5YsyZYzrdTzzW73Y7y8nKUlZVh1fffIysrC9OnT8ecSy7BqNGjOdz+NOHh4dBqtR0BVqCQZbl9V3STySsdJZfLhcLCQqxetQrr1q7FiRMn4HA4OhZ4D0SeNsLtdqO0tBSlpaVYtXo1LrnkEiy47jqMHj1aFaPNfEmSJDQ3N6O4qAj7c3Oxe/dunDhxAo2NjV5/EAkkp7bpkiR1PCz9sHo1+vXrh+kzZmD27NkYN358UE9hDw8Ph06nC7j2G0DH1OXe/r6tVis2rF+PRYsWYX9uLqxWa0C323R2drsdb77xBjZt3AjRy79fye3GDTfeiL/89a9KpV5TX1eHv/3lL2hoaIDQy0G35Hbj5/Pn4+G//92ns2+ampqwY/t2rFu3Dvtzc1FXV9exbIa/XPenPx8b29pw6NAhHDp0CIsXL8bIkSNxySWX4MLp05GVldXrbaS37Nq5E089+SQcDkevjoQW0D7q09u/a1EU0djYiH889ljA/M5cLhcumDYNb771FsLDw5XKe13APXHY7XYcPHgQK1eswKZNm1BVWdkxrNjbJ6C/OrXBM5vNOJyfj8P5+Vi8eDEGDx6M6dOn46KZMzFixAhO8zmHuro67Nq5E6tXr8b+3Fw0NjZ2rDfh1TfZfurU88xms6GwsBCFhYVYunQpxo0fj3nz5uHC6dPRp08fha8UHMLCwgLyvBEEAVarFQaDAampqUrlXSZJEvLz8/HF559j44YNqKuvB05eb2pq2z3nQEN9PRYtXIj169Zh7mWX4brrr8fIkSMDpjPjD9xuN2qqq5Gfn49dO3di/4EDqKiogLGtrSPwUNv509s856fD4UBJSQlKSkqwdMkSjJ8wAQuuuw4zpk9HbBC+RPRsqhKITCYTJEnqtetAlmUczs/Hhx9+iDU//ADTyZHavfX3ke91bK7Y1OT137Pb7YbZZFIq86rQsLCOz6O3+3lutxv1dXU/2iHbm8rKyrB+3TqsXLkShQUFHYNvAuGaP/W5Rd/cjE0bN2Lb1q3o378/Zs+ejcuvvFIVL2Ttdjuam5tht9u90qf0xt9xOlmWYbPZlMr8htvthsNu95t1hAPmDLfb7di7Zw++/PJL7Ni+Hc3NzQD8czFuf3JqY2dsa8O+vXuxPzcXixYuxKTJk3HFlVdiyuTJSExKUvhKwcHpcKCoqAjr1q3D+vXrUXL0KOx2O88zBaeeZy0tLVi3di22btmCoUOH4oorr8Slc+eq6u1aVwTqA6QnAGw1GJRKu+zEiRP46ssvsXzZMtTU1HR0JnvzzaWvedqT+vp6fPLxx1i/bh1uuPFG3HTTTUjpxaA10MmyjKqqKuTm5mLrli04dOgQKisqYD/ZsWJb3TN+1HcwGrFxwwbs3rUL48aNw/U33ICL58xBTEyMwldRD41Gg9CwMKUyvyPLMoxGY689dBgMBny+eDEWLlyIqspK/3kZLwiqvn/4A08b4e1+nT+Owg0LDUV4eLhXPg9BEGC2WLweAJaWluKb5cvx/cqVOHHiBFwuV0CEfmfjaatkWUZpaSmOHz+Ob7/9FvMuvxw33nQTcnJyev132Zt8dX16U6D9bIIg9PoSAefL7wNAl8uF3NxcLF64EJs3b0ZLSws7+F10asesqakJK1eswMYNGzB8+HBcOncuLp4zB9nZ2QHbmHeHw+FA3oEDWPLVV9iyZQsaGho6HiaD8fPoDs955nK5kJ+fj4KCAnz15Ze4dO5cXHPNNRg8ZIjSl1AljUaDsLAwr0zF6mlWq7V92nsPa2trwzfLl+OzTz/FsWPHenWUir/y3Muqq6vxyn//ix3bt+POu+/GzJkzeZ87RWtrK/Lz87Fu7Vrs2L4dZWVlcDqdAPgisLd52nSbzYbt27fjwIEDmDJ1Km699VZMnzEDYQEYjHWWVqNBWGhoQLbfJpOpVwLAo8XFePnll7Fu7dofbcrkF7gGIHmRRqPx2hIJgiDAbDJ5LQAsKyvDd99+i2+++QYnSks71jxXU1/N03Y1NTXh048/xsYNG3D1Ndfg2gULkJWVde6DiQKQXweAJSUlWLxoEb779tuORSbV1OD4kueztNvtyN23D7m5udi0aRNefe01JCYmKh2uGi6XCwf278dXX32FjRs2dJxnan9r4i2iKEKWZRw/fhxvvfkmVq9ahauuvhpXXX110N1UA3UEiWcEYEsPjgCUZRn79+/HO2+/jU0bN3as8edXD5Be5rlWdu/ejWPHj+OXv/wlfvE//4OEhASlQ1VLkiRUVFRg86ZNWLNmDfIPHYLRaATA0M8XTu03bNywAbn79uFnl16K2++4A6NGjVI6PKBptNqAXTLF3MMBoCRJWLt2Lf770ksoLCzktUhBT6PVIio62muhs8lkgtvlUirrFoPBgG+WL8fChQtx/OQLWrVf68LJkcOVlZV4/bXXsOaHH3DLrbfi6muuCaoR76R+fhkA6vV6LF+2DIsWLkRpaSkAqLrB8TVR0744fWREBKKjo5XKVUGWZRwtLsbixYvx/cqVaGxsRMe0Q+pxns/1xIkTeOW//8X3K1fihhtvxPyrrkJycrLC0eqg0WgQGoBTgIH2Bz79yWUXuqutrQ2LFy3CJx9/jJqaGtV3KDtLFEXom5vx2quvIv/QIfzh/vsxcuRIpcNUxW634/Dhw/h+5Ups2rgRFRUVHSOMeK74B41GA5PJhK+XLsW+vXtxy623YsF11yFJpcuJaDSagA0AbTYbnE5njyxBYbfbsWjhQrz+2mtobm723+uRU4DJizQaDaIiI+Gd+A+wWK1wnBwB39NcLhd279qF9957Dzt27IAjCJdB8vysxcXFeOrJJ7Fzxw7c9fvfY8yYMQpHEgUGvwoAJUnCtq1b8e6772LP7t0do0Ko94miiPETJvRIB9Hf1dTUYOmSJfh66VKUl5cDYMDsLZ7P+ejRo3j2mWewds0a/PK22zD74ov9Ylek3hTID5AA0Nzc3PEGuKtKjh7FK6+8gjU//OB/U8b8iCAIcLvdWLduHcrKynDvfffh8ssvh1anUzo0oJnNZuzZvRvffPMNdmzfjqamJi7F4Mc8I+UrKirwwvPPY+vWrbjr7rsxbdo01V3bnva7J0fSeYvD4YDVYun2Lu5tbW14+6238PFHH8Fisajud0zUVaIoIjwiQqmsx7hdLlgtFqWyTqurq8PHH32Er778siPgD+brXBRFOJ1OrF69GgWFhfj1r3+Naxcs8Np0b6Le4jcBoKGlBZ9++ik++fhjNDU2QtRogrrR8SZZlhEREYFRo0crlQY0o9GINWvW4NNPPsGRw4c7FrAl7xNFEW63G7t370ZBQQEunTsXv/r1rzF8+HClQwOWKIoICdAHSKA9AHS5XF16SSBJEtavW4eXXnoJRYWFAAJv8V5fEEURx44dw2OPPory8nL8+je/QYQXHzK8xWw2Y8f27Vi6dCl27tiBtrY2LsUQQDzt+fZt23D06FHceOONuO2225CkotHdWo0GIQH4AkcQhPYAsJu7JTY1NeGF55/H0iVL4HK5eF0SnUKj0Xjt3iwIAlwuF8xms1LpeZNlGbt37cKrr7yC3bt3d/tlr9qIooiK8nI8/dRTyN23D/fcdx8GDx6sdBiR3/KLALC4uBgvv/gi1q9f3x7K8E2/V8myjIyMDGSrdE02WZaxb+9evPfee9i2dWvHm2ve3HxPFMWOaWT79+/HbbfdhmuuvVaVa20E+gjApsbGLgWANpsNixctwptvvIHGxkZed50kiiLa2trwxuuvw2Aw4N777kNcXJzSYQHB6XQiNzcXn336KbZs3oy2tja2zQFMFEU0NTbizTfeQMGRI/jzQw8hJydH6bCAEMhLODgcDlitVqWys2pqasIzTz2F5cuXQ5KkwAj/uAkIeZEoil4LAAH0aABoNBrxxeef44MPPkDtyWVZAuIa9zJRFGG32/Htt9+i9MQJPPTQQ5g+YwY/KwpIPg0AJUnCxg0b8OILL6CgoIBv+31ElmUMHDQIqX36KJUGHIPBgC8+/xyffPwxqqur+XDphzzX/InSUjzz9NPYuXMn7rr7bowdO/bcBwaYQA8A9Xo9XJ1cdFqv1+PNN97AooULOWWsGwRBgN1uxycffwyLxYIHH3pIFZuD7Nm9Gw89+GBH28xpvoFPEATIsowNGzaguqYGDz30EGZffHHA9+00nhGAARgqdScAbGpqwjNPPx1Y4R+Rl3k9AHS7Ye6BKcBVVVV4+cUXsWLFCthPrvVHZ+fJKQ7n5+OhBx/EH++/Hwuuuw5arU/jFKJO89kZa7PZ8Nmnn+Ltt97qmPJLvqHRaDBu3DjVNWAHDx7EG6+9hk2bNsHhcPDh0s953q79sHo1Co4cwe133IHrb7hBNRvTBPIIEkEQYDKbYTIaz3t0Zk1NDZ575hmsWLGC00l6gGddwCVffQVZlvGXv/4V8fHxSof5tfj4+I5QgcGCuoiiiKLCQjz8t7/h/gcewHXXXx/Q92DPLsCBFv95pgDbuhAAtra24rlnn8XyZcsCL/zjJiDkZREREV5b4sXtcsHSzRGAB/Py8Oyzz2LXzp0AuBZ6Z4iiiLq6Ojz91FNobm7Gr379a4SFhSkdRuQ3fJL4tLa24s033sAnH38Mq9XK8M/HIiMjVbX+n8ViwbKvv8a777yD8vJycHffwOEJAiorK/HsM88gLy8Pf7z/fgwYMEDpUL8X6GsA2m02tLS0IL1vX6VSlJ04gSf+/W9s3LgRsiwH1oOjH+sIAZcsgVarxV/++teADsizsrMxaPBg1NbWKpVSANJoNKivr8fTTz2FtrY2/PK22wJ2FLRGo+n08gf+oisjAO12O956800s+/rrwAv/AE4BJq8LCwvzyrNGT6wBuH79ejzz9NM4VlLile9ZjTzLs7z26qswGo245957u73REpG3eD0ArK+vxwv/+Q+WL1/OTRj8gCRJyOzXD/369VMqDQjl5eV4/dVXsWLFivZwmedXQBLF9p23vvv2W1SUl+NPf/5zwK+1EcgPkIIgwHYyAFRy7NgxPP7YY9ixYwdHdvUCQRAgud348ssvERUVhT/ef3/AvnmOiIjApEmTsG3rVqVSClCeh6SXX3oJZrMZd951V8Du+B6II7g9IwA7EwDKsowvPv8cn37yCdxud2C24YH4PVNACwkJgUaj8cpL3q4GgLIsY8V33+GpJ59EXV0dn5G6ydM3/uD99+F0OvHH++/nDsEUELx65VdWVuIfjz6KpUuXchcxPyHLMoYMHoyUlBSlUr+3b98+/On++7FkyRLYbDbe2AKcZ+TmwYMH8dCDD2LxokVwOp1Kh/ktQRACNgAE2pdtMBgM56wpLyvD4//4R0f4R71DEAS4nE588vHH+PCDD+B2u5UO8Vtjx41DdHS0Vx6ayDcEQYDVasXbb72F1159tUsPrv4gEHcBBtrDgs4EgOvXr8frr70Gs9kc2O14IH/vFHBCQ0P9OgB0u9346ssv8a9//pPhXw8SBAFOpxOffvIJXnrxRVh6YG1Got7mtau/oqICjz3yCNauXQsAgd2pUBGdTocx48YF9No8kiRh5cqVePBPf0Jubi5HHamMZ62NZ55+Gm++8QZMJpPSIX4rUANAQWjfhEKv15+1pra2Fv/+97+xY/t2Xn9e4Hnz/PZbb2HZ118rlfutYcOGISMjA5IkKZVSAPO0Ie+/9x5e+e9/OxVI+YvQkJCAfGiWZfm8w4Ljx4/j5RdfRENDQ0D+rB04BZi8LDQ0FBovrqXemaDJ7XZj4Wef4emnnkJTU1NgX9t+yBMCLvzsM7z37rud3jCPyNu80gJUV1fjn48/js2bNyuVkhfJsozIyEiMHjVKqdRvORwOfPrJJ3jskUdQVlbGm5pKiaIIk8mEN15/Hc88/TSam5qUDvFLISEhARuOud3us04Bbm5uxrNPP42NGzYE7M8XiARBQGtrK1568UVs3bJFqdwvJSYmYtTo0eBZo36e6aiffvIJPvn444AbuRoSGhqwfYzzeXFmNpvx1htvoKCgIGB/TiJfCQ0NhdaLgynMZvN5taGSJGHp0qV4+aWXYDAYeG33Es/97f333uvYrI3IX/V6K9Dc3IxnnnoKmzZu5IOhn5FlGf2zspCRmalU6pcsFgveevNNvPD889Dr9bypqZzn5vrF55/jX//6F+rq6pQO8TuhAfwAKQgCmpubf/Jm02q14rVXXsGKFSvOciT1JlEUUV1djRdfeAHl5eVK5X5Ho9Fg8uTJ0Oh0SqWkAqeOXF2+fLlSuV8J5PbbbDIpPpAuXbIEK1euPGdNwBC4CzB5V8jJKcDeIAjCeQeAK1euxPPPPYeWlpaAbb8ChSAIaGtrw39ffhlbAvSlLAWHXm0JbDYb3nj9daxatUqplHxAlmUMGTIESUlJSqV+x2g04r8vvYS33nwTJpOJN7UgIQhC+5TvFSvw+D/+gerqaqVD/EpIgE4h89A3N/9oHUZJkrBo4UJ88cUXnMLpQxqNBgcPHsSbb7zRqWlB/mL4iBFITUnhORQkBEFAS0sLXn7xRezcuVOp3G/oAngEt9FkOuf1lZ+fj/feew9WqzVgf0YiXwrR6bzav7OYzYpTTdevW4dnn34ajY2NXv3egpln2aLnn3sOR4uLlcqJfKLXWgNZlrFo4UIsXrSInXo/FRISgrFjxwbcTcFgMOD5557DRx99BJvNxs5qEJJlGWvXrME/Hn0UlZWVSuV+I5ADwDONANy4YQPefustPjT6ie++/RbfB+AInqysLAwaNEhxhBKphyiKqKqqwn+eew5lZWVK5X4hUNtvWZZhOkcAaLPZ8PGHH6KyoiIgf74z4hqA5GU6nc5rIwCB9inA5woA8/Ly8MzTT6O6ulo913WAEEURhw8fxksvvXTWpXOIfKnXWoRt27bh7bff5oOhn5JlGdHR0Rg9erRSqV/R6/V45umnsXjxYjidTp5bQW7Dhg14/LHHAiYE1Ol0AX3ONuv1cDocAICSkhK8qIbF4lVCEARYzGZ8+MEHAROoeISHh2PipEk8j4KMKIrIO3AAL734IoxGo1K5z4WcbL8DMag2m81nDQC3bN6MNWvWBPS9icjXdCdfEHijffBMAT5bAFhTU4Pnn3sOx44d433VRwRBwPp167Dos884EIr8Tq+0ClVVVfjvSy+hntuM+y1ZlpGVnY30vn2VSv1GS0sLnn7qKSz56iu4XC52VgmCIGDjxo14/LHHAmI6sDc7iL3BbDLBarW2T8F/+WUUHDni1TfedG6iRoPCwkJ8+sknilOD/M348eMRGRkZsNcGdd3qVavwxeef+/3vXhcSAiFA+7Qmo/GMD6HNTU348IMP0NbWxj4VUTeE+MkIQLPZjFdefhk7d+70u2dwWZYhyzIkSYLb7Ybb7YYkSZAkqeO/qYVnZ+CPP/4Y27ZuVSon8qoebxnsdjveeftt7N+/36sNIXWOLMsYPnw4EhISlEr9QltbG55/7jksX7YMkiSxo0odPCHgs08/Db1er1TuU4E6hQxo/5ytVit2796Nd95+G2s5YsRvffPNN9i9a5dSmV8ZNGgQ+vfvzzflQcazudMH77+PPXv2KJX7VIhOBzFA2zzTWUYArvjuO+Tm5qqvv85NQMjLdF7s33VsAnJaAOhZfmv58uU+D9PkU0I+WZYhiiKio6ORmpqKgQMHYvTo0Rg1ejSGDBmCrKws9OnTB/Hx8dBqte3HnxIUBmq/QBRFNDQ04I3XX0d9fb1SOZHXaJUKOmvNmjVYvmyZUhn5WFhYGEaNGhUQD/AWiwUvv/QSvvrqK7jd7oD4nsn7Vq1ahcSkJDz44IOIiIxUKveJkACeAuzZ3eyfjz8Ou93OKfh+ShAENDU24qOPPsKo0aMRExOjdIhfSE5NxYiRI3HkyBGlUlIZURRRU1ODN15/HUOGDEF8fLzSIT4RyEs42KzWH23gBAB1dXVY+vXXcDgc6gsAuQYgeZlOp4PoxevIbrfDbrf/6N/t2bMHH7z/Pux2u9fCSA9PYAe0fxaJyclITU1FdnY2huXkYOCgQYiLjUVEZCQiIyMREREBoP3ncNjtsDscsNlsMLa1obGxEXV1dairq0PZiRMoLy9HfX09nE5nR5gYKG2xRqNBbm4uvvryS/zvPfd45fv2/C68EZz68nfhjZ+vp3SMdFUq9JIeDQDLysrw1htvwGg0er3hofPnWf9v1KhRSqU+J0kSPvn4YyxetIjTfumsBEGA2+3G54sXIzk5Gb+7886Ot4j+xJtviHuDLMswGo0QBIHXoh8TRRHbt23Dmh9+wHXXX69U7hdEQcCUKVPw9dKlAdWpo54hiiJ27dyJr5cuxa9/8xulcp/QBmgA6JmKZrFYEBcX1/Hvf1i9GkWFheoL/4h8QKvReHWEsNvthtls7vj/jY2NePWVV1DnxeW3Tp22GxMTg759+2LU6NGYPHkyBg8ZgszMTMTGxnb5+5FlGVarFZUVFTh69CgOHjyIPXv24PixYzCbzRAEoctf25vcbjcWL1qEC6dPx7hx45TKu61v37649NJL21/69OI5KaB9B/mamhqv3htlWUZsbCwumzcP4eHhSuV+QZIkDBgwADo/eTbtse/C7Xbjy88/R1FRUUBcjMFMlmUMHDgQaenpSqU+t2rVKrz7zjuw2+1ebVwo8AiCALvdjnffeQdpaWm45tprlQ7xOp1WG/DncaB//8HAM13788WLcdHMmUhJSVE6xC+MGDkSySkpqKut5XkWZDxTgT/77DNMmzYNOcOHKx3idTqtNmD7t06nE1arteP/19XVYdnXX8PpdAbsz0TkTzRebh/cbjdMJwNAt9uNjz78ELu8tO6fZ82+yMhIDBgwADMuughTp07FsJwcJCQk9NgLeEEQEBERgaHDhmHosGG44sorodfrsXfvXqxbuxa7d+1CbW0tJEnyys/dVYIgoKamBp9+/DFycnIQFhamdEi3TJ4yBRMmTuz1aeCiKOLBP/8ZXy9d2mO/8/MhyzISEhJw/wMPIDk5udd/zp7kL+dpj/22Dhw4gGXLlkGWZXbc/ZwsyxgxciRiY2OVSn1qf24unn/uOej1er+5YMi/CYIAg8GAl196CWlpaZh6wQVKh3iVVqfjuUxeIYoi8vPzsXr1avzyl79UKvcLmZmZGDp0KGqqqzkqKQiJoojysjIsXLgQj/3jHwgJCVE6xKsCeQqw0+mE1WLp+P/r161DQUGBeu9HAtcAJO/SajRe3STI7XbDbDIBAHbv2oUvv/ii19dI9wRtGRkZmDZtGmbOno2JEyciOTm5V/9eD1EUkZSUhHnz5uGSSy7BsWPHsHLFCqxcuRIV5eV+HQQKgoD169dj+7ZtmHPJJUrl3SKKotc+B29Oez+dZ/qxN849temRs8Nms2HxwoWoq6vjL8HPybKM8PBwv1//r7q6Gs//5z8oKyvzWiNG6iCKIioqKvCf555DeXm5UrlXBfIDJAUeh8OBr5csQX1dnVKpX4iIiMC4ceMY/gW51atWYc/u3UplXhfwU4BPjgA0trVh1apVcDgcCkcS0fnSaLUQBcFro5HcbjfMFgtMJhM+eP99NDY29lr75Jnqm5GRgV//5jd459138cRTT+Hyyy9HSkpKr/2956LT6ZCTk4MH/vQnvP3OO7jr7ruRmZnZMTrR3whC+zran332GVpbW5XKA4cfftakrEeSlb179mDjxo0+aQCo8+Li4jBixAilMp8xm8147dVXsXv3boZ/1CWiKOLAgQN4/dVXf7RGiq/ptFqvviGm4CaKIgoLC7F+/XqlUr8xadKkjsXBKfgIgoDm5mZ89umnMJ0c3eIvtAG8hMOpIwAPHjqEI4cPq7t/xU1AyMsEQYDGS9MgBaF93etWgwErvvsO27Zv77XrWZIkpKSm4vY77sCbb7+Nv/z1r8gZPhw6nU7pUK8QRRFDhgzBn/78Z7z6+uv4+fz5CA8P98u1hEVRxO5du7B161alUqJe1e3Wwmq14ssvv0RLS0vAdoyCiSxJGDhwIPr06aNU6hOSJGHxokVYfnI6OVF3rFixAl99+aXfnEtanc6ri0QTOex2rPjuO7S0tCiV+oUBAwciKzvbLzvv5B2CIGDHjh3Y7WejAAM+ALTZAAAb1q+HwWAI2J+FyB8JggCtF0evu91ufPXll3jzjTfg6IV10iVJglarxZxLLsGrr72Gvz/yCEaOHOm3I/RFUcSYMWPw9DPP4NF//AMDBg70y36ExWLBsq+/9qvBCRR8uh0AHjp0CNu3bevxhod6hwxg1OjRiIqOVir1iT27d+OD99+HzWbjOUXdIgjtGyG8+8472Ldvn1K5VwTyAyQFJlGjwcGDB/0uTDmb5JQUjBo50m9C++7yTJ069Q+dmyAIMBqNWL5s2Y82rvC1QG2/PVOA6+rqcDg/H5s2blQ6JPAJXAOQvEsQBK+GY7Is49ChQ6isrOzxdkmSJPTt2xd/fvBBPP/CC5g0aZJXf7buiIyMxE033YTnn38e48aP97sQUBRF7Nm9G7t27lQqJeo13QoA3W53x8iCnm58/J0sy5AkCW63Gy6XC263G5Ikdfy7U//9qf/Nl51/WZYRERGBkSNH+uXvq76+Hq++8gpqa2t7bSg7BRdRFFFTU4M3X3/dL0ZA6XQ6TgEmrzObzVj1/fdwOp1KpT4nCgImTJrU67vkddWp93mXy/Wj+7ogCB2Lb2s0GoSFhSE2NhaJiYlISkpCUlISYmNjERoa2rF49al9CU9fgdo/y+3btuHgwYNKpV4TqAEg0H7evvPWW7j3nntQWVkZHH0sH/a3KTh5OyTz3Ed6iudedtHMmXjt9dfx29/9DnFxcec+yE+NGz8ezz73HGbNnu3TZ+/TdbzgWr4cdrtdqZyoV3RrsYITpaXYsnmzUpkqeDr5oihCp9MhLi4OMTExiI6JQWxMDBITEzvWfnA4HDCbTLBarXA4HHA4HLCcXKjVZDLBYrHA7Xb/aDRATzfiZyLLMhKTkpAzfLhSqde5XC58/NFHXPfvDDwPiB5nOk9OfQD1/KF2oihi27Zt+Pzzz3HXXXf59LPRaDQ+/fspOImiiH179+LYsWPIyclRKve5MWPGIDExEbW1tT67Xk5tdz1takhICBISEhATE4OoqCjExMQgKTkZSUlJSE5ORmxsLMLCwxEeFoaQ0FDodDrodLr24Ojk13W5XLA7HDAajaivr0djYyOMbW3Q6/WorqpCXV0dGhsbYbfbO3Z0DMZ7oiAIaGlpwbfffIOJEydC66W1tc5FG+Dtd21tLQAEx/nkRw/8FBy8PQKwp0mShPDwcCy47jrce999SElJUTrE7w0ePBhPPvUU/vX441izZo3ftN+eUYCFhYUYO3asUjlRj+tWj2rr1q2orq5WbWfC8wAQEhKCfv36YcjQoRg7bhwGDRqE1JQUxMXFITYuDpGRkT9p9D3HOux22E8Ggm1GI4xtbWhra0N9QwPKSktRUlKC2ro66JubYTAYOoLB3ghyZFnGID9d/2/79u1e2cI+EJz64BkSEoL4+HjExcUhMSkJKcnJCAsPR1hYGHQ6HZxOJ2w2GywWCxoaGtDc1AS9Xt9xLvXGeRSInE4nPvv0U1xwwQU+vdkG8ggSClyCIKCurg5bt2wJiAAwLS0NOTk5qK6u9toD1akj+bRaLRITE5GQmIiUlBQMyM5G9oAB6Ne/P1JO3vtjoqMRERnZYy/vZFmGyWRCbW0tqiorUVxcjPz8fBwtLkZVVVXHshhq7W+diSAI2LxpE0qOHvWLF5fCyZGdgSqYzh0iXwjU9kGSJPTp0wd33nUXbrzpJoSHhysdEjDS09Px6GOPwelyYeOGDT1yv+4uQRDQ0NCAtWvWYMyYMX7xPVFw6XIAaDQasWH9erhcroBt8M7GE8BER0dj0qRJuGzePEyaPBl9+/ZFSEiI0uEA/n8qkFarRURkJOLj439SI8synE4nmpuaUF1djcrKShQVFaGgoACVlZXQNzfDaDR2BII90XkbM3as3+2w2NTUhHfefhvNzc098jMGolNHgyYmJiI7Oxujx4zBmLFj0a9fP6SmpiIhIaFjFIQn1Dv1OIfDgeamJtTW1uLY8ePI3bcPh/PzUVVVBZPJ1GPnUCASRRE11dX44P338cyzz/rsGtCIIsSTvzfe8Mmb3G43Nm3ahJtuvhkxMTFK5T4VGRmJMePGYWMvrlXmaTtlWUZoaCgSExOR3rcvhg8fjlGjRmHQoEFI79sX8fHx0Gq1vd52CoKA6OhoREdHY8iQIbh4zhy4XC7U1tQgLy8P27Ztw949e1BVVQWHw9FjwaM/8wTXP/zwg38EgAE+wieoCFwDkLwrUNsHSZIwYOBAPPLII5g1e7Yq7yt9MzLw6GOPwWG3Y/v27X7zM25Yvx633nor0vv2VSol6lFdDgBLSkpQUFDQ651ib/M8DEyePBm33HorLpw+HVFRUUqHdYkgtE8pSktPR1p6OiZOmgRJkmC329HQ0IDS0lIUFRZi7549KC4uRlNTE+wnd3rq7KguWZYRFRWF4SNGKJV63Vdffok9QTr11xM2R0REYPDgwZg5axZmzJiBocOGISoqSvEzOfUcCA8PR0ZmJjIyMzFp8mRcf/31aGpqwqFDh7Bj+3bs2LEDJ0pL4XK5FL+uGgmCgA3r12Pd2rWYf9VVSuW9IlA7iBT4RFFEYUEBioqKMHnyZKVyn5s4cSKio6PR1tbWqXvduZz6wiQmJgaZmZmYMHEixo0bhyFDhiCzXz9ERET4zTWq1WqR2a8fMvv1w7zLL0d1VRV27NiBb775Bgfz8mCz2VTflrvdbmzZvBm/+J//QVJSklJ5r/K033yBEwBkmdOAyesCrT2WJAmDBw/G4//6F6ZNm6ZUHtCysrLw14cfxgP334+jxcU+/10JgoATJ05g3759mM8AkLysywHgvr17YTAYVNUJkiQJycnJuOvuu7HguusQGxurdEiPE0UR4eHh6N+/P/r374/Zs2fjtttvR2VlJQ7m5SE3NxcH9u9HZWUlrFbreY8CkGUZKSkpyBk2TKnUqwoLCvD54sVBGUp51tsYN348Flx3HWbOnImEhITz+n2eD61Wiz59+qBPnz6YM2cOaqqrsXLlSiz7+mscO3Ys6B5iBEGAyWTCJx9/jClTpyI1NVXpkB7HAJB8RRAEtLa2Yvu2bQERAA4aNAiZ/frhcH5+t9opz0sWrVaLhIQEDBw0CJMmTcLESZMwcsQIxMXHB8Q1qdVq0T8rC/2zsnDp3LlYu3YtPvvkExQWFqq6LddoNCguLsahQ4dw8cUXK5X3qmAeRU9EygKpHZYkCTk5OXj8n//E5ClTlMpVYcSIEbj//vvx94cf9vkGpoIgwGazYfPmzZh3+eXQ6XRKhxD1mC4FgDabDbt27oTb7Q6IjvP5kCQJGRkZ+OvDD2PevHl+1cmLiIjA0KFDMXToUFxz7bVobGjA3r17sWnTJuzevRuNDQ3tAdo5pjzIsoyBgwYh2Y8WdXU6nVi4cCEqKir86vPubbIsQ6PRYOy4cbjllltw8Zw5Z5wi3pM0Gg0y+/XDXXffjbmXXYZFCxdi6ZIlaGlpCarPXqPR4NChQ1ixYgV+/etfK5X3OEEUOzYLoq6TzzGyw5cdOn8nSRJ27doFY1sbov18GnBCQgLGjh2L/EOHlErPyLOOamxsLEaNGoWLZs7EpMmTkZ2d7ZOXez0pMTERN910E6ZMmYK33nwT3337bccagWpksViwccMGzPbx9DS+wCGiswmkFwSSJGHgwIH457//jUmTJimVq8olP/sZSkpK8Nqrr8LpdPr8npK7bx8qKysxYMAApXKiHtOlJ9GqykocP37cpxdNT5IkCampqXjk0Ucx97LLlMp9SqfTIb1vX1zVty8umzcPZSdOYMuWLVi/bh3yDx+GxWw+4/RgQRAwbtw4hIWFneUre9+ePXuwatUq1ZxH50OSJKSnp+OWW2/FggUL0CctTemQHpednY2H/vIXTJkyBa+/9hoOHjwYVL8Dp9OJJV9+iUsuuQT9+/dXKu9RgiBAywfITvGM4BJFESEhIdBoNNBoNAgJCUF0dDRkAHabDXa7HU6nE06nEw6HA263G6IoBkyH3BtEUURpaSmOHT+OcePGKZX7lEajwbhx47Dkq686lr5QJMuQZLlj467pM2bgkksuwchRowI+9DuT7Oxs/OPxxzFkyBC89eabaGpqUuX5LssycnNzUVdXhzQf3DM9AukBn4i8TwiA9sHzzPvXhx8OuvAPaB9Nf+svfoE9u3dj29atEHzYJxdFETU1Ncjdt48BIHlVlwLAY8eOoa6uThUdIVmWERYWht/97ne4dO5cpXK/EhoaiqHDhmHosGFYcN112LN7N1asWIFdu3ahuampIwj0x/X/LBYLFn76KZqbmoLmjbosyxgzZgz+/NBDuHD6dJzH42yv0el0uORnP8PAQYPwwn/+gx9++KFj12C1E0URJSUlWL5sGe77wx+8+jMLCNxd4rzJsxt4WFgYkpOTMXDgQAwZOhSDBg9GYkIC4uLiEB0Tg9DQUACA2+WC0+VCU2MjqqqqUFFRgROlpSgvL0d5RQVMRiMkSQr6z14QBOibm3E4P9/vA0CgfdOqxMREVFdXn/M69aztFxUVhQkTJ2LevHm4YNo0ZGRkqKKfci4RERG441e/Qnrfvnj26adRXl6uup9Zo9Gg7MQJFBw54tsAEIG3xhcReY83+5NdIcsyYmJi8Mf778ecOXOUylUrISEBt//qV8g/fBhtra0+/b05HA7s3r0bV1199XlvNErUXZ0OAGVZxuH8/I5d6AKdJEm4aOZMXH/jjT5tALorISEBl82bh1mzZyP/0CEsX7YMGzduRG1tbcf27oMHD1b6Ml6zbetWbN26VRXn0Pn62aWX4qG//AUDBw5UKvWa7Oxs/PvJJ5GSmopFCxfC4XAE9HVwvtxuN7779lv8fP587751E4SAeEPsC56RfjqdDoMGDcLMWbNwwQUXICs7GykpKYiMjFT6Ej9q4xwOB/R6PcpOnMDWrVuxY/t2FBUVdUyVDIbz/Ezcbjf27N6Nm2++GVo/X3MmLS0NOTk5qKqqOuN/90zzTUxMxAXTpuHqq6/G5ClTEB0dfcZ6tRJFEfPmzUNkZCQee+QRVYaAVqsVO3bswMVz5vju2hUEiEH+EoGIzkwA2pdi8mNarRa33X47rrvuOt+1o35ixowZmDdvHj5fvNinn4UgCMjLy0NTUxPS09OVyol6RKcDQJfLhaLi4nOuwRQoPG9CbrzxRtU8MISFhWHS5MkYN348biosxPJly7Dq++8xaPBgpPjJ+n9tbW1YvGgRjEaj6kfkeNb7+/n8+fjbww8jOTlZ6RCvi4+Px58ffBARERH44P33Vb2WlIcoiigrK8N3336LP/zxj0rlPUYQBL/vIPqCJEmIjo7G2HHjcNlll2HGRRchMzNT6bBzCgkJ6dgEZ+oFF6CxsRF7du/Gt998g63btsFqsaguJDkfgiCguLgYDY2Nft/ZjIiIwPgJE7B+/fof/XvPCNH09HTMnDULV199NUaPGeNXS1z4wkUXXYQH/vQnPPbooz26e7I/kGUZB/bvR2trK+Li4pTKewWnABPRWfn5C15JknDJJZfg17/5jd+//POGkJAQ3HrrrdiyeTNqamp81rYLgoC62lrkHzrk930yUo9OB4AtLS2oPsvb+EAjSRKG5eRgUgDsiNhZWq0Wo0aNwogRI7BgwQI4nE5o/WTzgW1bt2LPnj0+a2y9SaPR4Lrrr8df/vIXxPXyRh/dERERgXvuvRdarRZvv/XW+a+5FcDcbjdWfPcdrrr6amRlZSmV95hgOO/Pl2d31mnTpuH2O+7o1dFbycnJuOLKKzFr9mysXLEC7737LkpKSoJuNKAgCKirq8OxY8cCorM5dtw4xMXFwWAwAGgPgtLS0nD55ZfjmmuvxbCcHNW/SOqMyy+/HEVFRXj3nXc6RkiqgSiKqKysROnx4xg/YYJSea9gABhAgqhNJ//hr30JSZKQlZWFe+69V5Xr4XbV8BEjMPeyy/DhBx8olfYaQRBgMpmQl5eHSy+7zKfLQ1Hw6HRPpra21udbZ/cUQRAwYcIEREVFKZUGLFEUMXzECIwdO9YvfmdmsxnLvv4a5pOblaiZLMu47LLL8OBDD/l1+OcRFhaGO++6CzfedFNQPOSIoogTJ05g9apVSqU9hg+Q/8+zIc79DzyAl/77X8y55JJeC/9OFRkZiRtuvBGvvv56x5orahjRfr4EQYDRaERhQYFSqV8YMmQI0tPT4XK5kJiUhFtvvRVvvf02Hn7kEYwYOZLh32m0Oh1+9etfY8qUKXC73UrlAUMQBOj1ehzx8XnLEdwBhL8r8jJ/fK6RZRkRERH43Z13YtTo0UrlQUUURVxz7bXok5bm8xdmR44cgcloVCoj6hGdfhJtampSzdQSURQxePBgVfwsgeLA/v3Yt2+f6kMQSZIwbdo0/OVvf0NCQoJSud8IDw/Hvffdh0svvTQoQhG3240fVq9GQ0ODUmmP4CLy6DivZs+ejVdffx13//73SEpKUjiq5w0dOhRPPPkk/nD//YiOjvZ558+bZFnGoYMH4bDblUp9LjY2FrNmz8aCBQvwxhtv4B///CdGjxkT9NfRuSQlJeHmW25BZGSkqtpxt9uNvP374XK5lEp7heDnU/wCjWfdV88ft9vdqT+S291xrGcjoFO+ePsfIi/x1zUAZVnGnDlzcNXVVyuVBqXhw4fj4osvVirrVaIoovT4cTQ1NSmVEvWITs8JbWhogNVqVUXnOyQkBPEBFM4EOqfTiRUrVsDQ0qLqhbQlScKAAQPw4EMPISMjQ6nc7yQmJuKPDzyAsvJyFBYUqOJaPxtRFFFUVITt27bhmmuvVSrvviB/gJRlGVqtFtcuWIA/3n8/+vTpo3RIr4qKisJvf/tbREdF4cUXXoDBYAiKF0KCIKC0tBRGkwmJJ3dS9ldarRa/+93voAsJQXh4uFI5nXTh9OkYPWYMdu7YoapRksVHj6Ktrc1nL9aCoX3oLZ6QTpZliKKIyMhIREREICIyEinJyUhISEBcfDxiY2MRHh6OsLAwhISEwG63w2Kx/PSP2YxmvR6tBgOsVissFgvsdvv/h4JK3xBRT/LD5URkWUafPn1w2+23IyIiQqk8KGk0GsybNw8rvvsORqPRZ79Dg8GAoqIiZGdnK5USdVunA8D6+nqlkoDg6YCoqWPs70pKSrB1yxZVT8vwbCxz7333YczYsUrlfmvIkCG499578feHH1Z9KGK1WvH9ypW4dO7c89pptjuCeQqwZxrKbbffjjvvugsxMTFKh3iFVqvFLbfeCofDgReefx5Wq1XV57uHXq9HVVUVEhMTlUp9LoZrFnVaXFwc5s2bh31796pmdKsoimior0fZiRM+CQCDuf3uKs8oP41Gg9jYWGRnZyMnJwfZAwagf1YW0tPSkJySgvDwcGi12o4/Z2qDPaMETx0x6HQ60dzcjLq6OtTW1qK+rg7V1dWwmM2I6uX7OdHp/O0FryAImH/VVRg7bpxSaVAbNXo0RowciR3bt/skFxAEAWazGUWFhZg3b55SOVG3dSoAdLvdaNHrlcoCgiAIcLvdcDmdSqXUQzasX4+6ujpVd6AFQcCCBQtw+RVXKJX6vUt+9jMcOHAA77/3nlJpQBNFEQcOHEBxcTHGjx+vVN5t/jhFpLfJsozIyEjce999uP2OOxASEqJ0iFeJoohbbr0V1TU1+OSjj1QTmJyNIAhobW1FWVkZxowZo1ROAeqCadOQlpaGyspKVdx3BUFAS0sLSktLfbcRiFIBAWgP6yAIiImOxvDhw3HBtGmYMmUKBg8ZgpiYmC5tSieK4hnP4/j4eAwaNKjj/zudTjgcjqDfFZy8z59eHkqShCFDhuDGG2/0SagVSGJjY3HxxRdjz+7dPls2Q5ZllJ04AbvdjlA/n5lBga9Td2BJkmAwGHx2cfQ0h8MBQ2urUhn1gMbGRqxbtw6SJKniQeRMJEnC8OHD8cvbb/e7gKMrdDodbv3FL7B9+3YUHDmi2t+bZ3H5DevX93oAKMD/3hB7g06nw+133IE7fvUr6HQ6pXKfCAsLw5133omjRUXYtm2bas93oP2ct9lsKC8vVyqlANavXz8MHTYMFRUVSqUBw+l04vjx45Bl2ScP2774OwOJJEkICQlB/6wsTJ8+HRfPmYMRI0Yg3osboel0Or+9z5C6+VProNFocNXVV2PAwIFKpQRg+owZSH7vPdTX1/uknRcEAWVlZTC2tSE0OVmpnKhbOvWEI0kSbDabUlnAkGUZx48dU02g6c/27N6No0eP+qRR9QZZlhEeHo7bbr8dWVlZSuUBo3///rjtttsQFh6u6utElmVs3bIFDb29xIEfrhHjDVdfcw1+d+edfv9QlpKSgnvuuw9paWmqPt89Kisq4HA4lMooQIWGhmLkyJGqa3OOHz8Ouw82sBEEQdVLmHSHZ5rvhAkT8Pg//4kPPvgAjzz6KKZPn+7V8I+I2q/HjIwMXDp3rlIpnZSZmYnhw4f7bAaIIAioqalBs0pmWpJ/61QAKAgCtCoaRizLMvbn5sJsNiuVUjc4nU5s2rQJFrNZdQ8iHpIkYcqUKbhMhWs3zLv8ckydOtVnN0VvEEURJSUlOHTokFJpt4mCEDS7E8qyjJkzZ+L+Bx5AdHS0UrlfmDx5Mq6/4QZVjwAE2u/nlRUVPglSyHsGDBigqulfgiCgvKwMJpNJqbRXqLMH03WeNf6ys7Pxt4cfxptvvYWbb7kFGZmZqm9DifzZnEsu4YYSnRAZGYnxEyZ0aXmCnmKxWFBWVqZURtRtnbo7C4IArZ+P4OgMURRRWFiI3H37lEqpGyorK7Fn927VdgY9G3/cfMstfrOxQU+Kjo7GL37xC8TGxqp6VJTVasXmzZt79WcUTo4A7L2/wX943kDf/8ADPt/ttzMEQcD1N9zg0zfB3lJfX++zIIW8IzklBVFRUb3arnlba2sr6urqlMp6hVpfYnaFZ7rvlT//OV5/4w3c8atfITklRekwIupFsiQhOTkZV1x5pape/njDpMmTfXa/FAQBDocDlSpasoP8V6cTGTWFOIIgwGAwYPHixTAZjUrl1EW7du1CXV2dajvOkiRhxowZmD5jhlJpwLrwwgsx46KLfHJT9KZ9+/ahtrZWqaxbgmUNQK1Wi5tvuQWjRo9WKvU7GRkZuO7661WxlufZCIIAk8mEeh8FKeQdMdHRiIyMVE3b7dktsbfb6TMRBO4C7CFJEtLS0vDnBx/EU08/jZzhw5UOIVI/P3jOkWQZ4ydMwHBek52WnZ2NrKwsn90vnU4nqqurlcqIuq3TPRm1hTiiKGLzpk1YuGgR3G63Ujl1ks1mw/Zt21Q7zUyWZURHR+Oaa69FRESEUnnACgsPx9VXX63qn1EURZSdOIH8/Hyl0i4ToL429EwkScKECROw4LrrlEr91s8uvRRDhg5V9ShAm82GxsZGpTIKYBGRkaraDVUQBFgsFtTW1CiV9jhBEKDRaHz2cOgvJEnCmLFj8fwLL+DXv/lNwCzvQNTr/KBt0Gm1mDlzpqrafW9JSEjA0GHDfNfGyzLq6+pUtd8C+adOBYCCICAkJERVD7CCIMBut+PtN9/El198wRCwh9VUV+PQoUOqfWsuSRLGjhuHyVOmKJUGvMlTpmDChAmqvkZsNhv27N7dezd/QWhfA1DFPKH4bXfcgZQAng6WlpaGefPmqbbt8uwEzABQ3aKjoxEREdF7bZoPuN1u1NbWev1nEgQBYhBPqfN83hfPmYPnn38e0y68UFXPA0Td5uPrQZIk9ElPx4SJE5VK6Qw0Gg1ycnJ8tmGdIIqob2jg0izU6zr1ZCMIAkJVOCXKMxX4P889hw8/+ABWi0XpEDpPeXl5aGxoUG0nMTQ0FFddfbUq1/47XUxMDOZdfrmqp0XKsoyDeXloa2tTKqWzkCQJ48ePx/Tp05VK/d5FM2ciJSVFtaMAnU4nA0CV0+l0qlwHqqGhwes7WHtGAAYrQRAwb948PPHkkxg0eLBSORF5mSzLGD1qFLKyspRK6SxGjByJSB+uA9jU1MTNSanXdToAjIiMVCoLSJ4Q8KUXX8RTTz2FqqoqpUNIgdvtxs6dO1U7lFmSJAwcOBAXTpumVKoa06ZNQ2ZmpmoDEVEUUV5ejuPHjyuVdp1Kw3CPkJAQXDp3riqmhQ0aNAjjxo/3SUfQW5r1elWP6lULWZbhdrvhcDhgs9lgNpthNBrR2toKg8GAlpYWtOj10Ov1aG5uRlNTE5qamtDY2Ainy6X05QOKgPYA0OmDAFCtI4LPx7x58/DIY48hLS1NqZSIfECj0eDC6dNV/aK+t2VmZiI5Kcln/b621lZYrValMqJu6dRe16IoIjExUaksYAmCAKvVikULF6LgyBHcedddmDlrFkJDQ5UOpTNoaGhAwZEjqh39JwgCZs6ahbT0dKVS1cjIzMQF06ahtLRUqTQgCYIAvV6PgiNHMH78eKXyrvFRp8IbJEnCgAEDMEMlG+KEhYVh2rRpWPPDDz7rDPa2VoMBTqczqEc2+YLb7YbL5YLT6YTdZoPJZGr/YzbDfPJ/m81mWCwWmM1mWK1WWCwWWK1WWC0WWE7+0+FwwO12/+iPy+2G2+WC2+2GJEloampS1+9XENBQX+/1EYDBSpZlTJs2DX99+OGA2tGdKJjIsoy4+HgMGTpUqZTOITIyEpmZmSgpKVEq7XGCIMDhdKJFr1cqJeqWTgWAQPsCmWoNdID/X6B///79eOjBBzHv8stx6y9+geHDhwf1m9+uKC8rQ3lFhSo/N1mWERcXhzlz5iiVqopGo8HFF1+M5cuWwWKxqLItcLvdOHDgAG66+WZotZ1uIoPerNmz0TcjQ6ksYIwZOxZJycmor6tTZVvW1tYGl8pGiPkLSZLgcrlgNpvR0NCA5pOj8hoaGlBXV4e62lrU1tWh1WCAw+GA0+mEw+mE8+T/djqdcLlckGX5jG3t+ba/ajxvTWYzLFYrEpQKqVskScKwYcPw8N//jgwVtetEaiNJEtL69EFmZqZSKZ1DZGQkMvv189lLX7fLhaamJqUyom7p9NNtYmIiIiIiVPvw7yGKItra2vD54sXYtnUrfj5/Pq66+moMHjxYlZ3p3pCbm6va9RQlScLQYcOC8k3biBEj0D8rS9WjO4sKC2EwGJCUlKRU2nkq/cxkWUZsbCxmzpqlqjZywIAByMrKQl1trVJpwBEEAa2trXA6nUqlpMDtdsNisaC+vh51dXWoqa5GaWkpTpSWorq6GobWVphPjuo7feTaqe3o6f9bVSP3eoggCHA5nVyrtZd5XnTee999GD5ihFI5EflY/6ys3um3BhFRFJGRkeGzAQBut5sBIPW6Tp/daWlpSEhIgNlsVu3Dv4cgCBAEAVVVVXjrzTexcuVKzJ07F1deeSVyhg/32S5BgcDhcODgwYNwu92qfIARRRGTJ08Ois0/TpeckoIJEyag4PBhpdKAJIoiamtrcezYMXakOkGSJGRlZWHE8OFKpQElPDwco0aNwu6dO5VKA1JraytHAHaSLMswGo2ora1FTXU1jh07hsLCQpSVlUHf3Ay9Xg+TyQRZljtGEXj6Ewz1eobT6URba6tSWY9Td6/3x0RRxA033ohL585VKiUiHxNFESNGjOD9pQdkZGQgPDzcJ4OdJEmCvqVFqYyoWzodAPZJS0NiUhIqKiqUSlXDM5qlorwc773zDr795htcOH065s+fjwkTJyIqKkrhKwSfhoYGVFRUeL3h9JbIyEhMveACpTJVEkURU6ZMwZKvvoLNZlPd79izIdDR4mJMnTpVqbzzfDStoLcJAKZMnYq4+Hil0oAiiiJGjhwJXUiI6jbLEAQBlpPry9HZSZKEhoYGVFZU4PDhwzhy+DDKy8tRV1eHpqYm2O32jrDv1KBPbW2jP3E6nWj1wQhAdbbePyVJEsaMHYtf3nabz0bCEAUaX7b4Go0GAwcOVCqj85CamorQ0FBYfDCLze12w8AAkHpZp+/qkZGRGDxoEPIOHFAqVR1PENjQ0ICvlyzB2jVrMGHiRMyfPx+Tp0xBeno6O/wnNTU2or6uTpWfhyRJ6Ne/P7KyspRKVWvkqFFITk5GZWWlUmlAkiQJRw4fhtPp7PmRviq8JmRZRnhEBCZMmKDKaz47OxsJCQmor69X1fRm4GSQ4oORVP6uoaEBVZWVyM/PR15eHkpKSlBZUQGTydQRBAtC+66wDPu8S0D7LAODwaBU2uOC4bcsyzIiIiJwxx13oG/fvkrlRORjsiwjKioKqampSqV0HpJTUhAWHg5Zr/f6vV2WZbS1tkKSJNX1N8l/dDoA1Gg0GDtuHJYuXapUqlqCIEDQaGAymbBp40bs2L4dWdnZmDp1KmZffDFGjRql6t2Sz0dlZSVMJpPXG05vkGUZAwcORHJyslKpaqWkpGDkqFEoLy9X5XQDQRBQWFgIk8mE+J4e0abCEYCyLCM5ORnZAwYolQakjIwMJCcno66uTqk04LhcLgaAaP8c6uvqcKSgADu2b0fegQMoKyuDyWSCy+XiFF5/IgjtwbUPAkD1td4/JUkSJk2ahNkXX6xUSkR+wLNeZ0xsrFIpnYfIyEjEx8WhprpaqbTHCYIAk8kEm82GiIgIpXKiLul0AAgAOTk5iE9IgL65WZUBz/nyPAy4XC4cLS7G0eJifL10KYYNG4ZpF16Ii2bOxNChQ4NyivDx48fhdrtVeX5otVrk5OQE9bSY8PBwjB49GqtXrVIqDVj19fWorKjo+QBQhWRZRlJSEtLT05VKA1JMbCwy+/VDfn6+UmnA8VWQ4g8kSUJ9XR3279+PLVu24MD+/aiqquqYEs3Az39xmlTv8Izmvuqaa4JyjWOibvHRM49nBGBUZKRSKZ2HkJAQJKekQPbRWudGBoDUy7qUYAwcNAgDBw5EU2MjO8YneYbpWiwW7N27F/v378dnn36KMWPH4qKZMzF9+nT069cPISEhCl8p8EmShBMnTkCSJFWeHyEhIRg2bJhSmeoNGzYMUVFRMBqNqgt6BUFAm9GIispKjB4zRqmcAGRkZiIsLEypLCBpNBpkZWWp7jwH2tvrYFsDsKWlBQfz8rB582bs2rkT5eXlHYt9i6LIaTcBwmqzcZpUD5NlGSNGjMCMGTOUSonIj0RGRiKCAWCP0Gm1iPXRaEpBEGC32eB0OpVKibqsSwFgTEwMJk2ahL179iiVBiVP6NXS0oIN69dj29at6NOnDyZNmoRZs2dj8pQpSE5OVm2n1Wg0orqqSqksIMmyjITERPQP4vX/PAYOHIi4uDi0tbWpLhgRBAE2q7V3zmOVfVZA+wuQ7OxsVQb+QPv5kJmZqcrzXJIkOINgF2Cn04kTJ05g08aNWL9uHQoLC2E0GgGAo/wClMPhYADYwzQaDebOnYukpCSlUiLyE56Ru2p9CettGq0W0dHRSmW9xuVyqW7TOfIvXQoAAeCimTOxaOFCGAwG1T0U9RTPQ4Xb7UZVVRUqKiqwatUqZGdn46KZMzFz5kyMGDnSp41Mb2hoaEBjY6MqzwtJkpCdnY2kIF/jEQDiExIwYMAAlJeXK5UGJFmWUVFe3vMbgahwDUAAyMzMVCoJaMkpKdBoNJAkSak0oMiyDLeKA8DW1lbs3bMHa9euxc4dO1BTUwOXy8WRfgHOs/yKrNL21BckSUJmv36YNXu2UikR+RmtVhvUSxP1JK1Wi5joaJ/dX1wul+r6muRfutxSjBgxAuPGjcP69ev55vw8eMJAm82GgoICFBQU4IvPP8eIESMwe84cTJ8+HQMGDFBF411fV4empibVPlwNHDiQC+0CiIiIwLCcHGzcuFGpNCAJACoqKmC323s2AFQhURR9Nl3CW6KjohAREaG6Ke8yoMqOZnNzMzZt3Ihly5bh4MGDMJ4cqSyKIvssKiG53T57QFMjWZYxYcIE9O/fX6mUiE4jCIJPdwnXarWq6pv4WqQPB+dIsgxZhf0y8h9dTpsiIyMx97LLsG3bNrhUPHqgp3kWFQcAg8GArVu3YufOnUhPT8cF06Zh7mWXYcKECQH9MF1ZWQmr1arKG1FIaCgGDRqkVBYUBEFAdnY2dDqdKgMECALq6+tht9t7diMfNV4XISEIVfnUk6joaERGRqpvyrssq+r6raurw/p167B8+XLkHzoEm83G0E+lJEliANiDdDodpk6dGhRrVRP1Ch/2DVTVL/EDYaGhPhvIIvPeRr2sywEggI5dbvPz8312kQQyz6hAWZZRWVmJys8/x/crV2LEyJG49NJLMXPmTGQPGBBwn221D7ZN9wZZlhGi06l+qmNn9OnTR52hyEkmkwmtBgMSe3LKt8pu6rIsIzQ0FGGhoUqlAS0iIgLh4eFKZQFJDR1NvV6P71euxJdffonCggI4nU4GfyonqeC89ReSJCE1NRWjRo1SKiWis/Fhm6SG+7g/0Wg0PnuukSSJ9zfqVd0KAPv06YOfz5+PgsJCDlXtJk/IZzabsWvnTuzbuxeffPwxfnbppbj6mmswbNiwgHiQcbvdqK2thSzLPms4e1N4eDjS+/ZVKgsangCwtbVVdb9vQRBgt9vR2NSEAQMHKpWfP5V9TkD7CMAQlQeAYWFhCA0NZSfbz1itVmzatAmfffIJ9u3bB7vdDo1GExD3SyJ/Icsy+vXrxw3OiIjQPqVaFEWv9/kEtC/NQtSbuhUAAsDcyy7D0iVLUFxcHHAj1fzRqaMCy8vL8f5772HV99/jZ5deimuvvRbDR4zw6wcbt9uNupMBoNrIsozk5GTExMQolQaN5ORkRMfEADU1SqUByWazoamxUamMAJ+ufeMNoaGhnBrnRyRJwv7cXHz66afYsH49TEYjRAZ/1MvU2s4JgoCRo0apdpQzkVeo8AVvsNKcXFNRjc+zRN1O7Pr164ebbr6ZD0a9QBRFCIKAmpoafPzRR7jzd7/Dv/75Txw+fNhvG6S2tja0trYqlQUkWZaRlpaGyMhIpdKgERYejrQ+ffz2fOwOzwjA5uZmpdKgJ8my6qcrhISEcDMYP9HU1ITXXn0V9/zv/+Lbb76B2WyGyOCPvECtrZxnTV++yCci+v8RgERq1CNn9lVXX42pF1ygqoXE/Yln45C6ujp8+sknuPvOO/HSiy+ioqJC6VCva2lpUd0umR6yLCO1Tx9EREQolQYNnU6HvhkZSmUBy+l0oq2tTamsc1QelKmVZ1qpGsPuQCFJEnbu2IH7//hHvPrKK2hoaOh4UUZEXafT6ZCamqpURkQUFDx9C/b5SI16JACMj4/Hr3/zGyQmJfFC6UWeILC6uhpvvP467r7zTiz87DPo9XqlQ73GYDDAZDar8oFMEAQkJCTwjdAptFptz26Q4YdMJpNSCQUBjUbDa9+H9Ho9Xn/tNdz/xz9i29atkCRJlfcZIm+TZRkxMTFIUPm9nIjofLF3QWrWY08z06ZNww033sgHJC/wvJEoKCjAv//1L/zxvvuwdetWuN1upUN7ndlkgs1qVSoLSFqtFjGxsUplQSdWxZ+JIAgwGY1wuVxKpeePoUVAEkWR00x9pLioCA//9a945b//7Rj1R0Q9oyMATEhQKiUiIqIA12O9aK1Wi1/+8peYNGkSpwJ7iSiKcDgc2LJlC/50//146cUXUVtbq3RYr7JYLLDb7aocmaHVahGn4rCrq2JiYlS98L7JZOrZAJCjpAOSIAh8I+xlkiRh06ZN+NMDD+CHH36A2+1W5b2FyJdkWUZsbCwDQCIioiDQYwEgAPTp0wf/e8896NOnD0NAL/HsGtzU1IS33nwT9917L9atW9ezgUUnGI1GvxiJ2NNkWW4PAOPilEqDTnRMDEJDQ1U7/b/HA0AiUmSz2fDJxx/jrw89hCNHjnCtP6JeFJ+QwPWNiYiIgkCPBoAAcOH06fj9//4vIiIiVBsI+CPPtOC9e/bgoT//GS+/9JJP1gY0GAxKJQFLp9OperprV0VHRSE0LEypLCAJAGx2O19oEHlRW1sbXnzhBfznuedQX1/PKb9EvSw6OhoiA3YiIiLV6/FetSAIuOGGG3DzLbdAFEWGgF6m0WhgMBjw9ltv4a9/+QsKCwqUDukxsiz3/I6pfkSj0SA6OlqpLOhERkYiNCREnde6IMDlckFmAEjkFY2NjXjyiSfw0Ycfwmq1Mvwj6mWCICAsLIzr0xIREQWBXulZh4aF4e7f/x6XX3EFp+z4gCAIkCQJa9eswR/+8Ad8//33XpmWK0mSqndMFUURISEhSmVBR6fTqXoNQJfTCUmN4SaRn6moqMA/Hn0US776Ci6Xi/0HIi8JDw/n9UZERBQEeiUABIDExEQ8/Pe/45Kf/UydI4MCgCiKKDl6FI88/DA++vBD2Gw2pUO6RZZlOB0OpbKAJQgCdAwAf0Kr06l6lI6TIwCJel15eTkeefhhrF69GgAYRhB5iWcEIK85IiIi9evVp/Y+ffrg0ccew0UzZzIE9BFRFGEwGPDiCy/gvy+/3OtTdJ0q3ixBFEVotVqlsqCj02o5ApCIuqyhoQHPPPUUtm3bxhCCyAfCw8OVSoiIiEgFejUABICMjAz881//wuzZs5VKqZcIggCr1YoP3n8fTz3xBBobG5UO6RJZltt3S1VjWHJyF2A1j3TrKrVPAZZkWZ3nNJEfaDUY8Px//oM1a9Yw/CO/p9YzNDQ0VKmEiBTwHkZEgcAraUb//v3xryeewNzLLuvYrZa8SxAEOJ1OLFmyBE898QSaeikEdDmdUONvVwbaA0De3H9C7VOAtRoNBBX/fES+YrFY8Morr2DZ11+zX0ABQa1nKYMLIiKi4OC1p9q+ffviH48/jquvuQY6nY6dfR/wbA7y3Xff4ZlnnoFer1c6pFNkWVb1FGBBELhL3hmIgqDqYF+r1fLhiKiHSZKEhZ99hkULF8LtdvMaIyIiIiLqZV4LAAEgNTUVjz32GO7+/e8RHR0NiQvre50nBPxm+XI89+yzMBgMSod0ipp/p5IkqTbk6g5JliHLsmof4BkAEvW8zZs24b1334XNZuP1RURERETkBV4NAAEgJjYW/3vPPXj0sceQkZGh6sDIXwmCALfbjaVLluCN11+Howd37tWqeS04BoBn5Ha7Vf25aDj1m6hHFRcX4/nnn0dDQ4Oqlw8gIiIiIvInPul563Q6XHf99Xj+xRcxZepUAFB1gOCPPCHg4kWLsOzrr5XKz4sgCKrdJdezhiID659yuVxwu91KZYHp5OYvXAOQqGe0tLTgpRdeQMGRIwz/eoAsy5Ak6Sd/3G73j/7w3kVEREREPk1rpkyZgpdefhlvvP46vl66FBaLhQ8EXiQIAkwmE1595RX0798fUy+4QOkQRRqtVrW75EmS1KOjJdXCbre37/6sQjKAsNBQtktEPeTLL77A+vXreU0pkE8urXDqy1Hh5HqrHiEhIYiKikJ4eHjH56nRaKALCYHutKULLBYLqqur4XQ6QURERETByacBIACkpaXh7488ghEjRuDdd95BaWnpTzq51HtEUUR1dTWef/55/PeVV9C3b1+lQ85KEATotFrVbpThliTYbDalsqCj5gAQACKjolQ7spXImw7m5eGzTz/lph+nOT3sEwQBkZGRiIuPR0xMDOJiY5GckoKUlBQkJycjJiYGkZGRiIqKQkxsLKIiIztGKWu1WoSGhiJEp+v4jAVBQHl5OR568EEcP36c4SsRERFRkPKLp9qwsDDcdPPNGDt2LN595x388MMPMJvN7KR6iSiKOJCbi48/+ggP/eUvXQ47BEGAVqdTKgtYbrcbZrNZqSzoWC0WOJ1O1T7QRzEAJOo2k8mEd995B1VVVUF/bz818NNoNIiLj0d8XBzS09MxcNAgDBgwAJmZmUhLS0NKaioiIyOh0WggimKXPzuny4WwsDClMiIi6iK19oOJSF386ql2WE4O/v3kk5g2fTref+89FBcVqXp3UX8iA1i6ZAmmTZuGWbNnK5WfkSAIiIiIUCoLWG6XCyajUaks6JjNZtVOjZZlmQEgUQ9YuWIFNmzYELT3c89afYIgICYmBqmpqRgxYgTGjB2LYcOGoV///oiPj0dISAg0vbCZFtdZJiIiIiK/e6qNiIjAggULMH78eCxetAjLly1DY2MjpwX3MkEQ0NzcjHfefhvDR4xASkqK0iE/IYoioqOjlcoClsvlQltbm1JZ0DGbzbDb7aq9PiMjI5VKiOgcampq8Nlnn8FqtXZ5BFugkiQJoigiPj4eI0aMwMRJkzB6zBjk5OR0BH7eIACqXZ6DiIiIiM6P3wWAHtnZ2XjoL3/B7Nmz8eGHH2Lb1q2wWCy98mac2mk0GuzduxfffvMNfvPb3yqVn1FUVJRSSUASBAEulwsGg0GpNOi0trbC4XCo8sFeq9WqOtQm8obvV65EUWGhKtuIs5EkCVqtFtnZ2fjZpZdiziWXYOjQob5rT/gSlYiIiCjo+W0ACLQ/fF8wbRpGjByJNT/8gCVLluBgXh5sNltQPUh4k8vlwtdff43L5s1DRkaGUvlP+OzhxgucTidaWlqUyoKOXq9X5fQyWZYRGhaG+IQEpVIiOouqqios+/pruFyuoLhve4K/YcOG4efz52PuZZchq3//jk06fEUQBDD+IyIiIgpufh0AesTExOC666/HxXPmYNPGjVi6ZAkOHDgAi8UCURT5VrsHiaKIo8XFWPHdd7jr7ruVyn8iMioKGo1GlYGQJElobm5WKgsqLpcLTU1NSmUBKyw0FMlJSUplRHQW369cieLiYtWHf557Xk5ODhZcdx0uu+wy9O3CS7TexL4SERERUXALiADQIyEhAdcuWIDZF1+MLZs3Y9myZcjdtw8moxECg8Ae43a78c3y5bjiiiuQ2a+fUvmPxERHIzw8HGazWXW/D0EQ0NTUBKvVivDwcKXyoOByuVBXW6tUFpBkWUZoaCiSkpOVSonoDGqqq/HN8uVwu92qDgAlSUJ8fDyuXbAAv/if/0FWVpbSIV7nWUdZjS/niIiIiOj8BFQA6BEfH4+rrr4aF8+Zg7179uDbb77B9u3bO0YiqflBwxtEUcSxY8ewbt063PGrXymV/0hsbCwiIyNhMpnUGQA2NjIAPIXD4UBtXZ3qftceERERSOAUYKIu2bZtG0pKSlR9T5ZlGePGj8e9996LGRdd5Lc7hnMTECIiIiIK6F55dHQ0Lp4zB8/+5z9486238MvbbkP//v0BtI9i45vurnM6nVizZk2nN72IjYtDpIo3Aqmtq4PZZFIqDRp6vR4GFa+LmJiUhNDQUKUyIjqNxWzG6tWr4XA4lEoDkizL0Gg0mH/VVXjp5Zcx++KL/Tb8A9C+CYhSDRERdRnbWCIKBH7cWz1/oaGhmDhpEsZPmIDS0lJsWL8eq1etQlFRESwWCwRBUPUIhN4giiKOHD6M/bm5uHjOHKXyDp4RgGoNX9taW9HQ2NjpqdFqVV1dDaMKR3sC7Q/4aWlpCAkJUSolotMcPHQIeQcOqPLe61ke4Bf/8z+45957ERsbq3SIz3mmABMRERFR8FJVz1wURQwaNAi/u/NOvPPee3jmuedwxZVXIj09HaIoclRgJwiCAKPRiDU//ACn06lU3iEyMhJxAfAw1BWCIMBut6PsxAml0qBRVVnZvganSh8s+/Xrh7CwMKUyIjqFJElYv24dWlpaVNc2yLKMkJAQ3H7HHbj/gQcCIvzroLLfBRERERF1jipGAJ5JUlIS5s+fj0svvRRlZWXYvWsXtm7disP5+WhqaoLL5eIOwudh7969qKurQ2ZmplIpAECj0SC9b1/Vfq52ux0lJSVKZUFBlmWcOHECTqcTGo1GqTzgaLVaZPjZLp5EgaC5uRk7d+xQKgtIoijihhtuwP/ecw8iIiKUyv2GwCnARES9S6XPPkSkLqoNAD3CwsIwbNgwDBs2DNffcAOOHz+OnTt2YOfOnThy+DBaWlrgdDoZBp6BIAioq6vD4cOHzzsAFEURWVlZqv0sZVlGWVkZbDZb0I8Ms1qtOHbsmFJZQJJlGTExMejLAJCo0woLClBVVaW6+4AkSZg1axbu/cMfEBVga91yCjARERERqT4APFVERARGjRqFUaNG4ZZbb8WJEyewe9cu7NixA4cOHkRLSwskSVLlmkVdIQgCLBYL9uzejcsuu+y8Hx769e8PURRVOd1aEASUnTgBvV6P9PR0pXJVazUYUHr8+HmfF4FElmVERUUF/e+YqCtyc3PR1tamqnupJEnIyMzEfX/4A5KTk5XK/ZMK22oiIiIiOn9BFQCeKioqqiMMvOnmm1FSUoKtW7Zg65YtKCwshNls5hvzkw4dPIjm5mYkJSUplQIA+qSmIiYmBgaDQXWfnyiKqKmpQV1dXdCHQydOnFDlGl9AewCYmJgYuA/6RD5iNBqxb98+1b0A0ul0+MUvfoGx48Yplfol9meIiIiISD2v57shKioK48aNw31/+APeeucd/PeVV3D99dd3BDySJCl8BfUSBAEnTpxAfV2dUmmHpORkJCUlqe4B0MNqteLQoUNKZapXVFQEo4o3ABk6bBjCw8OVyojoFBXl5Th27JjqRv8NHz4cV19zTUC3d4H8vRMRERFR96mnh95DEhMTMeeSS/DUM8/gvfffx31/+ANycnKg0WiCchdhzzTg48ePK5V2SE1NRVpammo/K6fTibwDB+B2u5VKVctutyM/Px8ul0upNCCJooic4cOh0+mUSonoFMXFxWg1GJTKAopGo8H8q65CamqqUqnf4iYgRES9i20sEQUCBoBnodVqMSwnB3/44x/x7vvv4x+PP44LLrgA4eHhQRf8OBwOFBcXK5V1CA0NxeAhQyCqdLSBIAgoKixEXSdGRapNc3Mz8vPzVTmixLMByKCBA5VKieg0paWlsNlsqmkbJElCZmYmZs2erVTq1wSAawASERERBTkGgOehb9++uPUXv8Cbb72FZ559FhdccAG0Wm3QTA12u90oPX4cDodDqbTD8OHDIWo0SmUBSRRFVFZWdmpUpNocOXwYdbW1qnnIP5Usy0hMSkJWdrZSKRGdwmKxoKSkRKks4EyZOhX9+/dXKvNrbkmCW6UjtomIiIjo/DAA7IS4+Hj8fP58vPbGG3j473/H4MGDIcuyaqe6eoiiiNq6Ohg6Ma0re8AAREdHq/azsVqt2LVzp1KZKsmyjN27d3dslKM2siwjKyuLG4AQdVJbWxuOHzumqnZBp9NhxowZ0AT4Cy273Q6b3a6q3w0RERERdQ4DwC5ITEzEbbffjrfefhv/88tfIjIyUtWjAQVBgL65GSajUam0Q3p6OjIzM1X7uUiShF27dqG5uVmpVHUaGhqwZ/dupbKAJQgCJkyYgNDQUKVSIjpFdXU19Hq9akImWZaRnJyMQYMGKZX6PYfdDpvVqlRGRERERCrGALAbBgwciIf//nc88uijyFBx2CUIAgwGA4wmk1Jph+TkZAwZOlSpLGCJooiSo0dxOD9fqVR1Dhw4gOPHj6tql08PWZYRHR2N0aNHK5US0Wlqa2pgt9uVygKGJElIT09HSgBv/uFhdzg4ApCIiIgoyKnvCd7LQkNDceNNN+H555/HmDFjVBsC2u12NDU1KZV1EEUR48aPV+0uqoIgwGQyYd3atar9nZ+J0+nE+nXrYLFYlEoDkiRJyMjIwODBg5VKieg0jY2NcDgcqgqZ+qSlITY2VqnM79msVljMZqUyIiIiIlIxBoA9ZMrUqfj3k09i+PDhqgyEJElCQ329UtmPjBo5EtExMapdBxAAduzciYqKCqUy1SgtLcXOHTtU9YB/umE5OUji+n9EndbU1ASn06lUFjBEUURKSooqRjvX1dfDZDKpuu0mIvIptq9EFAACv1frR0aNGoUH/vQnJCQmqi70kmW5U5uAAEBGZiYGDhyoykAUaH84LC8rw9YtW5RKVWPD+vWoq6tT7UOkVqvFlClTAn7BfyJvc7tcaGpqUtW9TxAExMXFKZUFhNLjx+F2u5XKiIiIiEjFGAD2sFmzZ+PaBQtUF5BIkgRTJ9YABICEhASMGTNGFaMnzsblcuH7779Ha2urUmnAa2howJofflDtQ6QkSejTpw/Gjh2rVEpEp7HabGhualLdvU8N7Z0syzh27JgqfhYiIiIi6jr1JjM+otFocPPNNyMrO1tVI99kWe50AAgAF1xwAcLDw5XKApYoisg/dAg7tm9XKg1427ZuRWFhoWoDXVmWMXLkSGQPGKBUSkSncTqdMKpsiqksy6rY1MRisaCqqkqpjIiIiOi8+arPJ8uyqnIWb1Pnk7yPZWVlYdq0aYCKpkLJsgyj0ahU9hM5w4cjU+U7JJtMJiz56qsufT6BwmAwYOnSpbDbbEqlAUur1WL6jBkICQlRKiWi00huN1wqWv8PaL/v2VTQ5pWWlqK8rEy1L2+IiIjI+3wZAHJWQ9exN9gLRFHE5MmTER4RoZr1kLr6IJSamoqx48ap5nM4E1EUsWvXLmzcuFGpNGBt2LAB+3NzIap0bTxZlpGSkoIJEycqlRLRGUiSBKfLpVQWUGRZhtVqVSrze2t++AH19fU+66gTEakdW1cKRqKP+hUcAdg9DAB7ydChQxEVFaVUFlC0XQh/NBoNLrzwQlVPAxYEAWazGZ99+ikaGhqUygNOQ309Fn32WZcC4EAhSRLGjx+PAZz+S9QlkiyrcgSgoaUloN8yV1VVYe2aNap+CUdERETeJ4qiT14uSpIEl8peOnsTA8BeEhcfj5iYGNV0ugVBgK6LUyMnTJyIrKwsVSf1Go0GeQcO4MsvvlDVzynLMpYsWYKDBw+qevpYWFgYLp07F6GhoUqlRHQGauyMCYIAvV4f0Ms7bNq4EcePH1d1+01ERETe56uZYS63W9UDU3obe4S9RKfTIS4+XqksYAiCgLCwMKWyM0pLS8OMiy7yyRsCb3I6nVi8aBH25+YqlQaMvLw8LFq4UHUP9qeSJAkDBw3CpMmTlUqJ6CxkSQrokXJnIggCGhsbodfrlUr9UmNjI7799ltVt99ERH5BEDgNmIKOTqfz+vO9IAhwOZ2wWCxKpXQWDAB7iUajQXhYmGo2AhEEAbExMUplZyQIAmbNmoXY2FjVjIg8E1EUUVNTgzfffBMtAfrAeKrW1la89eabqK6uVvXoEUEQMGPGDKSlpSmVEtHZCAIElbUToiiivr4+IHfQlWUZS5csQd6BA6puv4mI/IaXgxAiXwsJCfF6AAgALpcLVgaAXdYjvUKDwQCHw6FUFlQkSYLd4VDNzUAURcTGxSmVndXIUaMwevRoVU2PPRNRFLFt61Z8tnBhQI+GkSQJX37xBTZt3OiTht1bZFlGQmIifnbppUqlRHQOoihCq9UqlQUcm82GQwcPKpX5nUOHDmHhZ5/BqbJ1GYmIiMg/+CoAdDgcMJlMSmV0Ft0OAF0uF954/XU8+sgjyMvLC+jQoyc5HA5VjALzEEURiYmJSmVnFRMTg8uvuAJhYWGqHgUItE8F/uSjj7B50yalUr+1ZfNmvPfee3A4HD5p2L1FlmVMmzYNI0aMUColonPQiCJCurhOrD+TJAnbt21DW1ubUqnfMJvNeO/dd1FVVcXRf0RERNQrwsPDvf6cKAgC7HY7WlpalErpLLrdM9Tr9di1cyc+X7wYv7/rLjz5xBMoOHJE9SO9lNTX16OlpcXrF0Vv0Wg03Z4iOWvWLAweMkT1AaAgCGhqasKzzz6LAwcOKJX7nSNHjuA/zz2Hhvp6VT88yrKMqKgozJ8/v8vrWxJRO51Oh8jISKWygCOKIoqKipB/6JBSqV+QJAlffP451q9bp5r+BxEREfmfiMhIn/Q1nE4nA8Bu6PbTfU1NDSorK6HRaFBbW4uPPvgAd/7ud/jPc8+hsLAwaEcEHjp0CEaj0ScXRU+TZRmRkZFISEhQKj2n1D59cPnll6s6VPIQRRFHi4vxxL/+haNHjyqV+42ysjI88e9/o6CgQPW/J0mSMH78eEyeMkWplIgU6EJCEBUVpboXPIIgwGAw4JtvvgmI6bQrVqzAG6+/DpvNpor+BxEREfmnqMhInz0vNjU2Bv2As67q9m/scH4+zGYzBEGAKIoQRBFVVVV4+6238Lvf/Ab/eOwx7Nm9GzarVelLqYbNasWO7dtht9uVSgOCLMtITk5GTGysUqmiuZddhqzs7KC4YEVRxP79+/HPxx9H6fHjSuU+V1NTgyf//W/s3rXLZ425t8iyjLCwMPx8/nzEdHFzGyL6f6GhoYiPj1ddAAi0h4AbNmzAvr17lUp9atu2bXj+uefQ3NzM8I+IiIh6VWRUlM+eGauqq2G32ZTK6Ay69RuTZRkHDx78yQYgoihCEARUVVVh4Wef4e677sKfHngAP6xeDYPBcOYvpiJ5eXmqClFkWUZaenq3RwACQHZ2Nq644gqIQfJwIooidmzfjr8//DAKCgqUyn3m+LFjeOyRR7Bhw4ageHCUJAljxo7FrNmzlUqJ6DxotdoeuUf4I0EQ0NzUhA/ef99v1wLcn5uLf//rX6isrFRN34OIiIj8V2xsrE/6HIIgoKKiAtYgGmDWk7r1G2tqasKxY8fO+t9FUYQoimhpacH333+PPz3wAP7397/Hhx9+iGMlJQExnaazWlpa8P5776nqDbwgCMjMzER4eLhSqSJBEDB//nz0z8oKilGAQPt1sGvXLjz05z9j86ZNfjdCZu+ePXjwwQexYcMGpVJVkGUZERERuPGmm5CUlKRUTkTnKTU1VZUbgQDt966tW7di8aJFfnXvkmUZ69etw9/++leUHD3qk464r2g0GtX0s4go8LE1omATGxsLjUajVNbjBEGAvrkZjU1NSqV0Bt3qKdbU1KC8rEyxw+mZHmy1WrFj2zY89cQTuOP22/Hw3/6GVd9/j4aGhnMeHygkScLCzz7Dli1bFD+TQKLT6TBs2DClsvM2cNAgzLv88qDquIuiiCNHjuAvDz2Ejz76CBaLRemQXudyubB8+XI8+Oc/48D+/UHz+5AkCZOnTMGcOXOUSomoE/r166fand49u8699957WL1qlVK5V9isVnz0wQd4+G9/w9GjR4OmDfdgAEhEfoXtEQWZ8LAwRERE+KTfZzQacaykRKmMzkCrVHAuhQUFnd7oQtRoIEkSqqur8dWXX+L7lSsxcOBAzJgxA1MvuAA5w4cjPj7eJ2lyd7icTixevBgfvP8+nE5npz4Tf+bZKXX4iBFKpedNEARcfc01WLVqFU6UlqoqLD0XURRRX1+P5597DoUFBfjtb3+LwUOGKB3WK+rr6/HZp5/is08/hcFgCJrfgSzLiImJwU0334zYHljTkoj+n2ekuNlsVioNSKIooqmxEU8+8QRkWcY8H25qVVlZiffefRdLvvoKVqvVZ9+Hz8gyA0AiIiIfCgsPR2xsLOrr6716PxYEARaLBUVFRbjiyiuVyuk03QoATeqYggAAT9pJREFUDx48CJfL1aWOpyAI0Gg0sFqtyM/PR35+Pj5buBD9+/XDxEmTMGnSJIweMwbJycl+P6XIYDDgow8/xAcffABTJwNRfyfLMvr374/09HSl0k4ZPHgwrrvuOrz4wgs+eWvgK56RsEu++goHDx7ETTffjLmXXor0vn2VDu0RZrMZGzZswCcffYS8vDy43e4uXb+BSpZlzLnkEsycOVOplIg6KTEpCWnp6WhsbFTVffBUoiiipqYG/3z8cdTX1+Omm25CRGSk0mE9xmg0YvWqVfjk449RWFgISZJU+1mfiwwE5c9NRETkL8LDw322AZwsyygsLITZbEakF/thatDlAFCv1+Po0aPd/oULgtDRiTO2tSE/Px+HDh3CF59/jrT0dOTk5GDMmDEYlpODwYMGISExETqdTuGreofZbMbOHTuwaNEibN+2TVUj/041ctSoXlkr7eprrsEPq1fj0KFDQRVCec6Ro8XFePrJJ7Hkyy9x7YIFuOLKK9GnTx+Fo7tGr9cjd98+LF++HFs2b4bRaAy60ROSJCEjIwN33HFHj6xnSUQ/Fh0djSGDB+NgXp5SaUATRRGNjY14/j//weH8fPz2d79DzvDhSod1i9PpxP7cXHz4wQfYsmVLx6i/YGrDiYiIyH9EREQgPj4e6GYe1BWiKKKosBC1NTUYNHiwUjmdossBYFVlJSrKy3s0uDk1DLRarTh+7BiOlZRg5YoViImJQZ8+fTBk6FCMGzcOAwcNQnp6Ovr06YOIiIge/T6UNDU1YefOnfhm+XLs2b0bbW1tqg1TwsLCMGnSpF752dLT03HLrbeiuLhYlRvCKBFFEW63GwUFBSgpKcHyZcswa/ZsTLvwQgwdOhRxcXHdOq9NJhNKjh7F9u3bsXHDBhQXF8NkMkEUxYCbYt8TtFotbrr5ZowaPVqplIi6ICQkBENzcoKifRFFETabDcuWLcOBAwew4LrrcNVVVyEjM7NH75fNzc3Yt28f1vzwA7Zu2dIxurI79wY1EAQBsh9txkJERBRswsLCkJiUBO/Hf+39gMbGRuzbt48BYCd1OQA8WlKClpaWHu3onurUMBAA2tra0NraiqKiIqz47jtERkYiMTERScnJyMrKwpAhQ5A9YACSk5IQn5CAhIQEREZGdruTLMsyzGYzGhoaUF5Whry8PGzZsgXFRUWwWCyqDlMkSUJqairGjB2rVNpl8y6/HOvWrcO6tWu7/bsKVJ4g8PDhwzh8+DA++/RT9O/fH8NycpCTk4MBAwYgLT0diYmJCA8Ph06n+9G1IUkS7HY7TCYTDAYDaqqrsW/fPuzbtw+lpaVobmqCJEmqPleVuN1uTJw0CTfceGOvtVlEBIwePRpxcXG92j/wF55+SllZGV5+6SV8+803uPDCCzF9xgwMHjIEaWlpnZ6xIEkSmhobUV5Rgd27d2PDunUoLi6G2WyGKIpBe588E5fb3e1ZKERERNR16X37QqfT+eR+bLfbsWPHDlxz7bUIDQ1VKqeTuhwA5h044NX1w04PBM1mM0wmE8rKypC7bx8EQYBWq0VMTAzi4+MRFx+P5ORk9O3bFxkZGUhMSkJMdDTCIyIQGhKC0NBQhIaGQhBFuJxOOE/+cTidsNvtaKivR3lZGcrKy1FdXY2mxkbU1tbCZrMBsgwhCMIUWZYxZerUHl//71QxMTG48667cOTwYdTV1an+gfFcPNdSa2sr8vLycPDgQQiCgLCwMKSkpCAhIQFhYWHQhYTg1E/JEwBaLBYYDAY0NzfDarVCluWOKWJqP1fPRZZlJCYm4u6770ZycrJSORF1w6BBg5CRmQm9Xh807bkoipBlGSUlJSgpKcEXX3yBvn37Iis7G4MHD8bAgQORnp6OqOhohIWFdaxr7HA4YLfb4XA4YDGbcfToURzMy8Px48dRXV2N1tbWoH95cy4SA0AiIiKfyszIQEhICOx2u1JpjxNFEXt278bR4mLO8OqELgWAnpF4vux4nR4IAu2jfPR6PZqbmzu+N88bc0+9VqdDWGgowsPDERYWBlEU4XA64XQ4OjrjTqcTbrcbbrcb0skpJp4pN94KPH1NlmVERkZi1qxZnR7B0FkTJkzArb/4BV5+6aWOzzuYnR7Y2e12lJeXo6ys7KzXnOdaCLbz9HyIooibb7kFMy66SKmUiLopNjYWEydMUP06gGfiaXftdjuOHTuGkpISrF+3DqIoQqvVIio6ur3vcfIttc1uh91mg81mg91uh8vlgtvt7vhawf7yRombASAREZFP9evXDyGhobDZbF5/8SsIAhoaGrDq++8ZAHZClwLAiooKVFVW+mXIcKZgUJbljk6i2+2GzWqFwWD4Ucfx1ADl1H8XrJ1vWZYxZOhQTJw0Sam02wRBwI033YTdu3dj65Ytfnle+Ro/k66RJAkXXHABfnnbbUF7LRN5k0ajwcRJk/D555/DarV6vTPoL05ts2VZhtPphL65ueP/A2fud7CdOn8MAImIiHwrOSUFSYmJaDUYfNLnk2UZP6xZg2sXLOBagOepS6lCSUkJmpqafPJL7gmekNAzUurUEYLUTqvVYt68eV6bMpmUlIR7770XfTMyOAqQeoQkSUhLS8O9f/gDUlJSlMqJqIeMGTsWGZmZDGdOc3rfg/2O7mEASERE5FvR0dHo16+fz+7Hoiii7MQJfP755x2zKOjcOh0AyrKMQwcP8gNWMUmSkJWVhUvnzlUq7VETJ03Cb3/7W4SHh/usESF1kGUZ4eHh+O3vfoepU6cqlRNRD0pNTcX06dOVyoi6hQEgERGRb0VHRyMrO1uprFfJsozvvv0Wu3btUioldCEANJlMOHLkCDtdKiaKIq648kr0799fqbRHCYKA6667DpdfcYVSKdE5CYKA+fPnc9dfIh/QaDSYNXs2YmNj2VegXuOWJJ5fREREPjZ06FCEhYUplfUaz1qA/33pJVRXVSmVB71OB4AVFRWorqriQ7VKSdL/tXff8W1Vd//AP1dbsmRL3nsljuOVvUgChJDFSNi0jEDZexNKeVpKF7TM0vZ5up7u8SvtA4U2FAKhhRIKIZBlO9t2POMp27L2uOf3hyxjIOQmwZYl+fN+vQyJfY5i6w7f+7nfc46MkpISrDvvvAnZxklmM26/4w7MnjOHQ4HppMiyjDlz5+K2O+5AUlKSUnMiGgezZ8/GzFmzeB6ncRMKhSC4fxFRjIj+XRNRbKioqECS2TyhD+VUKhU+/PBDPPvssxgYGFBqPqmdcAB4aHj+Py5KkJjUajUuvOgilJaWKjUdN8XFxdiwYQPyOR8gnSBZllFcUoINGzagoKBAqTkRjROz2Yxzzz0X+uEVb4nGWsDvhzyBNxtEREQE5OXnIz8/f0IDQCA8FPivL7yAp598EoODg0rNJ60TSvFkWUZtbS38fr9SU4pDoVAI1dXVuODCC5WajrtFp5yCu+6+GxaLZcJPJhQfZFlGeno6NmzYgAULFyo1J6Jxduppp2H69OmcM5jGnCRJ8Hi93LeIiIgmmNVqxYwZMyb8nl2SJIRCIfzpT3/Cd779bXR0dCh1mZROKAB0u92o3b1bqRnFISEETCYT1l91FXJycpSaR8V555+Pa669FlqtdsJPKBTbhBAwm8246557cNbZZys1J6IoyM7OxgUXXgitVqvUlOiEeTwehIJBpWZERNExAVMnEcUCtVqNWbNmwWAwTPg9uyRJCAaDeP7//g8PbNiADz74gCMKP+GEAsC21la0cf6/hCSEwIqVK7HmrLOUmkaNVqvFDTfeiIsvuYRDzukzCSGg0+tx40034Qtc9IMoppx19tmorqnhxReNOa/HwwpAIiKiGDBr9mxkZmZOeAAIYORe8J0tW3Dn7bfj8e99DwcOHIjqNUN/fz/sfX1KzSaERqnBaPv37+f8fwkosvDHzTffHHOLJpjNZtxz772w2+149ZVXuO/RxwghoNPpcN111+H6G25gpRFRjMnKysJll1+OvXv2IBAIKDUnOi6SJMHj8SAYxYt5IiIiOrr8/HzMmj0bLS0tSk2jRqVSobOzEz//2c/wyiuvYPHixVi5ciUqq6qQlZU1JkUjgUAADocDDocDPT092L9vH/bu3YsD+/dj6amn4u577lF6iag77gBQlmXs2bMHPp8ParVaqTnFCSEEkpKScPMtt6Cyqkqp+YRIT0/HVx56CC6nE1u2bBmTg5XinxACGo0GV1x5JW697TYYjUalLkQ0AVatWoWXN27Ev996iw9xaMwEg0H4fT6lZkRERDTO9Ho9li5dik2vvopgDE3PEckNWpqb0dLcjL/97W8oKSnBzJkzMXPmTBQWFiIjIwNGkwlqtRoatRqq4awrGAwiEAggGAjAHwhgaGgI/XZ7uLqvvx9dnZ3oPHIEXd3d6Orqgt1uh8/rRTAQQCAYRHFJCUKhUMxlZ8cdALrdbtTW1io1ozijUqnwxcsuw3nnn6/UdEIVFhbiG9/6Fh55+GG8/fbbDAEnuUj4d8mll+LOu+6KucpVIvqI1WrFNddcg9rduzEwMMDzN42JkCzD7fEoNSMiIqIoWLRoEQoKCtDQ0BBzD3wj34/X40F9XR3q6+rwf3/5C3Q6HYwmE6wpKdAbDNDrdNDqdIAQ8Hi98LjdcA9/BAIBhEKhkY9gMAhZliFJElQq1cj1rUqthgbhuYoDgUD8BoBHjhxBS3MzL9wTiCzLOGP5ctx0883Q6/VKzSdcSUkJvvGtb+EbX/863nrrLe6Lk5QQAlqtFpdddhnuvvdepKSkKHUhogm2ZMkSnLt2LX7/u98pNSU6LnIoBI/brdSMiCgqeFdCk11efj6WnnoqGhoalJpOqEgYGKnwc7lc6OnuHvm6ECJ8PA9nDaMzh9F/VqlUxww6I6GhwWD4zDYT4bij2X379sFutzN0SRCyLKOmpgZffvBBZGRkKDWPGcXFxXjkm9/EipUrIUlSTEw0StETmfPvqquvxr333w+r1arUhYhigFanw5euuQaVVVVcEITGhCzL8LACkIiIKCao1WqsXr0aqampcXOPLknSSAVf5EM9PAw48vdImxPJwSRJgmc4AIw1xxUACiGwd88euN3uE/rBKTbJsozCwkJ8+cEHUV5ertQ85hQVFeGb3/oW1p13HjQaTdycYOjzEULAZDLhhhtvxN333IPk5GSlLkQUQ0pLS3HLLbcgJSWF5+0JIoRImPc+FArBzQpAIiKimDFr9mwsXLSID3sRrgAMxmsA6HK5UMf5/xKCLMvIycnBVx56CEuWLlVqHrOys7PxtYcfxpXr10Ov1yfMDQ0dnSzLSEtLw/0bNuD2O+7gnH9EcWrV6tW4cv16PryZALIsIzs7G1euX48pU6bE9cW5JEkIBoNwOBxKTYmIooNFMkQwGo248KKLkJycPOmv89weDwIxtCBKxHEFgD3d3WhsbGT1X5yLXPx/5aGHsOass5SaxzybzYb7N2zAXXffDavVGtc3M/TZQqFQeP7Hb34TV119dVzMV0lER6fVanH9DTdg9erVSk1pDMmyDKvVig0PPIBvfPObWLJ0adz/zgwGgxgYGFBqRkRERFG0ZMkSnHbaaXF/nfF5SJI0MgdgrDmuAHDv3r3o7+9nABjHQqEQioqK8PVvfANr161Tah43IkNCv/Gtb6G4uHhSn2gSTeSp0eLFi/HkU0/h7HPOibkVpYjoxFmtVtx3//2YM2cOQqGQUnP6nCLTJ9xx551Yd955kCQJhYWF0Gq1Sl1jWjAYxODgoFIzIiIiiiKj0Ygr169Henr6pK4C9A6vAhxrjutuur6+nvP/xbFQKISKigp859FHsWbNGqXmcUetVmPt2rV48qmnsGDhwoSa42iykmUZSUlJuPpLX8LT3/8+5sydq9SFiOJIcUkJHvrqVzG1rIwh4DgSQsBoNOLW227DlevXQ61WAwi//yaTKa5/Vwoh4GAASEREFHPmz5+Piy6+eFLnR8FgMCbnKlYMAJ1DQ9izZ09cXyROVpEgbNGiRXjiySfjes6/4zF33jw8/cwz+OJll8FoNLIaMA4JISDLMkpLS/HIN76BB7/yFWRnZyt1I6I4NGfOHHzta19DUVERz9fjIBL+3XzLLbj+hhug0+lGvlZYWBj3c6lKkoTBwUH4fD6lpkRERBRFao0G66+6CjNmzJiU13iSJEGWZTidTqWmUacYAPb29eHggQMcehdnhBDQaDQ459xz8fgTT6C6pkapS0LIy8vD1x5+GA8+9BDy8vIgyzLD6zghyzL0ej3WrluHH/zoR7jo4os/dsNKRInn9GXL8F9f/Spyc3Mn5QXieBHDVdS33nYbbrjxxk/NnZqamors7Oy4//3ocDjg9/uVmhEREVGU5efn466770ZmVtakvMaL2wBw37596O/vV2pGMSQy2fdtt9+Ob3372ygsKlLqklCMRiOuvPJKPP3MMzhj+XJodbpJedKJF5Gqv+LiYjz4la/g0cceQ1VVlVI3IkoQq1avxlcffpgh4BiRZRmpaWnY8MADuOHGG2EwGD7VxmQyobikJK4DQEmS4HA4WAFIREQUo05ftgy33XYbkpKS4vqa42TIsgxXDAaAGqUG9XV18Hg8k3r8drwQQkCSJNTU1ODW227DipUrodEobuKEJEkSFixciLJp0/DC88/jt7/5DVpaWiBJEvflGCLLMsxmM1asXInrrrtu0lSqEtHHnXXWWVBJEh577DE0Hz7MUQcnSZZlFBQW4t777sO6des+833U6/UoLi4+6tfiCSsAiShW8O6C6NMkScIXvvhF2O12/PQnP4HP55s09+KxWgF4zHTI6XSivq4OsiyPTBxNsUmWZaSkpGDdeefh2uuuS4gL+7Fgs9lw7XXXYcGCBfjlL36BzZs3w+l08uZygkXC6pkzZ+Ka667DypUrYTKZlLoRUQJbvWYNUlJS8J1vfxv19fWT5gJxLESeqs+dOxf3P/AAFi1apNAjPA+gwWCA3++Py/d6pALQ61VqSkQ0/uLwPEoUDXq9HtffcAPsdjv+3x//iFAoFJfXHSdKlmW4XC6lZlF3zAAwEAhAp9NBq9UiGAwyNIlBsixDq9ViwcKFuOaaa3D6smWfmutnspMkCTUzZuDRxx7DilWr8Nvf/AY7tm9HIBDgPh1lkYVpcnJzceGFF+KLl12G/Px8pW5ENEksOuUUPP7EE/juY4/hnXfegSzLk+Ii8fOQZRkGgwGrV6/GXffcg5KSEqUuAIDCoiKYLRbY+/qUmsYsr9eL/v5+HN9PTERERBPBbDbjrrvvhsPhwMa//31SDAeOywpAq9WKb3zzmzhlyRL89fnnsXfvXvh8PqhUKl6QT7DITdHUsjJcdtllWHfeeUhPT1fqNqkZTSacc845WLBgAV568UX8+bnn0NDQAFmWGQSOs8g8f1arFStXrcKV69ejpqaG7zsRfUpFZSW++/jjePb738dLL74Ir9fLc8VRRB6oFBUV4drrrsMFF14Ii8Wi1G1Efl4eUpKT0dfbG5fXdJIkIRAIoKu7W6kpERERTbC0tDR85aGHIITAyxs3JvxD3rgMACVJQlZ2Nq6++mqsXr0aW95+Gxs3bsT2Dz+Ew+FgEDgBIhOk5+bmYt155+GSSy9FaWmpQi8aLSMjA9ffcAPOXLECf33hBfztpZfQ0tICIQRvMsdYJPhLTk7GwkWLcPnll2PxkiWsUiWiY8rJycHXHn4Y1dXV+OUvfoGmpibO4TpKpOrvzBUrcNPNN6PmJOZPNVssyC8oQENDg1LTmBUMBtHd1aXUjIiIiGJAVlYWHv7612E2m/H8//3fSHFZIhJCwOPxKDWLuuNeISI7OxsXX3IJ1px1Fj744AP89YUX8J933kFvb+9IcMIL8/ETSchzc3Nx5pln4pJLL0VVdXXCHjDRUFJSgnvuvRfnnHsuXnj+ebzyyitoa21lEDgGZFmGEAI2mw2LFy/GRRdfjIWLFiEpKUmpKxERACApKQlXrl+P2bNn42c/+xlef+01eDyeSX1+jlwLlE2bhmuvvRZr16076fOqwWBAaWkp3nrzTaWmMSsQCKCrs1OpGREREcWItLQ0PPRf/4WCggL8/Gc/g91uT9hrO7fbjUAgAK1Wq9Q0ao47AIwwm81YtmwZFi9ejN27duG1117Df/7zHxxuaoLT6Rx5Qs8w8POLVE9pNBqUlJRg5apVWLt2LSoqK7koyxiRJAnl5eX48oMP4sILL8Tf//53vPrKK2hqakIoFGKwfQIi+6tao0FBYSEWL16MtWvXYs7cuTAajUrdiYiOqqq6Go8+9hiWLl2KX/3qV9i/b9+km7ohMtw3KysLZ519Nq644gpMLStT6nZMarUaJSUlcf0+yrKMnuEH0fxdTUREFB+SkpJw4003obi4GN9/5hns378/4TIkSZLg8XjiPwCM0Ol0mDd/PubOm4eenh7s2rULW95+G+9v3YqWlha4XC6GgSchcpEvhIDFYkFFRQXWnHUWli1bhuI4v1CPZSqVCuXTp2NaeTkuuugivLZpEzZt2oQDBw6MBNt8748uUu1nSU5GRUUFVq9ejdNOOw0lpaXQaE76FENENCIpKQmXXHopFixciL/8+c948a9/RXt7e8JfY0Sm/UhLT8fy5cvxhS98ATNnzRqzc2t+fj7MZvPI77l4I0kS7HY73G73SVdCEhERUfSpVCqsOesslJSU4Cc/+Qle27QJbrc7oe65PR4P/H4/TCaTUtOo+dxXkJIkITMzEytXrsTy5cvDYeDOnXj33Xfx/tataG1txdDQEMPAYxgd+hmNRuTn5+OUxYtx+umnY87cubDZbEovQWNEkiSUlJbipltuwcWXXopt27Zh8+uvY+t776Grqwt+vz8cBkoSMEn35ciqTZEVqPMLCrB48WKsWLECc+fNg9VqPfYLEBGdpKKiItx7331YtXo1nvvTn/Dapk3o7e0FgIS5YIxcD0Sm/Vh2xhlYu24d5syZA51Op9T9hOQXFCA5OXnkOi3eSJIEe18f3C4XA0AiIqI4VD59Or7z6KM49dRT8fvf/Q51tbUIBINxf103UgHo9ys1jarPHQCOplarkZ2djew1a7Bi5Ur09fVh186deP/997Fzxw4cPnwYg4ODIyHKZA4EI8MlJUmC2WxGXn4+5syZg4ULF2Le/PnIzsqCeoye8NPJSUtLw5o1a7B8+XI0NTVh27Zt2Pree9i5cye6u7vh83onzX48OqQ2GAxIS0vD9IoKLFmyBKedfjqKi4vHrCIl0UUWvY8EqfFOCAFEPhKcwEfHQqKIx59FpVJhxowZmD59OtauXYsXX3wRW95+G52dnQiFQnF7ThayDFkIJJnNKC0txbJly7B6zRqUl5eP29CR7KwspKaloa2tLWb3hWN9X0II9Pb2wuVyIeMzW42hUb8LE0li/TRjK3Lej7aR360xLtrvjRAi5vfXiXhP4mFfiSejz/PR3J4CmLTb0mQy4cKLLsLixYvx8ssv428vvYR9+/aNLBISb9d1kazH5XTCHwgoNY+qcbtjV6vV4crAVatw5ooVcDgcaG1pwa5du1BfX4+DBw6gpaUFQ0ND8Hq9I0+74/XCXYkQYuTiXqfTITklBWVlZZg9ezbmzZ+P6upqpKWlMUSJQTqdDuXl5SgvL8fFF1+Mjo4OfLBtG95//33s2L4dR44cGVnhJ5H238iJS61WI8lsRkF+PmbOmoU5c+Zg9pw5yMnJYcXFCZIkCUajEWazOWHm8RTDgYUqQX6eY0m2WJCWlpYw2w4Ih2kGg0GpWUzS6XRYdMopmDt3LhoaGvDG5s3Y/MYbOLB/P1wuV1xcMEbOs3q9Hjk5OR+r/s/IyBj3799gNKK8vBxNjY3hJ+2ShE/+i5/6Hj7Z5ih9jvq54c+rh7fLJz8Q+TNw1K8frQ0kCRaLJWo3aEajERaLJaHOAWL4upSOTqfTwWw2j+xv0SKHQjDE6PzJEgCjwTAh1zKR82WskSQJBr1+Qt6TYDAYs/tKvNJqtTCbzQgEAuP+e3g0WZZhSkoKjzSbpLJzcnDd9dfjnHPPxT/feAP/ePll7Nq1a2SkQixXBUau6TQaDVJSUjBlyhScsXw5ki0Wpa5RJYloXTWNEgwG4XA40NvTg7379mH/vn1oaGhAY0PDyDBLv9//sSf58RSsRJ4aCCGgVquh1+uRnJyMwqIilJaWory8HHPmzEFRcTGHS8Yxv9+Prq4u7N61C++99x7q6+pw+PBhuFwu+H0+CCAubkCBo++zVqsV5eXlmDlrFubNm4eysjKkpaczpP4cQqEQDh48iIH+/rjYL46HQPhCqby8HGazWal5XOvq6oLH4zl6sBGvJAk2mw3JyclKLeNCb08Ptm3bhn/+85/Y9v776OzshNfrBRAb5+PIxaFKpYJer0dmZiZqZszAqaedhoULFyI/Pz+q51ghBJoPH0ZXVxekzwjmTvZDrVaH3+/Rl5mjruWk4b8f88/H+Fzkz5IkIdVmg2acqiQjQqEQDh06hH67fcL3o7EkABQWFiI3N1ep6aTU0tKCtra2qG9zIQRMJhMqKytjLqCVZRmHDh6EfQKOBSEEsrOzUVxSotQ0qoQQaGpqQndX14S8J6lpaZg2bZpSUzpOvT09aGxsjNrDpQgBwGAwYPr06XH7cHasDQ4O4v3338c/N2/G1q1b0dHRAZ/PB2Dip36JzIMfuaaz2WyorKrC3LlzsWDhQpSWlMBqs0X9nKBkQgLAo/G43bD396OrsxNNTU1obGxES3Mzurq70dfbC7vdDo/Hg1AohFAoNDIxNvDxJ8XjbXQ5cORDpVJBrVaPfCSnpCA3JwcFhYWYOnUqysvLUVJairS0NFit1gnfWWnsybIMu92OIx0d2LNnD2p370ZjYyPa29vR29s7EmhPdKg9er8FwpW6Go0GZrMZubm5KCouxrRp01BZWYmS0lJkZmbCEmNPLYiIlAQCAbS1tWH79u34YNs2NBw6NDINSSAQGJmCY7zOw0c712q1WqSlp6OkpAQVFRWYO28eKqZPR1Z2Ni/0iYiIiD5DMBhEe3s7du/ahfe3bkVtbS2amprgcrkQCoUgZPljDzLHUuR6LnLtqNVqYTAYkJObi5KSEpSVlaGyshJl06YhNzc35kfIxUwAeDSRSsGhoSEMDQ2hu7sb7e3t6GhvR0dHB+x9feGvO51wDg3B6XQiGAx+7MJ7dGAXcbTPjTxlHvX/o33o9XqYTCYkp6TAZrXCarMhKzMTObm5yM3NRXZODmw2G2w2G1JTU6NeBk6xY3BgAHa7HT3DT5EaGxvR1taG3t5e9PX1wd7XB5fLBVmWR54gRILtT+6PEZ/8+8cOX/HRvChCfDSkPlL1olKpYDabkZ6ejrT0dGRlZWHq1KmYOnUqCgoLkZaWhrS0tHGba4qIaCIIIdDf34+uri4cOngQtbW1OHjwII50dKCrqwtOp/Nj5+HI+XO0yN8/ef3wyWuGyAPBlJQUpKWlITUtDRkZGSgtLUVVVRWKi4uRkZmZMBWXRERERNEkhEBvTw+amppQW1uLhoYGdLS3o6enBz09PRh0OCAPF4x9Mg86WvQ1OjQc/f/RlX02mw1Wmw15ubmoqKxERUUFcnJzkZGeDn2cPcSN6QBQicvlgsvphMvthsvlgsftxpDTiaHh0NDpdI4svRz58Pl88Pv9CPj98A1XZem0Wuh0Omh1Ouh1OhhNJpjNZiSZzTBHPpKSYDKZoDcYYDAYYDGbYUlOTri5YGh8ybIMh8OBgYEBDAwMoK+3F93d3ejq6kJXZye6e3rC+6zPB5/fD7/PB38ggFAwOFJBGAqFIISARqMZqeDTaLXQ63TQ6/XQ6/UwGI1ITk5GamrqyEdWdjayMjNhHT6JjcxpQ0Q0yXg9nvDDGLsdHe3taG1txZEjR3CkowMulwuBYBCBQADBQACBQACBYBBieO4pg9EIg14PvcEQPufqdOHFkdLTUVBQgLy8PKSmpiLFaoXVak34ofFEREREE8nr8cDe34/+/n7Y7Xb09vSgt7cXDocDbrcbbrcbHo8HbpfrY4tyaLVaGI1GGA2GkZzHYDAgJSUFObm5yMzIQHJKClKSk5GckgJjAsy3GdcB4Mk4WiUg8Ok5ZYgmgizLI0F15MPv9yMUDCIYCQCDQQggHPyNDgD1ehiGb0gNBkNMzHdFRBRPZFlGKBRCwO8PB3/D4V8gEAgHgMMXhkajEVqtltcORERERHHgWBWAo/+f6CZdAEhERERERERERDSZcDUKIiIiIiIiIiKiBMYAkIiIiIiIiIiIKIExACQiIiIiIiIiIkpgDACJiIiIiIiIiIgSGANAIiIiIiIiIiKiBMYAkIiIiIiIiIiIKIExACQiIiIiIiIiIkpgDACJiIiIiIiIiIgSGANAIiIiIiIiIiKiBMYAkIiIiIiIiIiIKIExACQiIiIiIiIiIkpgDACJiIiIiIiIiIgSGANAIiIiIiIiIiKiBMYAkIiIiIiIiIiIKIExACQiIiIiIiIiIkpgDACJiIiIiIiIiIgSGANAIiIiIiIiIiKiBMYAkIiIiIiIiIiIKIExACQiIiIiIiIiIkpgDACJiIiIiIiIiIgSGANAIiIiIiIiIiKiBMYAkIiIiIiIiIiIKIExACQiIiIiIiIiIkpgDACJiIiIiIiIiIgSGANAIiIiIiIiIiKiBMYAkIiIiIiIiIiIKIExACQiIiIiIiIiIkpgDACJiIiIiIiIiIgSGANAIiIiIiIiIiKiBMYAkIiIiIiIiIiIKIExACQiIiIiIiIiIkpgDACJiIiIiIiIiIgSGANAIiIiIiIiIiKiBMYAkIiIiIiIiIiIKIExACQiIiIiIiIiIkpgDACJiIiIiIiIiIgSmEapARERERERERER0UQI+XwIOIcQdLsRcrsQ9Hgg5BA0SWYYM7Ogt9oASVJ6mUmPASARERERERERTWpCliH7/ZD9foQCfkiSCpJGDZVaA7XBAEmtVnoJGgtCwNvXC3fnETibmzB4cD+czYfhGxxA0DmEgNOJoNsFORiCLjkZptw8WIqKkVJeAeu0ClhKSqFLsSr9K5OSJIQQSo2IiIiIiIiIiBJBwDkEn70P7q5OOJsPw9naDJ/djpDHjaDHg5DPC0mSoNLqoNJpobWkwJSTC3NeAcwlJUjKK4AhNY1VZ2PIfaQD/fW16N2+Df176+FsbUHI64EcDAKyPPJeS5L00fsuBIQsAxIgqTXQmExImVqOrEVLkH3aMliKShjcjsIAkIiIiIiIiIgS13BVmaPhIPp27UB/fS2GmhrgH3JADgQgBwIfC5lGB0zDf4CkUkPSaKExGGAuLIK1ogrps+YidcYsGDOzGAaeBNnvh6PhIDrefAOdW96Es7UVIZ8XACCpTm7JCiGHIKk1MGXnIHvpMhSsOQcp06ZDpeEAWAaARERERERECU7I8scrZyhq5GAQciA8tFQOBBDyehGMVJp53Aj5fOEqpmGSJEHSaKHW66ExmqC32aAxJUFtMEBtMBzjX6JPCvm8cBw6iCP//he63t0CV3srgm43RCgUDphO5ngQApEYRWMwIqmgEJkLTkH2ktNgq6yG2mhUeAEK+bzo/XAb2l5/BT3btsLb1xs+R51k6Hc0QghIAAyZWcg59QwUnr0W1umVk7oikAEgERERERFRnIuESp6uTnh6uuEfHEDA4UDQ40bI60XI74dKrYZKr4fGYIAuxQpDegaMmVkwZmZBk5QElVan9M/QMQhZRsjjgdfeC1d7G9xHOuDt6YLPbofP3gdfvx2+fjtCXi+EHIIIyRChUPjPo15HAgBJBUmlgqRWQ63XQ5+WjqTcPCRPnQbrtOlILpsGQ1rGmAYmiSTgcqLng61of/1V9O74AL6+vnAgNA4heCS81VttSJ+7AIVnnYv0OfOhSUpS6Dn5iFAI/Xvq0PTCc+jc8m/4HQOQpJMMYo/XcORlyMhEwVlrUXrRpTBm5Sh0SkwMAImIiIiIiOJMyOOBu+sIhhob4Gg4iMGGg3C2NMM/OBCeN8vvR8jvHx7WCAz/B4AAIEGl1UJtMEJtMMCQlo7kqWWwllcibdYcWEpKodbpP/sfpzAhEHA64WxtxlBTIwYbDmDwwD642loRdDkRdLvDQ0uBj28DScKJxB0CCIcYQkBSqaBJMsOUk4uM+QuRdcpSpNbMhMZoUnqZSSHodqH7/ffQsvFF9G7/AAHn0MlX+p2o4cpArdmC9LnzUXbF1UibMTs6/3Yc8HQeQePzz6H11Y3wdHeNSxh7LELIkFRq2CqrUXbF1checjpUusn10IMBIBERERERURzwDw5g8MA+2Otr0bdzO5zNTfD12xH0uIdbSB+FS8dzYy3Ex8MltRqGjEyk1cxEzmnLkTF/IfSpaUqvMun4B/rRv6cOvTs+RN+u7XC1t8E/OADZ7x9538c13Bg1BFWXnIL0ufNRdO75yJi7YFIPPx3YW48Dv/slut/7DwKuofGvLPssw9vHlJ2DKZdejqJ1F0JrSVbqlbCELKNn23vY/8ufom/3zjEf6nuihCxDa0lGweqzMfXyq5GUl6/UJWEwACQiIiIiIopRIa8X/Xvr0f3eO+j58H04m5vgdzhGvj7WQZOQZUAIqA0GpJSVI+/MVchdvhKm7FylrgnP1daC9jdew5G338RQUwMCTmf4CxLCYdNEGF4FVWuxIGvxaZh62XrYKquAE6oxjG9Bjxutr76MQ3/4NZytLWN+TJwsIctQ63TIXroMFTfeBktJqVKXhBN0OdHwl/+Hxr/8Ed7e3gkN/j5mOAazVdVg+nU3I3PRktj53sYRA0AiIiIiIqIY4+u3j0yS37dzO3wD/QDGPvD7TMNVTJJKBWtFFaatvwbZS5dBpdUq9Uw4ro42tG36B9pe+weGDjeFVxmdqOqyzzK8vZJy8lBy8RdQfP7F0JotSr3inqu9Dft/+VO0bX4VIa839kKc4e1iq6xG1a13I2P+QqUeCcPb24u9P/0hWl7dCDngn7iQ/BiELMOQmobSSy9H6cVfTPhKTQaAREREREREMcLV0Yaud/6Nttc3YWDfHoR8ngkPm4QsQ2dJRsHZa1F2xZdgzMpW6pIQfP39aH11I1o2vghH46EJH7p4PIQsQ6XVIm/FalRcfyuS8guUusSt/rrdqPvR0+jbuT38iQk8RpQIWYYpOwdVt92D/FVnKTWPe87mJtT96Bl0bnkrXG0Xy9tGCKg0GuSesRKVN92e0McMA0AiIiIiIqIJ5upoQ/vrr6J10z/gbG6CHAzGVtg0fBOfPnc+Km++E6nVM5R6xC8h0PPBVhz47S/Ru+MDyIFAbG0LRQIQQNrMOZhx75eRUl6h1CG+CIGOt/6JPT9+FkOHm+Jm2whZhjEjEzPufwi5y85Uah63HIcOYOfj30bfrh1xs20AAEIgbeZsVN95P2xVNUqt4xIDQCIiIiIiogni67ejbdM/0LzxrxhqbIAcCsX0TbOQZZgLi1B9+73IOX25UvO4E/J60bzxrzjwm1+EVyqN4W2hRMgyUqtqMPOBr8I6vVKpedxoe+0V1P3gSXh6uuNu+whZRlJePmZ9+WvIXLhYqXnccbY2Y+d3v4meD96Pu20DhLePpaQU1bffi+wlp8V05eLJUD/yyCOPKDUiIiIiIiKisSP7/ejc8hbqfvg0mv/+Arw9PeEVfGP8hlOSJPgHBtBfX4ukgkKYC4uUusQN/0A/9v3iJzj421/C7xiMywBjNEmS4OnpwuD+fbBV1cCQlq7UJeYd+fe/UPfsE3EbzkqSBL9jEIP798FaXpFQw+k9XUdQ+/T30LX1P3G5bYDw9vH129G380PoklOQPKUsbn+Wo2EASEREREREFEWu1hbs+8WPsf9XP8NQUyMAxHzwN1o4xHBgYG89kkunIik3T6lLzPN0d6H2mcfR8vJLwwsWxM/2OBZJkuDp7oKzpRlps+ZAlxy/ixx0vbsFu5/+HtxH2uM6lJEkCT57H5zNTUitmQm91abUJeb5BwdQ9/0n0fHm5rg/diRJQsDpRN+uHVDr9bCWV0BSq5W6xQUGgERERERERFEgB/zoeHMzdj/zODq3vAXZ54vbICNSCeg4dACpNTPjurrMZ7ej9tkn0P7GpphfsOBkSJIEd0c7fPZepM+ZD43BqNQl5vTt2oFdTzwKZ2tz3B4zo0mSBHdXJzxdR5A+ex40SUlKXWKWHPBj/6//F81/ez5hjh9JkhDyemCv3w2N0QTb9MqE2O8YABIREREREY0zT1cn9v/yp9j/q5/B1d4WrpKJ8xtlSZLg7e2Bq70N6bPnQWu2KHWJOUG3C3t+/AO0vrJRqWl8kwBn82GEvB6kzZoDlVan1CNmDB7cj52PfxuOQwcSIoSJkCQJztYW+PrtSJsxCxqjSalLTGp9ZSP2/+qnkH2+uD+njSZJEkJ+H/rr66BJMoUrAeN8/2MASERERERENI7sdbux++nH0P76q3Fd9Xc04eqyNvgdg8iYMw9qvV6pS8wQoSAO/fG3aHzuDxChUEKFF58mAbKMwYP7w4uD1MyASqNV6jThnK3N2PX4t2Gv3ZVQx81ojoaD8PX1xmUI2LfjQ9Q++zi8vb0JuX3ClYBe9NfVQmuxwDq9Mq6HODMAJCIiIiIiGgdCltH+xibsfuoxDOytT4iqv6MSAkNNDRCyjLSZs6HSaJR6xISWl/+GvT//b4S83sTcLp8kSRChEPr31kEOBJBaVRPTlYDOlmbsfuox9MbpirInwtFwCL7eXqTNnA2NMT6GaA8dbsSupx6D49DBhN4+kRBwYF89knLzYSmZotQlZjEAJCIiIiIiGmMhnxeNf/4j9vz4B/B0dSb0DTKk4eqyA3uhMSXBVlUT81UyXe9uQe2zT8Bntyf2tvmk4RBwYE8dQgE/UqtnQqWNvUpAR8NB7HriO+j5YOvkCGcBOBoPwdvTBVtVDbRJZqXmE8rT1YndT38XvR9umxTHjyRJCLrdGDywF9ZpFTBl5yh1iUkMAImIiIiIiMZQ0OXCvp//GAd+/0sEXK5JcYMMSYIcDGJw3x4YMzKRUjZNqceEGdy/F7uefBTOlsRYUOKERULAvXsQ9Lhhq6yGWm9Q6hU1A3vrsfPxb6Nv5/ZJt30chw7CebgJ1vLp0NtSlZpPCN9AP2p/8CSOvPXPSRPOAsMLHw0OYOhwI9JnzYXOalXqEnMYABIREREREY2RoMuJPT/9ERr/708QgUDMV8KNJUmSEPR4MLB/LyxFJTAXFCp1iTr3kQ7sfvKxhJ5T7riMhID18PZ0wTq9MiYWcenZ9h52P/kY+vfWT87tI0lwtjSjv74WSfmFSMrNU+oRVX7HIPb8z7NofTXBF835DJIkwdvdBW9fDzLmLYA6zlbUZgBIREREREQ0BoIeN/b+7H/Q9PyfIYLBSVUdEyFJEgJDDgwe2IeUqdNiaqicf3AAdT94Cp1b3ppUwexnkiRACDgOHYSj8RBSpk6DIS1dqde4kAMBNG98EXXPPomh5sOTM/wbJkkSPD3d6Nv5IbTJKbCUlEJSqZW6jTv/wADq/+dZtGx8ERBCqXniGg5p5WAQ6bPnxs2cpwADQCIiIiIios9N9vtx8He/RMNzf4AI+Cdl+BchSRJ8djsGD+6HdXoljBmZSl3GXcjrwb5f/AQtL78ECBnA5N0+R+Nub4V99w7obKmwFBRFNYDz9nRj/6//Fwd+87/w9fdH9d+OVZIkwe9woG/HNsh+P1KmToPaMHHDtH39dtT/9zNoffklCB4/gCzDcWg/tBZLXMx5GsEAkIiIiIiI6HNqeeXv2Pe/P0bI65nU4V+EJEnw9vbAcegAbJXVE1ZZBgAiFELDX/4fDv3h15D9kzuc/UySBG9fH3o+2Iqg243kKVOhMZqUen0uQpbRs20rdj/zPXRsfhWy3x83QUo0SJIE2eeDvXYXhpoakJRfMCFhuqe7C/X//f3wsF9Z5vEDfDTn6YF9sBSXwFxYrNQjJjAAJCIiIiIi+hzsdbtQ9/0n4O3tYfXSKJIkwdPVCUfjIdgqa6BPnZhFDVo3vYy9P/0hgi4Xw4tjCAdOXtjrdmHw4H4Y0tNhys4el33a092Fhj/9Hnt+8kM4Gg6Gtwu3zacND9MeOtyEng/fhwgGkVRQCI0xOnPPORoOofb730PHvzaHh/1yG40IrwzsgvNwI9JmzYnZRVtGYwBIRERERER0krx9vaj9/uPor68bl6DkpAkBIUT4pl2WAQhADA/ci+JNvCRJcB/pgOPQAVjLK6JeCdjx5mbU/eAp+Ox2Vpcdj+HAydnagu6t78Lb1wdjRiZ0NtuYvH9+xyDaN29C/Q+fRvvmVyfPKtmfU3gF2kH0bt+GgX310KVYYcrJgaQev7kBe3d8iF1PfAe92z8Ib/sx2P5jIjL/YAx8P5FKZ5+9D5nzFsb8oiCSEJN59kYiIiIiIqKTIwcC2POTH+LQ//vtxE+KLwSELENSqSBpNNCaLdCnpkFjNEKl00OEggi6XAi4nPAP9CPk9Y60j8aNtJBl2KqqMePeB5FaPVOp+ZjofOff2PXEd+A+0sGQ6SQIISABSMorQO4ZK5C7fCVSpk6DSqdT6vpxQsDd2YHure+iffMm9NXuQsjr4TY5SUKWoUtJQd7yVSg+7yKklFeM6XsZdDnR/sZrOPDbX8DZ2jKmr31Chs9pkCRIajUklQoqjQYqvQEqtRqy34+Q3wcRDEKWQ4AsAJVqTILqEyMgqdSYctlVqLzxthM/PqKIASAREREREdFJaH3l79j11HcRdA5FJUT7FCEghAxJpYY+NRXJJVNhq66BrbIGxqxs6JKTodYboNJoIcshhDwehLweuLs60V+7C/a6XRjYtxe+gX5AAiRpfG/0hSzDUlyKylvuQM7pZ47rjXr3++9i1xPfgbOleeICjAQRCWGM6RlIrZmJrMWnImXqtPA+ZrUd9f2Vg0F4e7ox1NSA7q3vonvbu3A2H4YcDMZWNVm8Gq7wNWVlI2fZmchddias5RXQJJmVen4mEQyib/cONDz3B3S/9x8EJySkFRCygCRJ0NtSYS4uQfKUMiSXlMKQkQVdihVqvR6SSg05GEDQ7YKrrRWOxkMYamyAs60F3p5uyMEgAETv+xcCapMJNXdtQPF5Fym1njAMAImIiIiIiE5Q17tbsPN734K7s2Pcg7NPigzt1SUnwzq9CpmLliB9zlxYikqgMSUpdR8R9HgwsLceba/9A53/eRue7q5xHyIsZBmG1DSUrb8WxedfdELf7/EQoRDaN2/Cnp/+EK72tugFAMcyejj26Pd25M/h4dmj20OSYi4oC/8MMlRqDXRWG4xZ2UjKy4e5oAhqvR5yKISAcwj+wQH4+/vh7joCd0cHgh43gCiGMSdAyPLHtsuxQumR6CSyfWLg5xFCBgSgS0mBdXoVck49HelzFyApLx9q/fGtGhwYcmDgwD60bfoHOt9+E157X/T3veGHGWqDESlTpyF7yWnIWHAKLMUl0JotSr0BAEG3G+4j7Rg8uB89H2xF387tcLW3fVTpPM6ELCMpLx9zv/4o0mbOVmo+IRgAEhERERERnYDenR9i56OPYKj5cFRuLEcMB0nGrGzkLD0dOWesQGplDTRJny9EE6EQBvbtwaE//R5H3noDIb9vfENNIaDS6ZB35mpM+9L1sBSVKPU4LoGhITS98BwO/v7X8DsGo7ttRosEfhCQ1BroUlKgT7HBmJmFpIJCaM1mqHR6qHV6SCoVQgE/ZJ8PIZ8X7q5OuNvb4Ou3wz8wgKDXM/KyE/bzHE1keCbwsWHkkZAQAjETkn3MqG2j1umhT02DPjUNSXn5sBSXQme1Qa3TQaXXQ6XRQA4Gw9vG74PPbsdQcxNc7W3w99vhs/ch5PcBiIGwNjIFgEYDU1Y2LKVTYZ02HebCIhgysqC1WKDW6iCp1ZBDQXh7ezDU1IihpgYMNTfBcegA/A5H9H+O4eBPa7YgffY85K86GxnzFkCfmqbU85hEKARnazM6334TbZs3wXHoQLj6dJz3RyHLyJgzH3Me/hZMOXlKzaOOASAREREREdFxGthbj+2PPoLBA/vG/WZyNCHL0FutyDn9TBSfdxGs0yvHfAGAoMuFwy89j4O//xW8fb3j+/MN34amlJWjbP01yDn9TKj1eoVOn62/vhYHfvdLdL3zNuSAP7ohBgAMD10EAF1yCkw5ubBOr4StqgaW4lKYsnOgs9qg0mqPHrIIAQEBEZIRdLvg6eqCu6MV/Xv3wF63C86WZvj6eiEHA+FwNuo/X3yLhJV6qw3mwiLYqmbAVlUNS8kUmLKyoTaaoNJoFF4lPLQ56HbB09mJocMN6K+vhb2+Fs6WZvgHBwBMfFArRHjhH0mtHvlQa3VQGwxQabWQAwEEhoYgBwPhobJCRG0u0NGELEOt0yNj/kIUn3cxMuYt+NwPM47G3dWJjn++hua//RVDTQ3hT47zz1qw5hzMuPdBaC3JSk2jigEgERERERHRcRjYvwe7n3wMfbt3Ru0mX8gyVFot0mfNxdTLr0LG/IVQacdvknkhBDrffhP1//19DB1uHPefU8gytGYz8pavQsnFX0Ry6VSotFqlbiN8A/1ofWUjGv/yx4kZ8jtcUabW6ZCUX4DMRUuQdcpSpJSVQ2dJhnQcodIxCYGgxwNXext6d3yAzrf/hYH9e+EfHIx+tVYcErIMlVoNU24eshafitxlZyJl2nRoTEljsq8IWUbQ5cTA/r3o+NdmdL27Be7OIxCh0Ji8/pgaHf1M8H4jZBnmgiJM+cLlyF99LnTJ4x+UDR1uQsOffoe2119FwDk0rttHUmtQtv4aTL/2phM6n403BoBEREREREQK+nZtx64nH4Xj4IGo3TwLISMpJw/FF16KonPPh96WqtRlzNh378Tup7+L/r3143qjDGAkmDBkZiFz/iLkLDsTtooq6FKsR715lv1++Ab60bPtPbT842+w1+4a/2HLRyFkGWqDAWkzZiFvxVnIXLAIxqzscX2/As4h9O+pR8e/Xkfn22/C09PNIPAoxHAFXMqUMuSvOgvZp54Bc0HhmFfNjiZCITibD6Pj3/9E++uvwNHUGJtB4EQSApJGg+wlp6H82hthLa9U6jGmQn4fjvzrDez/9c/D1YDjddwIAU2SGTPueQCF556v1DpqGAASEREREREdQ9e7W1D77BMYahr/ijgAgBBQabXIWnwqpl19PWwVVeN3o3oM/XvqsPO738TA/r1R+7mFENAmJcGUkwdrRRUsJVOgt9oAISPgcsI/OAhXRzsG9tXDfaQDIa83Ot/baEJAUqthq6xG0boLkXPqGdBZrUq9xpQcDKB/Tx2aX3oBR97+V7giMNrvQywajjeS8gtRePZaFKw5F6bc6M/F5mxtQeurG9H66sZwZSowIcdwLBFCQJ9iReklX0TpJZdDl2JV6jJuBg/ux96f/w+63nkbIhQcl20jZBnm/ELM+fq3kTYjNhYFYQBIRERERER0FEIIdPzzNdT98Gm4j3REJWAJz/Vnw9TLr0LxBZdGZWjcsfTt/BDbv/N1OFubo1dhF1moQQhApYJaq4UAIAIBCDkEIFzxNhGVb0KWYUjPQMkFl6D4vItgyMhU6jKuZL8fXe+9gwO//QX662vD71mU35NYIWQZGqMROcvORNkVX0JKWblSl/ElBAb278XBP/waR/79r4kJq2NEZMhv5c13IPeMFeNaiXm8fP12HPzDr9H0wp8RdLtxrBWgT5aQZaTWzMSc//oGLCVTlJqPO/UjjzzyiFIjIiIiIiKiyUTIMtpeewV1P3gSnq7OqNy4C1lGUl4Bqu64ByUXXAqNwaDUZdyZsnOhtVjQ++H7kP1RWlxjONyTVCpIkhQO/WQxsqps5PNR+V4ihICkUiNj/kLU3LUBheesg9ZsVuo17iS1GpaiEmQuWARIKjhbmsJBUzTfm1ggBCxFJai48TZMu/o6mLJylHqMP0mCIT0DWQsXw5CWBmfz4Y/mbpxEhCzDVlmNmRseQvaS06JyLj0eGqMR6bPmQp9ixeCBfQi4nGO+bSRJgqerE87WZqTPmgutxaLUZVwxACQiIiIiIvqE1n/8DXU/fGr8V8MdJmQZtooqzNzwEHJOXTbmN6Kfh6W4FN6+XgzsrVdqOk4m9r0QQkCt16Pkwksw454HkDy1LKa2DwBozRZkzFuApNx8OA4dgH9gIOa+x/EhAEjImL8Is778VWQvPT2mFl0AAJVOB1tlNVKrZ8DV3gZ3R3t0w+sJJIRAxryFmPXAV2GrqlFqHnXhofxVMOXmY2BPLfwOx5gfN5Ikwd3eBjkYRObCRZBUE1f9yACQiIiIiIholP76Wux+6jF4uruiFv6lz56LWQ98DanVM5SaR52kVsOUnYPu99+dRMFSmBAydClWVFx3C6ZddR20lokdkn0skkqF5ClTYS2vwFBTI7zdXYkdNA0vKFGw5lzU3PMALMWlSj0mlDEzC+lz5sHX34ehw42ALCf89slefCpmbfgvWEpiedtIsBSXwpSTC3vdbgSGxj4EBABXWwssxSUTup8yACQiIiIiIhoW8nqx56c/Qu+OD6IS/kEIZC5cjFkPfBXJU6YqtZ4wepsNQZcLfTs+VGqaMIQsQ2+zoebO+1F8wSUxV1n2WUzZOUibMRNDTQ1wdbSPS5gx4YSASqfH1C9eicpb7oQhNU2pR0zQWixIn7sAss+LwQP7IUKhxAwBhUDO6csx8/6HYMrLV2odEyzFJTBl58JeuxMB59DYHjeShJDXC3d7GzIWLIJugh4kMAAkIiIiIiIa1rfjAxz49f9GZb47IcvIXLAIs778NZgLi5SaTzAJppxc9O34EJ6e7rG9OY5BQgjoklNQdetdKDz3/OiEwWNIb0uFtaIKjoP74e48kljba7jyb8qlV6Di+lugMSUp9Ygpar0BaTPnIOB0YGD/3oSrBBSyjKxTlmLmhodgys5Vah5TLMWlMKSmo2/XjjFfGESSJHj7eqFSa5Axb+GEnFOi/y8SERERERHFqK5330FgyDHuN+RClpE+ay5m3PcQkvILlJrHBFN2DgrWnAuVRqPUNL4JAW2SGRU33IqitRdMyI36WEgunYoZ930F1ooqCFlWah4fhleGLlp3IcqvuQFqg1GpR0zSmEyYfsOtKFhzLhCt1bWjIDydwTzMuPfBuAv/IvJXnYWKG26F1mwJ729jSMgyOre8CU9Xp1LTcZE4exoREREREdHnEBhyYGDfnnEPS4QsI6WsfHjeshKl5jElc8EpMGRkjft7NGGEgEqvR9kVV6P4gksgqSduwv6xYJ1eiRn3PghLcWlibDNJQv6K1R8FNHFMl5yCylvuRN7yFeG1TOJcZLXfGfc+GAcVzccgSShadyHK1l8DlU4/piGgJEnw9ffD2dai1HRcMAAkIiIiIiIC4Ovvh6e7ExjHii8hyzBmZaPqtrthnV6p1DzmJOUXILVm5pjeFMeM4aGlxesuxJQvro+bOf+UpM2Yheo77oUxIzOuQ0AhwkPmK2+5C3pbqlLzuGBIz0DVHfche+lpcX1MhR9qTMOM+76ClGnlSs1jnkqjwZQvXIGidWNfASwHAgg4HErNxsXY/iRERERERERxKuh2we9wYLwG/wohoLelovLG25F1ylKl5jFJpdMh65QlUOl0cR1YfIoQUOl0KLngEky/4VZoTCalHnEle8lpKL/2JmgtYz+sMRrC1WU1qL7zfphy4nNo6WcxZeeg+q4NyJi/KC4DWiHLsBSVoOaeL8fkKuYnS2M0Yfq1NyF3+coxnhJCQEzQMcgAkIiIiIiICAAkCZJqLG/0PiJkGYa0dFTffi8Kzl6r1DymZS1aguwlpyXCqMUwIaA2GDH18qtRecud0CWnKPWIP8PDGsu/dEM43JygAOJkCFlGytQyzLjny0ieUqbUPC6ZCwoxc8NDyDl12fBn4mP7CFmGtbwCMzc8hIy5C5Saxx19ahpq7tqA/JVrwguCjMFxI2k00E7QwjVcBZiIiIiIiAiA3zGI9tdfRdDlGtOKDyHL4SqfO+5DwZpzxnxIWbRpjCbYKqsxdLgRrraWMV0pM9qELENrsWD6NTei7MproDHG56ISx0NSqWCrqAZUKvTX7YYIBsd0Px8PQsiwTq/ErAe+itSaWUrN45ouxYr0OfMRcA5hqPEQ5FAodo8tIQBJQuaCRZj5wFfD0wIkKE1SEtJmzoZ/aAhDjQ2fa7sIADpLMoovuASG9Ayl5mOOASAREREREREA2e/HkbffhLe356Rv8D5muFrEVlWDmrs3IPf05TEfuBwvXXJyOARsPARXR/vYvF9RJmQZ5sIiVN9+L4rOuwhqnU6pS9yT1GrYKqshQiH076mL6RBQyDJSq2dg1pe/BltVjVLzhKAxJSFjznxozGYMHW5AwOmMuWNLyDK0ZjOKz7sI1bffG98LfhwnjdEU3i5JSRg8uB9BtwvSyazeLAQM6ZmYcsll0ExAFSADQCIiIiIiIoQnfu96dwucLYc/Z5WeGL5JtqDwnHWouXsDbJXVSp3ijt5qQ2r1THi6OuFsaR6pCop1QshQqdXIXnwqZtz3FWSdsuRzbu/4olJrkFo1Ayq1GgN79yDk98VWyDS8H2WfshQz7n8IKWXxv6jEiVDpdEirmQlrRRW8PT3wdHZAfI6qszEjBAQEUsrKUXX7vZhy6RXQpSTgcPnPoNLpkFo9EylTyuDp7oanuxNClk9suwgBW1UNCs46d0IWGWIASEREREREhHAAOHhgH+x1u0/spi5CCAghQ63VIWPeQlTdehdKL7ksYVYsPRqd1YqMeQsQdLvgaDwEORg8ufcuGkR48n1jZtbIfH/m/EKlXglJpdEgtXomtGYzBvbtQdDjjontJoSAWqdD0doLUHPX/UjKL1DqkpgkCaacXGQtXAyt2QxP1xH4HYPDX4rydho+bvS2VBSdez5q7rgP6XPmQVKrlXomHEmSYC4oQtaiJdAYTfB0diAwNAQhxPFtF1lG7ulnIGvxqcfXfowxACQiIiIiIhomhEDnlrcg+/3HXc0mhAwIGRqjEbbKaky76npMv+4mWMsroFJrlLrHPY3RhPQ586G1WOBsPozA0PBKysf5/o274WBWY0pC9tLTUXPX/ShYfU5Cz/d3PCS1GtaKKpgyszG4fx/8joGTG9Y4RoQsQ5diRflV16P82pugs1qVuiQ8jdGEtJlzkD53PiRJgrvzCIJuN3C8gdPnIIQA5OHjZsnpqL79HhRfcAn0qYn7QON4aUxJSJs9DxlzF0BjSoJ/YABBl3N4SP1nh7QqjRZF6y6AtbziqF8fb5KYqPWHiYiIiIiIYkzI50X9j55B4/PPAbL86RBr+PZJCAEIAZVOB70tFanVM5B35iqkz12Q0BV/xyQE7HW7cfD3v0LXu1sQ8vkmdmjtcOWS2mBAWs0sFJ9/MbJOWQpNUvTn3op1PR9sRf2PnsHAvj3hT4xzuPQxw8eUZcpUTL/mRuSesQLSJAjOT5QcCMBeuxPtb7yO7q3/gftIO+RAAFBJkMKpk9JLKAqf12RIkgqG9AykzZ6LvOWrkLngFB43n0HIMlztrej9cBs63/k3Bvbvhc/e99FDJEmCBEDIIaSUV2Lhd59BUl6+0suOCwaAREREREREo/j67djzkx+ibdM/EHQ7AQEIAJJKgtpghMZkgiE9A9bySqRWz4CtqgbmgiKoDQall54U/EMOtG/ehJaNL2LgwD7Ifn+4ImYMAorjEhmKbTDCNr0ShWsvQM6py6BLsSr1nNSGmpuw/xc/Qce/NiMUCIx7hRkQDk/UBiPylq9A2frrkFw6RanLpCdCIbjaW9G99V307vgAA/v2wmfvDVcGSgAkFUa23LG24SceZqj1euisNiRPmYq0WXORtXAxLKVTodbrP/s16GOCHg9c7a0Y2FMHe30thhoPwdPViaDHDb0tDZW33oncZSuUXmbcMAAkIiIiIiL6hKDbhSNvvwX7ru2Q1GqodDpoTCaYcvNhKS6FKSsbWkvyhEzkHi+8Pd048u9/ofXVjRg8dCAcUADjUxU4XO0nqVTQpViRWjMT+StWI2PBKZO3IvMkBJxDOPzS82h47g/wdHWOW3ArZBkqjQaWkikovegLyF99DjQmk1I3+oSQ1wtvbw/699ajv243hpob4Wpvg39gAHLADyHLEHK4qg9AuBpNUgEqCSqtFlqzBaacXFiKimGtqEZq9QyYsnNZ7TcG5GAQQbcL/sFBeLo6YczMRFJB4YQOs2cASERERERE9BlGVnkchxBksvDZ7bDX7ULXu1vQu30b3J1HEPL5AFkOh4En894OV/lBYCTISC6dirTZc5G1aAmSp05joHSShBDor92FxheeQ9c7b8PvGByzYyAc/GmRPGUq8ledjbwzV8KUk6fUjY6HEAi4nAi6XPD0dIWPM48HcsAP2e+HEAIqrQ5qnQ4qvR6G9AyYsnOhNVugNZsn5aIekw0DQCIiIiIiIhp3IhSCu6sTgwf2wr57Jwb274Oz5TD8jkGIUCj8IcuIjLmO3KpGFhSRVKpwNaZWC12KDcbsbJjzC2GdXgFbRTWSCgo5zHcMhXxe9H64DYdffB49H76PgHNoeIGDE6tgigS1GpMJKWXTkbt8BXKXrYApO0epKxGNIQaAREREREREFHV+hwO+vh54+3rh6miHu6MdAecQZL8fIZ8PIhgYnntRBY3RBK3FAlNuHiyFJTBkZkKXbIUuJWV8hhTTiKDbhb5dO9C++VX07vgQnq5OyMFAeGLMoy1AMbo6U6OBMTsH6XPnI/f0M2GrquGQbKIJwgCQiIiIiIiIiI5JDgbhamtB364d6N2+Dc7mw/ANDiDodCLk80IOBqFSq6Gz2qBPTYMpJxeZ809B+tx5MBcUcYgp0QRjAEhEREREREREx02EQvAPDMA30I+Aawghb7hiU1JroLNaYUhLh85qg0qjUXopIooSBoBEREREREREREQJjJMlEBERERERERERJTAGgERERERERERERAmMASAREREREREREVECYwBIRERERERERESUwBgAEhERERERERERJTAGgERERERERERERAmMASAREREREREREVECYwBIRERERERERESUwBgAEhERERERERERJTAGgERERERERERERAmMASAREREREREREVECYwBIRERERERERESUwBgAEhERERERERERJTAGgERERERERERERAmMASAREREREREREVECYwBIRERERERERESUwBgAEhERERERERERJTAGgERERERERERERAmMASAREREREREREVECYwBIRERERERERESUwBgAEhERERERERERJTAGgERERERERERERAns/wNZwLeicdEjPgAAACV0RVh0ZGF0ZTpjcmVhdGUAMjAxOC0wNS0xN1QwMjo1NDozNSswMDowMEO4VnQAAAAldEVYdGRhdGU6bW9kaWZ5ADIwMTgtMDUtMTdUMDI6NTQ6MzUrMDA6MDAy5e7IAAAAAElFTkSuQmCC;" vertex="1" parent="Jq-mPfwN_62_-WVwa9c7-37">
          <mxGeometry x="42.47" y="156.7461625184286" width="95.06" height="30" as="geometry" />
        </mxCell>
        <mxCell id="Jq-mPfwN_62_-WVwa9c7-28" value="+" style="text;html=1;align=center;verticalAlign=middle;whiteSpace=wrap;rounded=0;fontSize=24;" vertex="1" parent="Jq-mPfwN_62_-WVwa9c7-37">
          <mxGeometry x="60" y="125.52597346283932" width="60" height="31.220189055589284" as="geometry" />
        </mxCell>
        <mxCell id="Jq-mPfwN_62_-WVwa9c7-38" value="2.Push code" style="edgeStyle=orthogonalEdgeStyle;rounded=0;orthogonalLoop=1;jettySize=auto;html=1;entryX=0;entryY=0.5;entryDx=0;entryDy=0;" edge="1" parent="1">
          <mxGeometry x="0.1321" y="11" relative="1" as="geometry">
            <mxPoint x="190" y="241" as="sourcePoint" />
            <mxPoint x="296" y="241" as="targetPoint" />
            <mxPoint as="offset" />
          </mxGeometry>
        </mxCell>
        <mxCell id="Jq-mPfwN_62_-WVwa9c7-39" value="1. On-the-fly Analysis&lt;div&gt;&lt;div&gt;(Real-time feedback)&lt;/div&gt;&lt;/div&gt;" style="edgeStyle=orthogonalEdgeStyle;rounded=0;orthogonalLoop=1;jettySize=auto;html=1;entryX=0;entryY=0.5;entryDx=0;entryDy=0;" edge="1" parent="1" target="Jq-mPfwN_62_-WVwa9c7-8">
          <mxGeometry x="-0.403" y="60" relative="1" as="geometry">
            <mxPoint x="90" y="330" as="sourcePoint" />
            <Array as="points">
              <mxPoint x="90" y="480" />
            </Array>
            <mxPoint as="offset" />
          </mxGeometry>
        </mxCell>
        <mxCell id="Jq-mPfwN_62_-WVwa9c7-41" value="Issue Dashboard" style="shape=image;verticalLabelPosition=bottom;labelBackgroundColor=default;verticalAlign=top;aspect=fixed;imageAspect=0;image=data:image/webp,UklGRuyqAABXRUJQVlA4TOCqAAAvP0TLEM04aiNJkpRR9YvmT/ia2kUQ0f8JyLEy3d19YgzgZEqtAc2xyqgM9QZk+k+OAALYFzWJby3G1Egl8Zz3zr6RaXhYQfyNUamfkOF/s1FuZsVvqD5o1qfz7Y4vEgE86cFD6lDuuawP2dJQ0lCVmAnxSEyiE495f1ggAQluqh8KUlHN/ctaZPqW9Nh62MBtbNu1svCEhETo91/FDynDm9A/HV1tLczzjwYgq9a2rNq8/DWSD0fd7dD7vwhPvfzYfvxp90gODiJJdpW+fSQZGSyAfwOoyAig6j5F/xm5bRuJ6nmf+QQYVDRYWDldToNxJb0UaF5PuNlSOeeRGSEWwIhxw2zgDgAYUQnfDC0BwA3fG/T2/MGqbviA7doVURop8Zdz7vldbmvEWRKF6+rPDabtzPmXvxVhVEYiNdKcVC+FP7AevsDgCUomMFvBUYNxr98Nluaop0bgkfDKKzJgVf5TuWfIgEqA1d0A/HeU8tC65MOMGbf8GMk8mee1FtBhFqVBKWacl1puGdWE19YKdExgozD6pUq6e+thB9OTtnxyTuWaexGjZ3ytDTDV5dXVVa/1Rk22BowYlcon99QaauSzFjBfnAfcI5zzShURYSQiIlIA5JjmBGYLMPmFp/OywD1npaVlxJC//jQnSQK274YrAKfe7Ty4qVQqtSK0tPw1nOi1lc6ZzWgA4JjbhbmB1uCe+woiIsz0EkXNO14w7fo67VkVvfQX7TD10RHAAGsD6lHYtm0j+f+vu5K2B0TEBPBTx+f+mDiurEnbeS7Yj2qT055PJu6ibdY0Z+7+yTSwoDwoEy2LuF1xYzwtARQVoKY4F2zj1fZvmWwp/6+qq1cv7z3u7tp7FHfXLbiuvoicbanhDttw2b1wd9feuNNr3GfLuKzV21dLfR9Sb/XX3V+99db7vXu/P7znFJBF5u4ekbp0iEtzwQlU2GeAu2WkLiGFu0QVcvWEOCvC5SiIHU7ALXKvI9gToSvqFC8s4gA0HYkKl9ShcM/3hXvubpk7LMJxCbHxmQwJnYxzcBufSXHfcu1wX0TjE+HuoyHuTmqNhi7NSbi7O53jTujulrlbNjFyDBp/eOGQubtmdGxte2snz/Pq2CbnKucgESdAdefBQHJFSxVrxkDvbA9Bd9HaLWXm6HvpyLat2m7mXOe+D1WC983UAc4cu/S+zNgWp87UEfdE301wzExi1qd3loRa2/O2uUNQMaiGICqCugjiIPhB0AaBYwRtECRGMBvBHAT7imAKAw3BJoAb+//vLTduzjm3ze1z7/TCmeFwOJyh2Muw9957HbYZDodDDtuwd3JYxWHvwzrsvfc67MPhcDidw2Gb4fR6+71zz23nPDj/c+65wyGHuuPyMcJFdgxsTVmEF5AWodPjclOESEhWC7hb60QyzPRxGQc6D+RuL3zdzTWycF0CHvdeBYxSBEyKu8kAoyBcxN0+CsCUC6x7/xvYRtnpydDdRKx170VA6BQXLmYM9CJgG34BpCA0oE3XGrwb073rAYUsgaXSGyeIFrHgdbfPA+0DIlmlR8j8DWjhMMXd14ULuKzS46aE+8DdluEZQ9p0ufsfCO698QFPYC6cXpiAD0QgTHFb5zrgGtECZvqlEwZw77YCaWE9SO93NiYBN216T5ZM6G7LxqQovcrOFSD37gXEB5Oi9LhsoQuTbHfVXUQucuq63HHZWEHWvTe5dz6YMTwpQlZOb+vCxHJ6m0Hcuy0gd2O590bY5AMZiLvtSZIkybZtSSIStVN8r6sJOPj8Z+Q+hLp8ey1TIY22bbtuI0lr7XNRPkgADywrKf//uyoj2oXoFFHt9O6OCcB7//9x23ap1ff3e5655vLaOrw+urZt27Zt27Zt2/cgPLZt77vP3msvr7nmfJ7fr1jP86xnxsmZY5xPbNtGlTGu7+0yUhsznnEy+1SzOV3+AzvpbNs7Xu0cqXJWbNvOTsY46Zx01i6v713tRbXiXLXR6lPZdpvWWHFWytuuOCltu70p016jva3v3beNk1XFlW3bttmedCt2SttpzdK27ex/IFhVbNtOzj8Q26hsOxX3KmOjTanLvyD2KWOsMeLdtm3Ttm1tyynX2tA1tG1b/2zrHval7Buybdve+/jMPT2HuhpqLb4lSVJt27YtM89SWm3UuU9meGKGtdaXM/N6mgyDmUfn3lurtZb0mACCH9D+1/6fCuv0wfuFPth80La50nr4h9bNX1o3/39BWiOohJWgUXonEwSrwKIPr3a0Xv2kbn/T8EnlQLQQZEjvhDOlC8FNSNHrX6XnpWNeiflBJUGWT1Md6LzK4okef9DT8L4eyPTroXqgnO4FE73/UaZxvx7I9us5YXr/MIsk8qyQLZDx1+OJI2o3PwtJn0wSRhI/DR29/lkSUEXWcNQ4+5Gl70f67ddZ+3XSWpkoB+NapaIUhAUkBFOhGBWMs39njy6P9KLmQjVAbh8P/NyuCC8ckhA/pN9h7TQYrlMRBTl+NDGGFQaofIse6irSYcwFDNVqgDTvbTYM0JIQO2nSFewPPBPI9HNB288QRrpN6FBZwJ4zaoC0TzKJHII5zeqDIN9PBFgJ+mv9JXAojGCWC0/CQ5nFAMklIWyaCVeGV6Yg43uXxkjchLChro5g7g+CnN9bXGEo0MljQtCkCU6MEuVJernRA8a3/bqgIfgiDcauGJD1x6CuMFSC/r68EzR0dfuG0FdeiqS93H2GAi3ZJYRMgpo3xtDrBuT9odf3MG6lTciAnIWxDUDi24ZODJINxOxgRhGQ+D6KQVgEDZFnxoINiW/BFONnBQ27EEl8DYz1CB6ZvxAwtP+1/7X/tf+1/7X/tf+1/7X/tf+1/++1/4WkAHgoIgQu3gsbGNYIp1/yQmTTrmgAQwpLYwjyYqq6fBiHMWg5wTpDz6Vh85HZghQxxq7uNUkGSksz2H0a5vxgOVAYOkOwUoyznT9OS2ghEl7lUDVX46aHCSDAghGmW5ZcwoMK2sLEm9SkQQBoloJmCxsDJl2GXQ8xBHVkQMCAOYRLBr1PQgqPgpFVqCIpuqWNY5nNCMDDHDj/qlQJKxPF3ayg8PFEy4B706a6UJSD1liOJltqAogNhvw+D3CfiqJg3OYkqMmDGmHmNG0bVgBY8NrbvesDT3MPXW1R+Hgaps33l8qBAB55ICREMJrUlmSvmWItNUdYZ2sMv9eZtgUjYdSlyXLM9Y7qhH5HLRACAVRFT3SVB3qrphZGFvve5oogAAewxE7HWLPCU1+PPHXaGDcdqibWbvraexvvs3UtCHEU0RQ0C4YAUDFuXCAghY/lI+2+/5QPi8EYY46DzycHKKfJ/u9Vi26TldTzPqcnktB8yA/2IA2X6goNogKOYohEnKjCEAqahSUpF4hqIQCwAKFZ4AB7CjCqKmK/qI5UDBFhCFXWZZU6YtyrNfG0AW2Y6fkjLFA5YJfvLwsRO/Bt/fvLHIsYrwViwPvU+73GvNfO36fu7nMf92nqNAHAg4oGTHG2stTWHL8xl+hJMNMsbW7QQwiBAPR4l9Qu7Spw1uvNRlaIGsGwG/oAvgmFfQxVQKYuC63bCI1pDDTcdeJlmpIbTSKcjHQ+gmJ2MtqtrVENK6cO6HVUh8wxQitwXTp1gIUBpFoH2dvVmGG7tJ1psnWC1FFeWGMo6HN6IYiS7DncRk1flVCsy2fC9Vv4w9fZz7ZYmH3y3Pfbb/s6lGQb+z4LHTWsbmhmno/gDkNEkJ4st3u0589xzyeTM6jSbEdepi0z5qLrUrlwzrj0/j418F6buLeptjwAI+IGjL9OsDxJ2yhdQqh2aF81sL37GNDdyoQAoOcv9yGwnttqyGlAaYFThm0pYRlRzdnWBpKuicBgrWI8P+9o8rW/vXuV4WMI5EdYY1qnaPKjp4k2Wf2Qh0y6W43RR33qgg2y4bh3VDT3/L9+dkEgMzCCrYaWE8Qcz3dQz10mILrBVg9Jz1I6oYP/tTSzX2APSSXajLERNAOqiQ8fCUMaQURfhdfX2b+cdsZ0Y8aOSiZIAPzPXMh1KKur8/cXo92BHMYsYp814Ajxrc+0NQllwAAMVsS0xKGGoJsENhV0nJDGEM486N5CfJ8Hvs8MABCUXbZO1ujSzb0ZAHIHkm1313sfZ9PjAMBt7ZCgp8zp3ljjSqGSwYpfgBUGBRbAeUOmPiDCXqbLOTd6oAGMdegKz0FAcOTTEmYkCCoQEJQpQ1wAF89QgiD3b7VHNKLR7z1ZoUlWkrQRs3AJFpuTm+jGQiYmaEYJA8KCe4ARBDVqmst10qRcKOR2ayb95lEPy7X1Pq0Y+oZDPcyjhXPpexKVEioABFAiNNhUdacEyp52R1vMhTtqQRidOYN9nxMuYCCH5/H59YOrAiq6lhOAZuynSnWMAQ6+zJ8tKZy22qxrgK+rfexohQzE+5paQROYbk7Dt1K+OLHR+T9V4d/6ONi9gdln0VKxtEgOshyqI7z0ovlBKgpJNowaxoypLRqaxfULnSl7sj1BQr3kVI5JWIa4DQ4gzC76tCFobKYxp066IRWgQD00Cv3ODMqFpYNMpjyfCzyfYz9/1A1GwYYzo65R3usyCQDNKi2k/tireO9DQ1TDtWBMuslPivkEwpGv1as5DbasqhZNaF2UP8t0N49IEFluV0fmvCYqZcghN9bP1JgcK6IFWnK39R4OcQZNevdZSCQqkiQybkMorEh9tiGRjwAkDJhpWH49uim8vi4zu3lhMNNfZA+fgHorgB7u7QGHNmrA8NAGzIn3F1y7mbEV2sREFyiA6ZmUEd7gCYR2Es17HQZAouePvu/1WVXxyUpmAAAuz8xtS6bSWUd73t8CgHnX3vZuB756NEMkz2as0zBVa4MRztvLYOHCSnDQu7i1hmbKMviqZ63PNC+tTyI7DojjND1j7BDCh4W2YAAsufVlQbdANSArIwEgqQasAcZIUKOWI/J7+kn0TJBQjxlihUOvk93aO8fzZ8AwLnu5vZvmJnFmglKRsvPtDuIQYaWHmI8nAgAaEP/8aP9e87XV0YAuemuK5ZEhM5Dj08xGAz59CwwBWhkGuPfhpkHexZgdl0g4rVeFhM/Hu2EAX0huQViAR2wcAPAGadHwKk3s62LEgwCm7UVT32EY9dr6WZCY/8hgjARrVHJElnOwtEM9p1nMt0zCSrr7I/j4qxF/hrhslD/bv08Jzo8mKUOQHX6QaowptDCreQVllWOM8f4M6mi5lombqJsiMeapIQGKJodWKQjAkBiHyXe25FGbiAZOVKkL+26UcjhtCyYc8CuOv8zuHAAgDZO7upK9GpuJBM6ZAJJqDGNz1HFEnzsN6j8DstlykXiZf3mSV7aEwKEtSpBs0c37y9Tz3vAs4Cwg0HSy4s/EJUIKgBu+S4auA27dzqrdqIN8e+7JA6VXA2xVFAIBiEtkiD+vAHCKEzuJHUZ1IIfTMkEh2lleqJYxkgeA+aIyoau3OBPgvAkY8H3NUcVsru/lz50Gzlk8X02Bt5ukpN9qmjLMPibYT8fpdCjy7bZHH1TLvXvi2xoQZbRqNQFApZ03ATOysZKuFg5BAEAFQXliOOmeOiOcmqBtNt9FiGeSZHBYqt08RNlw9E3C+fPpBxg5epipMst+GjitZby74Xc+VikHKL/C7nl2dziDTV0INquh4mxNATvHAgFLL6YOXDbyBgIMAE5KHMFR2smAVxAFrJDRdi2W5oh0zKvXNrBt129qM86gYElfmbnvzkhRwv8/A5yUISLAWbp7n1bCYhA6SyHw93gz+M76ENx4FKUAoHQ1rLhAGYcK2EE+kBJLxZG230MyrNWROF1gaE42JWo0b01NkGy3SS1B7EjbBs6jn2FSKNHATKZsNw9ntInxSs5UN4ygxpmEVogdexlkj7AUe+bdDQQzcb7/CLzCjs9KMB+VhZSCgwAYDYR8TVsHPOTjfw6GADjFiSkc0LsozRFg62JU/MXDTbICsmWzjxfrufCCBXNDZr0w0pQ4k8LmP4f/+rOXKO3hlJU6vPd71qu066jnR1cDQ0QYMmIZ7t1AUTsHCFG3A9SdbEm0ABLTbDDYXSl/Y0utZTUAAE58sx9PXbnksFaghQHkaOcGPP5yCIGAIenTKnS0wNiMGxI0MqsOWg4lHm7G3ctXTYpv3JwTzHEuBZihz4PMeVUZr1QSnDPevU1d9sBN1z4z7fkoDwCcqJIzo9/rTQBcJ4wBwmtn9/Zwi1VIXufJNpUhAEOm2f5atTvBq6ZTH10fzc1Ef3+xbx8zsCxe5th0MFXKAUx8k+BgeBfMYZh5B3zP6gVCZtz4Bax1AWKKYzFCJU5Hc9rA1pDQs5UZ6yS69BaGKwFc4rJ+ixM4o6aSKpk911m1fAIc9KHG2yMUJTzIlw3MDDlvR9IAwC9V/sm3upMAhXDLrc8AB7Wqg+71WbABw9y9HIlMAZCFc4B7tXZ8revRFj0/gP8wkpNqz8AOrjbBmhQbBwBzr7O0ot4JYKzwyQMILvkNYbQlRQx87wOeyopnjbj3SLd56rTTBaq+gKZZHo2RAwAjgpZmbewSsOP84UXKPvomjHMqfAKFJ36byWBmOKpptH9vmUlgyrCm6N2o1iO6apZHX6r46QFDzCKiaah9fKCjmXbep0NqVsiTnXz/KfZZTbANnBPOt51oq+rsgbN07kR0gIDYkx7vs59vsRPEvkfn0ggEogvgVBsHKcZUrVcaGABEqdrVK8C3wudv7x5P49ZfyHpXW4sHTvdL6Jpa0MNzdH2vw92OuHwsQvEfRpNNGbYCiG19LzWdVQFGWwogcdqbWiHDUWl2nhLzfdYyZRi48PFsAsOqUw2iCnIu2esRDnd+HB/wCAnx5zPm3j6CNnt9r6FvL/cQHqw17KQF5CTH+/kBoA3td2/j3oa3QqjpNc6Vj0UDmTUCmOplf3ZNAND00OMes19DKON7tbcz06qiPqwhOFALRuFk/7OO+T0I3u0KdbQyxGXxCsqA5qkHA4DZrPVzgXNrK5T+kPiMMMFhlfJp1/73bkf1IoBrGAAgdC2L2Hik86NRA0DBtDlJtI1/ManaLjUIYVzMic8eRe1wY12Y8Hx+GoaAIfH96Oc+T5/nPUgNDRSAvHglqxz8vDZvAZybq/0P7b63fGgYR8CH0FXVc+DT0TYZUx0gNO4ASjrCPfp7l6B8z2rpqsQQTQgGl1yaUKG1sw73A7BXg069bWdXglApx7I57O2SxQiJhvEmDF1WEAamIe3vzN/NEIjGmFkkP/FytapGPSa7jl21dVVpaaZfU88EBCD0pTDGZuI7udRLA1TD/YGXLV2H9n/amsVaF8ARqINO/7wO+N6WKF5bEJvwDy8jzmsjQ33vIzsECguTD9bSV8DcyTYxuMD4nDuKO3dOtDIaW9Mxt/EQQfTJ93LNUXPFSV6h6bksFV5UteE9ngxQHqt59qUKzxJlliFz350Jd8mfNlTdWT0Yrd20oPWJLwgAEKAZLZsk5t1tHEaOFalyePm2zrpHFpQszfYyNYJZmtTr6c0NKpS6sZblvFBeAKI3P+l5n70sA9lLLUMaVTqxelqxl9l5UT34+iK0AMAz7o9qBSyxXiouFPRh+aCKh4UzriIMehtnOT/6nun0rOb08rHaHSsHqbzbOWNtAL+gTmszKLz7ZHZqh66qTCAKR3q+FjDV/9lLbQlJWeB4MSyuaCtrHS0AALgA6qsADO0L0K5xpxBlCN2KQJRmKZjACkqGAARMRNPvmVHnY4Lz8RzGPD9izbgyIgwyxZWA36Medp2mMJgCaI4mdVJsTUhTVTfQUjie+AJgQU3AgpIFJQE1gSgBUCIAAGEAkNuaZNF2wHXMnWMHONMi2r6JowiaMUQkKuiTw6bb3uR19nSvT6A0scg/vM2z4FzbGGuCn6yFQDSaLvrZW1f3GvNel2+vT5jn3Zk+e2dbeCJuoklDVLrY+gQOr7kBmFtvfqbHCZxxWxqclD9ZElEJH+dFOyd/WOHFjWo+bHZmnPNZpqQzrkRgcucigkrSEJW63HxTek2RoH5taWa08znl+Tic4RhnXPjib+IhGmdEpUyZEc7n9OdzyuePqZ4f08z7ROezQ+MLAmfdvmFO8I+vWRCdEsCnyuYbAwTOvalj4Z5uECQ1SnFGPuBEOSdB9gbXMx1OCb7JPy8TXND55MY1aUtnN5RR1jTP+A4WuKKNjpFjmge4o46ujV+MgxEu6R/iF2vp4Jb6ozZeMaSjkt1S+FBesWSAa/qP2viEIFu2c0/Bl3Hik6ocD3BR0zgSBJfcrpsqQXDmkUm412/eTQUfY8cjFLZwVZPe2jjEKr27KtHjak78Uc1xRza5q/B4Ce6wwh4ua4Ne2rjDguK2GkDwwRv9Oc5Ei9sK5nm88UYVxwWuayMc05xhhc59dV3NnGHAxn1FGi/EGT/gvkoQvPDFLG++W9bsvoJ5jBe+sHqW4MI2yo4vTChuLNITX1DIbqzr4gsDnt1YP88Xn+DG+iO+sCS5sQbwxZqVD5t3Y2n/a/9r/2v/a/9r/2v/a/9r/2v/a/8XtkzhkZTkoixMSNY3A1XFqBwqJ2WpLFLFT7aYJbSHsq6sk7eS8bUgC2KL+x40KFUWIZeU8mLQTKA0wBzWVr9RWUEZXwoh7RbPHWSVQQVLwjAfQK4c1R6XZfUrldMW+0wQOz3/VpQye6SwTlAMKmpP4D3iKF+wvY0BY04Aj9XohEKcz+Rql2j3m98ANuazzEVqdxHX5Wd6jwGewO2+38la7zfZtirg4ThysQHurcf32v8euVOxmtgrtBauyxEu2ro5xDYt36gmiOl8egqZxa89Qr/m4WEzJXI9T7wK9UJvKQk/x9rp6t77ubehLyPeDv22n310897G2vCrgnEURrp87fs83WbEDbNamEBmNGlcmtQRezUzgdhK+24sGnx+pZqzCqr12zZjVZHhg2yyS3b5UKzGrz1Q39MAtpc10C/VLnk7p2HkuSLWfku47uLip7Q3xXdJeOnhHrmDMI7xy5HldakBZKrFVwuDFZxQiy2BcIZXVY1Qr8ZLxF2OVMz0sDzjxCqMK51MUctv2DbhEcudIZ+JE6YNzlYgi1iN9lh9bwOYB1fCe/1AmRh5lbARwDL6FeJSpyFVe9+/pF5DUT9hOxr9E29RSP1CmVTR+71dHXGMKjZ/YkXOYllbm/ivFkY21NCdxZXkGG979b/oAxeRWzoz7V7Mpeo8OVJvkCME2/OoizgWPmhsmhYxWnFVcVnKwuJKUrD1YfxJWR6GxFYleg9meELtEsH/wymUGHl3+uW685J3MtbzOfrzOdz5GOP5HPP58cl3ue4PO3IDxypjymjz1ssw8vMZc8BqYu1rPuorTq5lloSZXTps6LEB96IvdWovb/q8fPMpBeqDILHKWe1KSpZZ4YssZcz8vcYAUwXe9RTiMLET3NezzKy83P6/5os7gTzdOu81mFatiz3qvP2xAfD9/kd9fryTqwtO51nSLY4pysPWxjhD68IKYLUwTq3xkSGhe0Lib4+G2BwnIH/DCb1oyXmrhqU7aByUWqIhs+iPoJliWCxyy9ZZuPl8QJr2GZ7DVEEDMwwi/NT+f+AEmIFtgQxPntKfBgBKQ+h/9mbKq/vYjikJUQ5SMCK0CCOOEaFFGAqGQkmlFKElEggrDZm7AkCLAOAYSCgjKehLPflez3g7ACckQurZIm1vfPcxi6zEIo7+nB9W1eXoak/PNircByBBdE26nsYwVrj30wK4juB/uYb0TpK6XPU9Nu00IBCVowG9MVMsczPP2xHu5uTzT7GZZMcYecABQMkQryWWCZoEN4NfE1wnvMxb+EAYKiWpnDwn3Ay/ee/D3Yy/M9eaHwgjQjLh3zfZzmw7fnIq9kFMujPBddnkobj7vIQayb33qW0mVLs+JyiFjIjLSxd3soDJzPavwoAsJgNw0tGfxGT7xHOR/9UbNjcAQA1zOJJ8n1HYuDuQkljENSXlVsLU0G62DjYZAPiK/juwRxIOWuAMwq3D/0Z6y7SfabWjtWggBBEwaFE1aCDXr5We5QisWAe916F2BrnPuRIA5ORN9/Dee93HyNeplzmbqZuRN/28txjvY4FCqOSptnHfa9x7f91TXe5k2s0om37vI+Z9mbchInhbA99j8OuYO2cDteeIuwa797735SWD2piOcS4L02xEk6q6BGIjvIjxc20HYqxqpogCgIzYmolkRsmGPKeEfCsbuqdiX0C5gFi8vRU79SZ7tcUO3Bbxfjjd9P8CzQBxSKy7J/Y2gFUlkb5ru1piRbhiTU5AHG3LyRh4wrVZANcI/i+cRWpZkJcOGBgbIiAUBHe3uYtbFscxPBLChICQzlcAoMQcy95pGR/dNs8pyq6vr8tCf/c+X1Ilzjj3uGcN0AWei9PmEp0w0BXKgO99tiuEACDQ7lOGhKDKMWJweEgNTbUI1Uq0z5/b8ueiR4PO2MIxaujULYx01Fkt786vWiAUApBy/b6P+di6ZkNbEUjJ0kGcWRp9jfGBUSAlELwSz1Kf2c3AafYEAGQ3dgEuwJmr3JUqsMwTu9aD8/Y6PPqINLsjaegQvWt0VTO8vu5hWuGMnC+CfyC1zKmmLpvpGYg3VIMZl9JZ7haCI+Sglq+Yw+2Urlw22pnBpqPO67Dz2rq1JTVdh3rNniI5Iv7ruTYsG00HPox63o/8vLV1LK5Fz5qgS8YkADhGaCDhJlXgxqEAGHJIz597Hv3rTTVC/QwRiOlMhn4mUb8wdL7JUOyh/v7BAsA4Z053fWaOdrsNV/1wuZPPrBVqY6mL/2UIxFSYCXTlA7djb1GE+Mrh3PVbYDlI7bLdWp49nBUOhk61Hmf8cB14j9+lLUKdsCxMwf9XWsXzrCrF72SnkUAVw3f6eecitCMkfGlGpLSg3d/skeet7bHJmZYng5+PQU9twi8LGa8RmW41JweV7X0Y+XlvzzY5ackOMnvI8+bBJ1lyghVSJxjtJDsGNWamo9oHaiEwzJ/PtBpfr/OA2WYt7DRfARjrXBN9xwoj1yP/+QijQKdgZX6mkmkFKs8YlhAIdjr/XNhyQTub3/8PZ7JUEXMILDlM2nF2Yh8dmmmJ2eQzM9RguR4JYo87Jkm3Tch65lq5wAvnhJSYW1I4YJCGlYD9zsVJdUZKdPZFo20aTWmHEx4AQBvS6fGg59U4p8jyhGfMownpcmABoAXpylOXtjM0QxmpIRWdFXa6YKd1AAIAsnoxK8T4HNtfdUrdXhWBR2VNFVY0TtwyAGjT49zy3NHQaH+v3XEmokBGUsBK9dC9mpjRmziXkZM0A8t8M9q4oWfGRkFyZDEpMqLYnj24xh5tl3Kka2CVCN9+cSnRVY9YyweSajgM+1wEVVr2s1gHo6Wg7mmY/nm7vdYnDEDT3HBwyoA6xjjt8zraeWv9hEhvkfM39uowicT0wkCU4JtPRkea2SGT5IKwBjiRg3KrbzGIyhCkSq7dsZ/X7hq5W3OiRAGxNe+7tJ0YkObYcC4rC8VkrRTRQHt5POCju+BUhqLSdg5ZbU7tS3n7DbSRFlEMBy1U4XwVLlLy+CUJozKVyLco4aPAkVJA4E6+YwjP804olAcFBQICsMFBWT5xmWWh0tDDCaRfabF2TWvtiF6aAkDLrujfw6bTUtM5AC5xyden4hpvvNs9AJAU/uJ9gZQgwMaZ99SdmGK7g744m6GqrIFVnqwz0DaJh2CqHJ62qkv0faueZugxl+kl+IwdYeLcalEttCKkwpASD3TQg9gSiewql9A6RqVKCU1MeKig47/0c++zNjnTDiGH2GYnQgrvoXf1de8zN9kY24ATW2JePRc3f+i7zQ9UgVxZqVbbVD5jHgsgpOn955pkZo+lZrr/ubUSjZsobR2HhxCKX/+tHfOvDgY/HJzP5FriTTrF340Thdc+3Ci10QWVjjjmfZyCgrWVDkrGdKr7ZlrAY3/sUmI/pxCOsE5GkqvZminDdUmrTWnD5koOHn++ZYhrzHuPdY+RrvfDnACMyGdo5yQXkVdIXIa86f7eursvI94stO4FMNIzS7jp6RjS7ecG6hifG+3A1kC7GbO5cABQxd5Jt+/DSMubyPiTDXfq6/toZM8lMpkClhIFMrIU3ObBt/Eq9nM+AwIrYUpst0cFXHD8I1iKiEWKh7/gH/ogTvjadtOQU4sqLEhdoaO0aslVaQlcDlZxhFWHKqTFxj+fsU4c6EV8S1iRFWLKtbd7xLjHRKstIUIAGMUg09hHG2JO2NLfIgtO1fS+L928j4Q3xQgtNZPcV+GbVz8ZL6jAddQqx2xqtT8BIDIuL0PPHOtGLiVkXzApnGqsZWXs064+BpKCgPDNAnM5zVM2bP+EcD5bTMaKo7XvPV0TZwBV6GLbjz1/hB3hqYax1XPo48CgF3iGWuCabaXEhm0c8gzZ0i4lKJstVNHeCeOw0qI1IN4w+bz2PDZ6LoawlxWqOztd7/DXAe61OgEIHdCHe5rz+twbY5eq6qqehpgnR9/V9z02YhnHcMyrovoKXBTq0esBLdhXDAAjqG0igjqJLU1u5j+zHM0MpnTnndqP8xC69YQ4WzGA5E7murkJtDec1xkNZQoosEB9OrR9KDUk+q9l5+gTQhZIi632L6F+bdlxyjh6wkGTN/iNuUZKqE3KqhYzyA4S3HpV1WoDtVFImwXCzcQcxpzv4873MZ+P3t2R2VahBqHNnJtxLgDAAh/83xvj+Rjn+RhrXuNN6568g9sOLfM1Y94BAUpuIjSvioNibMLGEApD/a+2t4CY2TRsJQmHqoRQCABsDFjpbWWyf8UikzW/ZedO9zQfhHYhwDcLwM42zlNv1g1ntCxz9hY4eo49TCcwwO7r9u4BwH/jXxGMwtaJFoV50afDPUgrAj7Ez3r/Fg8JFmdOwnU0MPxEapRs6FlNs2OcjPd8xj8fu9rifgsX0wpqJRuK/vXdTROe78M9r5rIxyC4YJ4UAM9s5nsShyomv8MvvKSoTLZ2zw2ktCR4O6AWCKsNUQEwlYWCVeKEdrjTn0MAykgyJ7vRp1Wbgv1kxPnMkTJLoRlP9l3ogkRjsCIUCcFsLPTIIBzQndPbYHNN3RMmwuSdbCutqJO6HctUgXmWymL2ftFccsIjsaOypSQEwKZuCgYA/M8Z3V1VHY1d2b1AAIANbIqiAODbnMQ8lr1kTnJ+AJ+mqCrdy9SISVNyhbpS6NGouCSU+BD7+oqRWcL5gCI8AGTm6rMrRDfvApaiDOOEtpfahZYIIHyzUJY4roFp+gQEzmfLWU+piQS+si2Silt99sLJ6jh8zT/KFh3t1MuCvDhgJYmRvZ3YKe6rzYRbuH+FtDWgIWe9HzodnX6lYDBDpiuB2eUamhwkJbJcfKY4+9LNfZgiEQGCGBpbbw12hRxh0/N76/q9/zWEAaBEKZVYixQFEKrW4pFvMXOLyjwn23VMlkIVm4FBv0douhjMOWk7xCyCQ54VX+vBFtLQwEHnkmQzi0Lr2E8IVQ7RXfrvWUsV1WqbwW5eu+cqBQCSQRbcXPFG9dhwVitmxHYyY/QV2pHbkBQD/uGY2hmTPeRsh5sx0gTtB+s/2BNt3YEeYUS5bBXbMEHZBOPqVzH2uAg0YwCQRWZuVI+uF8x0XiHNyZ5f60Rgzm3392t4fa9dnYk3i6Jqr+/XDGw2BE74/GqISLyNud+C4RU7nstAZwBAbqVTG+FoO7mnTQD8aV18Xxxg56nIPCetbgHkxvjOsYKqjAJ5sZv3MCNFdWWIeW/MUmTN3u+RtfAdXnvm5yOCgOlpH3NcQ6puTfi816kQHYrhibuB/RdjWBCB1riAaqudhoCmJ3Be69dvJoGRskpXe7uSMTL8KsPRjFHcuyL79zm6MUJ1SYzq8Mtdkh7kkHuO06Ax7+UZ+5o2k0xcgRKxmRnoe4w8aYnUvEjiyYyc+3qaaD+u4I7Uysa6X9JljXXaO9MFE0JZa5pySdRerujD7XQ2DnwugF8P92vKCIrPst1jdFdo48uX1GRiJ83EAG+iIz0PgNpoK+3pMcSk3CA/97bxt/LOnrOfyUoM1HdfChmZrTXAe9uknF+nQ8tj6Hohs0zaJNrkIuWzk1iz+xwALNT0fh8GtOzn7d7dnHsD+uHezVua4p/3KXUYQgDIyOKTnETfmjFNmZoy4qwG+pELL85Gxt+hk2xfOO/ZR1xLAMNSajJczZU8O8cB27KT64Chn28CL06UMS7sQ4RRTAy9/FzXsNC9tlOH2+u0dtOG1LBw9H2/BRR7mUExFHLNjpmXI/QxT9ThjH9+NVQwJOkSb78IiS68TEMITXjEWu4zR/fJDX9cTxVCITLSQ3T5ud8/Q6g8o64HNVONazo1KSG9UhCGfKYJdzZTJfevQnCqgVU/ek3P83/ZUZ/3MgAc8L3PtNm9eqWf8oyCukvOklrlaRw8EwQg4cd3cP36b7sZBIEUrUBmoYJ+gNFsb5UysnyWwK2mJ1qoDJk5gBHkfu73YFK7MnHzeJxWtaZOjSkMDIBm2DJv4YXCzcw8jSmkTCv2dOdn8LeyO5sb19jZW0URHjhmt1vwt8KZn1+jKMCQBXcPdr+dfUsXGtxURaHYlUZm4p+/hkYADFksBt5v79G1uCA5ArVYK582AEP+eT+qjIDIQtMEf9+Hcv0WpTVAX13sJ/YSL7pkd/R9uaCJHB0AGILfYKxd1f2FITDCSlSMR8mWh9/0qko5AFsy1M2szXVzne8sNNzgOewrPVXaFCIA80+Wg30u2KXojJDmSfcHkxLJKQgrZV/QqIryKakDYkBWyAIoSq1tKhhBbb0kGI1mfB/tWBNPENM7+jq3W2OjmhJB+6k0Z92lAMgo54EXi0rqT9d5tzNJ+vM3r9ROXNVJVOygNmAgU8Cxl24MfJ9B/OfXFwHRPDDz7efKn1Zy1zegiWGz9UnLM6pIsxA1hq+/UFjBzVTcNRBcolVsDVxBABBZtDrRr/81uWvpmYsL6A3Ujp1GvTS/Hml3rllfMoQRAcNF5CgztxYtZc+sDKSBIpJ0eNIgJQwB4KFAimXq1kqx95ndz6obwxJbm2GVaBIAu5lqg8RbU5oukOoq/2e+FaVmjTL2nUKh5/IEHzSedCpGA3HkSFgSeP4HneeLj4QUlrER97Ewd+870bzJPlQta6gft6zSMDAAPxl8oTdQUIqvi1Odg68+G1YDZASOlf3/MoAwRASoeOZD+FTbMQBdZCHpNW9khNb2D9cXfcpCLMGfBsZislXl0pBVG/rvB4AaLMTaEEtqQvasHLhqzBCIZQiwozkxRpXYzxDnUxFACgJQNbtAOQhkRBoGMYxoAlL2zf50ArInTQhxvZQAgvq+AIKw6pkIAwiGgdB7qBfAu2EAxUIZUBI4moCgAIxA4ViuqQkABKIsVju9gAIACKSZRApSqxSeezQeBJCAHAdhSLPUoT6LYi/5AhSD2r1ShSxsD1Gr45kcKXwe8r4X6XmAnGlg14+zHvWZslz4QGQd1+t5jNybX2wHVXKVlerTHAQ+EakR4gbtWllaSTYnVCllreo5fA18JvJTQ/pN9EPPkrCsvNyoYQD+M+cblRPIwociZdD4dcQBMdqYKqWBXJApyGepd8BX8B6y8LE4CEAVOXv7P17asJyZBqyBNebDJyNZ9Od/7X/tf+3/e+1/7X/tf+1/vXl6/atETzwq1FmobKgmghQpJvn+dfWn+uEFjOHfvaIQSBjF29oYqBSUI4G1Yto2Az368BfRDpG06vdL6g+7LICEWYpK0HDbZdu4HdjGbW349cB4QEzRh1e796ZynhqSfJkYXbxFbyWeTo2ODlNDqm8dTTyMWFoxTd+nhnTvlQpPIJ0stQVSfuu4ShjReb4SZEj6nieKZP7xhIBqeLIias5oLkBiS0qMtt83FGoITzxvAzVq8WCQ3H9oVLRfl/ft1/5Qryq8uxU+pN9hPdg4+5EHgxS/DeBpriEczKUSPNRVENQwNvvym4U0Pxf0NB1h3O3WK6GTJgmwr/sDIdU3nAALmz0BkUOygL1gcd2Q7O+2g4UfEjjNaVYf1AD5vp9i3e0DihuCw3oYHft1eQ0k/NEv7/koRrkYQ4gbmjmAeVD7NR0y3t1eaEMojK4yooY479bD6FV0QMrvGK5i5B5G1FCyB3NUBkj6u6waQmG/U6KGOjvGBXfIene7UUZrRszQO9+U9TD+EtL+UTLwc2KGTqND6CLUIe/d7SoYj/mYD+MJGMJXxiog8Q/VYHif22tdm+u2NuS69jCeaPkExtYzyHxfxzicl/Y911S8rXlihWhmbFbm6wgLwPNf064IobIexlwKme9uG2oA3Oc1eQKFfQkyH+62RvCGXA+sXry4DXNDr2svrngA7vPFVQ+4z96E6gHv7Kkecq+vesClvbjqAb+XUT3kjlH1gN/LqB5yx6h6wM8pH1ozqgfsj1A+lFnKhxNUPlya8iGjfMgpH7T/tf+1//vzv/a/9r/2/71CpAcEkJvkC4AuwBjAErKXw7CWRAxgOfNcPkXhXX4BZko563QMTdPFaQA8MMVe79Hme2/9Pvp+D8tkpUeLsI4imGxt5b23e68dvvdkWYUBwxSnaRoMCKZpWvs8t3dv7d1jQQKmMK4B51D23cqNGoGDmvQ4kWuTs6IIlHInsMB+7tH1fcS+Rzf3/nrNEMCQmynKO3Adr4xYIPVjxV+vZVfGJoZ/Pq7fMVg0+723PGmdqZl4974LAZlh6ejeY7+3WHt0de9zFgIskfHea460wqWz3/d6flIY10G3o5kU22EbuRUVRC0NOHmTOsAhIsIJvRYicy7z5FzrfLgRUGmZRZ9qaDEDSJN8lJq9af29ZUgt9bAezhzJOCrl4qGv6man06ZPAOnIrOM8OO/tbOutAkiZrtt5GmqeSFUhegqVyEdlt9RFuK4KEoQqC41EGReT2DDheW9GGCI1LjGI4xliEDVAFvAJrOaF4Dp+cx+pua19uKYRQiUVA0ffcn7jxfKpd9gKQDuCvq1haIKqVgCoDXAytvpFw6LI0hhGOO+5yQCYAszF+pTPd1tRknX4hBdCh3irVXWXP8OatHed6defNw8nLQpuhDRg+xvi3tvduzVE+ziDAr3Naf/7mOLGzhhkX9OIIwAIFcAFALRmezo70c56etnvab1W5I6WwHSYFlNHhiiJwrEZG2zN1MPOn1xX2Y+/AqbfvVlNAZBctaVZE59PFXQSSrp+3SV5ejcKa9NsgUUHwhHnbYliGndQ9wCJaVVlkjVvKMz4SCDqeos1a+o5OoZjCsuqRXctjQ0AGK+F8r4ZtbUdBkYx4/OjEeN0BKX+UTi90lGE8W7SAmCIJFwC8rQACIEAeKQcRwlmMxYAI6V1uJjkxEYhWrJG8tr1+6Tq8oZZ9HVWL6MIQ+CXheTabYzlAs8K2xnOHMQBmnXMRbIXrnlRtiZ0DWJEaBYOkCNyO7mWqkGd6w9h9gAYIsExIjrIEkujh0dIdu2uUqBZEZfM+HOqqEugjCCQVF42c3FAnrj43AH8MpUc+JBsqzd8bXevhMth+swepFh6kgGXhWXibvzEZaw/6tne4ktdPoCrmaEAg17fX2Yn+gDzaG8y8vkUgd+cOc2yOOHVokqQerVt2tlZWgDHjrcZvrT/3l5Uc/cpPh8QZf3mZmZ892Kky++1qMBhPdp4n9qedKz1GsIQMYyW852HWafM9QJgh229T51KjHMxBIYAWLG0/x5fv/33YQ2RoKKPJMhSOrsP09xwo7qGWea7Fv7AXd2jqfdpsPuka1gUu/dt3mt771NLe+1nb8i2u8PvP7X9PrX/Pl9tm+9TkhRzLR3fW9vvLxdo/31qrvulu5skHPnul7IHzGtTszZmwZCq8fY+83aDnRi4yRkLvPNmZ0Y6n7UDQySzRpVFDcBreAaABw8ssO97m3G5gX0AuMn5OPay+kjbPmcIxGqBGfZyn6fP4EYXALeqQ62dvb+M+/zxZYT1CKDiVhroG+BLIDEJUDUBalRtATjaznuU+MYEYIhaBKimAJjaZzU668xqcFDVBXaLWXh3vlrMlY/13p99kUtquNvRSjCAGWmdPdbzJ2HIXt3ca9LtAb50JTskRIf60vc+DMz6/FcoyhCJAlSUJb68BKCo1O17/R0PuB4HrFR5d+ZSpd/VgcNsxl1iT8SQEkNc7vhKv4ed4+sT4BnBPKuu3l9men5wHYZA4fo1z+DrC0eqgLc3j1wA4Gw3uvMDGTkIY4EbWcxUh+8fcVHirQWpkw9USzB2EMA+g2YmcEd7Rb+3lLUMqsacGXgE0Md9nrSEo/AzxUi0rlm3tkJNQ3YtJjTX1eJMonlTRUh5wvXqfxwUV3zyaJPjZdq9AKm+7urlx71nLjwqFVyS79YEK/zIgR2zyByXK0YHgxVjmNuzEzhtoElf+/jfoxgOVYJWx8a0UW086qZAa7NCoBf0IDVZbkuRB5eMzeGiE23MuJqUa2kYMQlvh10MHJBdhj0/uhLg/F29vwQ2AX6esSZ9jBvAZfoY5sKPS9EmOH+2pkq5VC6WcOXB/VOJ/K6YMvD0UsDCS6/d+LhlhczMwttOZ8QQnqvWwJMOZ3SoZ+IY7D5bwpmYYM6M21T4SJyo2ljzOsPzx4jzXrYyPEOYKc/nVOdzjvMx9PkBhKTRzLGI78mSEoo020y7Azm4cERtkLqaCEfybVsZrQgEbUsnX0yeMy9aEEDKauCsz4+wAPR2n2fKw3HanmSgM1ByAZh2+//qAZu33gjkkKqAdj9kXnOZ2/rthzyfCgDNTr72uLk51CA7gVg7qJxg3u8B0IcOzCLZw73W8laF7ebZ9jtluOgkBLAmSjmIsNIsyxKwz7h6SeZS/4WfyPmrMYpNW53ZwNXkTydotf8+BMINr9zErJbQdvwZsiL2JYOdAU7QzvuLOdEAC6wLZnh+HARRptv3lySkghX+tNf1qqTz5uNNQJuiZuUBRJ//Jkq5irORuPy1SaeDGYg2o33f69Tbx874L7rYYmk49WZyAJuBuvGZX+MRQg2WzycJwPORXQ6VK7TgwN3su20tbm7GCzWjigChr7Mpnfj82Bx4P3HuTRHwF7QzM9R8XuGkAIjPsLdzZAUvo8yXkDprCJdCxU1N0bh+uUnj+HK4MWIYrqvDCWEIALQvqqSWt3dVMwiGTubIUk2oVSAgb3uR3WCQdpu9qiF2b2SmPi3MidkVYpkLNz0Z4XzWpFnMEP3dZ83gOUwJXxeIFuUTf+AEm0qJIaiYKtKUW82Wd2/UzldVHH0szQDcKgavKpIDAtHaZjq/t2NWY23AnKAAb33mc9LbVl6CAcGiJB9xZYo0T30ZdxMxxkoqwfAgmOPLcMAYhzqf3SgHGAKMffuTBTWE+JUlFNAAopRf2NxIiSDpMgKTZjmZrfHUiLdj6BJSOJJjioO6eHEX8EilkxRo0cyfXZlTA2vy7ZVRdqlYFx76tI0JiKvJAQXQy6FRapmqs0xrgve8dV/ceednhplPiI5eHnUwIDwsV0mMaP6ZW5IOQ0ZcR7nlGX0gxALNHB8tPBM5jEiEk4phOJ0AsEnDWoBVaMO8W3JQ1kibyLx7qd01iSU0amozKLyZdmmlNjAAGHIdY3lXdK0DJ5+PxmcYAkxTBrhPZdiqTZouJ69Qkvzm1UmHLERGXrRMGSY/nK5ebUCeWu3OjS8Y/b7/9DsQSTht03aDhmovU0c1IGgX2wcFevOqPpdajJqTeDeSBh9ZptIHYgtz4gIxMwCQZ3cbe69ahpy2uc5Jf/0XC+AJ9nKv26piLowhw54/IDnNSgOzXWxTC2grjKwDDO9FBwEoTgqJHZybhRCISKZtjiwPgdm1ZgHXkDYIF4F/cvSYn7kcrMj/3KyiMOnR1/e1B5TG7fHO5wdiCLJE+/f6DNTIgSGcGc5nKRGGmNTqgU01AjdIs/IJNJVx0YBh5uPVAWDICgEiCcGbqOUPKOV4E8fwZexJ+f2crmRJALzqJm7LX4dRbmkc08ZprxuHfe+jFi5lXtt5n3K5isGi1jVr+vPpA9Cx7nWBLE8u9j8NPh9gCGARXd7ry9wjEDHUgYdblopD5Vdf0KvXpgAYsvEc2xKQuMJS+RWjTwA55ou5c0OGOLSbnlWaIU51jJO6gVTfBAAjgrZmziSgalBupLvz1J3h25aisOlJs5/3KYThorD+DAmeP7tSALMsPewtJMrpv6e7s3ob9BC42ED3OldotU969w2HgYFUd+5jb/yEKprGf/+CAPIKe7/PJw7iSObrM9heEy6d6fl2fBB/EPFFLa7T6gQETq1vDKo9hU9OMko5bq5qWQnFDdevlQhrTsqxFS/xbAqf4mOH79MyWJxYYGiY7flDDwCXWPf6ZkJRt1r379eoywmvuXffm4sZIgSQM16QFjBEGggZ1oYQDfOL9HJvzVouyYIz50aGBhLLHdBLA4e7jaCd3tumWXaX0KYeuPddzdRH4fShnCCzqsPXf6zttm3d27QJSjVoA64O8GRhXH+qfQqb2tN9lm3cvR8OJk/t58x/KgSQi3X2Pj3ToA67p5WpzO6p7lRj18uN0bWDCQik2tmkDj3mUy5da/Yk2HPjq7JgJHEgOvTXWKSc70n6XUnTUUUldqkT+h+glDuZT1PGOhj46oMFZq1JCBWaG8POqgTAL5DTgoPCmpn9T0E7oKAqKcA41C73lnT7ezCfwmvm589wBjSbZ3cfe52T0af6ANE98zq7dzN5rSyAPV0EVAAOeAqhAUBcTsE1pxAoQNeu8y0x9jjB8RQ1OQCXfLU+6Pq5DHPrz0WX4gCK+p2UtgMhDDmfQzYz7Q6BasCAsa05XA90vPNxTloOCLXD9+FCF6dFhPYUtEdxBgDtcgq6uIOKlMQTb1Uzk+p7wlPbWWl3Jarw5vlZAwAr/EkeaOFN3iqL/VjLxW5GSKmAhbKbe9WAAHlO6ZMMfAZgCB+f1UzLkpWHNMOSgBb0kzcxQ2gWUDMd3LudqbX/wdwIaQBhFjkY/y4NsGh5kqaMui5UCIM91V0dn8vg83Hnt61f3exnNgbAatRytbzKbrjBkZcpFnOi2GT/cw40dj9TBSyAd7qbSqqiA91fxEM4u9Y7tR9oAFtyyclrOYQgRDiGrjb2+TG4b4GphVO9kkvVl0lF2qeeQgD8mjGXYgprKjHueSvGdYrCEMXhBF5csnVxTWroEEAIBGUzx2fM1bZ0BTdnPedVCMAC0IUpz6d9m+Nw2iokmAHQ69TcxcLFgAJgOFif0BnztnKlQA1pZFMHklMbVa4LAloegFad8PnDps1xHSOggu8g421l2L3LFcKaCOxzgmYBoC57WjcUDfAE8NzN89kX5cR5AYSz+XJ7Dimpag4CAFYA57vTOZ4/Zz0fY5wfo5yP6c7njM8fl6dCXXodDJhdbx5cLKxJGcRAlCEUDIHTkuD01Dg1ANB65ioAQLMgcrCRFJRMIAhjAEApB8ccHtrBqQEPxc39PKBkAUBZ4qyg9lgjrAChFQwBG1yB6wM1C1T5aK1qWyaaOSsrZopiXVly8UcSWVF4MxdASVCAs6BkITkBpRziFXCkHOIVoCRwyk9hh/gYP+gVQFu3P9CWhTmtarXd3W+37+Ot9r7PArozFy2xTqeDGdyLGVdwPt4dz7mUXL1krb+n+0kV5l7MsHiWvVKpAKZqNuxhEmMG5F7IQL+7/HHM+3e567zE2Qc/P+CBeyEjO7BM+vwxyJmXOMLzX9Oez5meP7sTllHcixmySWj/a/9r/2v/a/9r/2v/a/9r/2v/a/9r/2v/a/9r/2v/a//fa/9r/2v/T1ktVeSknBHVYgoJGLIMNfJGSvhgoKI4Ig6671hMVb8/EAqRWzGIdh+2QeniY2HT+nU8/2b3yITK8mHop8I+6/ekVm3sQD4Ucg/Sc0cayacMLBKCLGiuLIj9kLvhM4FmtIccR/7DI8fF+ZUhfVZWtycwAM2HjQ58ItJhyAqZkkSojY6rfZWsAWy/m4v3RQMcIxSCIl7bK1RcpwFK1nDWIic8d9m9h4e9ZZCVUu8piTnM0B7sfun1/Y/u7r/39H4ZYL9Mcs8cFFA6iizQDHjvtVwSXWMcV/OqUSQjO/1kpbrXYZqasDPirAby1BCqXALwNYVm6LxbS1GrurPuoB6M7MBZqxz13DX08LA9vzFVvCZfrHb7fhnk/TJnXRpy5/KwYD1yu6v3y9RtyBnHYJZL1aNWn5q14wardT3Z6TRNtZNqvlxjBGc7UEdn0baIt1CIuGV1ar0BDVUHhbuAWgvbKHY6f3NpGReltTxqBYOAcICWW5vbFeSpGJ6c8dyjMWVgHn50AGWFAsyAsnxvzbG71/slR72Sq9ensA35g6o4xLtHvSeIo9a2i7KfQr9+VqzG/fuMRvfar4itytzlvNhn/5l3J3LHZCkgdimZkF1UyylnP1OSY3ZXN+Qi4ZxenUNlREpvsuZvdoDscwYJxO5p9uFo9OFhUQE9JXe1CCrqrlmhmnxmvMEgbQyx5wZnMsuGnSHnt0Tn15HPr605+VUeQsfbPcNuOLr7w5B3Mje6+tA8V+O6jTHZOxqSi5y8SfwlghqzSAcp2Y8wiEkG87K/uLscgIxkklGlpGo9Ve2uhjFkp+VclqNLwdl02EYzp47r8oaUv/myTOEAVJhg2hiedokY+QJYdCR7Ki5c68tX5v7XWN1R9kf3pAVIl9tNeYF4jb7nNfuYasxzGfX89oHqnWl61hDnt/jnNwd00TfjtPOGY+jLjzGvJkYXqinlq23N2c8LGqKFCa/dzCUUAkAynYxq0CssPMuKPhcAIPtPqxn7qTPr/bVtWiHeADLp+NayU90x0dgkmpGW9Cn2ag/4AliUlq3SKqNljThgAql02Rpzfd6RCwEWUMAX0wtYaPt/6otxtDvT8yxfJYAv3stcbnqD3MsrcgyLrxAcgKJYTdvSZKA7WkFtpte5aEFJjgEQDWfT2aCC2Z7pKihTcK7I1jMW2J624YDyimNwfgUbEzF7m4u3s5SG7ns8Naw6ROahnYQfe8nAxr6t1y3NLXAPtUJFasv7emFB6lBtSDDtyQsgB4BOZtVv7lzDJNnywRFAdUEwgdRXRCmHAD+W8dYiL1SqwlfAubmGQikHc9P5nOsOREtpG08wBIBSSI+lPOKeFGLKWsYJyzIS2NS8deklQ5pXF8fY4SEm+RYNxt/l5KTQLhe9W6FYQrQohhoQbYhoU4HwjZFS0IsYT3Ky3ufiTYWEnMl1R9/BZgUhzlLEoXIoS1ri63Rw22uOAQBOeLNbnPDFDActIKgsmm/blV+IvnNgM3M5ANSubZ513NVXhFTVMaeNdx/5s2pqpmEKQAhyJNnMQpZd+cTLf9fAdLpNWwPX0DwEwMix5DpTk570fI8L+28Z8z7a5Wc7J8VoFpAnYXV+X0jc9xjpvG5HRcff1fH+czvvfcqGiLnYWDtd3SPWfcS7997fa3f3Eeu9jXXNEwBDwWCjGXfmL0ZZsZYmDahLup7WY8GQQrfQNbrrROTGIbbYZY1FyLabRWE05IavYIE9Ow0QiP346UQNOPiPHOosRdxaCasMaKI9hgseXYIHHv3R/6E9krWtgpqwQhXeVumxbaV6Xa6eTc+C+GiuN09b1n/OMVaYJcuaJB8BgNhuh2tN12VHVfL898euroPuI859jHK+7wMAxAGGv3Nf/QPK+mFX1yH721jvMcrzugdDgHy7b0s1Pm9xUPtli8+ZOc0T1LOtnb3HuGtOfF1GeEc5YllmvLXTfZmjARFRkqW3g+w/r0B02/uXZXioGfsft1fPG0Khu0xrBgBkhGodE3p1qo4WpUjrrONqiH16OZ8456sX6blruSVuU6a2U5e7DwqIxpIBo2VXkV5mW2rxzLUCKCcl166s9aL0rlFRgtAR1PFaPcciNI7g5errfc4rNSYAMCxr6l3Xnx+LRRV99VqxmOIlUpW+7mPs87orACS4mWQTwthSPqmLbmdPM+azPOVj6Ose45w3LQAQoBU8U41jxHDJVyn2OdWoiBAw2WbgPfwMwZzsV4/UMaNqbGspmxjwvd4IB5QA5LfZW/9stmx32iqRVA03vbeBKs/5CwY5uzM3QwrVCEQJqJOBjW5z1rCGIh/b1qiYRkksAuQwxmLRqYq6cykVFJ2v7DMVKGNJ6Wxjn5roBB2+YjI6LlejJ41IcNM2IpM9a9Ztw1ZKlGV5g12Zg/gdUEGCc4XBc6uZbO0LO0LCRZpZdvaoFM7GmT5mDTh3VjLarsVKCJq0mXRXrCmAFMuMrRBaNqT25G58Uk1Ic5Cxd+bdHC/VOsFOr7MhbYakzFE2+sANr15mj3++j33eEp7XvTocjJ1LbjPUroxEDgBjrkY1GFhgG9Nu3GGVh89/kdYoO+aEByUmeX6/PArtiyhEiiys800ua651uD40hVlcj2CmjWjflYnOM1kWLqIG7vsGJfVpyySYca5ykdLAapiybcRwQVEmDJqOedXZHRZNoKADj6w9DhzYCs3hjcqmdp1jrYphw1MCUhsy3rfhJ62k6wYP/PDh53s4BS6KinHvMe+6eppGACywYFnPAfXosPMWWQDc3FDz1sces+2oxbLpp4rSInwcpSF+lxl13mIPd6ClBvAoBzwMcFppZz4kWpUAjMitalW+ac9zsLMhuiTT0/uyu44Zdn5vfSjEU+QHY8vBvb/i4uyla7WL8JwOw1/Emn62c/Ey+ly02uPZvbVcPMrIVZzdLODZR3fduPMUqrjvWWnJ0aT2zewi8ozhVxmeJtuMkTB1i2joTumsOvwN7ttaKaZuU89mmT2MNWxGX5WVANpmMy45kJaSEDb1scIjDdfGEIAp3ff0D2yC81GyAIxRuVEr9m1yAADjHc89W6thWzcNgNSXipTbNX6P/g4NjaDs2LZpzck+v2KeCiBvzU9YKzP6+d60pVkAmOGN5aTxMQItXYiHFHYK9hPIT5/y6jur0p+/tVn/JER3+/oqVXNWqJrFCMRL1Qnc1nD2Nq0Ouv7eXr04H81Ziixcb8gS9XaipRelOq3wj0htPDRmDZoZeVFX2GEd11tkxU/o2JQZm+4cjJpDJNEADvW2CD8pES20j/VXLKaxNgBC/xsAGAJcVb7usiUP7gGAeNwjnHShZldrbHTSqoXYbj19aNs9XyoAbfUsejXdefb6bABQygHAQ1GIZ0OsnP129ibrXbaZmTAVMgLAntoqz2G+vvcN1BltzSUiOcf+/9zskBkDw83omv5d+zlHGaiEjJUiMbZN2384HVtSW3LpdmuyZ7jR5XvZ1iraTCN5Ii5qpXwgWQObVRxuuAkpJKXBqBg3KaE2tZ3Z5sP08rm/trrJugAPAYAAiIzs6jmh98+9d6yvrQWAAk56WKqtBjXPX4kVF3IS8z0yYcXlE8A9GZjltsc5UfudP8wZfLEaobrqsrfZ/8AT6YKRjmzvb75J0CoUAvxSJ+ISWWkLiGa6224LXLI+80oT0mUma5RbsA3nqIGGsMqTtWY7YZxf8JiGwYw9He7rLeJ8DJupQuFKaipdRkbSYQVUodAmoitCJbYhBEn4Djc9dKsqSqudGqWdhXzeFWZ6/rnG+rlGc+qqdWE4owqgbjW/14oaVF9z7/94+sGjdUZy1Q1fNMBJ+FGR6Og1j7NzIFVAJXPiaYrGyAFgyw5k4HsLoUUtzTYN4iP5gFHQEFYTaNgxbXMcy/YFc+riYlW3ycAesbNP1zk5lWPAsiDWEtGJTnYsWQOQbWxWE4g1vcUUY34t5gyFavxW/Ed8XylwdTdeFUZe8auGdozYHYyohefnFq071GoJAbuKvShvM1KrtARmC0dpTVWJC0lHIAZOajPw53a7hlXXyeIkGmUhoefP7Wm1jaUgI5CtMdTvt36+jwyTUj4fZhLHbqann2s4p3Fte3+GcuDOBWldvCKX6NIFm6/KM1RCUKmHqiLzVQEoO5iOdp14LgK6HRcf4rVuE5ZGrq1jM+IrI4V4smK/MQC8wmkk5ahv8smMIuMYQM2M0mlCBVKuDbIjOAYAcdefmaNzNtV0LDRfZ7hZzlDIlFtRzOu0r8UjwwIufNBN03ZTBOXONs2pr4c9/sDa20ZkrZBbbhMOd9fIrOVsJxfHZCFyhzCEy0C6rHv9kMdMSpOYp8M+Uq6Xh5jKjDbT5efep2l9NwGI7NvkhUlmfqmV2iqunX1vIK2OpYHp/WkX5XAst3KU6nP29t6IUo0ejbhRAJYEX+5TAChKej8s7MxkljKWeNvebjI7RaM0/p/3PWSk0I6AMrBZb+QhO7yCVDRbrW0GUGt7CrRc6Fm1E1DLEXXWibc+ON8sOEdhrr/cTOnT05HOk3ESK+l/RneXj2UBGOxvlMHb9+R0rNBSK5WUsCuCKM9lAncE8fzMRXjkWLVNAqQEuSw47YuY4dKSWtPMJZd+MsFMqb+h/59bgr+fre4pIyDuwQxMTXqaTtLM3EQ2s30wONVA38csk3YDQFGA6xAxXyLuvVPp1aMJ2ybYhWfjJxYJCZ9/bWwABAzBSiYN/hbLax7Nhbp6oRxZPx3371sFrCYopBomBUzEiZK5ZwBsPFanw6Tk5j5iAP9jFt3e3DhHYfaNaBLmRDpk1FVq0GD4xnuJyATg3+OVBMMOaNd5HS7MiinJEnZd/ooK20ydYAhVJvz46sHHUAGpE+BQQCBmkEqnnzyx8o9lApno92s1AHIgMPt/h+wWznyXSUB3JhCdyJy9JiAwwgk5kZAd1FDZijXhAYWudPXehWpbw0OTtDUrCeChAEAg6pVtZhEyDZpMtCAHiQexaqGbu2xrjiFiuA4izAzb/5fxnPcKwD8YsQVNeiy7WYHY4hzOGq7TzVenn85RjpQlS82K3KWtp/H2wXAGHGUlAKTiSjYqzRo7IrUKijEDZWx7frHuI1d6vTwB8BDUCzd5F0MTXOsZpAegiAKsgYODB/tc55rRrrnpstIAglJGQMo3rbIhZ2bVT5o53mETBtA2XOJqTK1mgdpU87VdKXwMwQG3eNQlOUpFsyIKUBZRQHRZjfd5Wedam5WR/ryyhWpCnVszsLedHDo3qkAF7OYObvUFgJByPWqurJCHHc6Iy7g/S9ZQpYYu5yjl2uOSppna2c3ktzkAG2sxaJEtC7OtpJ+wC8b3Pfo+tFPD1gmaSIVnyNpVviGZ4hpMk7a+5EMXAgEYYhyzr2vnh3rZUai0BNR4Jo1mlK7QBwCKeLdvYv/cq/D1OsCpgskh6SYraJe4LgAIhO0Ye/ocQvsQzWcBCEUV2C0ttA0yLorMAzlzE4qA5uyLNIRFynJOZMoQEdYKZ1zqoZFnDgMBH3PEYiU8Z7NGRkQw6Oc+y4wGqZeO/vv1QoVqHJqVpo4LcUk2jRAyQpW2vj8tsDPBjUg9WKGIgyyIELvj6w6kRYqFqM5RwPtUmtFytOnUNf/37BVTKMdhnit2zfbZiVOmcn956wi48fY1xFxVmKyWLYXtbdgKENCRdm5aR5VycFEII+/kaIJIHtLqJIAh0kk209HPbd+cZjHTUsgIoMBy7X3dffTa4JgXEu9z3/51JbZtowiLDHDgNlqOLgCoArfSE56YqT4AwBI68YyBKUqBJgeNypjjCC9jPW8BSjkATH0ZZlObdvreBn8+GmGDHukya3OSOuoMv79vAdGjx/68LKP20PRkpN/ffQvVSCTCdf4eKzoTeqkZUH6YuUGtva+21gYiwWZNaJek50vG/hDNAIVs6kmutp4xlpYd7RlnKXzBG9FMvoGaybhpRxr1ceP/0GKr2HZt2fShVbsOS7MVj7ggNjj9XvZRlppQgi9rX4My4D7mWIPjskuf+5Ilrw0wydG6zNla2zTrou1OQSDdG+7ic3+IocyIk/RaNwIQyAKTCc8yQBsa0tRBgIik6++Rsx3ajDzzbhswAGq8pYRnXfL9hWXXVQEEceJ+bk83MH08vXyO/jByVVzr7DrB+C5PTqjq1OFfJmlCSioS9x79zY6oAOxw6s04zT2cMAh91wAPI5p8ePmH2Ob+7NvRoQDy1+HPmmOWXuSYiVN7baOQvdEaGjc9+XKdo2qGdqRZ3lwsYkeTyHzAZ181l7ZJghsRtArDgb2oO9OwZ4GWyFUhVCP2dJoaLru3rraQcJY6iHaJfgVLGvAmHQ92RbYaTsOXic5ow6zIhvCIo68S/sNEpSOHlLCBrPAVDexDn9Pu3ntOUiX1GuM+Brj3U9+/JddcWZxPuab/h2KQ9h6dkpHkg5u1e/rchzT1tTXMdSTVxR0NcP2SHeGaQPkO6nAaXq+11899sM+9IdSg5s7tL66+mpAN/9UgBoBrjIz7c/v6NZeFuD/XkGwuc0sP6ERR2ke7TQqG9PTY3Xv7Bc9wzz3co789jlHljl5ruizmYV3fcikAbQ7d7pHldu2z39yzuYr9mIUkhsyzyp99u4l/fd+9kM1dZ9aSMiF7vf0ysX/4EWwIXDefudu81PWqxpMo9W2CMqwzD52K/Z13nIsGdcaTWztHpjE/rLm9BcZwvSrnKVA2MtswH0CYKm0xAmFdOmE4mg9fAUNZOrTYBsvsR/n5GPdd3VMrs1FQyU+F/UIsNdJ5630fObZrery84gqf9U1ii/jPR4OUIdJCzPoLvY01uWS2ia3htBUazjbrvL8uzXcEgG5hWJ1slkH7cnOPX7+kYuNqp3o8nZjutxBtAhNMJsHz6elu2R3ioPf9jQ1WJ27yJwURQIWxnvd+7j35sp/LQqt9LcIGwgrmwZEBju1YAELQo0P7Pd49suvxhLLjwRz1LUZMpNSRf79GUxkpVJPLGiWLwzTsC67v/14Plil817/vRlqX6ZHZRkZE0KozK87eT65rfct2urY716jhVc/h3wU2gyU5xnkKa9SeqF+3AQDFpBRX4CS3W9S0JHfbcKcxlFRxnDDWJ6qfLEMJF7PZ19idJkP7tpuC2phNhnwtb/GCXAiRJS+OcV1gJ2+elRvFjVErmhqee+ucHCBwrIPcrbX5NusBEEiJQWGCyZyT+399/gohtVahvLnv2A4QlutA5jsATjJrdrrchEfUQMG+PyM9TafYIfJQRgChyvuJu5xQbo/1taWv8Nv3W2szHd/HxazQMgCAFUJwGON8JFoS5wrL0VRrgMedH9T40KVn0xPQPARh6pZfcFxZzGUqq7Og7ex+0WpcjAgohCdowuTUOSVD3dSVcB0X+xleO8xcGq/NO6oAAup2NDXMCyuMQvBXuFiAmonqagXrNuAYSDtoVYgndgCiSOUDErE6qOd47iALZAER8sLM43DQXHUrTamRoTswOQV52CYZx56MKud5fpzb+fE1xFwAVGEZ9QJ4kzBniH8+Mm5Tke08tzg8yuRX9mUIHH2lNOAwYyf1AQBWFtBjXMfzKFfLiq3jHLtO0iApBnAdgMh8Y2zNzZfIBSewtDoYWK+nQacCZASAXEY6DiNdTrOglRwvvNRLvA8ezJ/maG9qBxEQIeiye5ttjEusVz6XnUufHRTqgAYGX4awHAAIE4ni/aSfMcZfQDgGhut/3HVWIlR5IRyAUIi8k8zVqNPM9f52ODQkRHRdEpKW/Ee2z0Q/TF7li54xjFCzfn3WXQ6pz+YcCzrrXxyg3U+ZAjF7spvX7tmQDCr6H9HS4gARGnANs8ikPKsw6NxRnEqVkZw6spM06W4M8Dd87If3CggQcQZiCRxfrTEDQCAsQIDAtFUEZAQSEmCNVgIQUq4DUQJRAhzeBEC0hnd9IwCahwBAAENoYwowBEBJjoKSQFQGgtUEg9VGCCAjcCzHIOBDAzICAHJIvwBA9nxUcannCgBB924CQBHMi9wF9/WE+3beoxYWATLgF/KN2F7PQkICKbpDyixEWUhMAKAKVrMkkDKBs1d+gXaJfilLlMN2CmVV2eSx4fNQvfAq9Csr8+3yy6hyivo04QPx7Q72ZxsPYk/jxspTVJ8KgS8E8DPEgP6Yy2aGbM78A7BW9dlRz4CPRN5DFf3Wi6CxFfnlVvwNc8kqT8XxnO4dfCYWg2a/Qz8gxwxQ/n2oAPwBqpEus6xHWeJ4btdZDF+KlAu/nJRDxeQAAzTOLaMMy3zBhbC+rLO8AXwtlgPwNwye10+E88vhs7Ec/flf+1/7f8o5xwNT+aEPUj6URsqHVtVDibhC1UNvBcVjKWhVPRRvG1A8vrineNhvNZqC2rFMFG9XQO14sUNvG1eodhgDDLddAaWjV7yttULlWI6OcfQgA3Wjtz9ov1OtcFsXv/gajsh444kMXNglTz+DI7T/p7otfwo+H5Sn4PNBeZ4+H9Tn4Oth0l9h/gHVw6S/bEHxWP1Alfe2VA+X+yiqhyl+m8DNq6lHmgGSpISJpd9GFffxKHy0GlGf6PWBiIeu/b+JeEH18E2nwFi5z7MO/8/THSXd5fnOKfSbqOJ+gYelDtr0Vubh30X5VMYLYpDGzoYg2YSutfIxaaPYKF1k7P9Nbb4iOQCBfglV3p/Awdtyz29kbv9WxDMQK/MFjNcFfKuY33cf/i+zvOTWR1QJ9TvI+guPwkF6/TRz9y/6/C75jLGD9cIXgEjHLL2dkf6ix7MdAAkA4CNAO2sz/47ggwn86xlfytz+fYClyxByziJcq4jrTL10UNtnbGofWF1bHVcsb+QDq1j5sZVG3PR874PcW3ZkV+O47ypipflRNxTDqX4o8K97+G3W4f/Ip0yBrSGmQdZd383SO4HtE2xh/L3MuVEDzybEAXwdNcm1y3t0/d4/Er2yw0TXsa/3Y4pNght6NY0POmBwCMS/nM6eVbsQFQDbqsBxpsJoeqX7ikVw8LVd2xmXBuwBWF2Z44mPjm973VpVkJYMfyfNjpYSc5LbESAcbeSc5XZyEyGs7OhlnfJrBjW3+QRWy5jA2JfiB45g2irVD2Q7K9uWVUzAtLEw+oN5LgNijlflfw4c5J5ecu//j/ksFACCkaCSekZXpNOBdYdqf8IgQApj8dRP3XrPKwLlgdMJkaNlJ+gy6dUuD69C1g20lTtOnWqBpqMBWNmzzbEtSHaSKxtWPbPaRbU61fepCnoKS6WqUT6Kw/ZVBhp+Iow8lYw5+J6PvPcW4F+tvO/a/fMZhwCAYy+MJHUzRj8RF7NJL1HOBXvK4QjDyB5q5I4PtHjgDeQyZ49YVdFplPKlm2F3pd0YaFlbvJAAUNBufxjx+eh2GPJ8xDtiNcqW5Jb3QS0VdQf5HaYwzrkFcdg/7bTThoFpYwxXFfh0OHXwL9V9xu4fSGEaAQA8cKSxArFCLxs1OpKvcDoPOloxGhkFmdIAp0AMd7z/8t5YyBng8/jt24TG2iHVKeRJma7vQzWCaZ6MOA4+v0/aJcm1oMWwbdt+p91MywhgNYrkD4xemGLTX9BN7ZCx2OIwEv4Csdir6nSxKLgYwMPu4Q+iPmQ+D8BQ97iH3TcqLzmALsTcyIhiTidmvCqNAZgWwT5LH3pjEaefz0NA+TOh2Y1qczWa1JQaTmoT2saMdHrobc6afbyHi5MJ0TE0BUPBUHhQCKsUIOrmKAGRHk3BUCnlABguUinlhSAoJ2Z8qH5BEdpRMAQqAQMRgw28G3nvRsHFwng0wMMnfdPEDqZFqqpgWINUAlx6pVN14rlVbIfHQtIyXaHOGAWYFk2fvogXEmsvn2N9HbrVlwwUISdNs5s1f5WPlFSrKTYifc1udgoPgSFOJi+XZPsjjr6TYCdRM+uaOQEGAA/vcIZ11s08WZZQkDTb93Ttc5XqPKDgOilj5nW2dS6WHUrElktcZlpv5MoKESU8lo/p14SbBNfRb6ZeF0k+nkMpwVnmKI94hOsHmHxnnsYUAQYAa4lzNzNt5mgpCJU8Q6QP71M3YiDKEPmxkmV2uXcuLyK0/u53VihxHhsPqJ1WW4l8oOkn2mMrV0WPLx7D90L4X478T2Ml4GTP+KqsL1i6MAPwjw86qrr9iU5Wk+J0QXpw4kT4D1vGdmJG1r0RdpbqdOcPvWBunlhiurwxnTDHIetwXUdqN6JttiNAgDTsSyezhzjvayjlcjgxDU6deRP7vcfdl6E2E2+mux392v+9x7yP/yd7EgBYaolzj/vU5z1SJShdRmr1eW8D7CPOvacuoCw31E1f9+htjykujETIxvR3733fe7/3vswCUS487wH2HvO9D7b38S/TlYmboXd6uUfs97bgIqdgYJ7D3un2vfd3H2PfmbrLFNfhd/q8j+7e4wUyxAPAMqXP9+hrHwO/96wFYifePfk2oM0ZRsRDQU8XM9+mC5lGVin3TsOQ4Xf3aC7LkEKFgUVqZ9C5Iwov/O57vudPcB5fSx1umnkHy7+wRxNuzjdI01VAOulpWUzdluvECUVI7IHQvJyXUYAxxPRM+GCbQFjslhMXciU3f4Wx6FQVY2VkXlGw5XgrP46jmNZOS/CQkcPJWb8jrwPtsTSjTyvDwQkI4qz3i8W4R+oUaWxsSAyVR5baUt1mpngYoagBVqRaiZjjG9OqbVp1kIzTWT4EBHPUHYpU0e29z7W6b45PJgAt2Cl96eveZ9tACTDkBD3dY/LmI+xzLnssvmWp1zXMzZg7UADYxMC5zFqqIOad+oQw3vud+wjgnR5hi8Pen9Ms2ri2XdooL1ff0txOvI2537LHG2NIoYGlFqxWuX5Irnr58AbXZS1c4ZleXPqNA8c4cZzxfXr2Eq25hXdx9ctqjUBSpL2uJ7ZRc2IlTWEWOLMsGKkaVLDSjUKaejs7oU0YR5BdAYICcLidiVoh2a5lv2hP7j6PHY9BafWQ9OK/7goEHghLoxgrol4zZC2Kh2uKrkJYd4niR5F8yRtMUOfuIDnHRYQGlKYx4B6nC1qtSSTt7XDk+T74vLU6sSGXKjbsunzKAUIPdSdNc9RagaV797Dz+5DP22fmQUBwHXPX3BsA4MySrwXxHBli91qgPAJD3XO67amrMs1MHrd9LgfJ85DQZPkS7/7FAiuj0DAZAJBer4TiGLIGikr6ExIAT9lHw5WtEiUK8lqYBfR44iUANYzN7zutKx0NZAhfcpK260h/XnlGsgJTicRlujVMe9d3MvLzMfJ56/4kun1oE573DjmNQ4/mhwSXigole3feJ3/Ux6VIylrdhS6RJfIExd/KJdZQh57CERK+mdsxBAvsyj3eee9mbG3S7jDEvA1xXu2rvZODGWcFgKXKwq2gxiqbsZOdtziH1se2bF+HhPO9SnW1GKNlhZD+3MvMy52Z4aMcZFadSoAcMcTdS0IIWKYm2rO3WYUIEixpyvJwZ5HTMM4LP+HsLmuPz3t0omOGM7EZETG1kQlIEVxLb157iFlJCp1r1kpxNOTXHNixJvj9yhZ4cj4mun0Hh2rCiM/738ICWHugJ+1ZozAgizZz30KOpsfVffdaJkU2SpdXF+BBzOKXEzGqD0nHlGyAHSAEKaXPLTeqb9LTGTUAgFZMrIFHmpOGjQuAFVJIBaCv/Z+uwQBM5Ek/U3KksTlOIr03Pn7V0R0jwejn18AAgDk1n/Z4v6aPHebc5oG/ozAJqWuhK9KSg+CjO9pLpvnqRGR3UXt4Ol+nJlljEp7jyGMTiXWZEVLZ9t47e6eYSb57sbPus0C25GE5+8lrahJa1zeHlWG67R3ufPquxigKUQZ9PLmHYpp00aSBewivZTVwiVQCWJYxwmJRpcWxrBVJQUSWz/OXPmYzAiIdYd2VW/2C0NOAMvqZKc/r+Oe1i8EXAJ8E7OmjV0EAgqaHKZ/Xic5r30ctkF4qdrY8Tdl457I5ABDmoF7nEu/9eoYPkyJaN4VJyHr1+YzkYAt9kUVNz1VNQSpWTLrGWs5GXaI6Tj5mc3mX2Q+Ys1B4yph21WBhocvggprSyTSxgkOv22SC8OwGoLV43LoUQiErg8WLedjjG2tLQEkYfdrqGTuouSSTO4B30LS9c9d0hF8BLHn3BxZAeNrlqAqakDE8wWBxxt8rlKljFqTMde6BrvCSXxbVJa8tAKIPwTrUzb0fd4eGKPuRNQBOuOhqRdWyuZloBpQEDWn379ezlbhZFCYpdTxaxi4HTvWJl+aBcgqCKr7KPw5HTL1uNTZfyNh9II0FkhSbTAe7kBsfRRKSRd38WRd7OWNj7KfVLNvAYOWay3VMPtYpIYQKBI3pMdiydw/gH9mYV0+angD0cuHqWd+5hGPX1DAZyEq7QbxSbVkz8mwuLS00qnYOlEPeGeje5lveEA0J67XBtZIWTrT5F2dcs+YV4cQOmouW4MI++cGicEQEvDziCFIib6XZwiMarSaUA5xXhcTV+jnuorROtS+cZ1rHG9twPHiJBUiXqrbNb+J+H4HbZzzMZCZIjWo+wzcLAwQrW1v8cgHym3MTA4Rmazt+bqZbAPVKZGrjMoLkAeTOl1pG09TTzxINqi2pmJYBViIXuzpeNMSG1JuS9obvxK47e2uAe4+xL3He21jXJYgVAoxIWO3R8/Q2YKhLksHv9Hhfut9/TnCTuDFGJ3mLlqkKOrh4jf5+E9Ie3y8UiHW/WuTq+dOCCACFR4ZCyOHA+9KiUFTh3MtH9uZRO+rEOh7t48wencyiHqOPByuhkG0LmT5+jir+dcTXaVKihD9WzrZhBirAIwYOJAxUd3KoAprPAVCmromfT4bFBTdrlI/9SBrUcPFlWFXNeu00Ut2e/7LhJw0aqTFkwGmPQ/W9TnNM45qWNVET9711d49JNhUJDQBdnAxz3rbMR8hx9lo+p2v1/R7dvMdIO8bIAaXUDjxHgK8FmJUTg5qTN6CwlHxrLZ/CI5hCrIGQtXTnkmYglaiusujH/lfLaV0ynsLtp5AFksSnrI5pmgXCZG1LhkPPenRttY+E62Jl/uxVQwhbX1ESD3vDcYh6AEBTepoL/76H4trV4YTFA/AvBqfXtWKaA9LO5QK1IsLnlRqht+zrOMX83p39zcubEysorQ+38tv0ee+ePATA4Ec4er+zo+nx+BngbaCmOP5OrPvIysgphEYSb3cK1pfxC0o2dxAxAPgl3JFX1KXwCOYd16CYxGKN1Fv7xEuHdNSY8WmZ8PL+UvYfL8rj2WPUWintvOdGxIRZLnnwutglUIHd/iCs/DVgO5fL3r0klq58qYrs5xVpQPSQ65zkf3WoaRfm0vUoULuJNMu2HjMDq2yKRZ+99buA9Fkg4qxejuOf17HOx4jnNY6tg1qgZyg6/zLqLgDgIhBcOx9GP6/jPq8jP6+/+POzQjoMzbgMvMctASipBFdZMYwnS6EF5a/ZLDs5q9+Z6pIUZVdH4ZFcJ5QuRH0K6ySF1dXw7sPjkVWntvtgtB4PegARqEV7fOUpdXsz6cnrCaXVLvAlL7ERjnJQIgHV0VDAxQLPV9exCx5kXvwkyLi7ojdt4IgYwkM/of/5c7ryhh3WPhOVDahiXYZLzEjaba7IW30DOZ/HCShLRJBWtefjeM/7MPO2ZcUQzpzL9YJayZ6yWRtjGP15G3e+/zjVP1CG5Z4B7MmjirNZohgHNAl/WiRAe1JLCOYLW0aSwifJp67dv5IOOTCV9hRO1RH9CehO+mYQmgUYK48T2xYl/X8f/ioEEptrK+2h/ryzBR4id3LMQcswGVKCxMXb65Rh2CLsF+Wj7/LkQdy/Z18nrQDg+wmkWrDsMs1GAzf6Y0POSI0G/PITMACwZcuTnof1vMtmd0EJ0J40RNn6xkEOwqA58RwAGKgOwoichYJmD8m0bMmnImztDK2NS0M+LEXFkLJqwIJmC48AzzdJyUGgUklekR4BgRKJOLG1XVZsVMRX7Onn6DoTw2DlFSrnT7D97qZonMexhDc56G+gPr6LYNTGHDj5LHHpnBvUpLs0YfRBBHcXmlZaIR6wjlOu8QkARGHro2daUqt0/mhoEiA19nrna1KWzOuYz2toZQjAkIjUV0kE28YHbDTvJnVZpDXUeX0rIsAuHb8PVIozxJwC5iX2fTwde2ySc+TnjYXoxOaCeg4om4c4n+NKWXHCsd9KRS7Yx+ceRqLVRk1YQGGSar77sYGQJR5DVy7kW3UZEjSzjqXsslQbUkXp9x3YZ9H1H7AqueEV7PvhQstQufB6gp5FvQhjBvrc5zRBdV6ccCZmpcil8fFGfI7TWhuU4fVBp1z4READ1Gr9bBE9M9i9zVVqMV5BnIYU0s/CDHuXlnpN0gVcBECuOHnL4wgm+ATIk22/D1ujEo2cGWW+V6NIeDN+KzA1J0Oft1Ys4Bf7vqQt+tQEe5p2PyWA30Q6jZZRUEWp9e3PpI6BmUFnnHQQFAIZdZLauGaHv/f7K1yC57PM3Z/08pSxWNqXnmC6D37yFRQi3XXFSE8zQtmChDTTjCh/SnkHQsVRwZ9oyr4hqZLlpmwqvCPtIVZZH+S9QDef+zo6mnBmyFmdwSVY67rEzLiT7IwefUA9tOsFCsa3URi3yFXRqjYyCWZE2PpnrINlbimS1gVO0Kj0/B5LMSHgTQyzl+izz8MlfiuQfvflJ98pFzZvw1MAI10n7HLKkzRpn3vttoRLjjJ1M8uOj3UaTiY5b4YAYKrNke8EUwe0iBZOWh31a67tHKzk4L+FgFL59ka6+9z4Um1oM+jn9nDOo2O80k+m0EVIMGqkzdG2KQqXJMXRfs61fykQslKkkzvPLaNIEYOYyGaEW1d55KkEnf4HQhsMd13lDbD/KOCM5xmk9vs9rGWNGU3sn3ttwHMsILPRjJO/rpZqnAQlF/FReQSwcDWoJUTwI/f8fSpbWthucHJJIRCp+cd+6PV9eeM6MM1N9/efa6cB7+AXXK+KcRjk/+AN4AQx3pf9P69xamokqcZ3smxfafCwMpZl+Oe1NQsAlWO9R3ImtHDCFK1Ri16NDrXXlqDC3DNUqAtnNYNP1NuB6Zza4+ceGnv+3Pmw/MQeguhJ1ug3tFBGCpOA2tznzQ1RnjNOjEJu2MkMgCGL8U0UefZ7GGo46XBYyWSoODlU9QbLrVqou49+I47hGyE6rqKlqsXeFGjOJjeDfO4PSKdam/RG5q0BdmJsf9H+45JUQMRJt+/tVtUcjXb9bFCuHdYkY25xo6YpCBwtACu0ImrUDwAaocM9r4O8xy7aarEk3+AIjVAjJ61dh5jvdQlDwJDMJd49lmP0q8txlfJT3/aujzLeoe0RlFnWAXtJs2obFcolVxTq6ZrHof98jsw2pSrOesIZHgDAw154ZgjMJ9ptB/2xBLSGBvhcOQIZ+u9HPRVcRCFlJTAFiWk7qZRtP/EUmwnjSC1CviCiTQ9ch78EQgb+JsLTiAYjAad6+81EhiaHIWMSaVVrqVAGK6bHgnMPTrrekUhjVC0axsgdF0Kj1uv54ITCvREwMbPqPGoyYwdgPevWjuutERkRc1AbZ2a43TlsjTpD5dqszp4+ek5UNqSoEb/LsVTMGUXW4ui0z+8z3iQm36K61zM5ze6PtgO7g1IOwENhjnPuzLUYOTbEZreqc0968K93Og2toKRZPpl888ebOWdTNfu059k2quL6UYl3GJGDstn2NL+/z3YuH8RU7OhWrhrGoLaLrWEFdzkKKVOzNV6tZWB/BNs7oYfKD8K4pWORL6C291yHV7ThQ5ZOAwCE69KYSCBaWMRImjCPKDWU0EueeyCEbqzmLsRR7z36nnqAqKKj3LurAgWhksOAdkP3NjXGspY6BHX02DyEjECsELp1u7gpWIaIMDGPDliUZRniKI+wKqBKeDNcBKogOPR4Wt0iT2BFdNuBJ8HrRQE5xJYzYw4xS5/AehlPiPdQoLgFmhN9dhlVhCwuFoECYg0d8PXsh9z3QE5Qo09LAHIUWrZsn7WgCROYAeyf9VInjXAJSRhwLr6euf29iCvGLgAgfA9ySiOjTTcCKGw0EELGyTB5wvQMHFABf0hRzvpD4oMeAuoGiBKIJwgAQCBK4A+AwNEK+ELSalsDwEVRoBLWHxL77BEFUWiaRIYEajGJsJMyxh2LeuXa/kFqWxcABLcC460AaATjk45bOUdzCqpDns73OnP/h6N9gQBsjuMCmqA+5PlS1Oeu/V9EvWI+CdlDTMSW0QUFUCHydHkYWbtX9fKQWJkSytlJf+VJG9ljsAtqRK6zqPV3teGjrPEtqWvSsq6cSLbfoOzyL8/ydQ9UiSG1/5yMo2d8zzM/kPUFMSrKNo0QEEAjCvykI+csf16Q57PaoVA8CRytPj/U5oeiPJMcpfhXfwDlpMEIixPeXCrNXSXf97GHgGLxjhGQmrI8F3Et4ig5+MvXxTllPmf5nLOGoGAMMVb053/tf+1/7X/tf+1/7X/tf+1/hWwgkAcwBSEfDYK9Fk81Pdb0XOhqg5IyDa6Vc65w06FbKjdvwedCPY8euPTeZ2o8LyEFIQD/CslUdCOCO5H6Qk6pEMjSJxl61cMjQXf2Y2HxbwQb15iUX52FQkHXizT9xaV3Ppa0liCHElDJPf35R5AnuEkAAA3QBQEhADTAFH6RpY9T9NuzYzpjCnKe/CBDfVyVDzhG5cMOq1VQEqBNKXYYDYD1m373gPfbaGEGbEGAWELCnYHufYpNZbIq7rWDCQSKmw1r0PKMScVGCtCRzFKlcAHTSi2ZvJ2q32MvYPM6TM+ZnHICIYCZYdPDe4v73mO+x2hXBywYZau975fY90uM+y19AMB02/72L/Muo979b9EFAQx71wg3828G28eEV6xKb0ma4sBdPNeYVaXxIj+xSlZ1dTCJRVW/cydX+r4nNhv1lFsp/KgpZdtPBIlp7Ul+vESRyZsp+sPHfixsj2e/qv4Jkezf7x5DbdJlWpIib5YuGFnr+VPWFHF2AMzL1c4PFBpTh2kWBPKTpcvn1dc/fHHCrEpLLsfY12oxRgD4wNuOTzT6DMbyjXGK6fOoYyE12Arix5mdjyo2eoKWpF3LZN/xLZpLbDGLzpnmxwNJaeKUUvTre2AaMFdspOOIKApTBNUgHbRigRHicXJHrXgUAEJA0Zmbru8x32WnwKbmodogLxip5PmKF1dFACSqY6a583qPZPSlIKBJo1qjyJNW+NDJqrHG9qAqJfYP3dJ1p5q+pEurHYezKdU3sXvVrRcWG7eCd84Tlaifyq12umcZCZ1YS9KmxjVlbTEjC0GavNhE/S+YVhjmFTiTH5FR7eERtW+TuO2Acb3V1g7lmanS9MmzgpIQ+CufyGNPbShOb4ROxZB71/e9D3ZvlfTUktAEBfkuZgae1dKkh0l/Z/kWBEi/hx4PLQ99HmJPsSq8qX25DvtULC5DF9BZTaZ++C3BTJlq76tFo5mDiYnZJbYDzE39/RMvFh0E6Bs91AqMrUc7GcHudl9hAFuSBiVNSGZS/K+bR7cQMMKv9DPSyp+znX9un5dmjKQeLYlqjelHU2cM6wWO5420sBl1aTZE/Kt8XhBwrRaQBrp6vwx6vyZbrMBJSBqm0/tYYClVyXfweX3cngU5Dw2INTPS+XWAc/k76IKAxz7/0wjnLc70IGGsCku94F4QN/4cE6Nu1LBUnw4TGCwsASyW6CE2Pg9jZ1UBAIByMXaxXBVovNOI6tvtkj7T9Vqa/ngLMMzjWJW0f585fM7eHhvR4MwoyZfD2vRKVolntsaJk3m343nD8KfaDwcwsIDnGAy1gDwx2xL3fov1/TLW7rTpJz1k2uasWo5RNCUTzfc2RtVqh9Kw0OHI2tJYDxQQy0jGiCgBhkJZQMgBAlRZOdGrVJiAmNgYAnzL3ew4ONvRGQaRxVoU4af+o+n7V4OQSyauaJX/utPi3eWUK0iM/xQcmE6MCn5lBf9gzl/QPZuwsgR61TVxPRGNzrb5SB9MPTKdj5GsGl1BiM/3u9I5r6qFivnBU1+yyP8X936Nc79Ovv2SUvM8UBX6O4x23sPNeNwOr0oDy0PvciijpSNgueggurjLvZ+4jfEQMBBY86r2q0PJxP6PLnZyA2HTK2Sueha/8DS0ucwZwRAxDKGfQzayvzWJwPmfA0XEgE6/3OGScQgLEFOajCZf0gQtBsvD27rD3AE5wIdUNdk2bfhhvSVguu1EdaZt6sUBQTOgM8QcMckyzXaJJi8CjGOINSxVkpMHwUciogRy0IXobU6054ztxWqWAGiqxw6810WW6ehEu2fYLhorUYCmyId3mHy7DNBi6FpPJ2k9PSgZYJ0UdO6YhD29TWE/TA3AfZUhkDiFle4ItQ1ilZdvUkkwq9WELuK48+HFKkOdzu5El1gZbIsxTCGnZLavaempEhcwDMaPF52sns1FOegEwNeuchXDFFvt3fQmdzYG/qEazJe0/B+pDiUGTIuu60y95YX6YApcRLMZIdVpO8jSOtLEq5+faxOmOefYUpmE2EprD5ab5mgBSdg78c64uw6Y7GbQ04lak7/kdWlQN/va9fvo6KQnT0/MsUnUWjFVgUuE1cbp4T76mj50pVxMUjrNZDFwmKigm5DtVgdMNqvj6iPjooiMkGTsyeeSTOwpz+FW+5ku33sL7n4HM0cIYi7W2z5yZJWl1lYGAHNtBtjHNd1ZMS2gOqzP956FsYrBDgCQvLzLR1/HxO9EQ+/KUFSASwRVaHq/9/5PL48VcvRdyRo78F4rzj06f4/JrzRxDFIyXb/3Ht+jh+91FwBQyrPk+JskxbT6chxO+3b02S1pzDPnEQIBwJCzTHC9Hx/4ohw8xu1om5Yllg1jKKa+e9TWLQ9zmeC8l6b6uXq7t7xgUhOeDwqG8HH6ddZl2VIawpFZ/elHJ9EYuMtXCU4WReJgSAXkkFDmb6B+vwsPQU0OEE5eVX6QEecowoek5T9w7WCsytR0mF+MA6kK+EqnnIYYRYkzzYjImrpyF47dmzh52BtY/M+sXYzMGICzc/G+YG9bjT36AMt2hpnEZ1LLCsaa6hsy74y82++9oXarWZ9ZAzLiiG13a+9PN6RRi/pUrZYf7zrirv387WB1Q2OLY12H6jKk3ye6Dt8lEHW1CxVHWwP+pe7fY9GmaQvq8cYbdZg59tErccwlNchKZhjOPn6eE/z9qClQHgAg+IlHsDYzQdGenV8F8m6ZaXbi7WNTHXplKrvcYj+lPwC4BY6rVCCgVgbosy1RI0QcQgscIFz7x/iTTFJdK5bWVbLwTpz3mOp5z5Xd38cH1lEBXLM2LbXeUP3NCF3g6FPssIYusCLyO4xxXy4WDAVtc1dxlVr5ojkyymTs+R7aYQiAF9L3PXLsPlxoLNLeHKBjXHNn7Tr6vEWcYbgIMPq0RBk5qB1oMb36Q6t6oSDGOMC9Lbzqq8GsMx9dNc/qbyJsrzsxWByQkVWA13EDrnCka2xVyqpBbP6Z4eurqqFLCZyjav70zphWo2CV3Z2lrB53ircvRAY0RWdBh7O9ndG/0PJBpkZHRnG8Mfc764yef+iavMoquvh/2/kvo0MjpiG4cuuBbSygMws4VZqZZCZJO/Osy3latOee/NXdf+6NYVsYtULybA+B2lQQTee15s0yIdlNyGf9+ulRB3/wBS4D3fuSTenNH/pRH+79s0BDakr+VFMsTzHGJKEN6tiJBdSN9eC+K44ZTJHQJsmk3899lD/vgQCAjMwkw4z64G8OEbBe56BM/FyG2S9NM+yrPX5WKq6Jew8iryLCgwuQKhDPMxzklioiMm4edNox7jzLYk0N58nM3G+XUDYv6f/ezdMEjvMjR6L0ksQsd91j2ncv3jiKl+RFcQxEs5eB9sUKy5jWOkzTsp9lJsl7X37j33z85+0gAKeN/t5eoY5zkdqhKbb+WfkjaWbIymZMnewJnvcyAHgIN4gnhOPIa1CYk57f51sNpacT7HljYYjJNIOuBNXObTQOwIreYBVQKCeH4890cki4/J7Gk0D0ekMaOEt1N+9JbTDem6zueYdKCQNJPWIyMLybz9ZZPwKQlY+JyyfV97enIKfxrBwTM4rp8H/jAuYYQKpufWIbdbHG273taWmy41Iyz2RFqYzsdYyZvzjBnzceSpZCLXvnJsbR3Bj/vB2Ok/0GY+3lvBowX8urXvagTyMCy7zmQd9bBiYwOxNZYO1gEHlfiYbPa0MP/ZhN65awl3Q6jGYxl7mGKSVGAiCPZ4zx0t4PsQdWl3BpbJ+HDHUnaVmR7OpL5fT+xmhGQsiR57X+kTC/W/wbV326ZBFGMPj0rVlV5IBrJyfmRA1snRkXxjESPrn7UeFTRD/EmFQDrHC0nRluz5c9+nsmpgUwemv8y2XMsbOxR7eWA1hjws3kV22TI/o8eZGQfsJ1aeb68+H309fJz89TmbXMwB771F8g+07557fwuApA4LQ2Zo5zkdlqycjgLCWQtPpn6ZpETbtuu32H5qDhksPBUU8nddcfBwsAfF/q8tFQyhhZ2DGuovra9AGPDBsxovF0H7wDIBAY6tWXFgqIiuvOtkKBzRzW+JDgvGoBsAWGvpllZwc1KDPceYsEQgSJwB7q+ejxvVsR348FACcaXVgB6M6M8/czPAXg2wCaag8/z1mcw6cTI3NsAJPqxw9ubrsPjF4BqJDzjHReB773hVpqtJYkVZyEoQ8f7rzXbxmQxu1CTf/3qKwLptjbaVuWASr/4k0MVTUjX6kuLb/ncMsm0cqZI88bROme77FYnjf6SRcWoHt8bz8tp34/IzwfLADQfe0j8XL56NOfVXqpmek2hpi3tjoZ+nz68xwASOzu7/uX4ibYvjNIswrg1HNG5jAEI23T2clZivALzVc8VhOuJIonPjYp0uSYgth5l7h6UoDsbrM3M1ZdkruL/ORr0/lgB16bESlC10IvvCOQTJMU9Oe995uqmSvkVwsTqrND6JBhCyw71IJ+hmIMAdDmaGtglV0frw5yAE+pATtPq2SOIrLceO/16XX0Xc8LAERWvrfa7/fwyeak0RYCMDNLqi6Ya2Pw5AFALgCf37mr+6iFAvYkvU//MBAAjdnu70vGhY3CfjAcIADDPlrimgfNibRsyHHfDh/7OPQwClEOMORa8u2OMuPDENhhzHssl4f1OPY8BQAB8iAnyVXrctaF9Bda89cNw5tfz58hIojveX809CFM8ue/VViFS4XzTvardPlWK5ylCvYvTIqJpElGpSUlCsRDEMYFmomoSQDELxvVAlOmbFDXwa4aLLa/zpeWnP0ddtEx11eUr4LOD9ZKvOOwCnd5AeVy/VcLAgD6tELls9YhoN6j8pb5jYsvkNj+1x+rQWgxQUnQhPOjLzfRgNSdANJrJj3UWn8WyAgAFhFl8OvMOwamQKm8RiMWlFsGrvbqEXGiCQBAEFr/bBVjhJYhLU2qhfbVQEM6o5zXywOAhwKUQujtHktEtTVHnrc6FAAEwMIpLetfs3nFjs9sDgLKtNLD55u3Go7w99dGcpVMRlYyk4ZaHOGgXc5oT5ynbFDqeFpGBcKtEynDjVcPXlLLexMUeFzg07ZmRsrRSvZ2seZ1jjPXsCxYzhysBeWtZp5gPU5j7VacCG1VBCBHgVVqW1ByTKz3qBxQXszlhFTOCSWAFdm3/1//mBd4fRQgss+7vSLLXATCQ/zlXKeGnqkfQUB9a9sKoEB54B9oTSpwFC46SEQAdeAaMEIjLTaqnHwDCzSsnZ80rhFUDSDhxJsRN0c1x506mzQ5RKBbwomNXV28N3WjqJdW9gNlieWn8X6+WihfBv/913bIKhl5uGPvPu5VjE1nUifAeWqAdIQx0UAqMAo9EmNiPfVUsxzXq2cXltLBZ3Th0j5VtwqjTUPzUQ+qA1aObucCNXNuwEOMUF4UqsgBO3x/qvX4i2Ccz+1EVDwqMHnomazFRGWAGdyZnTnq+hAfdFLGo0DZjPAinFBxAi9KSEF97qJ4VdyQFrpzR5b7EYJd1iiCznqDV/tSGpqEcACGALDCWO9taXLUcndkiE/kKX3RBmeFZgMMkZppfVUoNuIa5706OFTe1XNr0Vx2wC7RmVUugSrMyWjkY+mokdMKtIxwrhoyoUjoJUuhuH/yJ2oZtnlRxdGnAsmnp2x/ppnOxokOxcqVKUolVX5YmW014K1fZFsqbL3B27HRm5EBz4PjONjD/SUIanp9j5spUDZRciokVIrZDE7InHeUeW2EvUSesbQDliuuXrVnNSqdTl4KKHPHgHssvuhrCY/1BFXN0TIN0k7YjZ8BQ6RljNdFeJi+2FV3Kplq0VJklwF3YrFWuRSnGgMfLm0ijUunAOeqTINpDYQMgjxSQy3BBr4/VSp1taBIDsKoSSVpgZRS287lUzdpI6JBSIOC82Y9/zxjKz0a0QhADID8cigA36JwEEhoH0IKJ+Umioor8Aldm4z1vC+wzJ8nMgXzUHNqKn68bXtzd3sUoXlYduFlnpI+A17h5dZQIYdsHeck9kDgWF4lRSlKAkxoColzQa+srplVKoZrthoXs6A+3bQe87PLhEKcqTBWYgmUGoApdz8ggwIhkiIlJlKoNOSuCzNiQp8xq8dZmU5saxBNTXDwR8G6mtaMgJqwOyNx8SEKVQKZvy9wbHcN+vG3qiYujzPwe2MdJUQ3bCIXIzDR78Nt5QPWwxPMHaVfXkJGusTGogZ2/urTH/m8f3kAYLgI5o4y5DKRcfeS/q3J7sDqlxeH8Xv7ZwAo3cC6ibFFFzcKQ3hVjBW5Nz8yn0iyrz580lUqrhHoxGSZuqEFRHTFAlUDAmeqXKc8zoWfwlh3m5QP6jKHHeOuwKb0zxVFpwbPoMeYa6JriHWn/PFvzfGrXhG3RqR5WqpO7HJXJzXPDslreOpCwUMVA+3pIBxn78pw9Jr7BuRVIw1LxeXOM6/pqE044eYAtkTMeg5tsjKCApRCyFMTcZnlPTVdpvRpJHzeAyBpHjLl7ZStdS1IXTLeea8GcAwUrrSYM1dkKTZ0cOACA4TkAlWsQmEaTYblXUNqz/RzCoXAuSqPUzUuVmviavYtDWeX3TJUh8iwU2g5dULbz9Q+/fAUCgApYoZb7S0frQhVT1Xp7P+Mbo3MSDThnHLO7JIn1yGNivmsklnSZs1AbbagIY/ocF3bpDGmWl6cjAAyggh1d/KxkrE7JDJCQS+2+iocpT/Zjf0Ip/8qIufmmuWJCVGNlQ0DMDQrAmDQe5+9aELNcZ/3q9AsGIZlCESHvc5UtIGPU5y3WwMMHGHb26iuJ2ZZLyb1jBQGpvv3loMg6QqGUCi5qjwCq9x/ytvY6VYMMa7oCgicrYbS+l9LMNGMWk7OltOSzTiVRSoz9hzl7b3MxRNXPp6CYqps7/e2fjBfxekZKwsjW0b8Mm9IRo2kquomadgFG8lDeS41kMyMngMF0ZZID/94CoSZYWrbY1IIVX6qvzS0aQLrrL8HELVdp5NRd59+xpaqO6BMtSRZ16YdtcdBijtamAVRrsGUbyvttLIhuXD21iB79L+PtxggQvPwmzzWy2rgOM9HRIpcJHkssRQb+nyUBgCanWMd4mZ9czLleQUQqtMOVdEEFy+tCUW56e4WGm8KXWhK/9CgOHtZPuo0oE4O45/dQvPNI5ItV6ESw6ygL9Wr9SpBsIgCzlid05e5VpOCpNWT0ZR1BKR9Uy2IFhcyo2eNiWmOhjYz7l4zMx2XefLJEpReZBWJOmY4L2CkLzbdwjgYqXuwXSW4DhwpnOVdMImyZxRMb36HSZ3FTFMgwgVMxJ5DtJwrD/P7DcDxRx8TTk6ZQUc5SyhExAITduE5cPyxA8uj95n0bYYlygSAHY5xXZAxBKx8596J/d7n2pl3M9zz2SqnCOx397LHUoxvbezxno/ymPrS3x6lrneoeWtvFIFf3+/t2j21cJLnHcCfptiE0x77cpbzAODj0JeU5AxKCtw3bZSfcJhdxvGnUZhKL5+vqYF80mn//vbmV5mSmOd4Rvr36IUGVyjgnFWNO2q9paVHTKsB7iFhPJ0ac0rPSrKJl5FQf9EaNWi8Uv/8ezdFz1Zy9XHhpN7e6IS7YCTZFF2+vn0N6HJUoO6S2WlIwxZEjplau/+5Ftm97899TOnIVd7HQXPrZHRqCeZc65dtzQGALjHG554XNp9G/tJfNRQo9l2+/DvJl+Mwbo4KC/WxF2hKnbC3fZlyU79VM7nKFJtkqxfIyqd1d92iHhUeYT/u5ic+cMm8HZO/WXSpmTs6OIk/74AJdPXeD1FDpu9pKzPrgs62Tdiad1nzyu0OQ887gCgmzntNm4bOlXt4r9cYWdmV6pRN6kUXaJaq/nGES6ISBpbOGPvyMRrRvXlqh+nGkT3TQ1DNYTtjBm5hFTmVTk61wP/1fQ3vjMDRKhQMz4QDb+coTEtG91LK4n+UuDBiNLm/GtLhchbq7JUkGQ8XFwdn9puSlh2IKkuS5WZm6DnS53AZlUZCh0i+wLXYxqkc05CDgvk3T+Qe8SwD9El0puvvLWIYwutLq7/s73Gqp9xH+3AAAjm8z+j75/n1lZ911guLWrUm5niDdoCWJstvszCOYZ79ciT6e6yzFR9H3HXF6N/7Zr7FWpVbzU5WPiG0k6MZCRBQy6hHw+u2JtuUJD/uZFwf+4TnNYwBw8WJlucZzAic5xJV66Bcl9k2hZcz72SM20z0vEcEDgCePZzV8/tUSRcsSPydom4qddt715IsH0+SCnFPen6v9xwc8kX/9x7jHuHzQrkkHajqBnklUhn/z1+3W0Xix3ShUtRVpgXzoLVArL3Z8YJncI6CqOnrar0j/JRpZ4CCustno9vdmud95oGdymgaFb5VJUoozIDHaIlOTY7ycJ4EMJYcVZ1H6cuwnWNQwFahSpV6inXUzAHt4qJ+YvY8LiMMAYhxyONq1isqRfCv/I3Dj6/PEA/8h+yFV8+k4+TRmsP/fm2ZAACL33Y+GXw8wTd+fYvOFPGuZpHtTfvw7P4efCgniN8MQNG7vvBJhdsWR4AwkWl/s0e85iVrVODCuW89H7Rj+z10894fvZeLyLntVID2VDBLzK3fdWUXMXvedWUb3NMxRWyJrfEqCQA9uHs45EodPZMVluXWt1MBx3xgQ5+P7w7RMXfGvB7nTJX4uPXbqYBXGFqfYcPKEKDkfzrBmvBySIU1GJQ1xRj2J+3uHseycQn3bG0EwFQb/fkc4jpbU2GbnFubUSBqub6XiUaTBH9+C45Y5Xzsu20v1IOpHCYOBlsBXHNVcQerVRdI+WwHr8gWq8rKEkwnGf3Lqf3/wbz25tHQhtN53Blt5tma0g3keoyMKC6Hzx9lMLpI08N50vLZiYeNJDOKb3BO7Stw40OIh0puLFkzDdCeUYtqblRb9PweVkiuW4wG6NYtduABBd73S/65b5Ov1U58AYUO/sOvpTYKaqG88IwyuSxofMtw2jJN0+vhPWzU/XuU4RJNCgCMtqwvhHMBAEHHQ4Z13CZ9YwNKnoalHY8dTGkcx4qUFlHFMzFaqKBy06nHscdAIeZcx1n3827sGNXQoWW8uASAEEgfs8c5rzOUNEnXogPkQfHBdDGsyRCAIUjKTLemvNvB8aNVwe2ZtKSfugpEOQbdj8lKoiVTsaHErS7tVNscTOH+aju6VNUBAMJUOPL5WCBnbqVeNBx76+aPCNk+aZ0c5C5f5eCa8UBDuUUjqI4YEVzVABLbz6hXnpGWIfxWXidbgkRGlkD08G3n/EVX864S5yYFSf1VZB1jP9xI6V+kqLVTv+Sgq3nWCGuUpcp45uquEhfPSsIwFOwduhOjr2F7f3KUnHnoeKDwEzX7j8tx09+bgrnElM/bnrgQFRNztKVurrzkKAX+936rkckteZAvFw46EwJ2gniCiAS5zYe5Vjs5LDIGE+jCxM87rdACIcqBS0x83jywLkMgGmVkLDInWuMZDg9kQE/wvAur+0EAmMYH64SsGJViqOejVtHSSjnFHzXD8zrDef3xalPHNDLOfr5P97zO8LyFEABc9ECzA/0ZT5B3+wz0nD3CyQZgCAAwBHSemidzu/igX4Oa8HR9MEQEDPnWtTbKgXaxSanS0KsTPZ+vSmiKMQQAYdiW1O9+5A4jcNMfQ2RI9YRAWKxyqtLuYX+OsCxFsb5FqHDkiwpEpTW707GBRmGLJZJJWSK0vjrrv7sfpp0RGGSlWXf5RFGqeA6pRi0L9DQ19xSSlk8rCmAsOTKt8XyHlO0D1vG+wIzJmvlgB1AT1msHiL8kAI5C/LHrrs1XSDEEbRhB6e0FarYCACWoiZ6CkvXaAaIkYAeIZ4oBkIMyoPIOFRSOCdihcmUWABQoQAmgCuX/w/oFALb10jUAA1ECBFzip8cq8SOEhKvDsReCtH0U0rbIlDxuuPOHSat/kRw/1giATmFaAGPJFkzQD1TdxPaBSdRlggJeDrFyMU5LUJAnFM7sI8rnspp3kpf/ITnsRcAk53+zDwn6npPPwuehc/6yO7+btPqvF+ZxZpfgiDuK1BfhAzGifElLD5IX/6WlR4wd07AjKHSt6LSqfvqo8Imo1rvC+4zu9xndS5Ir0sq05ORvBAfSIYqvV+NvHNyDj0QeO2h+mN7/Iat5T/cLruUemGImKWnbINfOqc9V0a8acq3wnajGHZyQq33LnT/4f9JEQGI4WBAKQa13IuYvOMtXqvDDCG7Bt6Jab+MrbkVLn2rpieD5Bv/1FLhOuM7VelOtd5W4/FiE4HPxY9Gf/7X/tf+1/93XJFX5QNiUDwZtygdz+Kd88KVV+WCZqnzwkVA+VENTPRA0gqp6MCSgeiT6rXyguiofgucRqgfSgOqRaCgffIxJ9ZAgCNUDyQzVo1EW1YO15BOKR2pz8ApXhxK4sQzhsht7KSkYvFWEjJI/fAib6VcblUPwRHakX6gLKSKDShnKA4BwqOB9HqqqUjib37MrHPiZasJnu4ki8gtgGrjtPqEbzRXESgpbs7Tzc9w5T+Ff1KKFXKkPq6H8+oWmdRnIIrVWgRgKZuXDFB5hLlzhuM/UE71tB7wmcsxRVVQ0N00vlrbgwTBSYRjGcYT5UUdZZ1rtkEiviAIyEKcg+WPyOuo2ReCxF4pZGH57+0dYTNNxnL1aUhuUbXF1gdjODajNM79+6eA4n90j6LI+bCVqWm45NDYFAwZIuvT/Pg9w7/H2JdEqAMfNXfq4t773GHdDOwozrj3dY5Kb/vYY8wLpK3KYUTi5LkVPEc44QfEB99tQ7znxNvb9tljlSCGWu3y3O08FOWjVcld4BVO3o51L7YkiCgnyQLJJRppXLFFWYYx+RsImZoVAuMul1tSy0rpjRclUbMhaMsBpV9ejmvdgsPtVuu95yMpPSXYdaaePfczR3Ohsy6KluOOWyFk3s12TJeMoemHW5YKYoLhgsUDp4WFONWOAHGM6C0748e85hDmeRcy3oNDaXX7BvzAd2/1CPHLRZ5Bd5z1zbTO323ZUjIyIyIiQzivzGFP6CNWBh96WupLOpvozC2OzKofUl3Ng2VS+qDt9qruYCxUT+qAZnCYVzj7MCQBHo2KkYiCJCES10ALOwD6WTZ1EKXc6BvIls7t7n3j1PMAQDtdryx23TRDH0NEFOJoN02mWrzBvDafVnKBEMNAzUAWn0Idgmo8e4hHRFGLJD0lgTai+2gBdmuuCgK3fyXFmMc2CjECUyCZnLzDZz4DsKKBqsJmQyg62g0nY89GWHelVBWveWN05qxdBTJhkC4f92isufDCAIDd9cG2E2SjIj+qNbax//lkzusw1wom5mAkqOQXyE5W6hRPRxBpH2MR9r1m2pW6mIg9RwD70rg+RZ9oYH6AqOoGTn2nQWU1jVNPzmU5mCrF2SzSY1VewznduuUZwrZtPU8oSlBjiYnQBbREpMA/8fofvtlH9M/XRsE6gSc6ahJ75qpedBTKyI7qklvp8n6g76zeimJClfeH1Z7PT7Pa51QegWkkW98N09r/G9mZ7du7GdEZ1Vl05gpd2qM81vk3aFD34PgqoqL3NwhaqUyQpY1+amrQhYY23U7ArZvR7TH7RAYGxwji2bnkHBYzHKxhy3ic8b6Oct3fNrHyYBs1Yz28Tnl/jzfIRYqFVWroC3e9aI2Ls+RtdCgDp6fgztOZcFqbW9AoiJrKA1RMH5dTOodkZAtSveHZz0fNdfEGAs0Ef2wMc9taTg/oAUM6Umtfp/t4uYXnIVvbsa9OqBZEdg7lwnG90DK/BFa6RCmpqrq/UKRZe4947z9mnXm1ZGpcDpIc0JdVi4Bhj7TD6vMU6qXC9BYwC0AACDkpJRgoAgC0NcKEAE8KqvWQgt9diXc3l0jICoG5noXq/r2Ckx4Jo2vamx18nOnlX4OzmzMBd/uXHsMvSalmMGeqrMwFa2BdefzY5jA41IYzsFP6rszGmO0T3+T69mlX0hxw5EZmCvMJeHjrXL2bcb2SS72xkEyUVfHOjnxN8jN7eq77xqWRFfpyGOFucaUT0HEApl4YmFVKr6Ob4nhqdCMEmeFVqSrhUT8okziRM9loJYETA5IoskTX5IacQqAJnzw05TdWQ7EhkQ+CCT1I4YwiVQX2Gug2M9ERGs+4sA/1lAdpRhE+zQNYl50JDVAgEppgt8yUfagSX4KYYaB5SMARVs5XTWsd2wWEPbQXNipiR+3xbd0TEuOTIbEuWYgtUNGAb7+7KRrVKbbPW0AbQ7Koc+7biui7ejAmBIBD9Yw2ZddZ7shT5jK2W+84/B8CZAeTuPKg7plEdYw4mAueB1OY8Tgoc9kOeqb6BYaGjYTBPKSmMphysdTsGimw8i9iFWmUpP10W8E2n+1HVHsSo6N55jBNkzjFbyW+NTDFXv5OpOiGc5jibnDQkGghpnj6CjnXe+xzW9QDHQMpF5aqw7LaPe3S9L32/t8He5x+oi/vo5r39TBwgjMh3inWPTu+jk/tIiRCVKR7LtDNzzBjRog7KVh5cewtDM9jnthi0//P8q0RHKpn2zInGH2YzZ3eT9/h+7fB+Hebu+8cyjsFcSzvvly7u17h9sykiDMkZk+76I40TAuMtIOE5OxrbdV+UIQAYkneZrLUQky/lHr4CuERHQ3ujBvUQGWXT4fvo+H2MsQOxK5IP8+I7vC8ZVyrWrv5ose+jy/vwtkfvLu8tSDQ/dD55JliVaz3LdkadnuoAiNWYNVpndnAQG6VoHuP5N5xObZfuBJRylFZx4GAE4kzgMuCwO/shbwWrGYMje+Wc/Ps86IHSp9TdJfGW1v6Ujv478QvUNKpv2uofsrzfq/1EDP4GYykuNZqHyEZSxYJL+sxD7OtliUl9hP9ZNG2NM8JEFeGhcERzw3TPZ8MTBgpInQR2km9j7MsiaQv5wRoZNcgeA7zXwXdqEZHqZYVVQIUownBxeenn+8hAD/De0V7UHSuZXnv43J+shuMwI6QO5wLqMqY6wOc2+4wB2NPb16gKQU5du3q/LBOEcYw1CID2gChJEoPcY/9gWtEKPa503lrPoBN+xn8+XSGaaulvX67z8FpW4eBcSVcd4E9vaxh6vmsaBqDzJ6cKqjDE2UQtmt6Myjh73X/ubx/LEldL4qdeX+HHf1tdvdehz8fLWJWjTXsM+xnWwBH3bo3Un4cXFSli6EBi48l/XWONNZwHWBlbOO1tv0s9S2v7iSZWOTcp8h8sP21iKb8Yy/51PAVHNrLNUn6WnP876gcx7GEfS2qUzBtaLJMxSy156xaqpKygHch53M2Nzfcz5Awkp0OZYwsIgRNqwAq7h91lhYHgKi1I42cVM2OuGsRMs87cQFTh/3YCCACarKRxf24mk9qMOaiZPzYwvPW7KZNpMsj3IWDr1PwzvN1dAQWrGIMmn5SpHIlo0ev0LB4CM5fhtnZJHOPtfwZvjoisAP2/X2yMDtxRePar28IMlrxamzJX7so+fpF31/V9WIE+nD60qX/QjIssVSyYe3x2nbkHORIA/ufy584Sx3VU81wqDhcoThL7Houv18/wsUH2dnnJbdiQkCYf9n5vS5cjyaobngMARRRUv8XFL3upkCiigMTG7KXYOvr+9jFwOQugkq7HcZKDite09H1ayVFeUiGQG9Ewtbdlzt9hmb8aVdc4G+vsxhL/ZWk94QQVcBGnEb1YelaKbbLMHf7MmXNjV8MQ54OVjAV4FADcpBWQlWSs4elQ85boeU9wPkbx94mfH+248wcbuHPC9zytiHjW78gm70ypCzaGceF/D3h9uetYZxJralr6UhBL8ps0Ey1oB//bUt57D37+85T5aUhZKmaskPp49/ySVQ7rfOjKHViBFchQN8sUDWIBDzaaAIi/a/qd4NSzU9vdYScgaw65l2vRVJMc47xB6gxG3HlvIdQkGqWJzvdrCiiXJ/7lj7HTjzfkpqwGrKqhVIByx7l1fQHbgEQ2ItQyIpJTJ+m84Mn9mpzlLVQuHOWPaPItpz0cN9OFrWXu2bruuN/IoC+adDAiqReX/M8Xuw3vibgdBepksK1LMxOuKRZNQ7xykf9qtPPuCCdnKp56rOdHyxMd9FZ1HsJgx5ZPTFHbWdGVrkiGf3NR3P2xfLcEf95KAGUiOlvd16fp6y4OsKPxXF1XAFp4ziH9q6A4YOmUlJbWXsutmoVvOnbfFERzZ/T7yEEM4qbangJW+d1PUrYN9+DnDaK7dPfeMxd97We29MhCzVybPfJkO9ORnvcoChwUzjAj3U62EwyWW2bb3MGqH7EPNau+k4s3VstIQjLSW4AF5mIn1a22eJnNmncMOY7yT8dIcNxLdkmm2IIy10SzpxnJK13WL4WzSe7/PTn/t09ADGsnXk5kumc6/yYxSXubhRB9akUUdO2mS9vmiAJaAC/q2YRlA4AQ0IPdyUsTTKpkTOK81FbBdQAoISNAETWIF519Dyu9DgnMTeOznjwoG5+0OPkUPrlLRWlZLLuxL3OsX58tsEUYknRzqgakPAvkI9HfG5+Y57DPx/sQYcgvp2hg2Ed6mKfYxumijjflCgAMeb3dv7dMuNlChGZXFbnLU2hitl77S4aZadEFiWeDVLrNrahSPaPWNnSacl4HgTNAa2ED5/2VrX2fPViXsM1esH4oqfn/odVnVIyYz2pX7FBaDAHMyJKRbPldszKqdVsPAcWjb57znh63q1JeQPkFM9cDUS4ipFPKoV5ddiJZ3m1K1jZWpo2yBwgAHuB8E9rRzgoa4orI/0q2iEIE9Tq0a47lU0hLbxJQo3ILwxDz5gkASjmAtTiKHaPfF6OtvfnWw87rheD0uSP1Zgf5H1wNogTVOhyH2dGsWZfThoBVRfJMMinnaWSc2gWzs2QOM35ueuJLdjs4UhDIyFH8DCyP7UAv1a2qok3gYdUV64eaYvGPWP7oK4Y4qL1ICxssEdfykHJurfGyJara1/D6Xlq39c7oAgp4jzOuTgH4hjH2zrZmwUiUDW335Lk4nU3MQHxjRgvtZsRx6EFhAQpQPnUQW2ptpFUhDNrGdiakUfaPHEX0ABJ6DHTvTyyYGmPDEsNd91jTyVZiPnoJfXhaDE1DlD11GW59BofWp6uK8k3GFb+dL9KFl8jgLpcoaDus0dQdq26/ZgYYZpjQ3QXRdGTkKH0ECQ4c3FnYTWF0P3iylJvXZPWJOMh+Tak93l724aoF4CNz6UYmzdEmB0PEytEBQ8Lxxcg1KcOpBBKbooODC4fuPLW4d1LqQ4uTXZ2hgViN4g6uKSottocz5A1d2jI/Z2T6JI7RgL3rQECFZTLm+yiipxZlvUgSVSJBQ2MkepCT7OWrAkyCm/7v0f99PBMK/zzgStaxDKwarjoqNa8VTIarvA7IIXEnc9m/iEXbAjLowu1zVEiC48Bu/nBOW+aapcr3rT/Q72r+qoMR54QLlwHunbaINeuZNM1uYRKasliZFhU6YkDDsUaOA+USfdBAiN8vMLWfJQ5wFycQANwiLdRvhnj+23A7uSMIqkP10/nr0zfWortDuzYFvthg97hYcHCtftPPfqfzNDN83DMopWccKsEIYN5m7vVGb5RCWHcuI4RbKrbqRyjk/Y0j2SFw23hsiHSKcHeED/DGgLyakJ2bGmI6moQ2a5yjFHBh284m7kIUeqD3z9D9JxxEHJcopPas+tjHl2l5bMrWDW8HK19lUXGOV0EOsk/QTiR4iz3/PMslEE6EozinVbau/+eMy6KtHHk2O6MeZ7VHiww3GcrfGxiFQACGZCMzbp5VdsYOvUp7epw+tIl/XpsQxlGKC1BVRlFiGGu/k3dCAeyJrZlVP2Sr8TtXYG9+wcjYPYuFHNIMhjnaI9t9v8WisH2AM5S3UpS8Aps41r6BW+hVrT9o/sFDjLu3ykRq33gl53lpIQrSQWuA/8M0MxKYqvGsAAkKVDlDcLoVIM0lA8ncpCee+jRf2SHRr/faKwB4KLBOxjUtSV82zZD+mxujWkz0651QbMZLcWdTUhmostYBQ/36SHheR3veX58YwKt2Z9WPbGKaSl6wKYSfecJqpogCUi0ZetYkkEw12P/Hes/lKHgEzbEc6LBuBbZS6GybeLCdfxqRQFYx2L8hxL/G7iJGqTqWlhYDATiAsEq2na9rQcPAgAhoZkeCvO28sEYBBy6C0hLTLuPtOtEOOfC/uykRsad7KhNcU5Dyj6z9KQOA4Sb4VZwFod0oNi93Dr+w9VHWKz+yBADNrtqZXJeAF3wLobBXZw0oIN7r9rdWdbzFcAzCqYDtdvCfgaPcW1CdSyXdM3f2wezIVbPVtCz05+3+Xqqtm1evwf94ap/Yr2KKqJGvIC286FGvPKJaJbN0Nc7u9cAWLD54eXPVMDOJg/iKmXXkVd8CD6BZiJpiz/ex0haRx7HOmxYwBIAwanABADbq9T6WS19DrQSwuuCAOCktZsVSjgcUIVVfHYiFKwUDAQElzYqwWJU7Myy0Z2DHQoM4vbrWkBGIv7cj2ATCZ8+rrYMYwIIqOJTraLKPcueb+UjAsQuiIxJhndG/Qblq1JwnP/Gl/qnL+IVxCxlqhdgFjf2nM/8WYoteiJXawpd4vVzdRSV7j62PCc77ykku2U5NTKbUPZai80urhOrO55v5HdwLtEMWr8PeHXLy9SBKs8PdmbYcFIY97vOuDzDO5WKBJoTGHCDKkB92vJ1t1LEWgODGRjUgM5O1gAEYWJbZV9aNIiL9rS1CPvXKh3MwRIRdpPxED+Ztr7lqZz6ZkwY21lR31qf+Z0EgobBtxObPlEvBtld/CqHK+ZKGXK6kSi1zlDrCRjXg5PF2M3kFVkqPNE7LAwpIK9a8os42K/p9Wv+rjsaozjt+qkm8s+H/gzYbceSHhtQXWnq9B6uKkplBW5ORztvKybFtcmrEbhrOMDOzQ1tGJDkM+j0EVMGNAm2sPbu5XyZvG+JU5zW0iOAdxL6PFYlHg+xRnncf/F8TttRjmyme99pVBNV7u8fRuSQcdQWwmUPsmg//ZhcuAqTi0NfbqABKtkn2/pWXbkbvb0AgaoojXZYNNedIlI9asOrmQczA1nR2MyBx5hICIfl3TtjPv8KAyQbTsTt3KOQCmaYzG91P0Yy5wlHoSFqQnRWOHqN0LdwAq3fSyf84vU/8WsaQJHNs6tHErRmjCUuZkbLmzW6ELz1M6M21WR67mCJqZj/pGdekDc1zJLOtESYNsFHQbGAy5mQME0aPPuRZfX6O+iA4mGhaXUy/vjbuuneB1jyj2wTDSj/QEPMWXgDkKCNtFtnskIP0NO11NpCixLmPClZx4aHPWx0KIA+Ospn3uvbFvl4xAI2wwxh+HP5473uG8o13SbLp+R7ztLQBYjsc3pQxhoBp3vZ9j2xLyJkADtRaAYe6ZiVhNXs2PhbDqto0M5N3qhtfIbtNVxBiLHCj4HSquPbjIsCDZs9ljH7uu8NCOCb7e4UxasZ9q2x7/q0ZJzvYGDXakoOjzBszlwSc/a0OonfmxVlRk3V3dvRfQYiDklVTqqzIyxzJHDOyVxym9dHJs/xXiLVHQ3yVUqN5iIJ57G0HMIfR1kCwCCpUHIHYK1u0h1h85nkUaCXu6S+4jDm5UDPssOzNcsaiLQvUA5MIZSZ6vgdFgO7zPuZfQ+oJNWiTYwQqhNy5WLNp5b30Yopf7wCYa+vEbWzo/ZI336aj+9LJe/Szj9SFaxobfYpSMJ79T7+5Ce7wxbrtX/q492srnTF/CAcsf9J6z6W7EatqN52qn7vpGKHlklnogP/jK6fNcUB53IMtQM8AqAenk9vdT1eWoaOzAztjg8DmVfMqmGhpRSvtjgmFR5EjrUaZE3B6t+06sjUFsv1xYE6fn+3+a8Yvg+ylekULs2ZymzxjdK9zom8d3KZNgPn513+lqP9Xayq02KAUUlYIEijPLTDXJbJZr++dUbqLMF9BKBOa6c9kr8KJKm7ynW3gDH3StjDW58GpVJyQydwkaBw8yIdqNnjQYADZ3K4tfxvxeNXj3b30XnbpXrpmceO88HDPr3UTDwWwTp/vtwXYIVJdzbOiuxroIX363Yc/v96dUg7gwH7u1z+n/Fl/TRmxSjPtcaZdp8f7xW+jyc6vjxKiy9T+77flICiqpZVztiI+OlHdGBqbjDjfg+qqm3seo9OB3DYgg3i/nfsDAwPRmWPe+Vsbqiesn71wHFdVWsvcBMYOOZsUSP1s10FF3VlHY6yF6GiOMyJgTdE7caABZvOZ2fbfT+JXh2xHoiYS1n5OtXWG/oKM6OU0e6IrmjXLgHFC1dbyCTggBZODlSYsVDO7yJ+uZSU4WyWPC4sId1evVPIUNwaAyEj3kM/Mq5kxv+zrHq62jrd2qhqgPuIGbmUTuh4QEwSTqe4tn2FRNfnoydD9vcc6gNRgQ+3h8o8pd8+9ZIWAtWTcsltQbGXSnfm8ACAEstE0dY5t5kVFH7uM2OHxWnK6OxMCIMqQipPdztDOF24csS8RtfOZDmcebBf326u86Wmf3/4yCuSDqe6eN34fjSpwIK91j39RR1NtwKrbrPgmbNUVEttJmQENFTLNWnC7LPlY264FuYNuVy9ni3JOSD97pJupO5sZGFsxcA3CEREx2I1GOqgIoCxcZ4trgttsAY6RLc7G2N645Ou6ZmHRIMrFBzlAalfyg6njncWx1CzO1Jy8qEATXzE87P+h0loVCICfIU84OJsEU4gSICjtgkImAwvwsZiCKrJzMa6z9WUgdhHR8lAW667J9i5DX8pX+I0CCsC/DOoJYMpeHvOuJ3AxwDv7B549qIVAYIor7vlKc8ED19ej1mVKQixDsGkeyJwqufvJdBCH3Xu5oITSLSloFocsTw/+NqpoCMFNnaILYMiqGz/jszhVLpmSBwaONxVgWnPO5f6ZG7fAnYZ61P3glLO7sniRZN1pfPhYyokaMCJS9t8NufR6APzftQGJ2QCBQhFRrQqrmb8/QjjgoJkzzNkBNiq3g8TBAOEFAJSlwyrCCTwUAFBWRQPc5YQFZOTexvw5voIG7ATA3fORojaF2HV0JuaMUONsDzAXdE4ImUEBzxAAYIhIIXVuRsSiT/QOEUETZU+kXhEJLxpW0ynACTOwVQ6pyiGqAICVNNb3ZTgzEMjX4igAggXxBop7XgaAHBInYWMKrsATvUNE1lp49ldYZJ9F4FcQsedZB/6+2MsBb60XqALRuWcmxp2+/u51GhQeSdiIefGTGRG3FulNFNWzqyWeQeT2OfBQz6mcnn+OzrXOqhUWM3lhTjP/GR8u+WwdVn1aOMSVUJl9MBEEIvHqelGOMEIN2dLkFwGBCN7s+OTiz3qmb3DFSf8/x6H7bfpMteM4789EO253ASjs8QyoXXx1roaKSH2EfUBtjUffh3BO8oJoRT2srggRvQ1I7Yw4SYOqpILfz6CKgcN2cuUQk28Xo62CNdjCGK6EoBLzbmRE8GBFZF9dTeWPgue4GSuFOoYf6lQ6KUR2Wf3URpKQpE7mmVuv4asNX6ZBbELPA7AoDPEMYJRqYSX7j8ZqSA1iEDRw4M6mQR3ljw4kDK6GgIAkeUEn2WhV9ZdTiPDEXQNbQNjp1xfaf+NcriycVZZ/8c7PdBTFmx6ZCc90IGvSIS/MFSeNpNFyC/XBgXIArjoUnxOFVechEAJTQ+jP/9r/2v/a/9r/2v/a/9r/rl2SxhgPSH0eIy1kqDRGuZD5chC6hMHog2S+MsQgCTFD9MEoEzLfuIpB5SFmKASjhJD5SgXjQsQMHXNl5FrlPa+VQWEVM+l0KOxKJO/tSoDQCYJVzIDKxGj1ZD2vBDHIzhC0RFYGircNWe/awKQwiZo2wpXROgaS8y72+RnpNlEDqiMDoxmejOcVbwfApGaEsG37NkZuG7dDnnxXjrZxO+Ax0gQ3cYPbZMA7Vk+284ZeD3hgPg4EbhvBhQHvWMuUXOedoQcm2VuzyAFdm+c0A96Q68auKJnuIUdLZcBM0zhC6Cao8+2LGcCrznU71FvJchc7/PqMMgthUpdjWuwgTcMpDHi91o2VDEXtNFUEpDfvYUqEh3AJTm0Qvc1UjmEAHlAoiqgTuP3r7ilktV6bJiW8n8sgfLIjwRfEb/NLhyPf/xvBGSK4mTJf0rIe2UYzTs0Qw2s/BtKQ8zZF7S4NYZymgykt330xDReCGUKZnDPRu2xHcqNjXiCa01TOx56W5774Xol5g4hOE3xQx/HYSV+pFAkuTbBQM68dwroN9A+JHqGQTWQLqCaSJ1mN4AGSSsygP6nQ/tf+n7Jv;" vertex="1" parent="1">
          <mxGeometry x="317" y="513" width="192.47" height="144" as="geometry" />
        </mxCell>
        <mxCell id="Jq-mPfwN_62_-WVwa9c7-49" value="" style="group" vertex="1" connectable="0" parent="1">
          <mxGeometry x="480" y="488" width="47.379999999999995" height="40" as="geometry" />
        </mxCell>
        <mxCell id="Jq-mPfwN_62_-WVwa9c7-43" value="" style="shape=image;html=1;verticalAlign=top;verticalLabelPosition=bottom;labelBackgroundColor=#ffffff;imageAspect=0;aspect=fixed;image=https://cdn1.iconfinder.com/data/icons/ui-essential-17/32/UI_Essential_Outline_2_essential-app-ui-eye-watch-opened-public-128.png" vertex="1" parent="Jq-mPfwN_62_-WVwa9c7-49">
          <mxGeometry width="40" height="40" as="geometry" />
        </mxCell>
        <mxCell id="Jq-mPfwN_62_-WVwa9c7-47" value="" style="html=1;verticalLabelPosition=bottom;align=center;labelBackgroundColor=#ffffff;verticalAlign=top;strokeWidth=2;strokeColor=#0080F0;shadow=0;dashed=0;shape=mxgraph.ios7.icons.alarm_clock;" vertex="1" parent="Jq-mPfwN_62_-WVwa9c7-49">
          <mxGeometry x="29.379999999999995" y="20" width="18" height="20" as="geometry" />
        </mxCell>
        <mxCell id="Jq-mPfwN_62_-WVwa9c7-50" value="" style="group" vertex="1" connectable="0" parent="1">
          <mxGeometry x="792.47" y="470" width="47.379999999999995" height="40" as="geometry" />
        </mxCell>
        <mxCell id="Jq-mPfwN_62_-WVwa9c7-51" value="" style="shape=image;html=1;verticalAlign=top;verticalLabelPosition=bottom;labelBackgroundColor=#ffffff;imageAspect=0;aspect=fixed;image=https://cdn1.iconfinder.com/data/icons/ui-essential-17/32/UI_Essential_Outline_2_essential-app-ui-eye-watch-opened-public-128.png" vertex="1" parent="Jq-mPfwN_62_-WVwa9c7-50">
          <mxGeometry width="40" height="40" as="geometry" />
        </mxCell>
        <mxCell id="Jq-mPfwN_62_-WVwa9c7-52" value="" style="html=1;verticalLabelPosition=bottom;align=center;labelBackgroundColor=#ffffff;verticalAlign=top;strokeWidth=2;strokeColor=#0080F0;shadow=0;dashed=0;shape=mxgraph.ios7.icons.alarm_clock;" vertex="1" parent="Jq-mPfwN_62_-WVwa9c7-50">
          <mxGeometry x="29.379999999999995" y="20" width="18" height="20" as="geometry" />
        </mxCell>
        <mxCell id="Jq-mPfwN_62_-WVwa9c7-53" value="For Code Review" style="text;html=1;align=center;verticalAlign=middle;whiteSpace=wrap;rounded=0;fontStyle=2;fontColor=#666666;" vertex="1" parent="1">
          <mxGeometry x="509.47" y="528" width="110" height="30" as="geometry" />
        </mxCell>
        <mxCell id="Jq-mPfwN_62_-WVwa9c7-54" value="Code Review&lt;div&gt;(when merge request)&lt;/div&gt;" style="text;html=1;align=center;verticalAlign=middle;whiteSpace=wrap;rounded=0;fontStyle=2;fontColor=#666666;" vertex="1" parent="1">
          <mxGeometry x="354" y="140" width="150" height="30" as="geometry" />
        </mxCell>
        <mxCell id="Jq-mPfwN_62_-WVwa9c7-55" value="" style="group;fontColor=#6D8AFF;" vertex="1" connectable="0" parent="1">
          <mxGeometry x="350" y="120" width="47.379999999999995" height="40" as="geometry" />
        </mxCell>
        <mxCell id="Jq-mPfwN_62_-WVwa9c7-56" value="" style="shape=image;html=1;verticalAlign=top;verticalLabelPosition=bottom;labelBackgroundColor=#ffffff;imageAspect=0;aspect=fixed;image=https://cdn1.iconfinder.com/data/icons/ui-essential-17/32/UI_Essential_Outline_2_essential-app-ui-eye-watch-opened-public-128.png;strokeColor=#808080;" vertex="1" parent="Jq-mPfwN_62_-WVwa9c7-55">
          <mxGeometry width="40" height="40" as="geometry" />
        </mxCell>
        <mxCell id="Jq-mPfwN_62_-WVwa9c7-58" value="" style="endArrow=none;dashed=1;html=1;dashPattern=1 3;strokeWidth=2;rounded=0;" edge="1" parent="1" source="Jq-mPfwN_62_-WVwa9c7-2">
          <mxGeometry width="50" height="50" relative="1" as="geometry">
            <mxPoint x="317" y="207.19" as="sourcePoint" />
            <mxPoint x="367" y="157.19" as="targetPoint" />
          </mxGeometry>
        </mxCell>
        <mxCell id="Jq-mPfwN_62_-WVwa9c7-59" value="For Monitor and Alert" style="text;html=1;align=center;verticalAlign=middle;whiteSpace=wrap;rounded=0;fontStyle=2;fontColor=#666666;" vertex="1" parent="1">
          <mxGeometry x="820" y="518.25" width="88.36" height="30" as="geometry" />
        </mxCell>
      </root>
    </mxGraphModel>
  </diagram>
</mxfile>
